<svg width="100" height="129" viewBox="0 0 100 129" fill="none" xmlns="http://www.w3.org/2000/svg">
<path d="M15.6143 117H16.7261C18.2891 117 19.1431 116.361 19.1431 114.835V109.411H17.478V114.508C17.478 115.362 17.145 115.593 16.3716 115.593H15.6143V117Z" fill="#569B51"/>
<path d="M25.7012 117H27.5005L24.8579 109.411H22.645L20.0024 117H21.8018L22.3711 115.201H25.1318L25.7012 117ZM22.7954 113.863L23.73 110.925H23.7729L24.7075 113.863H22.7954Z" fill="#569B51"/>
<path d="M29.8745 117H32.0874L34.73 109.411H32.9307L31.0024 115.501H30.9595L29.0312 109.411H27.2319L29.8745 117Z" fill="#569B51"/>
<path d="M40.1602 117H41.9595L39.3169 109.411H37.104L34.4614 117H36.2607L36.8301 115.201H39.5908L40.1602 117ZM37.2544 113.863L38.189 110.925H38.2319L39.1665 113.863H37.2544Z" fill="#569B51"/>
<path d="M48.147 117.086C50.0645 117.086 51.0796 116.092 51.0796 114.653C51.0796 112.95 49.6616 112.623 48.4692 112.359C47.6045 112.161 46.8579 111.994 46.8579 111.35C46.8579 110.834 47.2661 110.522 47.959 110.522C48.6787 110.522 49.1729 110.872 49.189 111.624H50.7788C50.7627 109.765 49.1353 109.298 47.9375 109.298C46.3423 109.298 45.2305 110.109 45.2305 111.575C45.2305 113.079 46.4712 113.423 47.5938 113.691C48.5337 113.912 49.4038 114.089 49.4038 114.868C49.4038 115.448 48.9419 115.77 48.1953 115.77C47.395 115.77 46.772 115.394 46.7397 114.438H45.1016C45.1016 116.522 46.6968 117.086 48.147 117.086Z" fill="#569B51"/>
<path d="M55.5215 117.107C57.5088 117.107 58.8408 116.055 58.9858 114.003H57.3154C57.2349 115.077 56.5796 115.689 55.5215 115.689C54.2217 115.689 53.5825 114.728 53.5825 113.203C53.5825 111.683 54.2217 110.721 55.5215 110.721C56.5796 110.721 57.2349 111.333 57.3154 112.408H58.9858C58.8408 110.356 57.5088 109.298 55.5215 109.298C53.2925 109.298 51.9282 110.673 51.9282 113.203C51.9282 115.738 53.2925 117.107 55.5215 117.107Z" fill="#569B51"/>
<path d="M66.2529 115.088C66.1025 114.234 65.8125 113.697 65.1089 113.477C66.0273 113.246 66.4785 112.698 66.4785 111.65C66.4785 110.249 65.5493 109.411 63.75 109.411H60.2319V117.011H61.8916V113.847H62.5576C64.1743 113.847 64.416 114.067 64.604 115.222L64.8994 117H66.5913L66.2529 115.088ZM61.9023 110.818H63.7446C64.4644 110.818 64.8135 111.146 64.8135 111.688C64.8135 112.198 64.4966 112.569 63.8037 112.569H61.9023V110.818Z" fill="#569B51"/>
<path d="M67.9126 117H69.5776V109.411H67.9126V117Z" fill="#569B51"/>
<path d="M71.3071 117H72.9668V114.39H75.1475C76.7856 114.39 77.7578 113.471 77.7578 111.946C77.7578 110.42 76.791 109.411 75.1475 109.411H71.3071V117ZM72.9668 112.982V110.818H74.8789C75.7275 110.818 76.1035 111.205 76.1035 111.897C76.1035 112.574 75.7437 112.982 74.8789 112.982H72.9668Z" fill="#569B51"/>
<path d="M80.4434 117H82.1084V110.812H84.3857V109.411H78.1768V110.812H80.4434V117Z" fill="#569B51"/>
<path fill-rule="evenodd" clip-rule="evenodd" d="M75 25H25V75H75V25ZM41.973 64.468L38.1469 66.7836C39.2545 69.133 41.4361 71.0793 45.1949 71.0793C49.357 71.0793 52.2098 68.8641 52.2098 63.9975V47.9549H47.5111V63.9311C47.5111 66.2803 46.5375 66.8842 44.9935 66.8842C43.3828 66.8842 42.7113 65.7768 41.973 64.468ZM58.5877 64.0651L54.7619 66.2801C56.1379 68.9989 58.957 71.0799 63.3201 71.0799C67.784 71.0799 71.1066 68.7643 71.1066 64.535C71.1066 60.6084 68.858 58.8633 64.8638 57.1514L63.6892 56.6481C61.6756 55.7754 60.8029 55.2045 60.8029 53.7949C60.8029 52.6539 61.6756 51.7813 63.0517 51.7813C64.3943 51.7813 65.2666 52.3518 66.0723 53.7949L69.7308 51.4453C68.1871 48.7268 66.039 47.6862 63.0519 47.6862C58.8564 47.6862 56.1715 50.3713 56.1715 53.8955C56.1715 57.7217 58.4201 59.5342 61.8101 60.977L62.9846 61.4809C65.1326 62.4203 66.408 62.991 66.408 64.602C66.408 65.9446 65.1666 66.918 63.2195 66.918C60.9039 66.918 59.5949 65.7098 58.5877 64.0651Z" fill="#569B51"/>
</svg>
