<svg width="100" height="129" viewBox="0 0 100 129" fill="none" xmlns="http://www.w3.org/2000/svg">
<path d="M39.0806 117H40.7402V114.39H42.9209C44.5591 114.39 45.5312 113.471 45.5312 111.946C45.5312 110.42 44.5645 109.411 42.9209 109.411H39.0806V117ZM40.7402 112.982V110.818H42.6523C43.501 110.818 43.877 111.205 43.877 111.897C43.877 112.574 43.5171 112.982 42.6523 112.982H40.7402Z" fill="#569B51"/>
<path d="M46.6538 117H48.3188V113.896H51.6704V117H53.3354V109.411H51.6704V112.499H48.3188V109.411H46.6538V117Z" fill="#569B51"/>
<path d="M55.0649 117H56.7246V114.39H58.9053C60.5435 114.39 61.5156 113.471 61.5156 111.946C61.5156 110.42 60.5488 109.411 58.9053 109.411H55.0649V117ZM56.7246 112.982V110.818H58.6367C59.4854 110.818 59.8613 111.205 59.8613 111.897C59.8613 112.574 59.5015 112.982 58.6367 112.982H56.7246Z" fill="#569B51"/>
<path d="M33.5 45.3026L32.3698 52.0133H35.0822C37.1164 51.7895 38.9247 51.1185 39.1505 47.3157C39.1505 45.9736 38.0205 45.3026 36.4383 45.3026H33.5Z" fill="#569B51"/>
<path d="M63.7876 45.3026L62.6573 52.0133H65.37C67.4042 51.7895 69.2125 51.1185 69.4383 47.3157C69.4383 45.9736 68.3083 45.3026 66.7261 45.3026H63.7876Z" fill="#569B51"/>
<path fill-rule="evenodd" clip-rule="evenodd" d="M83 50C83 59.3888 68.2254 67 50 67C31.7746 67 17 59.3888 17 50C17 40.6112 31.7746 33 50 33C68.2254 33 83 40.6112 83 50ZM29.8837 41.9473L26.2671 60.0658H30.5617L31.4659 55.3684H35.5339C39.3766 55.5922 43.671 52.4606 43.671 47.0922C43.671 43.9603 41.8627 42.171 38.2464 41.9473H29.8837ZM46.4471 37.2501L42.8308 55.3684H47.1254L49.1596 45.3026H52.5501C54.132 45.3026 54.132 45.9736 53.9062 47.0922L52.324 55.3684H56.8444L58.4266 46.1974C58.8786 43.9603 57.5225 42.171 53.9059 41.9473H49.8376L50.7418 37.2501H46.4471ZM60.1712 41.9473L56.5549 60.0658H60.8493L61.7535 55.3684H65.822C69.6644 55.5922 73.9591 52.4606 73.9591 47.0922C73.9591 43.9603 72.1508 42.171 68.5342 41.9473H60.1712Z" fill="#569B51"/>
</svg>
