<svg width="100" height="129" viewBox="0 0 100 129" fill="none" xmlns="http://www.w3.org/2000/svg">
<path d="M40.4287 115.088C40.2783 114.234 39.9883 113.697 39.2847 113.477C40.2031 113.246 40.6543 112.698 40.6543 111.65C40.6543 110.249 39.7251 109.411 37.9258 109.411H34.4077V117.011H36.0674V113.847H36.7334C38.3501 113.847 38.5918 114.067 38.7798 115.222L39.0752 117H40.7671L40.4287 115.088ZM36.0781 110.818H37.9204C38.6401 110.818 38.9893 111.146 38.9893 111.688C38.9893 112.198 38.6724 112.569 37.9795 112.569H36.0781V110.818Z" fill="#569B51"/>
<path d="M42.0884 117H47.9268V115.593H43.7534V113.901H47.3843V112.494H43.7534V110.818H47.6689V109.411H42.0884V117Z" fill="#569B51"/>
<path d="M49.189 117H52.1001C54.7266 117 55.9136 115.63 55.9136 113.235C55.9136 110.834 54.7803 109.411 52.1108 109.411H49.189V117ZM50.854 115.577V110.829H52.0894C53.7061 110.829 54.2646 111.693 54.2646 113.181C54.2646 114.728 53.6577 115.577 51.9658 115.577H50.854Z" fill="#569B51"/>
<path d="M57.1812 117H58.8462V109.411H57.1812V117Z" fill="#569B51"/>
<path d="M63.1538 117.086C65.0713 117.086 66.0864 116.092 66.0864 114.653C66.0864 112.95 64.6685 112.623 63.4761 112.359C62.6113 112.161 61.8647 111.994 61.8647 111.35C61.8647 110.834 62.2729 110.522 62.9658 110.522C63.6855 110.522 64.1797 110.872 64.1958 111.624H65.7856C65.7695 109.765 64.1421 109.298 62.9443 109.298C61.3491 109.298 60.2373 110.109 60.2373 111.575C60.2373 113.079 61.478 113.423 62.6006 113.691C63.5405 113.912 64.4106 114.089 64.4106 114.868C64.4106 115.448 63.9487 115.77 63.2021 115.77C62.4019 115.77 61.7788 115.394 61.7466 114.438H60.1084C60.1084 116.522 61.7036 117.086 63.1538 117.086Z" fill="#569B51"/>
<path fill-rule="evenodd" clip-rule="evenodd" d="M25.0002 37.7466C25.0067 37.2276 25.6438 36.7384 26.919 36.212L27.6257 35.9202C31.4944 34.3225 44.3647 29.0077 47.2422 27.9194C50.3336 26.7503 51.4061 26.7083 54.0369 27.7242C55.3569 28.234 59.4732 29.9388 63.5759 31.6381C67.6505 33.3258 71.7122 35.008 73.0076 35.5083C74.3286 36.0181 75.0044 36.4826 75 37.0083M61.1905 34.2905L67.9944 37.1245L61.1963 39.9558L60.4583 40.2602L53.6631 37.4291L61.1905 34.2905ZM56.1099 33.6232L51.8111 34.0936L50.8488 36.5343L49.2945 33.8107L44.3306 33.3405L48.0345 31.9326L46.9232 29.7714L50.391 31.2009L53.6601 30.0728L52.7765 32.3075L56.1099 33.6232ZM39.4691 34.9798C42.8627 34.9798 45.6136 36.1039 45.6136 37.4902C45.6136 38.8769 42.8627 40.0007 39.4691 40.0007C36.0756 40.0007 33.3246 38.8767 33.3246 37.4902C33.3246 36.1039 36.0756 34.9798 39.4691 34.9798Z" fill="#569B51"/>
<path fill-rule="evenodd" clip-rule="evenodd" d="M25.0002 37.7466L25 43.0744C25 43.6059 25.6965 44.1686 27.0207 44.8362C28.3889 45.5252 32.9724 47.5285 37.4061 49.4662C41.5589 51.2813 45.5805 53.0389 46.7049 53.6051C49.0297 54.7765 50.6644 54.7924 53.6072 53.1755C55.1161 52.346 59.4855 50.3668 63.7449 48.4374C67.7925 46.6039 71.7409 44.8154 73.041 44.1012C74.3992 43.355 74.9992 42.7773 74.9988 42.2513L75 37.0083M50.5921 45.4643L42.5693 41.9569L54.0654 40.0969L50.5921 45.4643Z" fill="#569B51"/>
<path d="M73.04 47.7447C71.7396 48.4591 67.7897 50.2482 63.7411 52.082C59.4829 54.0108 55.1153 55.9891 53.6068 56.8183C50.6642 58.4352 49.0294 58.4193 46.7048 57.2479C45.5811 56.6821 41.5642 54.9265 37.4142 53.1127L37.4132 53.1123L37.4121 53.1118C32.9768 51.1732 28.39 49.1685 27.0212 48.4792C25.6767 47.8019 25.0002 47.2317 25 46.6939V52.0133C25 52.5455 25.6965 53.1079 27.0207 53.7749C28.3901 54.4648 32.9802 56.471 37.4173 58.4103C41.5663 60.2236 45.5815 61.9785 46.7049 62.5443C49.0297 63.7156 50.6644 63.7313 53.6072 62.1146C55.1156 61.2854 59.4822 59.3075 63.7401 57.3788C67.7894 55.5447 71.7403 53.7551 73.041 53.0404C74.3992 52.2943 74.9992 51.7166 74.9988 51.1902L75 45.9379C75.0036 46.4497 74.361 47.019 73.04 47.7447Z" fill="#569B51"/>
<path d="M73.04 56.3643C71.7394 57.0786 67.7885 58.8681 63.7393 60.7022L63.7386 60.7025C59.4811 62.631 55.115 64.6086 53.6068 65.4373C50.6642 67.0548 49.0294 67.0389 46.7048 65.8676C45.5806 65.3015 41.5604 63.5444 37.4083 61.7297C32.9742 59.7916 28.3896 57.7878 27.0212 57.0988C25.6767 56.4213 25.0002 55.8511 25 55.3133V60.632C25 61.1639 25.6965 61.7272 27.0207 62.3942C28.3886 63.0834 32.9701 65.0857 37.4027 67.0229L37.404 67.0235C41.5575 68.8388 45.5804 70.5969 46.7049 71.1636C49.0297 72.335 50.6644 72.3506 53.6072 70.7333C55.1151 69.9047 59.4793 67.9279 63.7358 65.9999L63.7367 65.9996C67.7871 64.1649 71.74 62.3745 73.041 61.6597C74.3992 60.9136 74.9992 60.3359 74.9988 59.8093L75 54.5576C75.0036 55.0694 74.361 55.6386 73.04 56.3643Z" fill="#569B51"/>
</svg>
