<svg width="100" height="129" viewBox="0 0 100 129" fill="none" xmlns="http://www.w3.org/2000/svg">
<path d="M16.8604 117H18.5254V110.812H20.8027V109.411H14.5938V110.812H16.8604V117Z" fill="#569B51"/>
<path d="M23.8535 117H25.5186V114.046L28.3652 109.411H26.4907L24.7183 112.59L22.8813 109.411H21.0068L23.8535 114.046V117Z" fill="#569B51"/>
<path d="M29.2622 117H30.9219V114.39H33.1025C34.7407 114.39 35.7129 113.471 35.7129 111.946C35.7129 110.42 34.7461 109.411 33.1025 109.411H29.2622V117ZM30.9219 112.982V110.818H32.834C33.6826 110.818 34.0586 111.205 34.0586 111.897C34.0586 112.574 33.6987 112.982 32.834 112.982H30.9219Z" fill="#569B51"/>
<path d="M36.8354 117H42.6738V115.593H38.5005V113.901H42.1313V112.494H38.5005V110.818H42.416V109.411H36.8354V117Z" fill="#569B51"/>
<path d="M49.1567 117.086C51.0742 117.086 52.0894 116.092 52.0894 114.653C52.0894 112.95 50.6714 112.623 49.479 112.359C48.6143 112.161 47.8677 111.994 47.8677 111.35C47.8677 110.834 48.2759 110.522 48.9688 110.522C49.6885 110.522 50.1826 110.872 50.1987 111.624H51.7886C51.7725 109.765 50.145 109.298 48.9473 109.298C47.3521 109.298 46.2402 110.109 46.2402 111.575C46.2402 113.079 47.481 113.423 48.6035 113.691C49.5435 113.912 50.4136 114.089 50.4136 114.868C50.4136 115.448 49.9517 115.77 49.2051 115.77C48.4048 115.77 47.7817 115.394 47.7495 114.438H46.1113C46.1113 116.522 47.7065 117.086 49.1567 117.086Z" fill="#569B51"/>
<path d="M56.5312 117.107C58.5186 117.107 59.8506 116.055 59.9956 114.003H58.3252C58.2446 115.077 57.5894 115.689 56.5312 115.689C55.2314 115.689 54.5923 114.728 54.5923 113.203C54.5923 111.683 55.2314 110.721 56.5312 110.721C57.5894 110.721 58.2446 111.333 58.3252 112.408H59.9956C59.8506 110.356 58.5186 109.298 56.5312 109.298C54.3022 109.298 52.938 110.673 52.938 113.203C52.938 115.738 54.3022 117.107 56.5312 117.107Z" fill="#569B51"/>
<path d="M67.2627 115.088C67.1123 114.234 66.8223 113.697 66.1187 113.477C67.0371 113.246 67.4883 112.698 67.4883 111.65C67.4883 110.249 66.5591 109.411 64.7598 109.411H61.2417V117.011H62.9014V113.847H63.5674C65.1841 113.847 65.4258 114.067 65.6138 115.222L65.9092 117H67.6011L67.2627 115.088ZM62.9121 110.818H64.7544C65.4741 110.818 65.8232 111.146 65.8232 111.688C65.8232 112.198 65.5063 112.569 64.8135 112.569H62.9121V110.818Z" fill="#569B51"/>
<path d="M68.9224 117H70.5874V109.411H68.9224V117Z" fill="#569B51"/>
<path d="M72.3169 117H73.9766V114.39H76.1572C77.7954 114.39 78.7676 113.471 78.7676 111.946C78.7676 110.42 77.8008 109.411 76.1572 109.411H72.3169V117ZM73.9766 112.982V110.818H75.8887C76.7373 110.818 77.1133 111.205 77.1133 111.897C77.1133 112.574 76.7534 112.982 75.8887 112.982H73.9766Z" fill="#569B51"/>
<path d="M81.4531 117H83.1182V110.812H85.3955V109.411H79.1865V110.812H81.4531V117Z" fill="#569B51"/>
<path fill-rule="evenodd" clip-rule="evenodd" d="M25 25V75H75V25H25ZM35.9625 52.125V50.0875L36 50.1V48.05L44.75 48.0125C49.5625 48.0125 53.525 48.025 53.525 48.0625C53.575 48.0875 53.575 49 53.575 50.125V52.125H47.075V70.6251H42.4625V52.125H35.9625ZM68.3 49.7875C67.425 48.875 66.45 48.3 65.175 48L65.2 47.975C64.3375 47.75 62.275 47.675 61.4 47.85C58.7 48.35 56.8125 50.1 56.275 52.6C56.1 53.3125 56.1625 55.0876 56.35 55.8126C56.6 56.6501 57.1375 57.6626 57.725 58.3126C58.75 59.3876 59.85 60.0876 62.4375 61.1876C64.6875 62.1876 65.4875 62.6376 65.8875 63.1876C66.175 63.6251 66.2625 63.8876 66.2625 64.4626C66.2625 65.0876 66.0625 65.5376 65.6 65.9626C64.525 66.9376 62.35 67.0501 60.725 66.2126C60.1875 65.9126 59.2625 65.0376 58.85 64.3876L58.525 63.9501L57.1125 64.7751L55.2375 65.8626L54.7625 66.1626C54.7125 66.2501 55.6 67.5876 56.0625 68.0876C57.2375 69.3751 59.15 70.3751 61.15 70.7501C62.0875 70.9126 64.0875 70.9376 64.9625 70.7876C67.75 70.3251 69.7 68.9126 70.5 66.8251C71.2125 64.9126 70.975 62.3626 69.9125 60.7376C68.975 59.2876 67.425 58.2751 63.85 56.7376C61.9125 55.8876 61.2875 55.475 60.95 54.7875C60.8 54.4625 60.725 54.2375 60.725 53.8375C60.725 52.525 61.725 51.7375 63.225 51.8375C64.2625 51.9125 64.925 52.3125 65.575 53.2375C65.775 53.5625 65.975 53.775 66.025 53.7375C67.3375 52.925 69.5 51.4625 69.5 51.3875C69.45 51.1625 68.7625 50.2875 68.3 49.7875Z" fill="#569B51"/>
</svg>
