<svg width="100" height="129" viewBox="0 0 100 129" fill="none" xmlns="http://www.w3.org/2000/svg">
<path fill-rule="evenodd" clip-rule="evenodd" d="M19.4413 52.1388C26.2445 45.3357 32.1055 41.7544 37.439 39.7283C39.6122 38.7903 42.1284 38.0428 44.8675 37.5591C45.4808 36.9909 45.6226 35.4848 45.6226 35.4848C45.6226 35.4848 45.7463 37.019 46.4145 37.217C47.0595 37.4081 47.8892 34.9927 47.9457 34.8257C47.8993 34.9646 47.3455 36.6592 47.7345 37.1601C47.9697 37.1359 48.2061 37.1136 48.4436 37.0933L48.5095 37.0878C49.2911 36.5249 50.2254 35.0146 50.2254 35.0146C50.2254 35.0146 49.8167 36.4278 49.9033 36.9944C50.0728 36.986 50.2417 36.9786 50.4101 36.9724C51.122 36.2538 52.4277 34.2227 52.4277 34.2227C52.4277 34.2227 51.2399 36.2766 52.3535 36.4993C53.4918 36.6973 55.1498 35.0888 55.1498 35.0888C55.1498 35.0888 53.863 36.5488 54.4322 36.7716C56.9068 37.6377 58.8865 34.4454 58.8865 34.4454C58.8865 34.4454 58.4271 35.8235 57.2694 37.337C57.521 37.3752 57.7699 37.4161 58.016 37.4597C60.2074 37.2874 61.757 34.1485 61.757 34.1485L59.9232 37.8631C60.096 37.906 60.267 37.9503 60.4362 37.996C61.9079 37.3498 64.8255 34 64.8255 34C64.8255 34 62.7748 37.5826 61.5619 38.3288C61.632 38.3514 61.7017 38.3743 61.7711 38.3974C62.6283 38.4451 64.6275 36.6726 64.6275 36.6726C64.6275 36.6726 63.2949 38.3299 63.2701 38.9613C63.4985 39.0578 63.7215 39.1574 63.9389 39.26C65.3969 38.8551 68.4384 34.7424 68.4384 34.7424C68.4384 34.7424 67.0773 37.4863 65.0615 39.8449C65.3071 39.9863 65.5434 40.132 65.7699 40.2821C67.9523 39.4229 71.2347 35.2126 71.2347 35.2126C71.2347 35.2126 71.111 37.1427 67.696 40.2112C70.2201 39.8895 73.4866 35.0888 73.4866 35.0888C73.4866 35.0888 72.2988 38.677 69.4282 41.2258C71.9028 40.9784 75.887 34.8414 75.887 34.8414C75.887 34.8414 74.3527 39.0977 71.2347 41.5723C74.6991 42.3394 79.6978 37.1675 79.6978 37.1675C79.6978 37.1675 77.7429 40.8299 75.1693 42.3394C78.0399 43.4282 81.9745 38.8997 81.9745 38.8997C81.9745 38.8997 78.0399 44.9625 71.7791 44.6903C71.2326 44.6639 70.3917 44.2101 69.2011 43.5674L69.1999 43.5668C69.0179 43.4686 68.8277 43.3659 68.6291 43.2597C68.95 43.8777 69.1468 44.5295 69.2055 45.21C69.2713 45.9686 69.1607 46.7223 68.8915 47.4602C69.1631 47.0463 69.4166 46.6179 69.6511 46.175C70.6162 43.5519 74.5508 46.7689 74.5508 46.7689C74.5508 46.7689 71.6802 45.5811 71.7545 46.1255C71.8287 46.6947 76.0603 48.6496 76.0603 48.6496C76.0603 48.6496 72.2246 47.4618 72.4721 48.3527C72.6948 49.2435 77.2728 52.8564 77.2728 52.8564C77.2728 52.8564 72.1009 48.9218 71.6802 49.4662C71.2595 50.0106 73.8826 52.1635 73.8826 52.1635C73.8826 52.1635 69.5273 49.4662 67.9931 50.2581C67.2679 50.6287 69.4076 52.3216 70.9884 53.4574C69.8763 52.7573 68.4845 52.0392 67.9931 52.4605C67.127 53.2029 72.1257 59.1914 72.1257 59.1914C72.1257 59.1914 66.4588 53.0544 65.8897 53.3513C65.3205 53.6483 67.4487 56.5931 67.4487 56.5931C67.4487 56.5931 64.6276 53.5493 63.8605 54.069C63.0934 54.6134 67.8446 62.5569 67.8446 62.5569C67.8446 62.5569 62.6727 54.3907 60.5445 55.7517C63.91 63.126 62.6479 64.1653 62.6479 64.1653C62.6479 64.1653 62.2273 56.6673 58.0452 56.8653C55.9418 56.9643 59.035 62.4579 59.035 62.4579C59.035 62.4579 56.214 57.4592 54.3085 57.5582C57.7977 64.1901 56.5604 66.8627 56.5604 66.8627C56.5604 66.8627 57.1296 61.1958 52.4031 58.0531C54.2096 59.6616 51.2648 66.8627 51.2648 66.8627C51.2648 66.8627 53.8384 56.2466 49.3593 58.2758C48.6417 58.5975 49.3098 63.5714 49.3098 63.5714C49.3098 63.5714 48.419 57.8799 47.058 58.1768C46.2661 58.35 42.0593 66.0708 42.0593 66.0708C42.0593 66.0708 45.499 57.7314 44.4596 58.0778C43.6925 58.3253 42.2572 61.765 42.2572 61.765C42.2572 61.765 42.9501 58.3748 42.2572 58.1768C41.5643 57.9788 37.6545 61.765 37.6545 61.765C37.6545 61.765 40.5498 58.3748 40.0548 57.6571C39.2877 56.5931 38.4216 56.5436 37.3575 56.9643C35.8233 57.5582 33.7694 60.3545 33.7694 60.3545C33.7694 60.3545 35.8233 57.5087 35.4768 56.4693C34.9077 54.7619 28.9934 59.7606 28.9934 59.7606C28.9934 59.7606 32.4826 56.4693 31.6907 55.7517C31.0182 55.1633 27.7761 55.2173 25.9952 55.247C25.6789 55.2523 25.4088 55.2568 25.2072 55.2568C21.1736 55.2815 19.7879 54.3412 18.5753 53.3761C21.4101 54.7935 24.1148 54.5635 26.9549 54.322C29.3709 54.1166 31.8848 53.9028 34.6602 54.6876C34.7222 54.705 34.7844 54.7224 34.8468 54.7398C34.9936 54.7809 35.1414 54.8222 35.2902 54.8637C31.8208 53.3929 29.5889 51.2119 29.3645 48.625C29.243 47.2244 29.7231 45.8403 30.6921 44.5416C29.1888 45.504 27.7933 46.5261 26.3902 47.5537C24.2319 49.1345 22.0556 50.7285 19.4413 52.1388ZM70.9884 53.4574C71.8352 54.0658 72.5216 54.5144 72.5216 54.5144C72.5216 54.5144 71.8363 53.9912 70.9884 53.4574ZM60.4377 39.9759C59.6442 39.7738 58.8053 39.5921 57.9191 39.4387C58.6191 40.7787 59.0678 42.2891 58.9608 43.8736C58.5648 49.5156 53.8136 54.0937 48.4437 54.0937C43.0491 54.0937 37.9267 49.5156 37.9267 43.8736C37.9267 42.8164 38.0851 41.8025 38.3909 40.8538C37.4322 41.1642 36.5331 41.5045 35.682 41.8692C35.4878 42.664 35.3778 43.4917 35.3778 44.3439C35.3778 50.7779 41.1931 55.9993 48.3694 55.9993C55.5458 55.9993 61.3858 50.8026 61.3858 44.3439C61.3858 42.8059 61.0446 41.3247 60.4377 39.9759Z" fill="#569B51"/>
<path d="M12.0103 117.107C13.9976 117.107 15.3296 116.055 15.4746 114.003H13.8042C13.7236 115.077 13.0684 115.689 12.0103 115.689C10.7104 115.689 10.0713 114.728 10.0713 113.203C10.0713 111.683 10.7104 110.721 12.0103 110.721C13.0684 110.721 13.7236 111.333 13.8042 112.408H15.4746C15.3296 110.356 13.9976 109.298 12.0103 109.298C9.78125 109.298 8.41699 110.673 8.41699 113.203C8.41699 115.738 9.78125 117.107 12.0103 117.107Z" fill="#569B51"/>
<path d="M21.5601 117H23.3594L20.7168 109.411H18.5039L15.8613 117H17.6606L18.23 115.201H20.9907L21.5601 117ZM18.6543 113.863L19.5889 110.925H19.6318L20.5664 113.863H18.6543Z" fill="#569B51"/>
<path d="M26.8291 117.086C28.7466 117.086 29.7617 116.092 29.7617 114.653C29.7617 112.95 28.3438 112.623 27.1514 112.359C26.2866 112.161 25.54 111.994 25.54 111.35C25.54 110.834 25.9482 110.522 26.6411 110.522C27.3608 110.522 27.855 110.872 27.8711 111.624H29.4609C29.4448 109.765 27.8174 109.298 26.6196 109.298C25.0244 109.298 23.9126 110.109 23.9126 111.575C23.9126 113.079 25.1533 113.423 26.2759 113.691C27.2158 113.912 28.0859 114.089 28.0859 114.868C28.0859 115.448 27.624 115.77 26.8774 115.77C26.0771 115.77 25.4541 115.394 25.4219 114.438H23.7837C23.7837 116.522 25.3789 117.086 26.8291 117.086Z" fill="#569B51"/>
<path d="M33.5645 117.086C35.4819 117.086 36.4971 116.092 36.4971 114.653C36.4971 112.95 35.0791 112.623 33.8867 112.359C33.022 112.161 32.2754 111.994 32.2754 111.35C32.2754 110.834 32.6836 110.522 33.3765 110.522C34.0962 110.522 34.5903 110.872 34.6064 111.624H36.1963C36.1802 109.765 34.5527 109.298 33.355 109.298C31.7598 109.298 30.6479 110.109 30.6479 111.575C30.6479 113.079 31.8887 113.423 33.0112 113.691C33.9512 113.912 34.8213 114.089 34.8213 114.868C34.8213 115.448 34.3594 115.77 33.6128 115.77C32.8125 115.77 32.1895 115.394 32.1572 114.438H30.519C30.519 116.522 32.1143 117.086 33.5645 117.086Z" fill="#569B51"/>
<path d="M42.4966 117H44.2959L41.6533 109.411H39.4404L36.7979 117H38.5972L39.1665 115.201H41.9272L42.4966 117ZM39.5908 113.863L40.5254 110.925H40.5684L41.5029 113.863H39.5908Z" fill="#569B51"/>
<path d="M45.2627 117H46.9277V111.865H46.9868L50.2041 117H51.9819V109.411H50.3169V114.567H50.2686L47.019 109.411H45.2627V117Z" fill="#569B51"/>
<path d="M53.7061 117H56.6172C59.2437 117 60.4307 115.63 60.4307 113.235C60.4307 110.834 59.2974 109.411 56.6279 109.411H53.7061V117ZM55.3711 115.577V110.829H56.6064C58.2231 110.829 58.7817 111.693 58.7817 113.181C58.7817 114.728 58.1748 115.577 56.4829 115.577H55.3711Z" fill="#569B51"/>
<path d="M67.7192 115.088C67.5688 114.234 67.2788 113.697 66.5752 113.477C67.4937 113.246 67.9448 112.698 67.9448 111.65C67.9448 110.249 67.0156 109.411 65.2163 109.411H61.6982V117.011H63.3579V113.847H64.0239C65.6406 113.847 65.8823 114.067 66.0703 115.222L66.3657 117H68.0576L67.7192 115.088ZM63.3687 110.818H65.2109C65.9307 110.818 66.2798 111.146 66.2798 111.688C66.2798 112.198 65.9629 112.569 65.27 112.569H63.3687V110.818Z" fill="#569B51"/>
<path d="M74.3257 117H76.125L73.4824 109.411H71.2695L68.627 117H70.4263L70.9956 115.201H73.7563L74.3257 117ZM71.4199 113.863L72.3545 110.925H72.3975L73.332 113.863H71.4199Z" fill="#569B51"/>
<path d="M77.0918 117H80.0029C82.6294 117 83.8164 115.63 83.8164 113.235C83.8164 110.834 82.6831 109.411 80.0137 109.411H77.0918V117ZM78.7568 115.577V110.829H79.9922C81.6089 110.829 82.1675 111.693 82.1675 113.181C82.1675 114.728 81.5605 115.577 79.8687 115.577H78.7568Z" fill="#569B51"/>
<path d="M85.084 117H89.0854C90.7183 117 91.6367 116.184 91.6367 114.895C91.6367 113.788 90.9653 113.192 90.1919 113.047V113.009C90.7236 112.8 91.2446 112.327 91.2446 111.419C91.2446 110.2 90.3315 109.411 88.7739 109.411H85.084V117ZM86.749 112.488V110.823H88.5806C89.2573 110.823 89.5474 111.092 89.5474 111.624C89.5474 112.166 89.2573 112.488 88.543 112.488H86.749ZM86.749 115.582V113.772H88.9189C89.5796 113.772 89.9609 114.094 89.9609 114.685C89.9609 115.201 89.6709 115.582 88.9189 115.582H86.749Z" fill="#569B51"/>
</svg>
