<svg width="100" height="129" viewBox="0 0 100 129" fill="none" xmlns="http://www.w3.org/2000/svg">
<path d="M67.7537 63.8085C67.1371 63.9313 66.6016 64.2638 66.0785 64.5886C65.4201 64.9974 64.7812 65.3942 64.0243 65.3459C64.7707 64.2988 66.0791 63.8573 67.7537 63.8085Z" fill="#569B51"/>
<path d="M67.8884 66.0289C66.869 66.1414 65.7412 66.266 64.7487 66.1846C65.2935 65.3564 67.3933 65.6422 68.368 65.9767C68.2117 65.9932 68.0513 66.0109 67.8884 66.0289Z" fill="#569B51"/>
<path d="M68.7612 67.8462C67.4857 67.8737 65.9001 67.8484 64.688 67.7474C65.4049 66.9808 67.934 67.4627 68.7612 67.8462Z" fill="#569B51"/>
<path d="M56.2456 56.1625C56.2456 56.293 56.1935 56.4182 56.1007 56.5105C56.0079 56.6028 55.8821 56.6547 55.7509 56.6547C55.6197 56.6547 55.4939 56.6028 55.4011 56.5105C55.3083 56.4182 55.2562 56.293 55.2562 56.1625C55.2562 56.0319 55.3083 55.9067 55.4011 55.8144C55.4939 55.7221 55.6197 55.6703 55.7509 55.6703C55.8821 55.6703 56.0079 55.7221 56.1007 55.8144C56.1935 55.9067 56.2456 56.0319 56.2456 56.1625Z" fill="#569B51"/>
<path d="M56.7405 58.4451C56.7405 58.5757 56.6883 58.701 56.5954 58.7933C56.5025 58.8856 56.3766 58.9375 56.2453 58.9374C56.114 58.9374 55.9881 58.8854 55.8953 58.793C55.8025 58.7006 55.7504 58.5753 55.7505 58.4447C55.7505 58.3141 55.8027 58.1889 55.8956 58.0966C55.9884 58.0043 56.1143 57.9524 56.2456 57.9525C56.3769 57.9525 56.5027 58.0045 56.5955 58.0969C56.6883 58.1892 56.7406 58.3145 56.7405 58.4451Z" fill="#569B51"/>
<path d="M49.6788 25.3871C47.2266 24.8189 46.0081 26.4082 45.2648 28.0565C44.601 27.8964 44.8653 26.9984 45.0329 26.5408C45.4719 25.3398 47.2408 23.7412 48.6861 23.958C49.308 24.051 50.1497 24.6169 49.6788 25.3871Z" fill="#569B51"/>
<path d="M61.6275 28.1656L61.7439 28.1699C61.884 28.4597 62.0194 28.7538 62.1548 29.0478C62.5546 29.9164 62.9543 30.7846 63.4763 31.5399C63.0084 32.6251 59.9304 33.5854 59.9777 31.6368C60.2866 31.5025 60.6996 31.4801 61.1126 31.4578C61.5894 31.432 62.0661 31.4061 62.3824 31.208C62.311 31.013 62.233 30.8241 62.155 30.6351C61.8604 29.9215 61.5655 29.2074 61.6275 28.1656Z" fill="#569B51"/>
<path d="M50.9345 28.1953C51.119 28.532 51.2599 28.8746 51.3974 29.2089C51.6515 29.8269 51.8939 30.4164 52.3789 30.8868C52.4235 30.9301 52.4737 30.9746 52.5264 31.0213C52.8718 31.3275 53.327 31.7311 53.0455 32.5183C52.9697 32.7323 52.4156 33.2094 52.0953 33.3031C50.9269 33.6462 48.2041 33.374 49.1262 31.9245C49.4044 31.9374 49.7101 31.9946 50.0216 32.0529C50.7926 32.1971 51.5993 32.3481 52.1137 31.8512C51.5594 30.9689 50.5706 29.2237 50.9345 28.1953Z" fill="#569B51"/>
<path d="M61.1887 37.9422C59.4295 39.0669 57.4677 40.2893 54.5849 40.0057C53.9688 39.4729 53.7341 38.2872 54.3325 37.5041C54.4343 37.6783 54.4819 37.9002 54.5302 38.1252C54.6297 38.5886 54.732 39.065 55.3163 39.1644C56.5403 39.3728 57.9146 38.7118 59.022 38.1791C59.3944 38 59.7366 37.8354 60.0328 37.7232C60.6403 36.7038 60.1917 36.2213 59.6452 35.6333C59.5356 35.5154 59.4221 35.3933 59.3124 35.2618C59.2347 35.1686 59.1554 35.0741 59.0751 34.9782C57.7648 33.4154 56.1657 31.5082 56.2273 29.2319C56.661 28.9193 56.7787 29.4853 56.8481 29.8194C56.8658 29.9046 56.8804 29.9747 56.8963 30.0113C57.599 31.6471 59.3671 33.7397 60.6577 35.1398C60.7819 35.2749 60.9375 35.4079 61.0844 35.5334C61.3122 35.7281 61.519 35.9048 61.5543 36.0434C61.6498 36.4222 61.4944 36.8437 61.3564 37.2177C61.2527 37.4987 61.1587 37.7529 61.1887 37.9422Z" fill="#569B51"/>
<path d="M37.9948 36.7584C37.7492 36.6188 37.5869 36.2676 37.4251 35.9175C37.2239 35.4821 37.0235 35.0485 36.6646 35.0268C35.8546 34.9777 35.8834 36.3868 35.9054 37.4625C35.9085 37.6151 35.9114 37.7609 35.9119 37.8949C35.2753 37.32 35.1632 35.5486 35.6309 34.6392C35.2422 34.4494 35.0102 34.689 34.7986 34.9076C34.72 34.9889 34.6441 35.0673 34.564 35.1196C34.944 32.3724 38.6031 33.8456 37.9948 36.7584Z" fill="#569B51"/>
<path d="M62.309 39.0862C61.4902 40.6371 60.3316 42.3451 57.9285 42.3947C57.8797 41.8939 57.8421 41.1317 57.9311 40.8298C59.2554 40.7035 60.2145 40.1848 61.1736 39.666C61.5449 39.4652 61.9164 39.2643 62.309 39.0862Z" fill="#569B51"/>
<path d="M50.796 40.0917C52.3286 40.8939 55.1455 40.9798 57.2288 40.919C57.3341 41.3472 57.3378 41.8704 57.3415 42.3931L57.3422 42.488C54.6641 42.6208 51.4981 41.9616 50.796 40.0917Z" fill="#569B51"/>
<path d="M50.5045 41.5869C51.4908 44.0503 54.7126 43.9579 57.6304 43.8743C57.8486 43.868 58.0656 43.8618 58.2794 43.8567C58.1442 44.2005 57.851 44.6065 57.4867 44.7535C56.502 45.152 53.787 45.4543 52.4201 44.732C51.7561 44.3809 51.2742 43.691 50.8715 43.1145C50.7486 42.9384 50.6329 42.7729 50.5218 42.6309C50.4759 42.5721 50.3934 42.4951 50.3016 42.4094C49.9353 42.0675 49.4218 41.5883 50.5045 41.5869Z" fill="#569B51"/>
<path fill-rule="evenodd" clip-rule="evenodd" d="M70.5498 62.294C69.1812 59.384 65.1028 61.2103 62.9199 62.2899C63.9788 59.5182 64.8901 56.6443 65.8232 53.5351C65.8802 53.3451 65.9485 53.1389 66.0201 52.9228C66.2996 52.0795 66.629 51.0855 66.5304 50.3173C66.443 49.6283 65.6014 48.9123 64.8733 48.2928C64.6426 48.0964 64.4233 47.9098 64.2429 47.7368C64.1379 47.636 63.9354 47.467 63.6897 47.2619C62.9632 46.6556 61.8586 45.7336 61.7746 45.3237C61.6971 44.9475 62.127 44.2335 62.487 43.6357C62.6348 43.3903 62.7708 43.1644 62.8551 42.9895C63.2615 42.1473 63.5551 41.1211 63.7598 40.406L63.7733 40.3588C65.2989 35.0221 65.4539 27.6896 63.2723 23.3026C62.4463 21.6408 60.1373 19.3454 58.6927 18.2583C55.2856 15.6946 48.9876 15.4117 44.8826 16.9147C44.7578 16.9604 44.6333 17.0056 44.5094 17.0506C43.4978 17.418 42.5204 17.7729 41.625 18.2959C41.1984 18.5451 40.7677 18.7812 40.3417 19.0147C38.0822 20.2531 35.9554 21.4188 35.2844 24.0781C33.3203 24.9538 32.7277 27.455 32.8266 30.3579C32.8343 30.588 32.89 30.8417 32.9462 31.0974C33.0281 31.4703 33.1109 31.8477 33.0475 32.1632C33.0143 32.3283 32.8636 32.5218 32.7347 32.6874C32.6528 32.7926 32.5796 32.8866 32.5509 32.9549C31.6094 35.1886 32.3641 38.1251 33.4522 39.7121C34.1099 40.6709 35.1987 41.5217 36.6351 41.7473C36.6921 42.6032 36.8992 43.3399 37.2965 44.207C37.3638 44.3539 37.4805 44.5323 37.6087 44.7282C37.9588 45.2634 38.3943 45.9293 38.1413 46.4413C38.0075 46.7127 37.0726 47.2282 36.4171 47.5897C36.22 47.6983 36.0482 47.7931 35.9309 47.8631C35.4414 48.1553 34.9903 48.4152 34.5589 48.6638C33.4814 49.2846 32.5255 49.8354 31.3965 50.6438C31.1211 50.841 30.8039 50.992 30.4923 51.1402C29.6468 51.5426 28.8424 51.9254 29.0265 53.1602C29.1426 53.9369 29.4821 54.8402 29.8047 55.6986C29.9557 56.1005 30.103 56.4925 30.222 56.857C30.389 57.3674 30.5861 57.86 30.7833 58.3529C31.0627 59.0514 31.3423 59.7504 31.537 60.5011C32.2525 63.2614 32.4199 65.8671 32.5927 68.5568L32.6102 68.829C32.6325 69.1734 32.6362 69.5242 32.6397 69.8619C32.6474 70.5943 32.6544 71.2655 32.8493 71.6782C33.0613 72.1282 33.6886 72.3573 34.317 72.5868C34.5577 72.6747 34.7985 72.7626 35.0162 72.8631C35.4245 73.0509 35.8372 73.2566 36.2569 73.4657C38.1709 74.4194 40.2303 75.4455 42.6723 75.1859C42.8223 75.6878 42.9706 76.1966 43.1193 76.7066C43.6738 78.6088 44.2333 80.5282 44.9051 82.1678C47.9578 83.2603 52.7773 83.0895 55.9509 82.7103C56.916 82.5943 57.9343 82.1205 58.1611 81.2883L58.1466 81.1789C58.0832 80.7023 58.0198 80.2249 58.0498 79.661C58.1338 79.6438 58.2203 79.6268 58.3084 79.6094C59.263 79.4216 60.4119 79.1955 60.6117 78.1956C60.7569 77.4688 60.5458 76.5929 60.329 75.6936C60.0885 74.6959 59.841 73.6693 60.0652 72.7851C60.0948 72.7755 60.1245 72.7661 60.1542 72.7566C60.7013 72.5823 61.2486 72.408 61.1615 71.5525C62.13 71.0513 63.2781 70.9383 64.504 70.9856C64.6614 71.2896 64.8866 71.5811 65.0888 71.7485C66.8057 72.092 68.469 72.1199 69.8942 71.6569C71.5084 71.1327 72.2782 67.8491 71.9089 66.2872C71.6472 65.1797 71.0549 63.3667 70.5498 62.294ZM58.6606 72.962C58.4624 72.9094 58.1763 72.9865 57.8819 73.0657C57.6217 73.1358 57.355 73.2076 57.1369 73.1932C57.0944 74.197 57.1826 75.6309 57.2613 76.9092C57.2934 77.4318 57.324 77.9284 57.3433 78.359C58.1373 78.3601 58.5503 78.2144 59.08 78.0273C59.1808 77.9917 59.2865 77.9544 59.3992 77.9165C59.449 76.8269 59.2201 75.7882 58.9966 74.7738C58.8621 74.163 58.7293 73.561 58.6606 72.962C58.6605 72.962 58.6606 72.962 58.6606 72.962ZM45.6034 80.688C43.9483 75.6409 43.0459 70.85 42.4227 65.1505C46.2843 64.4319 51.8462 63.8077 55.7812 64.622C55.9806 65.9127 56.0285 67.1935 56.0762 68.4676C56.1146 69.4945 56.1528 70.5169 56.2701 71.5366C56.4147 72.7992 56.4544 74.1355 56.4941 75.4707C56.5499 77.3503 56.6057 79.2276 56.9542 80.8932C53.7067 81.8945 49.2778 81.7979 45.6034 80.688ZM57.0092 71.971C56.8214 69.5201 56.6782 67.1058 56.7112 64.6583C57.329 64.4522 57.8805 64.4483 58.4894 64.444L58.6422 64.4428C59.0243 65.8164 59.1398 67.4358 59.2553 69.0552C59.3153 69.8964 59.3753 70.7377 59.4727 71.5444C58.6136 71.7318 57.981 71.8261 57.0679 71.9623L57.0092 71.971ZM60.5083 64.2441C60.8379 64.2187 61.189 64.1918 61.504 64.2634C62.3936 65.7862 62.5852 68.3192 62.5556 70.1578C62.343 70.1986 62.159 70.2702 61.9749 70.3418C61.6789 70.4571 61.3826 70.5724 60.9669 70.5595C60.874 69.4267 60.6884 68.2622 60.5056 67.116C60.3506 66.1433 60.1976 65.1837 60.1051 64.2677C60.2327 64.2652 60.3686 64.2548 60.5083 64.2441ZM70.6558 67.0501C71.0486 68.8086 70.1655 70.5206 68.7606 70.8599C67.7377 71.1069 66.1693 71.1718 65.4993 70.85C65.9858 70.5854 66.6175 70.4771 67.249 70.3688C67.6811 70.2947 68.1132 70.2207 68.4986 70.0966C67.6356 69.7266 66.5099 69.8129 65.3847 69.8991C64.738 69.9487 64.0915 69.9983 63.4951 69.9612C63.4667 69.6721 63.4393 69.3796 63.4118 69.0858C63.2482 67.3391 63.0806 65.5491 62.6711 64.1927C63.2132 63.6193 64.1919 63.2938 65.1759 62.9665C65.9228 62.718 66.6728 62.4685 67.2373 62.1088C68.0415 61.5968 69.0484 62.329 69.4198 62.8876C69.8894 63.5938 70.3301 65.5816 70.6011 66.8036L70.6558 67.0501ZM55.297 61.4158C55.4292 61.7307 55.5616 62.0458 55.6955 62.3591C53.3638 61.6598 50.9816 60.5252 48.9381 59.3749C49.3046 57.7951 50.6478 56.9111 51.9655 56.0437C52.0903 55.9616 52.2154 55.8792 52.3389 55.7968C53.6123 57.4047 54.4547 59.4105 55.297 61.4158ZM57.1511 62.3569C57.7698 60.5473 58.0345 57.5183 58.128 55.2092C59.4223 54.6066 60.5305 55.3445 61.0607 56.1914C60.8641 56.5263 60.669 56.8626 60.4738 57.1989C59.4338 58.9909 58.3936 60.7833 57.1511 62.3569ZM54.6928 54.4266C54.9202 54.3155 55.138 54.2092 55.3705 54.2342C55.643 54.263 55.8913 54.4388 56.1571 54.6268C56.5162 54.881 56.9073 55.1577 57.4327 55.1247C57.399 55.6694 57.3771 56.2144 57.3553 56.7574C57.2822 58.5789 57.21 60.3762 56.6974 62.0503C56.241 61.2176 55.8537 60.3213 55.4665 59.4252C54.8016 57.8866 54.1369 56.3483 53.1224 55.1318C53.2168 55.0323 53.3055 54.9267 53.3943 54.821C53.4651 54.7368 53.536 54.6524 53.6097 54.5711C54.0346 54.7478 54.3732 54.5826 54.6928 54.4266ZM53.6989 52.9463C53.6152 52.5981 53.5567 52.3548 53.5974 51.9058C55.6231 50.5618 56.0034 54.214 53.8255 53.5366C53.7828 53.2956 53.7381 53.1094 53.6989 52.9463ZM47.6207 49.8208C48.833 50.0506 50.2433 50.6067 51.1817 51.1169C51.3288 51.1969 51.46 51.2817 51.5884 51.3647C51.9609 51.6056 52.3103 51.8314 52.9576 51.8807C52.9563 51.9167 52.955 51.9527 52.9536 51.9888C52.9524 52.0172 52.9513 52.0457 52.9502 52.0743L52.9481 52.1277L52.9442 52.2272C52.6855 52.3962 52.3407 52.4724 51.9957 52.5486C51.7049 52.6128 51.4141 52.6771 51.1748 52.7969C51.9459 52.8305 52.5529 53.0157 53.0783 53.2756C53.0714 53.4482 53.0646 53.6207 53.0579 53.7933L53.0442 54.1442C52.6911 54.3848 52.3503 54.6729 52.0016 54.9676C51.4877 55.4021 50.9566 55.8511 50.3437 56.1835C49.857 56.4475 48.15 57.1266 47.6326 57.0068C47.4034 56.9538 47.3376 56.7207 47.2636 56.4585C47.243 56.3858 47.2219 56.3108 47.1964 56.2368C47.1373 56.0641 47.0601 55.8673 46.9759 55.6529C46.7044 54.9612 46.361 54.0859 46.3227 53.2473L46.3185 53.1558C46.2537 51.7607 46.1505 49.5408 47.6207 49.8208ZM42.2168 49.4964C41.438 50.2834 44.4015 51.3556 45.3456 51.4136C45.3429 51.1694 45.4114 50.9322 45.475 50.7118C45.5411 50.4825 45.6021 50.2713 45.5723 50.0891C45.2008 50.0242 44.7906 49.9951 44.3805 49.9659C43.5531 49.907 42.726 49.8481 42.2168 49.4964ZM51.7514 49.9293C51.7812 49.9182 51.8111 49.9071 51.8131 49.8659C52.806 50.3062 53.9819 50.0257 55.0965 49.7599C55.6211 49.6348 56.1322 49.513 56.6041 49.471C56.2343 49.7113 55.8961 49.9861 55.5579 50.261C55.3104 50.462 55.0629 50.6631 54.803 50.8507C53.4389 50.918 52.6944 50.7568 51.6922 49.9776C51.6998 49.9485 51.7256 49.9389 51.7514 49.9293ZM59.8052 49.5372C60.3483 49.8517 60.5791 51.6491 60.6212 52.5235C60.6564 53.2485 60.5549 53.9799 60.2582 54.3644C58.7316 54.32 57.3521 54.1395 56.1446 53.8005C56.1829 53.5704 56.1698 53.3423 56.1576 53.1285C56.1436 52.8843 56.1306 52.6586 56.1965 52.4695C56.4665 52.2762 56.8833 52.2404 57.3003 52.2046C57.4028 52.1958 57.5055 52.187 57.6059 52.1758C57.166 51.9604 56.5478 51.8755 56.0399 51.9997C56.0317 51.76 55.9535 51.5842 55.8754 51.4085C55.842 51.3335 55.8087 51.2585 55.7808 51.1786C56.0424 51.0856 56.4124 50.8353 56.8328 50.551C57.7918 49.9024 59.0127 49.0767 59.8052 49.5372ZM40.2229 49.4975C40.5452 49.8757 40.8172 50.1949 40.9055 50.2575C42.1053 51.1054 43.5652 51.7939 44.9752 52.4588C45.1411 52.537 45.3064 52.615 45.4704 52.6928C45.5654 53.4041 45.7863 54.3255 46.1739 55.5589C46.2143 55.6873 46.2539 55.8207 46.2942 55.9562C46.6812 57.2573 47.1253 58.7504 48.7635 57.8612C48.6952 58.1699 48.4956 58.4323 48.2971 58.6932C47.9958 59.0893 47.6971 59.482 47.8641 60.0287C47.9928 60.45 49.0665 60.9446 49.8601 61.3102C50.1385 61.4384 50.3824 61.5508 50.5389 61.6385C51.3611 62.0996 52.1298 62.4081 52.8196 62.6849C53.0618 62.7821 53.2943 62.8754 53.516 62.9701C49.6389 63.0758 45.9977 63.3895 42.4142 63.875C42.1001 63.3906 42.1088 62.7145 42.1183 61.9735C42.1217 61.7023 42.1253 61.4224 42.1132 61.1401C42.0955 60.7297 42.1456 60.1344 42.1963 59.5324C42.287 58.4565 42.3794 57.3589 42.0895 57.2564C41.5788 57.0759 41.4829 58.1059 41.4648 58.3327C41.4322 58.7445 41.489 59.3131 41.5517 59.941C41.673 61.1556 41.8164 62.5922 41.3784 63.5454C40.9912 63.4364 40.7088 63.231 40.4262 63.0256C40.1784 62.8454 39.9305 62.6651 39.6118 62.5499C39.4585 63.03 39.6631 63.2481 39.8496 63.447C39.9884 63.595 40.1173 63.7324 40.0815 63.9592C40.0317 64.273 39.7372 64.3296 39.427 64.3892C39.0426 64.4631 38.6342 64.5415 38.6381 65.12C38.9868 65.1756 39.4098 65.1436 39.8515 65.1102C40.5144 65.0601 41.2194 65.0067 41.7785 65.2414C42.0097 67.9423 42.3748 70.509 42.7787 73.3479L42.8431 73.8008C40.0248 73.6555 37.962 72.5618 35.9346 71.4869C35.2944 71.1474 34.6576 70.8098 34.0017 70.5045C33.8318 64.4909 32.8687 58.2515 30.483 53.1587C32.9853 51.2374 35.7852 49.2057 38.7796 48.0307C38.9243 47.9739 39.6524 48.8281 40.2229 49.4975ZM61.0052 54.6252C61.9831 52.7884 61.5336 47.0863 59.0386 48.2898C59.2039 48.0485 59.4962 47.827 59.8036 47.5942C60.1453 47.3354 60.5055 47.0626 60.7301 46.7329C61.3412 47.2224 61.8117 47.6951 62.2962 48.1819C62.6464 48.5337 63.0039 48.8929 63.4271 49.2712C63.561 49.3905 63.7264 49.5156 63.9016 49.6481C64.4432 50.0577 65.078 50.5377 65.1602 51.1343C65.2097 51.4926 65.0394 52.2723 64.9203 52.8178C64.8928 52.9436 64.868 53.0573 64.8493 53.1502C64.4068 55.3248 63.4133 58.1974 62.4666 60.4762C62.4071 60.6195 62.348 60.7689 62.2887 60.9191C62.0049 61.6369 61.7149 62.3705 61.339 62.5185C60.7638 62.7449 60.1318 62.7517 59.514 62.7583C58.796 62.7659 58.0972 62.7733 57.5292 63.1252C58.1683 62.0222 58.8328 60.9466 59.4973 59.8711C60.3098 58.5559 61.1225 57.2405 61.8884 55.8754C61.7918 55.6511 61.6314 55.4855 61.4711 55.3199C61.2793 55.1218 61.0875 54.9237 61.0052 54.6252ZM34.3888 31.578C34.2445 29.8575 34.0497 27.5355 35.1996 26.2775C36.2965 25.0756 37.8085 24.3278 39.6489 24.1888C40.1537 25.4672 39.9281 26.8737 39.6983 28.3057C39.4965 29.5629 39.2916 30.8398 39.5751 32.0672C39.6119 32.2267 39.6667 32.4037 39.723 32.5852C39.95 33.3182 40.1996 34.1241 39.3773 34.146C39.4043 31.8582 36.5524 30.4069 34.4034 31.7522L34.3888 31.578ZM36.4595 23.8343C37.5654 21.4287 41.0148 19.4831 43.7058 18.7243C43.8532 18.6826 43.983 18.7825 44.1063 18.9136C44.0942 19.2314 43.8559 19.306 43.6177 19.3805C43.5376 19.4056 43.4575 19.4307 43.386 19.4651C43.1605 19.7404 42.8821 19.9412 42.5921 20.1503C42.3129 20.3517 42.023 20.5607 41.7593 20.8514C41.5622 21.0683 41.3567 21.4159 41.1407 21.7813C40.7522 22.4387 40.3294 23.1539 39.8595 23.2699C39.6407 23.324 39.4038 23.2912 39.1804 23.2603C39.0291 23.2393 38.884 23.2193 38.755 23.2276C38.3001 23.2562 37.9179 23.3939 37.5282 23.5344C37.1942 23.6547 36.8548 23.7771 36.4595 23.8343ZM47.2225 18.1642C50.1938 16.6908 54.9222 17.8703 57.7156 19.438C59.1029 20.2169 60.1763 21.6244 61.171 22.9285C61.3266 23.1327 61.4804 23.3343 61.6331 23.5305C60.0501 23.0626 58.7024 23.8665 58.9479 25.1657C60.2734 23.9572 62.5375 25.1523 63.2069 26.4886C63.7627 27.5978 63.8329 29.1704 63.906 30.8086C63.9171 31.0573 63.9283 31.3079 63.9413 31.5582C64.1797 36.1629 63.0941 40.9143 60.7685 44.2431C60.64 44.4268 60.5158 44.6141 60.3918 44.801C59.9161 45.5181 59.4441 46.2295 58.7503 46.715C56.6432 48.1875 53.4398 49.5224 50.6967 48.6069C47.1888 47.4359 45.533 45.1471 43.623 42.5069L43.4313 42.242C43.4853 43.7535 44.5538 44.9939 45.6086 46.1502C46.527 47.158 47.6352 48.2967 48.8272 48.7665C47.8325 48.5341 46.3061 48.4608 45.8919 49.349C43.5719 49.1956 41.4151 48.9601 40.3177 47.3952C39.4529 46.1616 38.5742 44.0648 38.1801 42.4449C38.1 42.1121 37.9618 41.4024 37.9955 41.2209C38.0454 40.9501 38.2631 40.7378 38.4834 40.5229C38.8347 40.1802 39.1928 39.8309 38.8886 39.227C38.4063 39.2224 38.1211 39.4536 37.8359 39.6849C37.5813 39.8914 37.3266 40.0979 36.9314 40.1368C34.7614 40.3502 33.2304 37.2749 33.3291 35.4196C33.4127 33.8418 34.753 32.3319 36.5865 32.5315C37.8826 32.6728 38.3227 34.08 38.574 35.3319C39.3212 35.3717 40.4 35.3003 40.7535 34.7203C40.7293 34.0448 40.5663 33.4332 40.4073 32.837C40.2332 32.1841 40.064 31.5497 40.0877 30.8703C40.1177 30.013 40.3018 29.185 40.4837 28.3673C40.8202 26.8548 41.1488 25.3776 40.4788 23.8154C41.584 21.3217 44.825 19.354 47.2225 18.1642Z" fill="#569B51"/>
<path d="M26.8398 117H27.9517C29.5146 117 30.3687 116.361 30.3687 114.835V109.411H28.7036V114.508C28.7036 115.362 28.3706 115.593 27.5972 115.593H26.8398V117Z" fill="#569B51"/>
<path d="M31.98 117H37.8184V115.593H33.645V113.901H37.2759V112.494H33.645V110.818H37.5605V109.411H31.98V117Z" fill="#569B51"/>
<path d="M39.0806 117H40.7456V111.865H40.8047L44.022 117H45.7998V109.411H44.1348V114.567H44.0864L40.8369 109.411H39.0806V117Z" fill="#569B51"/>
<path d="M52.6318 117H54.6299L52.0303 112.085L54.501 109.411H52.3901L49.189 113.127V109.411H47.5239V117H49.189V115.163L50.8701 113.342L52.6318 117Z" fill="#569B51"/>
<path d="M55.6128 117H57.2778V109.411H55.6128V117Z" fill="#569B51"/>
<path d="M59.0073 117H60.6724V111.865H60.7314L63.9487 117H65.7266V109.411H64.0615V114.567H64.0132L60.7637 109.411H59.0073V117Z" fill="#569B51"/>
<path d="M70.0288 117.086C71.9463 117.086 72.9614 116.092 72.9614 114.653C72.9614 112.95 71.5435 112.623 70.3511 112.359C69.4863 112.161 68.7397 111.994 68.7397 111.35C68.7397 110.834 69.1479 110.522 69.8408 110.522C70.5605 110.522 71.0547 110.872 71.0708 111.624H72.6606C72.6445 109.765 71.0171 109.298 69.8193 109.298C68.2241 109.298 67.1123 110.109 67.1123 111.575C67.1123 113.079 68.353 113.423 69.4756 113.691C70.4155 113.912 71.2856 114.089 71.2856 114.868C71.2856 115.448 70.8237 115.77 70.0771 115.77C69.2769 115.77 68.6538 115.394 68.6216 114.438H66.9834C66.9834 116.522 68.5786 117.086 70.0288 117.086Z" fill="#569B51"/>
</svg>
