<svg width="100" height="129" viewBox="0 0 100 129" fill="none" xmlns="http://www.w3.org/2000/svg">
<path d="M17.0376 117H18.8369L16.1943 109.411H13.9814L11.3389 117H13.1382L13.7075 115.201H16.4683L17.0376 117ZM14.1318 113.863L15.0664 110.925H15.1094L16.0439 113.863H14.1318Z" fill="#569B51"/>
<path d="M19.8037 117H21.4688V111.076H21.5225L23.4775 117H24.9922L26.958 111.076H27.0063V117H28.666V109.411H26.104L24.2402 115.045L22.3711 109.411H19.8037V117Z" fill="#569B51"/>
<path d="M35.3423 117H37.1416L34.499 109.411H32.2861L29.6436 117H31.4429L32.0122 115.201H34.7729L35.3423 117ZM32.4365 113.863L33.3711 110.925H33.4141L34.3486 113.863H32.4365Z" fill="#569B51"/>
<path d="M43.6567 109.411H37.7163V110.818H41.5459L37.5928 115.91V117H43.6567V115.593H39.8271L43.6567 110.582V109.411Z" fill="#569B51"/>
<path d="M47.8569 117.107C50.0752 117.107 51.4771 115.738 51.4771 113.203C51.4771 110.673 50.0752 109.298 47.8569 109.298C45.6279 109.298 44.2637 110.673 44.2637 113.203C44.2637 115.738 45.6279 117.107 47.8569 117.107ZM47.8569 115.689C46.5571 115.689 45.918 114.728 45.918 113.203C45.918 111.683 46.5571 110.721 47.8569 110.721C49.146 110.721 49.8228 111.683 49.8228 113.203C49.8228 114.728 49.146 115.689 47.8569 115.689Z" fill="#569B51"/>
<path d="M52.75 117H54.415V111.865H54.4741L57.6914 117H59.4692V109.411H57.8042V114.567H57.7559L54.5063 109.411H52.75V117Z" fill="#569B51"/>
<path d="M64.7544 117H67.1821L68.4229 111.237L69.6904 117H72.1128L73.6812 109.411H71.9248L70.7969 115.582H70.7378L69.3896 109.411H67.4883L66.1401 115.582H66.0757L64.9478 109.411H63.1914L64.7544 117Z" fill="#569B51"/>
<path d="M74.7607 117H80.5991V115.593H76.4258V113.901H80.0566V112.494H76.4258V110.818H80.3413V109.411H74.7607V117Z" fill="#569B51"/>
<path d="M81.8613 117H85.8628C87.4956 117 88.4141 116.184 88.4141 114.895C88.4141 113.788 87.7427 113.192 86.9692 113.047V113.009C87.501 112.8 88.022 112.327 88.022 111.419C88.022 110.2 87.1089 109.411 85.5513 109.411H81.8613V117ZM83.5264 112.488V110.823H85.3579C86.0347 110.823 86.3247 111.092 86.3247 111.624C86.3247 112.166 86.0347 112.488 85.3203 112.488H83.5264ZM83.5264 115.582V113.772H85.6963C86.3569 113.772 86.7383 114.094 86.7383 114.685C86.7383 115.201 86.4482 115.582 85.6963 115.582H83.5264Z" fill="#569B51"/>
<path fill-rule="evenodd" clip-rule="evenodd" d="M38.654 45.2586C38.654 45.8966 38.7232 46.4138 38.8442 46.7931C38.9826 47.1724 39.1556 47.5862 39.3977 48.0345C39.4841 48.1724 39.5187 48.3104 39.5187 48.4311C39.5187 48.6035 39.415 48.7759 39.1901 48.9483L38.1006 49.6725C37.9449 49.7759 37.7893 49.8276 37.6509 49.8276C37.478 49.8276 37.305 49.7414 37.1321 49.5862C36.89 49.3276 36.6824 49.0518 36.5095 48.7759C36.3365 48.4828 36.1636 48.1552 35.9733 47.7587C34.6244 49.3449 32.9295 50.138 30.8887 50.138C29.436 50.138 28.2772 49.7242 27.4298 48.8966C26.5824 48.069 26.15 46.9655 26.15 45.5862C26.15 44.1207 26.6688 42.9311 27.7238 42.0345C28.7788 41.1379 30.1796 40.6897 31.961 40.6897C32.549 40.6897 33.1543 40.7414 33.7942 40.8276C34.4341 40.9138 35.0913 41.0517 35.7831 41.2069V39.9483C35.7831 38.6379 35.5064 37.7241 34.9703 37.1897C34.4168 36.6552 33.4829 36.3966 32.1512 36.3966C31.5459 36.3966 30.9233 36.4655 30.2834 36.6207C29.6435 36.7759 29.0209 36.9655 28.4156 37.2069C28.1389 37.3276 27.9313 37.3966 27.8103 37.431C27.6892 37.4655 27.6027 37.4828 27.5336 37.4828C27.2914 37.4828 27.1704 37.3104 27.1704 36.9483V36.1035C27.1704 35.8276 27.205 35.6207 27.2914 35.5C27.3779 35.3793 27.5336 35.2586 27.7757 35.1379C28.381 34.8276 29.1074 34.569 29.9548 34.3621C30.8022 34.1379 31.7016 34.0345 32.6528 34.0345C34.7108 34.0345 36.2155 34.5 37.184 35.431C38.1352 36.3621 38.6194 37.7759 38.6194 39.6724V45.2586H38.654ZM31.6324 47.8793C32.2031 47.8793 32.7911 47.7759 33.4137 47.569C34.0363 47.3621 34.5898 46.9828 35.0567 46.4655C35.3334 46.138 35.541 45.7759 35.6447 45.3621C35.7485 44.9483 35.8177 44.4483 35.8177 43.8621V43.138C35.3161 43.0173 34.78 42.9138 34.2266 42.8448C33.6732 42.7759 33.137 42.7414 32.6009 42.7414C31.4422 42.7414 30.5947 42.9655 30.024 43.4311C29.4533 43.8966 29.1766 44.5518 29.1766 45.4138C29.1766 46.2242 29.3841 46.8276 29.8165 47.2414C30.2315 47.6724 30.8368 47.8793 31.6324 47.8793Z" fill="#569B51"/>
<path d="M45.52 49.7414C45.2087 49.7414 45.0011 49.6897 44.8628 49.569C44.7244 49.4656 44.6034 49.2242 44.4996 48.8966L40.4354 35.569C40.3316 35.2241 40.2797 35 40.2797 34.8793C40.2797 34.6034 40.4181 34.4483 40.6948 34.4483H42.3896C42.7182 34.4483 42.9431 34.5 43.0641 34.6207C43.2025 34.7241 43.3063 34.9655 43.41 35.2931L46.3155 46.7069L49.0135 35.2931C49.1 34.9483 49.2037 34.7241 49.3421 34.6207C49.4804 34.5172 49.7226 34.4483 50.0339 34.4483H51.4174C51.746 34.4483 51.9709 34.5 52.1092 34.6207C52.2476 34.7241 52.3686 34.9655 52.4378 35.2931L55.1704 46.8449L58.1623 35.2931C58.2661 34.9483 58.3872 34.7241 58.5082 34.6207C58.6466 34.5172 58.8714 34.4483 59.1827 34.4483H60.7911C61.0678 34.4483 61.2235 34.5862 61.2235 34.8793C61.2235 34.9529 61.2109 35.0266 61.1964 35.1109L61.1889 35.1552C61.1716 35.2586 61.137 35.3966 61.0678 35.5862L56.8998 48.9138C56.7961 49.2587 56.675 49.4828 56.5366 49.5862C56.3983 49.6897 56.1735 49.7587 55.8795 49.7587H54.3921C54.0635 49.7587 53.8387 49.7069 53.7003 49.5862C53.562 49.4656 53.4409 49.2414 53.3717 48.8966L50.6911 37.7759L48.0277 48.8793C47.9412 49.2242 47.8375 49.4483 47.6991 49.569C47.5607 49.6897 47.3186 49.7414 47.0073 49.7414H45.52Z" fill="#569B51"/>
<path d="M67.7436 50.2069C66.8442 50.2069 65.9449 50.1035 65.0802 49.8966C64.2155 49.6897 63.541 49.4656 63.0913 49.2069C62.8146 49.0518 62.6244 48.8793 62.5552 48.7242C62.486 48.569 62.4514 48.3966 62.4514 48.2414V47.3621C62.4514 47 62.5898 46.8276 62.8492 46.8276C62.953 46.8276 63.0567 46.8449 63.1605 46.8793C63.2275 46.9016 63.3161 46.9383 63.4171 46.98C63.4725 47.0029 63.5316 47.0273 63.5929 47.0518C64.1809 47.3104 64.8208 47.5173 65.4953 47.6552C66.187 47.7931 66.8615 47.8621 67.5533 47.8621C68.6429 47.8621 69.4903 47.6724 70.0783 47.2931C70.6664 46.9138 70.9777 46.3621 70.9777 45.6552C70.9777 45.1724 70.822 44.7759 70.5107 44.4483C70.1994 44.1207 69.6114 43.8276 68.7639 43.5517L66.2562 42.7759C64.9937 42.3793 64.0598 41.7931 63.4891 41.0173C62.9184 40.2586 62.6244 39.4138 62.6244 38.5173C62.6244 37.7931 62.78 37.1552 63.0913 36.6035C63.4026 36.0517 63.8177 35.569 64.3365 35.1897C64.8554 34.7931 65.4434 34.5 66.1352 34.2931C66.827 34.0862 67.5533 34 68.3143 34C68.6948 34 69.0925 34.0172 69.473 34.069C69.8708 34.1207 70.234 34.1897 70.5972 34.2586C70.9431 34.3448 71.2717 34.431 71.583 34.5345C71.8943 34.6379 72.1364 34.7414 72.3093 34.8448C72.5515 34.9828 72.7244 35.1207 72.8282 35.2759C72.9319 35.4138 72.9838 35.6035 72.9838 35.8448V36.6552C72.9838 37.0172 72.8455 37.2069 72.5861 37.2069C72.4477 37.2069 72.2229 37.1379 71.9289 37C70.9431 36.5517 69.8362 36.3276 68.6083 36.3276C67.6225 36.3276 66.8442 36.4828 66.3081 36.8104C65.772 37.1379 65.4953 37.6379 65.4953 38.3448C65.4953 38.8276 65.6682 39.2414 66.0141 39.569C66.36 39.8966 66.9999 40.2242 67.9165 40.5173L70.3723 41.2931C71.6176 41.6897 72.5169 42.2414 73.053 42.9483C73.5891 43.6552 73.8486 44.4655 73.8486 45.3621C73.8486 46.1035 73.6929 46.7759 73.3989 47.3621C73.0876 47.9483 72.6725 48.4656 72.1364 48.8793C71.6003 49.3104 70.9604 49.6207 70.2167 49.8449C69.4384 50.0862 68.6256 50.2069 67.7436 50.2069Z" fill="#569B51"/>
<path d="M71.0122 58.5862C65.3223 62.7759 57.0555 65 49.9474 65C39.9857 65 31.0098 61.3276 24.2304 55.2241C23.6942 54.7414 24.1785 54.0862 24.8184 54.4655C32.1513 58.7069 41.1964 61.2759 50.5527 61.2759C56.8653 61.2759 63.8004 59.9655 70.1821 57.2759C71.1333 56.8448 71.9462 57.8965 71.0122 58.5862Z" fill="#569B51"/>
<path d="M66.7234 55.6725C68.5739 55.4484 72.6554 54.9656 73.3818 55.8966C74.1082 56.8104 72.569 60.6552 71.8772 62.3621C71.6696 62.8794 72.1193 63.0863 72.5863 62.6897C75.6301 60.138 76.4256 54.8104 75.803 54.0346C75.1804 53.2759 69.8364 52.6208 66.5851 54.8966C66.0835 55.2587 66.17 55.7415 66.7234 55.6725Z" fill="#569B51"/>
</svg>
