<svg width="100" height="129" viewBox="0 0 100 129" fill="none" xmlns="http://www.w3.org/2000/svg">
<path d="M42 25C37.584 25 34 28.7333 34 33.3333C34 37.9299 37.5787 41.6611 41.9901 41.6666C37.5787 41.6722 34 45.4034 34 49.9999C34 54.5999 37.584 58.3332 42 58.3332H50V41.6666V25H42Z" fill="#569B51"/>
<path d="M42 75C46.416 75 50 71.2666 50 66.6666V58.3332H42C37.584 58.3332 34 62.0666 34 66.6666C34 71.2666 37.584 75 42 75Z" fill="#569B51"/>
<path d="M50 25H58C62.416 25 66 28.7333 66 33.3333C66 37.9299 62.4213 41.6611 58.0098 41.6666C62.4213 41.6722 66 45.4034 66 49.9999C66 54.5999 62.416 58.3332 58 58.3332C53.584 58.3332 50 54.5999 50 49.9999C50 45.4051 53.5759 41.6751 57.985 41.6666H50V25Z" fill="#569B51"/>
<path d="M32.5869 117H34.252V113.901H37.7109V112.494H34.252V110.818H38.1836V109.411H32.5869V117Z" fill="#569B51"/>
<path d="M39.3115 117H40.9766V109.411H39.3115V117Z" fill="#569B51"/>
<path d="M46.0146 114.073H47.7119C47.6099 114.895 47.0889 115.657 45.8965 115.657C44.457 115.657 43.9307 114.535 43.9307 113.165C43.9307 111.774 44.4839 110.678 45.9233 110.678C46.8794 110.678 47.583 111.151 47.6045 112.042H49.2964C49.2695 110.189 47.7065 109.292 45.9072 109.292C43.5654 109.292 42.2441 110.802 42.2441 113.224C42.2441 115.609 43.5225 117.107 45.6655 117.107C46.6538 117.107 47.481 116.742 47.9106 116.071L47.916 117H49.2964V112.762H46.0146V114.073Z" fill="#569B51"/>
<path d="M50.8271 117H52.4922V111.076H52.5459L54.501 117H56.0156L57.9814 111.076H58.0298V117H59.6895V109.411H57.1274L55.2637 115.045L53.3945 109.411H50.8271V117Z" fill="#569B51"/>
<path d="M66.3657 117H68.165L65.5225 109.411H63.3096L60.667 117H62.4663L63.0356 115.201H65.7964L66.3657 117ZM63.46 113.863L64.3945 110.925H64.4375L65.3721 113.863H63.46Z" fill="#569B51"/>
</svg>
