<svg width="100" height="129" viewBox="0 0 100 129" fill="none" xmlns="http://www.w3.org/2000/svg">
<path fill-rule="evenodd" clip-rule="evenodd" d="M29.7477 67.9117L29.7316 67.9762C32.284 69.9101 35.3988 70.9493 38.5985 70.9361H49.8435L49.9067 70.9996H61.1995C67.6732 71.0499 73.4166 66.8387 75.339 60.6345C77.2571 54.4282 74.9031 47.6902 69.5411 44.05C68.5014 40.2107 66.3697 36.7586 63.4032 34.1181L63.3123 34.2093L63.3246 34.1028C54.9133 26.6516 42.0729 27.4545 34.6489 35.8966C32.5848 38.2418 31.0874 41.031 30.2722 44.05C30.3768 44.0068 30.4838 43.9712 30.5923 43.9431C27.924 45.7121 25.8381 48.3488 24.7684 51.5382C22.7674 57.5039 24.7618 64.0887 29.7337 67.9258L29.7477 67.9117ZM57.158 40.5651H57.0276C52.3849 36.7936 45.617 37.3099 41.5955 41.742C41.5565 41.7341 41.5115 41.7481 41.4635 41.777C44.9484 42.4608 48.1054 44.3991 50.3032 47.2811L43.7533 53.8549C43.1866 52.5992 42.1839 51.5929 40.9328 51.0241C38.0905 49.7356 34.7469 51.0022 33.4631 53.8549C32.1792 56.7076 33.4413 60.0634 36.2836 61.352L36.2766 61.359C37.0061 61.6928 37.798 61.864 38.5985 61.864H49.8914V61.9408L49.9067 61.9252H61.1995C64.3165 61.9252 66.8449 59.3897 66.8449 56.2592C66.8449 53.1309 64.3186 50.5932 61.1995 50.5932V49.4622C61.2641 46.0328 59.7762 42.7614 57.158 40.5651Z" fill="#569B51"/>
<path d="M11.2261 114.073H12.9233C12.8213 114.895 12.3003 115.657 11.1079 115.657C9.66846 115.657 9.14209 114.535 9.14209 113.165C9.14209 111.774 9.69531 110.678 11.1348 110.678C12.0908 110.678 12.7944 111.151 12.8159 112.042H14.5078C14.481 110.189 12.918 109.292 11.1187 109.292C8.77686 109.292 7.45557 110.802 7.45557 113.224C7.45557 115.609 8.73389 117.107 10.877 117.107C11.8652 117.107 12.6924 116.742 13.1221 116.071L13.1274 117H14.5078V112.762H11.2261V114.073Z" fill="#569B51"/>
<path d="M19.1807 117.107C21.3989 117.107 22.8008 115.738 22.8008 113.203C22.8008 110.673 21.3989 109.298 19.1807 109.298C16.9517 109.298 15.5874 110.673 15.5874 113.203C15.5874 115.738 16.9517 117.107 19.1807 117.107ZM19.1807 115.689C17.8809 115.689 17.2417 114.728 17.2417 113.203C17.2417 111.683 17.8809 110.721 19.1807 110.721C20.4697 110.721 21.1465 111.683 21.1465 113.203C21.1465 114.728 20.4697 115.689 19.1807 115.689Z" fill="#569B51"/>
<path d="M27.2158 117.107C29.4341 117.107 30.8359 115.738 30.8359 113.203C30.8359 110.673 29.4341 109.298 27.2158 109.298C24.9868 109.298 23.6226 110.673 23.6226 113.203C23.6226 115.738 24.9868 117.107 27.2158 117.107ZM27.2158 115.689C25.916 115.689 25.2769 114.728 25.2769 113.203C25.2769 111.683 25.916 110.721 27.2158 110.721C28.5049 110.721 29.1816 111.683 29.1816 113.203C29.1816 114.728 28.5049 115.689 27.2158 115.689Z" fill="#569B51"/>
<path d="M35.4175 114.073H37.1147C37.0127 114.895 36.4917 115.657 35.2993 115.657C33.8599 115.657 33.3335 114.535 33.3335 113.165C33.3335 111.774 33.8867 110.678 35.3262 110.678C36.2822 110.678 36.9858 111.151 37.0073 112.042H38.6992C38.6724 110.189 37.1094 109.292 35.3101 109.292C32.9683 109.292 31.647 110.802 31.647 113.224C31.647 115.609 32.9253 117.107 35.0684 117.107C36.0566 117.107 36.8838 116.742 37.3135 116.071L37.3188 117H38.6992V112.762H35.4175V114.073Z" fill="#569B51"/>
<path d="M40.23 117H45.4722V115.582H41.895V109.411H40.23V117Z" fill="#569B51"/>
<path d="M46.5034 117H52.3418V115.593H48.1685V113.901H51.7993V112.494H48.1685V110.818H52.084V109.411H46.5034V117Z" fill="#569B51"/>
<path d="M59.3887 117.107C61.376 117.107 62.708 116.055 62.853 114.003H61.1826C61.1021 115.077 60.4468 115.689 59.3887 115.689C58.0889 115.689 57.4497 114.728 57.4497 113.203C57.4497 111.683 58.0889 110.721 59.3887 110.721C60.4468 110.721 61.1021 111.333 61.1826 112.408H62.853C62.708 110.356 61.376 109.298 59.3887 109.298C57.1597 109.298 55.7954 110.673 55.7954 113.203C55.7954 115.738 57.1597 117.107 59.3887 117.107Z" fill="#569B51"/>
<path d="M64.0991 117H69.3413V115.582H65.7642V109.411H64.0991V117Z" fill="#569B51"/>
<path d="M73.4072 117.107C75.6255 117.107 77.0273 115.738 77.0273 113.203C77.0273 110.673 75.6255 109.298 73.4072 109.298C71.1782 109.298 69.814 110.673 69.814 113.203C69.814 115.738 71.1782 117.107 73.4072 117.107ZM73.4072 115.689C72.1074 115.689 71.4683 114.728 71.4683 113.203C71.4683 111.683 72.1074 110.721 73.4072 110.721C74.6963 110.721 75.373 111.683 75.373 113.203C75.373 114.728 74.6963 115.689 73.4072 115.689Z" fill="#569B51"/>
<path d="M81.1792 117.107C83.2471 117.107 84.2515 115.979 84.2515 114.073V109.411H82.5864V114.18C82.5864 115.072 82.0654 115.593 81.1792 115.593C80.3037 115.593 79.8042 115.072 79.8042 114.18V109.411H78.1392V114.126C78.1392 115.99 79.1274 117.107 81.1792 117.107Z" fill="#569B51"/>
<path d="M85.8091 117H88.7202C91.3467 117 92.5337 115.63 92.5337 113.235C92.5337 110.834 91.4004 109.411 88.731 109.411H85.8091V117ZM87.4741 115.577V110.829H88.7095C90.3262 110.829 90.8848 111.693 90.8848 113.181C90.8848 114.728 90.2778 115.577 88.5859 115.577H87.4741Z" fill="#569B51"/>
</svg>
