<svg width="100" height="129" viewBox="0 0 100 129" fill="none" xmlns="http://www.w3.org/2000/svg">
<path d="M30.8145 114.073H32.5117C32.4097 114.895 31.8887 115.657 30.6963 115.657C29.2568 115.657 28.7305 114.535 28.7305 113.165C28.7305 111.774 29.2837 110.678 30.7231 110.678C31.6792 110.678 32.3828 111.151 32.4043 112.042H34.0962C34.0693 110.189 32.5063 109.292 30.707 109.292C28.3652 109.292 27.0439 110.802 27.0439 113.224C27.0439 115.609 28.3223 117.107 30.4653 117.107C31.4536 117.107 32.2808 116.742 32.7104 116.071L32.7158 117H34.0962V112.762H30.8145V114.073Z" fill="#569B51"/>
<path d="M38.769 117.107C40.9873 117.107 42.3892 115.738 42.3892 113.203C42.3892 110.673 40.9873 109.298 38.769 109.298C36.54 109.298 35.1758 110.673 35.1758 113.203C35.1758 115.738 36.54 117.107 38.769 117.107ZM38.769 115.689C37.4692 115.689 36.8301 114.728 36.8301 113.203C36.8301 111.683 37.4692 110.721 38.769 110.721C40.0581 110.721 40.7349 111.683 40.7349 113.203C40.7349 114.728 40.0581 115.689 38.769 115.689Z" fill="#569B51"/>
<path d="M43.6621 117H48.9043V115.582H45.3271V109.411H43.6621V117Z" fill="#569B51"/>
<path d="M54.8823 117H56.6816L54.0391 109.411H51.8262L49.1836 117H50.9829L51.5522 115.201H54.313L54.8823 117ZM51.9766 113.863L52.9111 110.925H52.9541L53.8887 113.863H51.9766Z" fill="#569B51"/>
<path d="M57.6484 117H59.3135V111.865H59.3726L62.5898 117H64.3677V109.411H62.7026V114.567H62.6543L59.4048 109.411H57.6484V117Z" fill="#569B51"/>
<path d="M69.4004 114.073H71.0977C70.9956 114.895 70.4746 115.657 69.2822 115.657C67.8428 115.657 67.3164 114.535 67.3164 113.165C67.3164 111.774 67.8696 110.678 69.3091 110.678C70.2651 110.678 70.9688 111.151 70.9902 112.042H72.6821C72.6553 110.189 71.0923 109.292 69.293 109.292C66.9512 109.292 65.6299 110.802 65.6299 113.224C65.6299 115.609 66.9082 117.107 69.0513 117.107C70.0396 117.107 70.8667 116.742 71.2964 116.071L71.3018 117H72.6821V112.762H69.4004V114.073Z" fill="#569B51"/>
<path d="M66.6656 27.3527C66.1671 26.4696 65.3569 25.8072 64.422 25.5548C63.4406 25.2868 62.3811 25.476 61.3528 26.1384C61.8202 26.5799 62.2719 27.053 62.677 27.5892C63.3159 27.3842 63.9392 27.4631 64.2974 28.1571C64.6557 28.8509 64.4377 29.3398 63.9858 29.734C64.3029 30.5498 64.5785 31.3815 64.8115 32.2258C65.98 31.7843 66.728 31.043 67.0239 30.1125C67.3043 29.2294 67.1642 28.2358 66.6656 27.3527Z" fill="#569B51"/>
<path d="M31.486 28.1413C30.9874 29.0244 30.8784 30.0335 31.2056 30.8853C31.5328 31.7369 32.2806 32.415 33.418 32.8566C33.5113 32.4938 33.6204 32.1311 33.7295 31.7843C33.8229 31.5004 33.9321 31.2165 34.0411 30.9483C33.2465 30.5068 32.6857 29.9234 33.1686 28.9927C33.636 28.1255 34.4617 28.2043 35.2719 28.6302C35.7355 27.941 36.2796 27.3109 36.8923 26.7535C35.8328 26.1226 34.7578 25.9807 33.7607 26.2804C32.7947 26.5643 31.9845 27.258 31.486 28.1413Z" fill="#569B51"/>
<path d="M47.1356 38.9678L47.573 38.8615C47.6417 38.8396 47.7127 38.8159 47.7863 38.7904C47.8001 38.7858 47.8153 38.7811 47.8319 38.776C47.8713 38.764 47.9184 38.7496 47.9732 38.7274C48.7357 38.4653 49.0731 38.3779 49.4269 38.4034L49.4631 38.3953V38.4064C49.4753 38.4075 49.4877 38.4088 49.5 38.4102L49.5157 38.412C49.9208 38.4279 50.2635 38.5224 50.8866 38.7904L50.9435 38.8134C51.5216 39.0476 51.7055 39.1221 51.9773 39.1375C52.3356 39.1533 52.6317 39.0428 52.9276 38.7116C53.4262 38.1753 53.4106 37.6076 52.9432 37.04C52.5899 36.5963 52.0057 36.1788 51.3418 35.8695C50.5915 36.9186 47.5845 37.0538 47.0981 35.9481C45.9795 36.1228 45.1843 37.4626 45.7297 38.4592C46.0124 38.9839 46.3932 39.1299 47.0538 38.9994L47.061 38.9822L47.1356 38.9678Z" fill="#569B51"/>
<path d="M47.4489 41.515C47.1011 40.9313 47.0206 39.9557 47.2626 39.2839C47.447 39.24 47.6533 39.1762 47.8953 39.0901C47.9095 39.0853 47.9252 39.0805 47.9423 39.0752C47.9743 39.0654 48.0115 39.0539 48.0536 39.0381L49.1645 38.7674C49.1497 38.9535 49.1349 39.1395 49.1049 39.4687C49.0932 39.6707 49.0815 39.7758 49.0699 39.8808C49.0683 39.8957 49.0666 39.9106 49.065 39.9258C49.0634 39.94 49.0619 39.9545 49.0603 39.9695C49.0303 40.499 49.0303 40.8997 49.0753 41.3004C48.3738 42.1591 47.8219 42.1591 47.4489 41.515Z" fill="#569B51"/>
<path d="M51.1938 41.5867C51.0894 41.7584 50.955 41.8443 50.5969 41.9588C50.5819 41.9588 50.5819 41.9588 50.5671 41.973C50.5148 41.9898 50.4727 42.0065 50.4377 42.0204C50.4129 42.0302 50.3917 42.0386 50.3731 42.0446C49.9702 41.973 49.6272 41.7154 49.4631 41.3577C49.4183 40.9713 49.4183 40.5706 49.4481 40.0412C49.4539 39.9853 49.4575 39.9361 49.4614 39.8814C49.4676 39.7959 49.4747 39.6974 49.493 39.5402C49.5227 39.2112 49.5377 39.0108 49.5377 38.8248L51.164 39.297C51.164 39.4694 51.1768 39.6294 51.2025 39.9481L51.2088 40.0268C51.2386 40.4133 51.2534 40.6135 51.2534 40.8425C51.2534 41.1143 51.2384 41.3577 51.1938 41.5867Z" fill="#569B51"/>
<path d="M53.2704 31.7317C53.4597 31.7317 53.6131 31.5411 53.6131 31.3059C53.6131 31.0708 53.4597 30.8802 53.2704 30.8802C53.0812 30.8802 52.9278 31.0708 52.9278 31.3059C52.9278 31.5411 53.0812 31.7317 53.2704 31.7317Z" fill="#569B51"/>
<path fill-rule="evenodd" clip-rule="evenodd" d="M55.9968 35.0595C57.29 34.8386 58.4273 34.2079 59.1752 33.2931C60.0009 32.2838 60.2813 30.9748 59.9385 29.4767C58.6298 23.7993 49.8115 25.3606 50.1543 31.1957C50.6528 34.0659 53.1768 35.5326 55.9968 35.0595ZM52.5848 32.5836C53.4023 32.5836 54.0649 31.8423 54.0649 30.9277C54.0649 30.0132 53.4023 29.2719 52.5848 29.2719C51.7674 29.2719 51.1047 30.0132 51.1047 30.9277C51.1047 31.8423 51.7674 32.5836 52.5848 32.5836Z" fill="#569B51"/>
<path d="M40.9998 31.7149C40.9998 31.95 40.8393 32.1406 40.6414 32.1406C40.4435 32.1406 40.2831 31.95 40.2831 31.7149C40.2831 31.4798 40.4435 31.2892 40.6414 31.2892C40.8393 31.2892 40.9998 31.4798 40.9998 31.7149Z" fill="#569B51"/>
<path fill-rule="evenodd" clip-rule="evenodd" d="M37.6345 32.2355C37.3229 30.6428 37.6658 29.2865 38.5382 28.2614C39.3328 27.3309 40.5324 26.716 41.8567 26.5425C43.181 26.369 44.5053 26.6372 45.5026 27.3309C46.6086 28.088 47.2786 29.2708 47.372 30.832C47.6992 36.3359 39.021 37.6607 37.6345 32.2355ZM41.4672 31.3367C41.4672 32.2512 40.7907 32.9925 39.956 32.9925C39.1214 32.9925 38.4448 32.2512 38.4448 31.3367C38.4448 30.4221 39.1214 29.6808 39.956 29.6808C40.7907 29.6808 41.4672 30.4221 41.4672 31.3367Z" fill="#569B51"/>
<path fill-rule="evenodd" clip-rule="evenodd" d="M62.4005 71.9173C63.1106 71.1582 63.7045 70.3029 64.1727 69.3494C65.6528 66.3687 66.2137 62.8834 66.1824 58.3574C66.1669 56.7488 66.1045 55.361 65.9331 52.68C65.9127 52.3534 65.8966 52.0972 65.8833 51.8876C65.9817 51.9311 66.0954 51.9918 66.227 52.0856C66.9436 52.5903 68.5484 53.3473 68.6263 51.7229C69.4832 51.3287 68.6576 50.2877 68.2212 49.9724C67.5108 49.4495 66.6184 49.1866 65.7394 49.166C65.7096 48.2753 65.6938 47.3013 65.684 46.1037V44.8736C65.6683 41.0099 65.6215 39.3067 65.4035 37.1934C65.1231 34.4179 64.5933 32.0049 63.6896 29.7657C62.2874 27.0057 60.2464 25.2079 57.5044 24.1828C55.2141 23.3312 52.5657 23 48.9354 23C45.056 23.3155 42.2048 23.9149 39.8523 25.0818C37.0479 26.4851 35.1001 28.6457 34.0411 31.8474C33.3867 33.8185 33.0753 35.9004 33.0284 38.2657C32.9972 40.0636 33.0751 41.4988 33.3556 44.779C33.5399 47.0322 33.621 48.1492 33.6576 49.3779C32.6563 49.3186 31.5987 49.576 30.7818 50.1773C30.3301 50.4927 29.52 51.5336 30.3768 51.9279C30.4547 53.5522 32.0595 52.7953 32.7762 52.2906C33.0106 52.1233 33.1886 52.0613 33.3238 52.0142C33.4978 51.9535 33.6009 51.9176 33.6624 51.7138C33.6593 51.8102 33.6557 51.9062 33.6516 52.0019C33.6049 53.0112 33.5581 53.6578 33.3867 55.8972C33.2309 57.8843 33.1686 58.9725 33.1219 60.1868C32.9816 64.634 33.4959 67.8669 35.0538 70.406C35.5269 71.1838 36.1093 71.8868 36.7852 72.5151C36.7146 72.5659 36.6414 72.6181 36.5662 72.6716C35.4121 73.4935 33.8116 74.6332 34.7547 76.1355C34.9371 76.3201 34.9943 76.318 35.0591 76.3156C35.094 76.3143 35.131 76.313 35.1909 76.3406L35.1925 76.3437C35.2892 76.5394 35.7268 77.425 36.8581 76.7506C37.3146 76.4958 37.714 76.1497 38.1115 75.8053C38.6703 75.3211 39.2255 74.84 39.9308 74.6197C42.2438 75.7287 45.04 76.3383 48.0475 76.4461C51.366 76.5723 54.5755 76.1623 57.2864 75.1686C58.2252 74.824 59.0933 74.4132 59.8851 73.9352C60.3825 74.1785 60.8259 74.7046 61.2631 75.2235C62.0885 76.2029 62.8924 77.1569 63.9984 76.1355C65.8336 75.0116 63.6389 72.7134 62.4005 71.9173ZM51.4787 35.116C51.0013 33.339 47.0382 33.5804 47.0367 35.6574C45.7336 35.8864 44.8363 37.434 45.4803 38.6169C45.7453 39.0901 46.1036 39.3267 46.5866 39.3582C46.6975 39.3631 46.81 39.3589 46.9294 39.3447C46.726 40.0829 46.8281 41.0419 47.1952 41.6583C47.6727 42.4596 48.4484 42.4739 49.2393 41.558C49.3495 41.762 49.5082 41.9382 49.7026 42.0725C49.8969 42.2068 50.1215 42.2953 50.3582 42.3309H50.4031L50.4477 42.3165C50.4795 42.3012 50.5113 42.29 50.5498 42.2764C50.5836 42.2645 50.6228 42.2506 50.6717 42.2306C50.6781 42.2306 50.6818 42.2306 50.685 42.2295C50.6894 42.228 50.693 42.2244 50.7015 42.2163C51.134 42.0732 51.3132 41.9587 51.4624 41.6869L51.4773 41.6725V41.6439C51.522 41.3863 51.5369 41.1143 51.5369 40.8139C51.5369 40.6002 51.5221 40.4006 51.4926 40.0037L51.4922 39.9982L51.4798 39.8222C51.4644 39.6052 51.4545 39.4659 51.4501 39.338C51.6448 39.4049 51.785 39.4358 51.9616 39.4527C52.4136 39.4843 52.8031 39.3267 53.1613 38.9324C53.7689 38.2542 53.7378 37.5288 53.1925 36.8507C52.8132 36.3672 52.1806 35.9221 51.4773 35.5965C51.5207 35.4495 51.5241 35.2892 51.4787 35.116ZM49.8584 31.2272C49.4846 25.0294 58.8324 23.3736 60.2189 29.4136C60.5927 30.9907 60.2812 32.3942 59.4087 33.4825C58.6142 34.4603 57.3989 35.1225 56.0436 35.359C53.0679 35.8638 50.3724 34.3024 49.8584 31.243V31.2272ZM47.6681 30.7845C47.5746 29.1443 46.8579 27.867 45.6739 27.0627C44.6144 26.3373 43.2122 26.0535 41.8256 26.2268C40.439 26.4163 39.1613 27.0471 38.32 28.0407C37.3853 29.1445 37.027 30.5953 37.3542 32.267C38.8186 38.0704 48.0108 36.6669 47.6681 30.7845Z" fill="#569B51"/>
</svg>
