<svg width="100" height="129" viewBox="0 0 100 129" fill="none" xmlns="http://www.w3.org/2000/svg">
<path d="M49.7734 21.2225C49.7501 21.1275 49.7259 21.0529 49.7008 21C49.6252 22.1844 49.5876 22.6288 48.4563 23.8132C46.7219 25.1456 37.7485 32.5111 37.0323 47.5012C36.3291 61.476 47.3256 69.8215 48.8179 70.8875C49.8775 73.3256 49.7761 77.4814 49.7761 77.4814L51.3217 78C51.3217 78 51.0202 73.9286 51.4728 72.0038C51.5995 71.4046 51.9055 70.8814 52.2695 70.4436C52.5361 70.2599 53.2334 69.7578 54.1526 68.9324C54.1994 68.9073 54.2254 68.8946 54.2254 68.8946L54.2234 68.8685C57.8837 65.5558 64.894 57.2365 62.5197 43.6145C60.1565 33.3894 55.3095 28.4838 52.8712 26.0161C52.1587 25.295 51.6518 24.782 51.4728 24.4053C50.6058 23.2209 49.776 21.1485 49.776 21.1485L49.7774 21.2391C49.7761 21.2335 49.7747 21.228 49.7734 21.2225Z" fill="#569B51"/>
<path d="M21.3667 117H23.0317V111.076H23.0854L25.0405 117H26.5552L28.521 111.076H28.5693V117H30.229V109.411H27.667L25.8032 115.045L23.9341 109.411H21.3667V117Z" fill="#569B51"/>
<path d="M35.1006 117.107C37.3188 117.107 38.7207 115.738 38.7207 113.203C38.7207 110.673 37.3188 109.298 35.1006 109.298C32.8716 109.298 31.5073 110.673 31.5073 113.203C31.5073 115.738 32.8716 117.107 35.1006 117.107ZM35.1006 115.689C33.8008 115.689 33.1616 114.728 33.1616 113.203C33.1616 111.683 33.8008 110.721 35.1006 110.721C36.3896 110.721 37.0664 111.683 37.0664 113.203C37.0664 114.728 36.3896 115.689 35.1006 115.689Z" fill="#569B51"/>
<path d="M39.9937 117H41.6587V111.865H41.7178L44.9351 117H46.7129V109.411H45.0479V114.567H44.9995L41.75 109.411H39.9937V117Z" fill="#569B51"/>
<path d="M51.7456 114.073H53.4429C53.3408 114.895 52.8198 115.657 51.6274 115.657C50.188 115.657 49.6616 114.535 49.6616 113.165C49.6616 111.774 50.2148 110.678 51.6543 110.678C52.6104 110.678 53.314 111.151 53.3354 112.042H55.0273C55.0005 110.189 53.4375 109.292 51.6382 109.292C49.2964 109.292 47.9751 110.802 47.9751 113.224C47.9751 115.609 49.2534 117.107 51.3965 117.107C52.3848 117.107 53.2119 116.742 53.6416 116.071L53.647 117H55.0273V112.762H51.7456V114.073Z" fill="#569B51"/>
<path d="M59.7002 117.107C61.9185 117.107 63.3203 115.738 63.3203 113.203C63.3203 110.673 61.9185 109.298 59.7002 109.298C57.4712 109.298 56.1069 110.673 56.1069 113.203C56.1069 115.738 57.4712 117.107 59.7002 117.107ZM59.7002 115.689C58.4004 115.689 57.7612 114.728 57.7612 113.203C57.7612 111.683 58.4004 110.721 59.7002 110.721C60.9893 110.721 61.666 111.683 61.666 113.203C61.666 114.728 60.9893 115.689 59.7002 115.689Z" fill="#569B51"/>
<path d="M64.5933 117H67.5044C70.1309 117 71.3179 115.63 71.3179 113.235C71.3179 110.834 70.1846 109.411 67.5151 109.411H64.5933V117ZM66.2583 115.577V110.829H67.4937C69.1104 110.829 69.6689 111.693 69.6689 113.181C69.6689 114.728 69.062 115.577 67.3701 115.577H66.2583Z" fill="#569B51"/>
<path d="M72.5854 117H76.5869C78.2197 117 79.1382 116.184 79.1382 114.895C79.1382 113.788 78.4668 113.192 77.6934 113.047V113.009C78.2251 112.8 78.7461 112.327 78.7461 111.419C78.7461 110.2 77.833 109.411 76.2754 109.411H72.5854V117ZM74.2505 112.488V110.823H76.082C76.7588 110.823 77.0488 111.092 77.0488 111.624C77.0488 112.166 76.7588 112.488 76.0444 112.488H74.2505ZM74.2505 115.582V113.772H76.4204C77.0811 113.772 77.4624 114.094 77.4624 114.685C77.4624 115.201 77.1724 115.582 76.4204 115.582H74.2505Z" fill="#569B51"/>
</svg>
