<svg width="100" height="129" viewBox="0 0 100 129" fill="none" xmlns="http://www.w3.org/2000/svg">
<path d="M75.8852 31.7569C77.2565 32.9211 80.1346 31.9866 79.6203 29.67C77.4891 29.4973 76.2545 30.2046 75.8852 31.7569Z" fill="#569B51"/>
<path d="M85.2585 29.4136C85.3266 29.2855 85.3911 29.1644 85.4472 29.0492C85.5825 28.7355 85.4327 28.5567 85.1839 28.99C85.1371 29.0825 85.0905 29.173 85.0445 29.2624C84.5642 30.1964 84.1432 31.0149 84.1258 32.714C84.1301 33.2181 84.381 32.9939 84.384 32.6669C84.384 31.0563 84.8838 30.1174 85.2585 29.4136Z" fill="#569B51"/>
<path d="M84.8484 29.1315C84.3561 29.8886 83.5874 31.0705 83.4419 32.6813C83.4103 33.0065 83.1398 33.208 83.1807 32.7052C83.3511 31.0152 84.0554 29.9019 84.6548 28.9544C84.7124 28.8633 84.7691 28.7738 84.8242 28.6854C85.1095 28.2756 85.2436 28.4665 85.08 28.7676C85.0149 28.8754 84.936 28.9969 84.8484 29.1315Z" fill="#569B51"/>
<path d="M84.3514 28.8844C83.6824 29.6895 82.5947 30.9986 82.326 32.511C82.2661 32.8321 81.9792 33.0112 82.0636 32.5134C82.3504 30.9925 83.3478 29.7419 84.0859 28.8164C84.2363 28.6279 84.376 28.4527 84.4967 28.2915C84.816 27.9056 84.9329 28.1074 84.7449 28.394C84.6497 28.5254 84.5127 28.6903 84.3514 28.8844Z" fill="#569B51"/>
<path d="M84.4461 27.9775C83.8637 28.5791 81.9621 30.5735 81.3625 32.3858C81.2565 32.6954 80.9468 32.8336 81.1022 32.3522C81.7069 30.587 83.3723 28.6854 84.215 27.8414C84.5871 27.5035 84.6735 27.7191 84.4461 27.9775Z" fill="#569B51"/>
<path fill-rule="evenodd" clip-rule="evenodd" d="M86.1515 25.2721C86.5177 25.1106 86.7237 25.0197 87.3104 25.0013C88.3932 24.9677 88.9822 25.5881 88.9988 26.7017C89.0503 30.1588 87.4825 31.6291 85.7694 33.1401C85.2685 33.582 84.7452 33.9733 84.2109 34.373C82.9186 35.3395 81.5617 36.3545 80.2984 38.2499C79.5546 39.3659 79.135 41.5133 78.684 43.8213C78.4153 45.196 78.1356 46.6278 77.7695 47.9326C77.4674 49.0092 77.1672 50.1605 76.8678 51.3085C76.2621 53.6317 75.6599 55.9412 75.0529 57.5895C74.0955 60.1908 74.8794 66.0945 77.7159 66.8796C74.4835 69.1821 69.274 68.5022 67.3588 65.6234C65.4326 66.1193 64.4524 67.621 63.4699 69.1263C62.6989 70.3075 61.9265 71.4908 60.6947 72.192C58.4141 73.49 56.2365 74.0786 53.2147 74.8092C51.5348 75.1206 50.0622 75.0628 50.5518 74.5473C50.999 73.9016 51.4777 73.286 51.9564 72.6703C53.1696 71.1102 54.3834 69.5491 55.088 67.4947C54.1744 67.3658 53.2615 67.2315 52.3513 67.0975C46.6586 66.2597 41.0758 65.4381 36.1399 66.0815C32.8428 66.5114 30.7461 67.9637 28.7159 69.37C28.0221 69.8505 27.3361 70.3257 26.6125 70.7529C20.5127 74.3537 13.8028 73.4381 13.231 72.0874C12.8916 71.2852 13.8479 70.6972 14.728 70.156C15.2565 69.8311 15.7574 69.523 15.934 69.1957C13.66 69.4917 13.1539 69.1721 12 68.0311C13.9845 65.7513 17.2954 65.5456 20.3059 65.3586C22.7298 65.208 24.9589 65.0695 26.1441 63.8703C27.3235 62.6768 27.9571 61.6527 28.5516 60.6917C29.2094 59.6283 29.8194 58.6422 31.0683 57.5895C34.1316 55.0079 37.8303 52.8818 41.2115 51.8452C42.9286 51.3189 44.7101 50.9405 46.5326 50.5534C50.1706 49.7806 53.972 48.9731 57.751 46.8859C61.3356 44.9061 63.6006 41.2508 65.8727 37.5838C68.4104 33.4884 70.957 29.3786 75.3608 27.5725C77.0686 26.8721 78.9164 26.671 80.6878 26.4782C81.8167 26.3553 82.9146 26.2358 83.9254 25.9926C85.229 25.679 85.775 25.4382 86.1515 25.2721ZM24.9371 70.362C21.449 71.8409 18.8075 72.4495 14.4638 71.8409C14.2208 71.5207 14.8095 71.1598 15.5249 70.7209C16.4327 70.164 17.5445 69.482 17.4198 68.5997C16.8085 68.5336 16.2893 68.5434 15.8064 68.5525C14.9464 68.5687 14.2013 68.5828 13.2548 68.1622C13.4181 67.8682 13.6579 67.6234 13.9597 67.4196C15.2806 66.5255 17.787 66.4005 20.2473 66.2778C22.8319 66.1489 25.3655 66.0225 26.4203 65.0098C27.5598 63.9164 28.3478 62.777 29.1211 61.659C29.21 61.5304 29.2991 61.4016 29.3881 61.2737C30.225 60.0697 31.0906 58.8993 32.409 57.8446C32.918 57.4395 33.4445 57.0559 33.987 56.6948C36.2336 55.1912 39.0131 53.8275 41.7486 52.8875C43.4972 52.2864 45.2566 51.9441 47.0421 51.5968C49.0615 51.204 51.1144 50.8047 53.2222 50.0172C55.6758 49.1001 58.3438 47.9677 60.519 46.3828C61.0311 46.0114 61.5177 45.6075 61.9757 45.1738C64.1646 43.0872 65.735 40.4386 67.2753 37.8409C70.1046 33.069 72.8323 28.4686 79.1059 27.8386C79.9311 27.7558 80.651 27.7502 81.3096 27.745C81.5861 27.7428 81.8517 27.7408 82.1099 27.7331C83.1161 27.7036 84.0067 27.5893 84.9753 27.0555C85.2615 28.0088 85.7089 28.4466 87.6433 28.6216C87.3607 31.0199 85.7248 32.3317 83.8901 33.5906C83.7002 33.7208 83.5081 33.8505 83.3152 33.9807C81.8686 34.9576 80.3737 35.967 79.371 37.4928C78.7191 38.4847 78.2005 40.8218 77.5535 43.7378C77.0449 46.03 76.4569 48.6799 75.6624 51.3152C74.1018 56.4889 71.7456 61.6043 67.6305 63.8458C67.4561 63.4166 67.4322 62.8401 67.4084 62.2636C67.3734 61.419 67.3384 60.5744 66.83 60.1928C66.2769 61.7359 65.6515 63.208 64.9188 64.5764C62.5041 69.0893 58.9289 72.4684 52.9547 73.5C55.7894 69.7492 58.4999 65.8756 58.5586 59.4107C57.5263 59.6291 57.0395 60.9682 56.5261 62.3805C56.0472 63.6975 55.5453 65.0781 54.5563 65.6726C53.2421 65.8125 51.9108 65.8117 50.5708 65.733C48.9909 65.6404 47.3993 65.4411 45.8111 65.2421C41.868 64.7483 37.9459 64.2571 34.2765 65.4084C32.2611 66.0409 30.4569 67.1676 28.7231 68.2504C27.4416 69.0507 26.1986 69.827 24.9371 70.362ZM75.3021 66.75C74.3537 65.8771 73.2793 62.2868 73.1636 60.4771C72.9291 60.7199 72.6477 60.9858 72.3455 61.2714C71.2009 62.3529 69.7574 63.717 69.4237 65.1806C70.2446 66.4618 73.4444 67.1918 75.3021 66.75Z" fill="#569B51"/>
<path d="M24.4336 117H26.0986V111.076H26.1523L28.1074 117H29.6221L31.5879 111.076H31.6362V117H33.2959V109.411H30.7339L28.8701 115.045L27.001 109.411H24.4336V117Z" fill="#569B51"/>
<path d="M39.9722 117H41.7715L39.1289 109.411H36.916L34.2734 117H36.0728L36.6421 115.201H39.4028L39.9722 117ZM37.0664 113.863L38.001 110.925H38.0439L38.9785 113.863H37.0664Z" fill="#569B51"/>
<path d="M48.7593 115.088C48.6089 114.234 48.3188 113.697 47.6152 113.477C48.5337 113.246 48.9849 112.698 48.9849 111.65C48.9849 110.249 48.0557 109.411 46.2563 109.411H42.7383V117.011H44.3979V113.847H45.064C46.6807 113.847 46.9224 114.067 47.1104 115.222L47.4058 117H49.0977L48.7593 115.088ZM44.4087 110.818H46.251C46.9707 110.818 47.3198 111.146 47.3198 111.688C47.3198 112.198 47.0029 112.569 46.3101 112.569H44.4087V110.818Z" fill="#569B51"/>
<path d="M50.4189 117H52.084V109.411H50.4189V117Z" fill="#569B51"/>
<path d="M58.7603 117H60.5596L57.917 109.411H55.7041L53.0615 117H54.8608L55.4302 115.201H58.1909L58.7603 117ZM55.8545 113.863L56.7891 110.925H56.832L57.7666 113.863H55.8545Z" fill="#569B51"/>
<path d="M61.5264 117H64.4375C67.064 117 68.251 115.63 68.251 113.235C68.251 110.834 67.1177 109.411 64.4482 109.411H61.5264V117ZM63.1914 115.577V110.829H64.4268C66.0435 110.829 66.6021 111.693 66.6021 113.181C66.6021 114.728 65.9951 115.577 64.3032 115.577H63.1914Z" fill="#569B51"/>
<path d="M69.5186 117H73.52C75.1528 117 76.0713 116.184 76.0713 114.895C76.0713 113.788 75.3999 113.192 74.6265 113.047V113.009C75.1582 112.8 75.6792 112.327 75.6792 111.419C75.6792 110.2 74.7661 109.411 73.2085 109.411H69.5186V117ZM71.1836 112.488V110.823H73.0151C73.6919 110.823 73.9819 111.092 73.9819 111.624C73.9819 112.166 73.6919 112.488 72.9775 112.488H71.1836ZM71.1836 115.582V113.772H73.3535C74.0142 113.772 74.3955 114.094 74.3955 114.685C74.3955 115.201 74.1055 115.582 73.3535 115.582H71.1836Z" fill="#569B51"/>
</svg>
