<svg width="100" height="129" viewBox="0 0 100 129" fill="none" xmlns="http://www.w3.org/2000/svg">
<path d="M26.8667 117H28.5317V113.901H31.9907V112.494H28.5317V110.818H32.4634V109.411H26.8667V117Z" fill="#569B51"/>
<path d="M33.5913 117H38.8335V115.582H35.2563V109.411H33.5913V117Z" fill="#569B51"/>
<path d="M42.314 117.107C44.3818 117.107 45.3862 115.979 45.3862 114.073V109.411H43.7212V114.18C43.7212 115.072 43.2002 115.593 42.314 115.593C41.4385 115.593 40.939 115.072 40.939 114.18V109.411H39.2739V114.126C39.2739 115.99 40.2622 117.107 42.314 117.107Z" fill="#569B51"/>
<path d="M48.3457 117H50.0107V110.812H52.2881V109.411H46.0791V110.812H48.3457V117Z" fill="#569B51"/>
<path d="M55.1025 117H56.7676V110.812H59.0449V109.411H52.8359V110.812H55.1025V117Z" fill="#569B51"/>
<path d="M60.0708 117H65.9092V115.593H61.7358V113.901H65.3667V112.494H61.7358V110.818H65.6514V109.411H60.0708V117Z" fill="#569B51"/>
<path d="M73.1924 115.088C73.042 114.234 72.752 113.697 72.0483 113.477C72.9668 113.246 73.418 112.698 73.418 111.65C73.418 110.249 72.4888 109.411 70.6895 109.411H67.1714V117.011H68.8311V113.847H69.4971C71.1138 113.847 71.3555 114.067 71.5435 115.222L71.8389 117H73.5308L73.1924 115.088ZM68.8418 110.818H70.6841C71.4038 110.818 71.7529 111.146 71.7529 111.688C71.7529 112.198 71.436 112.569 70.7432 112.569H68.8418V110.818Z" fill="#569B51"/>
<path d="M37.5486 57.4805L30 49.8721L54.7269 25H69.7516L37.5486 57.4805Z" fill="#569B51"/>
<path d="M41.5092 61.5694L54.8046 48.1595H69.7516L56.5569 61.4679L70 75H55.0893L49.0951 68.9939L49.0681 69.0211L41.5092 61.5694Z" fill="#569B51"/>
</svg>
