<svg width="100" height="129" viewBox="0 0 100 129" fill="none" xmlns="http://www.w3.org/2000/svg">
<path d="M29.1655 117H30.9648L28.3223 109.411H26.1094L23.4668 117H25.2661L25.8354 115.201H28.5962L29.1655 117ZM26.2598 113.863L27.1943 110.925H27.2373L28.1719 113.863H26.2598Z" fill="#569B51"/>
<path d="M31.9316 117H33.5967V111.865H33.6558L36.873 117H38.6509V109.411H36.9858V114.567H36.9375L33.688 109.411H31.9316V117Z" fill="#569B51"/>
<path d="M43.6836 114.073H45.3809C45.2788 114.895 44.7578 115.657 43.5654 115.657C42.126 115.657 41.5996 114.535 41.5996 113.165C41.5996 111.774 42.1528 110.678 43.5923 110.678C44.5483 110.678 45.252 111.151 45.2734 112.042H46.9653C46.9385 110.189 45.3755 109.292 43.5762 109.292C41.2344 109.292 39.9131 110.802 39.9131 113.224C39.9131 115.609 41.1914 117.107 43.3345 117.107C44.3228 117.107 45.1499 116.742 45.5796 116.071L45.585 117H46.9653V112.762H43.6836V114.073Z" fill="#569B51"/>
<path d="M51.2031 117.107C53.271 117.107 54.2754 115.979 54.2754 114.073V109.411H52.6104V114.18C52.6104 115.072 52.0894 115.593 51.2031 115.593C50.3276 115.593 49.8281 115.072 49.8281 114.18V109.411H48.1631V114.126C48.1631 115.99 49.1514 117.107 51.2031 117.107Z" fill="#569B51"/>
<path d="M55.833 117H61.0752V115.582H57.498V109.411H55.833V117Z" fill="#569B51"/>
<path d="M67.0532 117H68.8525L66.21 109.411H63.9971L61.3545 117H63.1538L63.7231 115.201H66.4839L67.0532 117ZM64.1475 113.863L65.082 110.925H65.125L66.0596 113.863H64.1475Z" fill="#569B51"/>
<path d="M75.8403 115.088C75.6899 114.234 75.3999 113.697 74.6963 113.477C75.6147 113.246 76.0659 112.698 76.0659 111.65C76.0659 110.249 75.1367 109.411 73.3374 109.411H69.8193V117.011H71.479V113.847H72.145C73.7617 113.847 74.0034 114.067 74.1914 115.222L74.4868 117H76.1787L75.8403 115.088ZM71.4897 110.818H73.332C74.0518 110.818 74.4009 111.146 74.4009 111.688C74.4009 112.198 74.084 112.569 73.3911 112.569H71.4897V110.818Z" fill="#569B51"/>
<path fill-rule="evenodd" clip-rule="evenodd" d="M49.7235 25L26.4862 33.2794L30.0371 64.0234L49.7235 74.9522L69.7227 63.8762L73.5865 33.1322L49.7235 25ZM35.2809 63.0484L49.7605 30.8324L64.9393 63.1404L59.7694 63.0484L56.5864 55.6888H43.5971L40.69 62.9564L35.2809 63.0484ZM54.6913 51.3836L49.7974 41.154L45.4919 51.3836H54.6913Z" fill="#569B51"/>
</svg>
