<svg width="100" height="129" viewBox="0 0 100 129" fill="none" xmlns="http://www.w3.org/2000/svg">
<path d="M31.6094 117H33.2744V111.076H33.3281L35.2832 117H36.7979L38.7637 111.076H38.812V117H40.4717V109.411H37.9097L36.0459 115.045L34.1768 109.411H31.6094V117Z" fill="#569B51"/>
<path d="M43.8931 117H45.5581V114.046L48.4048 109.411H46.5303L44.7578 112.59L42.9209 109.411H41.0464L43.8931 114.046V117Z" fill="#569B51"/>
<path d="M51.4287 117.086C53.3462 117.086 54.3613 116.092 54.3613 114.653C54.3613 112.95 52.9434 112.623 51.751 112.359C50.8862 112.161 50.1396 111.994 50.1396 111.35C50.1396 110.834 50.5479 110.522 51.2407 110.522C51.9604 110.522 52.4546 110.872 52.4707 111.624H54.0605C54.0444 109.765 52.417 109.298 51.2192 109.298C49.624 109.298 48.5122 110.109 48.5122 111.575C48.5122 113.079 49.7529 113.423 50.8755 113.691C51.8154 113.912 52.6855 114.089 52.6855 114.868C52.6855 115.448 52.2236 115.77 51.4771 115.77C50.6768 115.77 50.0537 115.394 50.0215 114.438H48.3833C48.3833 116.522 49.9785 117.086 51.4287 117.086Z" fill="#569B51"/>
<path d="M62.5737 116.662L61.7036 115.797C62.1709 115.152 62.4233 114.282 62.4233 113.203C62.4233 110.673 61.0215 109.298 58.8032 109.298C56.5742 109.298 55.21 110.673 55.21 113.203C55.21 115.738 56.5742 117.107 58.8032 117.107C59.5391 117.107 60.1836 116.957 60.7153 116.667L61.6445 117.607L62.5737 116.662ZM58.8032 115.689C57.5034 115.689 56.8643 114.728 56.8643 113.203C56.8643 111.683 57.5034 110.721 58.8032 110.721C60.0923 110.721 60.769 111.683 60.769 113.203C60.769 113.75 60.6831 114.223 60.5112 114.604L59.3027 113.401L58.4058 114.32L59.6035 115.539C59.3726 115.636 59.104 115.689 58.8032 115.689Z" fill="#569B51"/>
<path d="M63.8359 117H69.0781V115.582H65.501V109.411H63.8359V117Z" fill="#569B51"/>
<path d="M64.458 64.8489C66.2263 64.1021 68.3348 63.8305 71.0552 63.8982C70.9787 63.3901 70.0072 62.7868 69.2951 62.3446C69.0557 62.196 68.8456 62.0655 68.7087 61.963C67.6204 61.1824 66.4642 60.3672 65.3081 59.6545C64.9356 59.4273 64.3993 59.2377 63.8832 59.0553C63.5513 58.9379 63.2278 58.8235 62.9616 58.704C62.6896 58.5934 62.3192 58.4827 61.9194 58.3633C60.969 58.0794 59.852 57.7458 59.4929 57.2442C58.5686 56.0446 57.9236 54.5943 57.2795 53.1459C57.2125 52.9954 57.1456 52.8449 57.0784 52.6947C56.7408 51.9239 56.365 51.138 55.9872 50.3475C55.5662 49.4669 55.1426 48.5807 54.7661 47.7039C54.6019 47.3464 54.4771 47.0085 54.3542 46.6758C54.197 46.2503 54.043 45.8334 53.814 45.3954C51.3312 40.6084 47.6589 36.6022 43.204 33.7844C41.7415 32.8677 40.1094 32.0188 38.3069 31.4418C37.7564 31.277 37.1467 31.2505 36.5309 31.2238C36.0054 31.2009 35.4755 31.1779 34.9743 31.0685H34.2601C33.8478 30.9541 33.4817 30.624 33.1412 30.317C32.9763 30.1682 32.8173 30.0249 32.662 29.9141C31.6077 29.2012 30.5536 28.7255 29.2952 28.2166C28.8534 28.0128 27.5951 27.5375 27.1529 27.9112C26.8807 27.9791 26.7448 28.0807 26.6768 28.3524C26.4047 28.7598 26.643 29.371 26.8128 29.7443C27.15 30.4623 27.5763 30.9876 28.0131 31.5259C28.2372 31.8021 28.4641 32.0817 28.6832 32.3925C28.7877 32.5397 28.8966 32.6902 29.0073 32.8432C29.5095 33.5374 30.0491 34.2833 30.3835 35.0066C30.8552 36.0209 31.1914 37.0933 31.5263 38.1617C31.8192 39.0959 32.1112 40.0271 32.4919 40.914C32.7978 41.6272 33.2742 42.4418 33.7161 43.0869C33.8547 43.2756 34.0354 43.4457 34.2184 43.6179C34.529 43.9102 34.8461 44.2086 34.9745 44.6146C35.3052 45.1649 34.698 46.7403 34.3291 47.6977C34.2427 47.9218 34.1694 48.112 34.1242 48.2473C33.2398 51.0312 33.4098 54.9015 34.4301 57.3119C34.4667 57.3971 34.503 57.4836 34.5396 57.5708C34.9112 58.4565 35.31 59.4071 36.3005 59.6547C36.3313 59.6238 36.3343 59.6139 36.3409 59.6092C36.3489 59.6034 36.3623 59.6052 36.4367 59.5864C36.4865 59.1961 36.5288 58.8088 36.5706 58.4269C36.7286 56.9819 36.878 55.6148 37.3888 54.4601C37.6322 53.864 38.0337 53.3827 38.425 52.9135C38.6354 52.6614 38.8428 52.4127 39.0211 52.1516C39.2368 52.2808 39.3156 52.5739 39.3966 52.8751C39.4433 53.0486 39.4906 53.2248 39.5653 53.3738C39.5965 53.4481 39.6279 53.5229 39.6594 53.5982C40.0748 54.5887 40.522 55.6549 41.0275 56.6328C42.1497 58.8057 43.4082 60.9104 44.8363 62.8119C45.3122 63.4909 45.9926 64.2379 46.6046 64.8487C46.6978 64.9302 46.795 64.9998 46.8908 65.0683C47.0744 65.1995 47.2525 65.327 47.3867 65.5278H47.4549V65.6298C46.8091 65.3935 46.3133 64.8851 45.8294 64.3889C45.5486 64.101 45.2719 63.8172 44.9721 63.593C43.4419 62.4386 41.6057 60.7069 40.5514 59.0435C40.2185 58.3279 39.8665 57.6313 39.5096 56.9252C39.3925 56.6934 39.2748 56.4606 39.1572 56.2257V56.1576C39.0273 56.3306 39.0078 56.5035 38.9842 56.7115C38.9708 56.8302 38.9561 56.9603 38.9189 57.1084C38.793 57.5923 38.7306 58.0955 38.6703 58.5818C38.5191 59.8016 38.381 60.9152 37.2868 61.352C35.5525 62.0653 34.2601 60.1974 33.7161 59.3489C31.982 56.5311 31.5057 51.7781 32.7298 47.9417C32.8246 47.6464 32.8905 47.3306 32.9562 47.0156C33.0794 46.4253 33.2019 45.8382 33.5123 45.3954C33.444 44.9874 33.2091 44.7761 32.9795 44.5695C32.8653 44.4667 32.7524 44.3652 32.662 44.2411C32.1859 43.596 31.7779 42.8492 31.4038 42.1364C30.8603 41.0772 30.4352 39.8607 30.0232 38.6817C29.8937 38.311 29.7655 37.9441 29.6353 37.5869C29.5192 37.289 29.4436 36.9909 29.369 36.6968C29.2906 36.3878 29.2133 36.0831 29.0913 35.7875C28.7696 35.0916 28.2368 34.3958 27.7422 33.7499C27.6093 33.5765 27.4793 33.4066 27.3568 33.2414C27.2242 33.0514 27.0487 32.8311 26.8529 32.5856C25.8942 31.383 24.4519 29.5739 25.2145 27.7414C26.6428 24.2445 31.6421 26.8924 33.5801 28.1147C33.7738 28.2391 33.9789 28.4196 34.1906 28.606C34.4991 28.8777 34.8218 29.1619 35.1445 29.3029C35.5697 29.32 35.9949 29.3454 36.42 29.3709C36.8451 29.3964 37.2701 29.4218 37.6949 29.4389C37.8342 29.4714 37.9727 29.5035 38.1104 29.5353C39.5522 29.8686 40.8991 30.1799 42.0478 30.8306C47.8968 34.2598 51.7056 37.7567 55.2082 43.5283C55.6838 44.305 56.0083 45.1231 56.3387 45.9562C56.5281 46.4337 56.7194 46.9162 56.9423 47.3987C57.7926 49.3676 58.7451 51.4384 59.731 53.3059C59.8548 53.5532 59.9706 53.8086 60.0867 54.0644C60.3849 54.7217 60.6846 55.3824 61.1254 55.92C61.2838 56.146 61.6383 56.2666 61.9779 56.3822C62.1484 56.4402 62.3151 56.4969 62.4514 56.5651C62.8913 56.7913 63.3678 56.9966 63.8481 57.2037C64.5931 57.5247 65.3473 57.8497 65.9883 58.2626C67.9605 59.4847 69.865 60.9444 71.5994 62.4386C71.9499 62.7517 72.2404 63.1347 72.5305 63.5172C72.7752 63.8398 73.0196 64.162 73.2995 64.4416V64.747C72.7555 64.9168 72.2114 65.0866 71.6674 65.2224C71.0754 65.3744 70.5171 65.4339 69.9632 65.493C69.4033 65.5527 68.8479 65.612 68.2668 65.7657C68.1926 65.7868 68.1166 65.8087 68.0391 65.831C67.3703 66.0236 66.5906 66.2481 65.9203 66.3089C65.9541 66.3429 65.9883 66.3766 65.9883 66.3766C66.316 67.3082 67.7097 68.109 68.852 68.7653C69.2502 68.9941 69.6178 69.2053 69.8991 69.3984C71.2253 70.3489 72.4494 71.5033 73.4355 72.8271C73.6047 72.996 73.7739 73.1564 73.9431 73.3169C74.1141 73.479 74.2851 73.6411 74.4558 73.8118C74.571 73.9761 74.6463 74.1643 74.7204 74.3494C74.7994 74.5467 74.8771 74.7405 75 74.8983V75C74.7023 74.894 74.4978 74.6818 74.2949 74.4712C74.1732 74.3449 74.052 74.2191 73.9117 74.1174C73.591 73.8992 73.2705 73.6622 72.9499 73.4252C72.5225 73.1092 72.0951 72.7932 71.6674 72.5217C71.0094 72.1068 70.2984 71.7799 69.5838 71.4514C68.8952 71.1348 68.2033 70.8167 67.5524 70.4168C66.8045 69.9414 66.0901 69.3984 65.3761 68.8553C64.7299 68.3797 64.0163 67.463 63.6078 66.7841C63.5048 66.6227 63.4401 66.4486 63.3777 66.281C63.2958 66.0609 63.2181 65.852 63.0636 65.6978C63.1145 65.2152 63.5839 65.0935 64.0308 64.9776C64.1814 64.9386 64.3294 64.9002 64.458 64.8489Z" fill="#569B51"/>
<path d="M34.9739 34.5652C35.382 34.4635 35.7899 34.3952 36.3679 34.3952C36.4757 34.5029 36.6102 34.5946 36.746 34.6871C36.953 34.8281 37.1631 34.9712 37.2862 35.1764C37.3617 35.282 37.4104 35.3876 37.4591 35.4932C37.52 35.6252 37.5809 35.7572 37.6943 35.8892C37.6943 36.7041 37.4564 37.2472 36.9801 37.5869C36.9801 37.5869 36.9461 37.6207 36.9122 37.6548C36.7763 37.3835 36.6489 37.1122 36.5215 36.8409C36.3938 36.5689 36.2661 36.2969 36.1298 36.025C35.9974 35.8399 35.8444 35.6703 35.6908 35.5C35.4501 35.2331 35.2081 34.9647 35.0419 34.6331H34.9739V34.5652Z" fill="#569B51"/>
</svg>
