<svg width="100" height="129" viewBox="0 0 100 129" fill="none" xmlns="http://www.w3.org/2000/svg">
<path d="M32.4634 117.086C34.3809 117.086 35.396 116.092 35.396 114.653C35.396 112.95 33.978 112.623 32.7856 112.359C31.9209 112.161 31.1743 111.994 31.1743 111.35C31.1743 110.834 31.5825 110.522 32.2754 110.522C32.9951 110.522 33.4893 110.872 33.5054 111.624H35.0952C35.0791 109.765 33.4517 109.298 32.2539 109.298C30.6587 109.298 29.5469 110.109 29.5469 111.575C29.5469 113.079 30.7876 113.423 31.9102 113.691C32.8501 113.912 33.7202 114.089 33.7202 114.868C33.7202 115.448 33.2583 115.77 32.5117 115.77C31.7114 115.77 31.0884 115.394 31.0562 114.438H29.418C29.418 116.522 31.0132 117.086 32.4634 117.086Z" fill="#569B51"/>
<path d="M36.6206 117H38.2803V114.39H40.4609C42.0991 114.39 43.0713 113.471 43.0713 111.946C43.0713 110.42 42.1045 109.411 40.4609 109.411H36.6206V117ZM38.2803 112.982V110.818H40.1924C41.041 110.818 41.417 111.205 41.417 111.897C41.417 112.574 41.0571 112.982 40.1924 112.982H38.2803Z" fill="#569B51"/>
<path d="M50.2148 115.088C50.0645 114.234 49.7744 113.697 49.0708 113.477C49.9893 113.246 50.4404 112.698 50.4404 111.65C50.4404 110.249 49.5112 109.411 47.7119 109.411H44.1938V117.011H45.8535V113.847H46.5195C48.1362 113.847 48.3779 114.067 48.5659 115.222L48.8613 117H50.5532L50.2148 115.088ZM45.8643 110.818H47.7065C48.4263 110.818 48.7754 111.146 48.7754 111.688C48.7754 112.198 48.4585 112.569 47.7656 112.569H45.8643V110.818Z" fill="#569B51"/>
<path d="M51.8745 117H53.5396V109.411H51.8745V117Z" fill="#569B51"/>
<path d="M55.269 117H56.9341V111.865H56.9932L60.2104 117H61.9883V109.411H60.3232V114.567H60.2749L57.0254 109.411H55.269V117Z" fill="#569B51"/>
<path d="M67.021 114.073H68.7183C68.6162 114.895 68.0952 115.657 66.9028 115.657C65.4634 115.657 64.937 114.535 64.937 113.165C64.937 111.774 65.4902 110.678 66.9297 110.678C67.8857 110.678 68.5894 111.151 68.6108 112.042H70.3027C70.2759 110.189 68.7129 109.292 66.9136 109.292C64.5718 109.292 63.2505 110.802 63.2505 113.224C63.2505 115.609 64.5288 117.107 66.6719 117.107C67.6602 117.107 68.4873 116.742 68.917 116.071L68.9224 117H70.3027V112.762H67.021V114.073Z" fill="#569B51"/>
<path d="M70.471 27.6038C69.7678 29.2833 68.8757 30.8781 67.8012 32.3428C63.0998 27.6429 56.7184 25 50.0699 25C36.3173 25 25 36.3267 25 50.0944C25 56.962 27.813 63.5366 32.788 68.2756L33.7126 69.0958C38.2317 72.9039 43.9555 75 49.8616 75C62.937 75 73.9287 64.7539 74.8599 51.6957C75.5436 45.3033 73.6683 37.2185 70.471 27.6038ZM36.3498 68.4188C35.9461 68.9201 35.3275 69.213 34.6829 69.213C33.5042 69.213 32.5405 68.2431 32.5405 67.0648C32.5405 65.8866 33.5108 64.9167 34.6829 64.9167C35.1712 64.9167 35.6531 65.0859 36.0308 65.3984C36.9489 66.1405 37.0922 67.501 36.3498 68.4188ZM70.3668 60.9068C64.1807 69.1544 50.9686 66.3748 42.4969 66.7719C42.4969 66.7719 40.9927 66.863 39.482 67.1104C39.482 67.1104 40.0485 66.8696 40.7843 66.5896C46.7295 64.5196 49.5425 64.116 53.1565 62.2608C59.9612 58.7977 66.6877 51.2205 68.0877 43.3375C65.4961 50.9211 57.643 57.4372 50.4867 60.0866C45.5834 61.8962 36.7275 63.6538 36.7275 63.6538L36.3694 63.465C30.3396 60.5292 30.1572 47.4645 41.1164 43.2463C45.9155 41.3976 50.5062 42.4131 55.6895 41.1763C61.2244 39.8613 67.6254 35.7082 70.2301 30.2923C73.1473 38.9565 76.6571 52.5225 70.3668 60.9068Z" fill="#569B51"/>
</svg>
