<svg width="100" height="129" viewBox="0 0 100 129" fill="none" xmlns="http://www.w3.org/2000/svg">
<path d="M23.5688 117H25.5078L27.2266 114.331L28.9614 117H30.895L28.3276 113.203L30.8789 109.411H28.9507L27.2373 112.128L25.5186 109.411H23.5796L26.1147 113.203L23.5688 117Z" fill="#569B51"/>
<path d="M36.8354 117H38.6348L35.9922 109.411H33.7793L31.1367 117H32.936L33.5054 115.201H36.2661L36.8354 117ZM33.9297 113.863L34.8643 110.925H34.9072L35.8418 113.863H33.9297Z" fill="#569B51"/>
<path d="M39.6016 117H41.2666V111.076H41.3203L43.2754 117H44.79L46.7559 111.076H46.8042V117H48.4639V109.411H45.9019L44.0381 115.045L42.1689 109.411H39.6016V117Z" fill="#569B51"/>
<path d="M55.1401 117H56.9395L54.2969 109.411H52.084L49.4414 117H51.2407L51.8101 115.201H54.5708L55.1401 117ZM52.2344 113.863L53.1689 110.925H53.2119L54.1465 113.863H52.2344Z" fill="#569B51"/>
<path d="M63.9272 115.088C63.7769 114.234 63.4868 113.697 62.7832 113.477C63.7017 113.246 64.1528 112.698 64.1528 111.65C64.1528 110.249 63.2236 109.411 61.4243 109.411H57.9062V117.011H59.5659V113.847H60.2319C61.8486 113.847 62.0903 114.067 62.2783 115.222L62.5737 117H64.2656L63.9272 115.088ZM59.5767 110.818H61.4189C62.1387 110.818 62.4878 111.146 62.4878 111.688C62.4878 112.198 62.1709 112.569 61.478 112.569H59.5767V110.818Z" fill="#569B51"/>
<path d="M65.5869 117H67.252V109.411H65.5869V117Z" fill="#569B51"/>
<path d="M68.9814 117H70.6465V111.865H70.7056L73.9229 117H75.7007V109.411H74.0356V114.567H73.9873L70.7378 109.411H68.9814V117Z" fill="#569B51"/>
<path d="M38.8697 25C37.3843 25.0033 35.9302 25.8649 35.1825 27.1791L23.5522 47.8209C22.8159 49.1386 22.8159 50.8611 23.5522 52.1789L35.1825 72.8209C35.9302 74.1351 37.3843 74.9969 38.8697 75H62.1304C63.6158 74.9967 65.0699 74.1351 65.8175 72.8209L77.4479 52.1789C78.1841 50.8611 78.1839 49.1386 77.4479 47.8209L65.8175 27.1791C65.0699 25.8647 63.6158 25.0031 62.1304 25H38.8697ZM39.0809 37.0759C39.1129 37.0726 39.1464 37.0726 39.1784 37.0759H43.1904C43.2796 37.0789 43.3665 37.1048 43.4432 37.1513C43.5199 37.1978 43.5839 37.2634 43.6291 37.342L50.4352 49.7337C50.4695 49.7952 50.4914 49.8632 50.4996 49.9335C50.5082 49.8632 50.5301 49.7952 50.5645 49.7337L57.3542 37.342C57.401 37.2612 57.4675 37.1942 57.5472 37.1476C57.6269 37.1009 57.7172 37.0762 57.809 37.0759H61.8212C62.1764 37.079 62.4426 37.5362 62.2761 37.8576L55.6324 50L62.2761 62.1257C62.4582 62.4489 62.1858 62.9272 61.8212 62.9241H57.809C57.7156 62.9221 57.6243 62.8949 57.5444 62.8452C57.4645 62.7956 57.3989 62.7253 57.3542 62.6414L50.5645 50.2494C50.5301 50.1881 50.5082 50.1199 50.4998 50.0498C50.4915 50.1201 50.4695 50.188 50.4352 50.2496L43.6289 62.6414C43.5856 62.7229 43.5226 62.7917 43.4459 62.8412C43.3691 62.8907 43.2813 62.9192 43.1906 62.9241H39.1782C38.8136 62.9274 38.5412 62.4489 38.7234 62.1257L45.367 50L38.7234 37.8576C38.5642 37.5643 38.7586 37.1385 39.0809 37.0759Z" fill="#569B51"/>
</svg>
