<svg width="100" height="129" viewBox="0 0 100 129" fill="none" xmlns="http://www.w3.org/2000/svg">
<path d="M36.8569 117H37.9688C39.5317 117 40.3857 116.361 40.3857 114.835V109.411H38.7207V114.508C38.7207 115.362 38.3877 115.593 37.6143 115.593H36.8569V117Z" fill="#569B51"/>
<path d="M46.9438 117H48.7432L46.1006 109.411H43.8877L41.2451 117H43.0444L43.6138 115.201H46.3745L46.9438 117ZM44.0381 113.863L44.9727 110.925H45.0156L45.9502 113.863H44.0381Z" fill="#569B51"/>
<path d="M51.1172 117H53.3301L55.9727 109.411H54.1733L52.2451 115.501H52.2021L50.2739 109.411H48.4746L51.1172 117Z" fill="#569B51"/>
<path d="M61.4028 117H63.2021L60.5596 109.411H58.3467L55.7041 117H57.5034L58.0728 115.201H60.8335L61.4028 117ZM58.4971 113.863L59.4316 110.925H59.4746L60.4092 113.863H58.4971Z" fill="#569B51"/>
<path fill-rule="evenodd" clip-rule="evenodd" d="M55.6456 19.8709C55.6456 19.8709 61.5832 25.8103 50.0141 34.9439C42.8402 40.6092 45.4961 44.3915 48.0456 48.0224L48.0456 48.0224C48.7931 49.087 49.5314 50.1385 50.0102 51.2207C44.5951 46.3346 40.621 42.0337 43.2871 38.0306C44.5891 36.0755 46.658 34.4555 48.7512 32.8166C52.949 29.5296 57.2442 26.1664 55.6456 19.8709ZM52.5851 47.1945C55.3415 50.368 51.861 53.2239 51.861 53.2239C51.861 53.2239 58.8597 49.6108 55.6455 45.0864C55.5166 44.9051 55.3889 44.7278 55.2636 44.5538C52.4729 40.6774 50.8767 38.4602 62.8043 31.5426C62.8045 31.5424 43.2415 36.4283 52.5851 47.1945ZM42.4283 64.0639C42.4283 64.0639 40.2446 65.3338 43.9824 65.7635C48.5106 66.2801 50.825 66.206 55.8152 65.2615C55.8152 65.2615 57.1271 66.0842 58.9594 66.7967C47.7727 71.5911 33.6418 66.519 42.4283 64.0639ZM41.0613 57.8075C41.0613 57.8075 38.6121 59.6205 42.3527 60.0074C47.1899 60.5064 51.01 60.5472 57.6202 59.2744C57.6202 59.2744 58.5346 60.2013 59.9722 60.7082C46.4467 64.6632 31.3819 61.0201 41.0613 57.8075ZM65.6006 71.053C68.9964 70.0231 67.3804 68.6914 67.3804 68.6914C73.2967 71.36 54.5275 76.7244 31.7192 73.0256C23.3558 71.6697 35.7446 66.936 38.0121 68.5334C38.0121 68.5334 37.2953 68.4827 36.0409 68.7547C34.8382 69.013 31.0146 70.2439 33.0535 71.1311C38.7255 73.5998 59.1435 73.0091 65.6006 71.053ZM39.8005 54.6877C33.0925 53.7919 43.4784 51.325 43.4784 51.325C43.4784 51.325 39.4451 51.053 34.4847 53.4509C28.6192 56.2881 48.9935 57.5787 59.5402 54.8047C60.6366 54.0562 62.1522 53.4071 62.1522 53.4071C62.1522 53.4071 57.8362 54.1778 53.538 54.5404C48.2789 54.9811 42.6328 55.0669 39.8005 54.6877ZM64.4136 51.5354C67.8737 50.814 72.8306 56.168 62.1094 61.7391C62.06 61.8719 61.8938 62.02 61.8938 62.02C76.2125 58.2557 70.9483 48.7518 64.1034 51.1582C63.5024 51.3717 63.1874 51.8649 63.1874 51.8649C63.1874 51.8649 63.5655 51.7119 64.4136 51.5354ZM71 71.6009C70.6259 76.4701 54.8229 77.4944 44.5318 76.8356C37.839 76.4064 36.4812 75.3358 36.4532 75.3138L36.4527 75.3134C42.8781 76.3728 53.7116 76.5656 62.495 74.9128C70.2807 73.4467 71 71.6009 71 71.6009Z" fill="#569B51"/>
</svg>
