<svg width="100" height="129" viewBox="0 0 100 129" fill="none" xmlns="http://www.w3.org/2000/svg">
<path d="M19.707 117H23.7085C25.3413 117 26.2598 116.184 26.2598 114.895C26.2598 113.788 25.5884 113.192 24.8149 113.047V113.009C25.3467 112.8 25.8677 112.327 25.8677 111.419C25.8677 110.2 24.9546 109.411 23.397 109.411H19.707V117ZM21.3721 112.488V110.823H23.2036C23.8804 110.823 24.1704 111.092 24.1704 111.624C24.1704 112.166 23.8804 112.488 23.166 112.488H21.3721ZM21.3721 115.582V113.772H23.542C24.2026 113.772 24.584 114.094 24.584 114.685C24.584 115.201 24.2939 115.582 23.542 115.582H21.3721Z" fill="#569B51"/>
<path d="M27.4736 117H29.1387V109.411H27.4736V117Z" fill="#569B51"/>
<path d="M32.4312 117H34.0962V110.812H36.3735V109.411H30.1646V110.812H32.4312V117Z" fill="#569B51"/>
<path d="M37.3994 117H41.4009C43.0337 117 43.9521 116.184 43.9521 114.895C43.9521 113.788 43.2808 113.192 42.5073 113.047V113.009C43.0391 112.8 43.5601 112.327 43.5601 111.419C43.5601 110.2 42.647 109.411 41.0894 109.411H37.3994V117ZM39.0645 112.488V110.823H40.896C41.5728 110.823 41.8628 111.092 41.8628 111.624C41.8628 112.166 41.5728 112.488 40.8584 112.488H39.0645ZM39.0645 115.582V113.772H41.2344C41.895 113.772 42.2764 114.094 42.2764 114.685C42.2764 115.201 41.9863 115.582 41.2344 115.582H39.0645Z" fill="#569B51"/>
<path d="M47.9697 117.107C50.0376 117.107 51.042 115.979 51.042 114.073V109.411H49.377V114.18C49.377 115.072 48.856 115.593 47.9697 115.593C47.0942 115.593 46.5947 115.072 46.5947 114.18V109.411H44.9297V114.126C44.9297 115.99 45.918 117.107 47.9697 117.107Z" fill="#569B51"/>
<path d="M55.7417 117.107C57.729 117.107 59.061 116.055 59.2061 114.003H57.5356C57.4551 115.077 56.7998 115.689 55.7417 115.689C54.4419 115.689 53.8027 114.728 53.8027 113.203C53.8027 111.683 54.4419 110.721 55.7417 110.721C56.7998 110.721 57.4551 111.333 57.5356 112.408H59.2061C59.061 110.356 57.729 109.298 55.7417 109.298C53.5127 109.298 52.1484 110.673 52.1484 113.203C52.1484 115.738 53.5127 117.107 55.7417 117.107Z" fill="#569B51"/>
<path d="M65.5601 117H67.5581L64.9585 112.085L67.4292 109.411H65.3184L62.1172 113.127V109.411H60.4521V117H62.1172V115.163L63.7983 113.342L65.5601 117Z" fill="#569B51"/>
<path d="M68.541 117H74.3794V115.593H70.2061V113.901H73.8369V112.494H70.2061V110.818H74.1216V109.411H68.541V117Z" fill="#569B51"/>
<path d="M77.0435 117H78.7085V110.812H80.9858V109.411H74.7769V110.812H77.0435V117Z" fill="#569B51"/>
<path d="M26.5902 28.0001C26.3611 27.9972 26.1341 28.0443 25.9251 28.1383C25.7162 28.2323 25.5304 28.3709 25.3808 28.5442C25.2311 28.7175 25.1213 28.9215 25.0591 29.1417C24.9968 29.3619 24.9836 29.5931 25.0203 29.819L31.6849 70.2204C31.7679 70.7148 32.0227 71.1642 32.4045 71.4896C32.7864 71.8151 33.2709 71.9957 33.7729 71.9999H65.7453C66.1216 72.0047 66.487 71.8743 66.7752 71.6326C67.0633 71.3909 67.2549 71.0539 67.315 70.6829L73.9798 29.8268C74.0164 29.601 74.0031 29.3698 73.9408 29.1496C73.8785 28.9294 73.7687 28.7255 73.6191 28.5522C73.4694 28.3789 73.2836 28.2404 73.0747 28.1465C72.8658 28.0525 72.6388 28.0054 72.4097 28.0083L26.5902 28.0001ZM54.6533 57.1999H44.4485L41.6854 42.7843H57.1261L54.6533 57.1999Z" fill="#569B51"/>
</svg>
