<svg width="100" height="129" viewBox="0 0 100 129" fill="none" xmlns="http://www.w3.org/2000/svg">
<path d="M30.4062 117H32.0713V113.896H35.4229V117H37.0879V109.411H35.4229V112.499H32.0713V109.411H30.4062V117Z" fill="#569B51"/>
<path d="M40.3804 117H42.0454V110.812H44.3228V109.411H38.1138V110.812H40.3804V117Z" fill="#569B51"/>
<path d="M45.3486 117H47.0137V111.076H47.0674L49.0225 117H50.5371L52.5029 111.076H52.5513V117H54.2109V109.411H51.6489L49.7852 115.045L47.916 109.411H45.3486V117Z" fill="#569B51"/>
<path d="M55.9404 117H61.1826V115.582H57.6055V109.411H55.9404V117Z" fill="#569B51"/>
<path d="M67.7354 111.79C67.1016 111.79 66.543 112.021 66.1455 112.386L66.1079 112.37L66.3818 110.812H69.7173V109.411H65.2593L64.4805 113.691H66.0972C66.3228 113.315 66.7041 113.063 67.1821 113.063C67.8374 113.063 68.3584 113.53 68.3584 114.363C68.3584 115.115 67.9341 115.652 67.1553 115.652C66.6074 115.652 66.1401 115.378 66.0488 114.685H64.4053C64.4482 116.468 65.8608 117.107 67.1445 117.107C68.8794 117.107 70.0503 115.947 70.0503 114.314C70.0503 112.821 69.0728 111.79 67.7354 111.79Z" fill="#569B51"/>
<path d="M36.7963 24H34.4425V31.0122H36.7964V28.6641H38.9497V31.0122H41.3037V24H38.9496V26.3156H36.7963V24Z" fill="#569B51"/>
<path d="M42.327 26.3254H44.399L44.3995 31.0122H46.7534V26.3254H48.8267V24H42.327V26.3254Z" fill="#569B51"/>
<path d="M52.3126 24H49.8582V31.0122H52.1613V27.5366L53.7818 30.0298H53.8224L55.4419 27.5366V31.0122H57.7862V24H55.3308L53.8224 26.4639L52.3126 24Z" fill="#569B51"/>
<path d="M61.3123 24H58.9577L58.9575 31.0122H64.6226V28.6944H61.3123V24Z" fill="#569B51"/>
<path fill-rule="evenodd" clip-rule="evenodd" d="M68 34.2193L64.6292 71.8176L49.4774 76L34.3673 71.8234L31 34.2193H68ZM43.3706 51.2407L42.9472 46.518L60.6723 46.518L61.087 41.906L37.885 41.906L39.1344 55.8527L55.1877 55.8527L54.6499 61.8341L49.4837 63.2225L49.4796 63.2239L44.321 61.837L43.9912 58.1588H39.3413L39.9902 65.4003L49.4786 68.0228L49.4999 68.017V68.0161L58.9796 65.4003L60.1379 52.4792L60.2509 51.2407L43.3706 51.2407Z" fill="#569B51"/>
</svg>
