<svg width="100" height="129" viewBox="0 0 100 129" fill="none" xmlns="http://www.w3.org/2000/svg">
<path d="M35.9075 29.4814L49.9973 28L64.8698 44.0462L49.9976 72.9994L49.9963 72.9982L25 44.0464L35.9075 29.4825L35.9075 29.4814Z" fill="#569B51"/>
<path d="M50.002 73L64.8746 44.0463L64.0918 29.4815L75 44.0463L50.002 73Z" fill="#569B51"/>
<path d="M49.9973 28L64.0872 29.4814L64.8698 44.0462L49.9973 28Z" fill="#569B51"/>
<path d="M31.3247 117.086C33.2422 117.086 34.2573 116.092 34.2573 114.653C34.2573 112.95 32.8394 112.623 31.647 112.359C30.7822 112.161 30.0356 111.994 30.0356 111.35C30.0356 110.834 30.4438 110.522 31.1367 110.522C31.8564 110.522 32.3506 110.872 32.3667 111.624H33.9565C33.9404 109.765 32.313 109.298 31.1152 109.298C29.52 109.298 28.4082 110.109 28.4082 111.575C28.4082 113.079 29.6489 113.423 30.7715 113.691C31.7114 113.912 32.5815 114.089 32.5815 114.868C32.5815 115.448 32.1196 115.77 31.373 115.77C30.5728 115.77 29.9497 115.394 29.9175 114.438H28.2793C28.2793 116.522 29.8745 117.086 31.3247 117.086Z" fill="#569B51"/>
<path d="M40.5898 117H42.5879L39.9883 112.085L42.459 109.411H40.3481L37.147 113.127V109.411H35.4819V117H37.147V115.163L38.8281 113.342L40.5898 117Z" fill="#569B51"/>
<path d="M43.5708 117H49.4092V115.593H45.2358V113.901H48.8667V112.494H45.2358V110.818H49.1514V109.411H43.5708V117Z" fill="#569B51"/>
<path d="M52.0732 117H53.7383V110.812H56.0156V109.411H49.8066V110.812H52.0732V117Z" fill="#569B51"/>
<path d="M59.8506 117.107C61.8379 117.107 63.1699 116.055 63.3149 114.003H61.6445C61.564 115.077 60.9087 115.689 59.8506 115.689C58.5508 115.689 57.9116 114.728 57.9116 113.203C57.9116 111.683 58.5508 110.721 59.8506 110.721C60.9087 110.721 61.564 111.333 61.6445 112.408H63.3149C63.1699 110.356 61.8379 109.298 59.8506 109.298C57.6216 109.298 56.2573 110.673 56.2573 113.203C56.2573 115.738 57.6216 117.107 59.8506 117.107Z" fill="#569B51"/>
<path d="M64.561 117H66.2261V113.896H69.5776V117H71.2427V109.411H69.5776V112.499H66.2261V109.411H64.561V117Z" fill="#569B51"/>
</svg>
