<svg width="100" height="129" viewBox="0 0 100 129" fill="none" xmlns="http://www.w3.org/2000/svg">
<path d="M32.642 63.6475C30.9917 63.6475 29.4915 62.2554 29.4915 60.554C29.4915 58.8525 30.8417 57.4604 32.642 57.4604C34.4423 57.4604 35.7926 58.8525 35.7926 60.554C35.7926 62.2554 34.2923 63.6475 32.642 63.6475ZM71.3487 46.7878C71.0486 44.3129 69.5484 42.3022 67.598 40.7554L66.8479 40.1367L66.2478 40.9101C65.0476 42.3022 64.5975 44.777 64.7475 46.6331C64.8976 48.0252 65.3476 49.4173 66.0978 50.5C65.4977 50.8094 64.7475 51.1187 64.1474 51.4281C62.7972 51.8921 61.447 52.0468 60.0967 52.0468H21.24L21.09 52.9748C20.79 55.9137 21.24 59.0072 22.4402 61.7914L23.0404 62.8741V63.0288C26.641 69.2158 33.0921 72 40.1433 72C53.6456 72 64.7475 65.9676 69.9984 52.9748C73.449 53.1295 76.8996 52.2014 78.5499 48.7986L79 48.0252L78.2499 47.5612C76.2995 46.3237 73.5991 46.1691 71.3487 46.7878ZM51.9953 44.3129H46.1443V50.3453H51.9953V44.3129ZM51.9953 36.7338H46.1443V42.7662H51.9953V36.7338ZM51.9953 29H46.1443V35.0324H51.9953V29ZM59.1966 44.3129H53.3456V50.3453H59.1966V44.3129ZM37.4428 44.3129H31.5918V50.3453H37.4428V44.3129ZM44.7941 44.3129H38.9431V50.3453H44.7941V44.3129ZM30.2416 44.3129H24.3906V50.3453H30.2416V44.3129ZM44.7941 36.7338H38.9431V42.7662H44.7941V36.7338ZM37.4428 36.7338H31.5918V42.7662H37.4428V36.7338Z" fill="#569B51"/>
<path d="M27.4844 117H30.3955C33.022 117 34.209 115.63 34.209 113.235C34.209 110.834 33.0757 109.411 30.4062 109.411H27.4844V117ZM29.1494 115.577V110.829H30.3848C32.0015 110.829 32.5601 111.693 32.5601 113.181C32.5601 114.728 31.9531 115.577 30.2612 115.577H29.1494Z" fill="#569B51"/>
<path d="M38.6187 117.107C40.8369 117.107 42.2388 115.738 42.2388 113.203C42.2388 110.673 40.8369 109.298 38.6187 109.298C36.3896 109.298 35.0254 110.673 35.0254 113.203C35.0254 115.738 36.3896 117.107 38.6187 117.107ZM38.6187 115.689C37.3188 115.689 36.6797 114.728 36.6797 113.203C36.6797 111.683 37.3188 110.721 38.6187 110.721C39.9077 110.721 40.5845 111.683 40.5845 113.203C40.5845 114.728 39.9077 115.689 38.6187 115.689Z" fill="#569B51"/>
<path d="M46.6538 117.107C48.6411 117.107 49.9731 116.055 50.1182 114.003H48.4478C48.3672 115.077 47.7119 115.689 46.6538 115.689C45.354 115.689 44.7148 114.728 44.7148 113.203C44.7148 111.683 45.354 110.721 46.6538 110.721C47.7119 110.721 48.3672 111.333 48.4478 112.408H50.1182C49.9731 110.356 48.6411 109.298 46.6538 109.298C44.4248 109.298 43.0605 110.673 43.0605 113.203C43.0605 115.738 44.4248 117.107 46.6538 117.107Z" fill="#569B51"/>
<path d="M56.4722 117H58.4702L55.8706 112.085L58.3413 109.411H56.2305L53.0293 113.127V109.411H51.3643V117H53.0293V115.163L54.7104 113.342L56.4722 117Z" fill="#569B51"/>
<path d="M59.4531 117H65.2915V115.593H61.1182V113.901H64.749V112.494H61.1182V110.818H65.0337V109.411H59.4531V117Z" fill="#569B51"/>
<path d="M72.5747 115.088C72.4243 114.234 72.1343 113.697 71.4307 113.477C72.3491 113.246 72.8003 112.698 72.8003 111.65C72.8003 110.249 71.8711 109.411 70.0718 109.411H66.5537V117.011H68.2134V113.847H68.8794C70.4961 113.847 70.7378 114.067 70.9258 115.222L71.2212 117H72.9131L72.5747 115.088ZM68.2241 110.818H70.0664C70.7861 110.818 71.1353 111.146 71.1353 111.688C71.1353 112.198 70.8184 112.569 70.1255 112.569H68.2241V110.818Z" fill="#569B51"/>
</svg>
