<svg width="100" height="129" viewBox="0 0 100 129" fill="none" xmlns="http://www.w3.org/2000/svg">
<path d="M27.5458 34V37.5929L29.0866 39.6805L24.929 41.0763V34H27.5458Z" fill="#569B51"/>
<path d="M34.5843 34L34.5952 37.6648L40.3088 34H34.5843Z" fill="#569B51"/>
<path d="M55.557 34L56.1383 35.3528H52.3787V36.945L50.4913 35.3528H45.7078L40.6887 40.4629L44.0204 44.854L54.8627 40.735L64.8135 48.8547L70.309 50.2006L71.1566 52.3679L61.3892 53.2459L60.8889 51.8804L59.5704 52.3975L54.1436 47.8052L44.1657 54.2938L46.9936 66H79V44.495H75.1468V34H55.557Z" fill="#569B51"/>
<path d="M39.6482 66L39.4209 65.0598L38.104 64.5131L35.5659 53.9788L33.6967 53.4683L28.628 45.8248L25.8892 45.8253V48.0532L24.6951 47.116V50.3767L21.8893 49.1806V44.4952H21V66H39.6482Z" fill="#569B51"/>
<path d="M26.2705 117.107C28.2578 117.107 29.5898 116.055 29.7349 114.003H28.0645C27.9839 115.077 27.3286 115.689 26.2705 115.689C24.9707 115.689 24.3315 114.728 24.3315 113.203C24.3315 111.683 24.9707 110.721 26.2705 110.721C27.3286 110.721 27.9839 111.333 28.0645 112.408H29.7349C29.5898 110.356 28.2578 109.298 26.2705 109.298C24.0415 109.298 22.6772 110.673 22.6772 113.203C22.6772 115.738 24.0415 117.107 26.2705 117.107Z" fill="#569B51"/>
<path d="M34.166 117.107C36.3843 117.107 37.7861 115.738 37.7861 113.203C37.7861 110.673 36.3843 109.298 34.166 109.298C31.937 109.298 30.5728 110.673 30.5728 113.203C30.5728 115.738 31.937 117.107 34.166 117.107ZM34.166 115.689C32.8662 115.689 32.2271 114.728 32.2271 113.203C32.2271 111.683 32.8662 110.721 34.166 110.721C35.4551 110.721 36.1318 111.683 36.1318 113.203C36.1318 114.728 35.4551 115.689 34.166 115.689Z" fill="#569B51"/>
<path d="M41.938 117.107C44.0059 117.107 45.0103 115.979 45.0103 114.073V109.411H43.3452V114.18C43.3452 115.072 42.8242 115.593 41.938 115.593C41.0625 115.593 40.563 115.072 40.563 114.18V109.411H38.8979V114.126C38.8979 115.99 39.8862 117.107 41.938 117.107Z" fill="#569B51"/>
<path d="M49.71 117.107C51.6973 117.107 53.0293 116.055 53.1743 114.003H51.5039C51.4233 115.077 50.7681 115.689 49.71 115.689C48.4102 115.689 47.771 114.728 47.771 113.203C47.771 111.683 48.4102 110.721 49.71 110.721C50.7681 110.721 51.4233 111.333 51.5039 112.408H53.1743C53.0293 110.356 51.6973 109.298 49.71 109.298C47.481 109.298 46.1167 110.673 46.1167 113.203C46.1167 115.738 47.481 117.107 49.71 117.107Z" fill="#569B51"/>
<path d="M54.4204 117H56.0854V113.896H59.437V117H61.1021V109.411H59.437V112.499H56.0854V109.411H54.4204V117Z" fill="#569B51"/>
<path d="M62.8315 117H65.7427C68.3691 117 69.5562 115.63 69.5562 113.235C69.5562 110.834 68.4229 109.411 65.7534 109.411H62.8315V117ZM64.4966 115.577V110.829H65.7319C67.3486 110.829 67.9072 111.693 67.9072 113.181C67.9072 114.728 67.3003 115.577 65.6084 115.577H64.4966Z" fill="#569B51"/>
<path d="M70.8237 117H74.8252C76.458 117 77.3765 116.184 77.3765 114.895C77.3765 113.788 76.7051 113.192 75.9316 113.047V113.009C76.4634 112.8 76.9844 112.327 76.9844 111.419C76.9844 110.2 76.0713 109.411 74.5137 109.411H70.8237V117ZM72.4888 112.488V110.823H74.3203C74.9971 110.823 75.2871 111.092 75.2871 111.624C75.2871 112.166 74.9971 112.488 74.2827 112.488H72.4888ZM72.4888 115.582V113.772H74.6587C75.3193 113.772 75.7007 114.094 75.7007 114.685C75.7007 115.201 75.4106 115.582 74.6587 115.582H72.4888Z" fill="#569B51"/>
</svg>
