<svg width="100" height="129" viewBox="0 0 100 129" fill="none" xmlns="http://www.w3.org/2000/svg">
<path d="M14.5132 117H16.1729V114.39H18.3535C19.9917 114.39 20.9639 113.471 20.9639 111.946C20.9639 110.42 19.9971 109.411 18.3535 109.411H14.5132V117ZM16.1729 112.982V110.818H18.085C18.9336 110.818 19.3096 111.205 19.3096 111.897C19.3096 112.574 18.9497 112.982 18.085 112.982H16.1729Z" fill="#569B51"/>
<path d="M25.3359 117.107C27.5542 117.107 28.9561 115.738 28.9561 113.203C28.9561 110.673 27.5542 109.298 25.3359 109.298C23.1069 109.298 21.7427 110.673 21.7427 113.203C21.7427 115.738 23.1069 117.107 25.3359 117.107ZM25.3359 115.689C24.0361 115.689 23.397 114.728 23.397 113.203C23.397 111.683 24.0361 110.721 25.3359 110.721C26.625 110.721 27.3018 111.683 27.3018 113.203C27.3018 114.728 26.625 115.689 25.3359 115.689Z" fill="#569B51"/>
<path d="M32.8394 117.086C34.7568 117.086 35.772 116.092 35.772 114.653C35.772 112.95 34.354 112.623 33.1616 112.359C32.2969 112.161 31.5503 111.994 31.5503 111.35C31.5503 110.834 31.9585 110.522 32.6514 110.522C33.3711 110.522 33.8652 110.872 33.8813 111.624H35.4712C35.4551 109.765 33.8276 109.298 32.6299 109.298C31.0347 109.298 29.9229 110.109 29.9229 111.575C29.9229 113.079 31.1636 113.423 32.2861 113.691C33.2261 113.912 34.0962 114.089 34.0962 114.868C34.0962 115.448 33.6343 115.77 32.8877 115.77C32.0874 115.77 31.4644 115.394 31.4321 114.438H29.7939C29.7939 116.522 31.3892 117.086 32.8394 117.086Z" fill="#569B51"/>
<path d="M38.4092 117H40.0742V110.812H42.3516V109.411H36.1426V110.812H38.4092V117Z" fill="#569B51"/>
<path d="M46.353 114.073H48.0503C47.9482 114.895 47.4272 115.657 46.2349 115.657C44.7954 115.657 44.269 114.535 44.269 113.165C44.269 111.774 44.8223 110.678 46.2617 110.678C47.2178 110.678 47.9214 111.151 47.9429 112.042H49.6348C49.6079 110.189 48.0449 109.292 46.2456 109.292C43.9038 109.292 42.5825 110.802 42.5825 113.224C42.5825 115.609 43.8608 117.107 46.0039 117.107C46.9922 117.107 47.8193 116.742 48.249 116.071L48.2544 117H49.6348V112.762H46.353V114.073Z" fill="#569B51"/>
<path d="M57.1865 115.088C57.0361 114.234 56.7461 113.697 56.0425 113.477C56.9609 113.246 57.4121 112.698 57.4121 111.65C57.4121 110.249 56.4829 109.411 54.6836 109.411H51.1655V117.011H52.8252V113.847H53.4912C55.1079 113.847 55.3496 114.067 55.5376 115.222L55.833 117H57.5249L57.1865 115.088ZM52.8359 110.818H54.6782C55.3979 110.818 55.7471 111.146 55.7471 111.688C55.7471 112.198 55.4302 112.569 54.7373 112.569H52.8359V110.818Z" fill="#569B51"/>
<path d="M58.8462 117H64.6846V115.593H60.5112V113.901H64.1421V112.494H60.5112V110.818H64.4268V109.411H58.8462V117Z" fill="#569B51"/>
<path d="M68.5249 117.086C70.4424 117.086 71.4575 116.092 71.4575 114.653C71.4575 112.95 70.0396 112.623 68.8472 112.359C67.9824 112.161 67.2358 111.994 67.2358 111.35C67.2358 110.834 67.644 110.522 68.3369 110.522C69.0566 110.522 69.5508 110.872 69.5669 111.624H71.1567C71.1406 109.765 69.5132 109.298 68.3154 109.298C66.7202 109.298 65.6084 110.109 65.6084 111.575C65.6084 113.079 66.8491 113.423 67.9717 113.691C68.9116 113.912 69.7817 114.089 69.7817 114.868C69.7817 115.448 69.3198 115.77 68.5732 115.77C67.7729 115.77 67.1499 115.394 67.1177 114.438H65.4795C65.4795 116.522 67.0747 117.086 68.5249 117.086Z" fill="#569B51"/>
<path d="M79.6699 116.662L78.7998 115.797C79.2671 115.152 79.5195 114.282 79.5195 113.203C79.5195 110.673 78.1177 109.298 75.8994 109.298C73.6704 109.298 72.3062 110.673 72.3062 113.203C72.3062 115.738 73.6704 117.107 75.8994 117.107C76.6353 117.107 77.2798 116.957 77.8115 116.667L78.7407 117.607L79.6699 116.662ZM75.8994 115.689C74.5996 115.689 73.9604 114.728 73.9604 113.203C73.9604 111.683 74.5996 110.721 75.8994 110.721C77.1885 110.721 77.8652 111.683 77.8652 113.203C77.8652 113.75 77.7793 114.223 77.6074 114.604L76.3989 113.401L75.502 114.32L76.6997 115.539C76.4688 115.636 76.2002 115.689 75.8994 115.689Z" fill="#569B51"/>
<path d="M80.9321 117H86.1743V115.582H82.5972V109.411H80.9321V117Z" fill="#569B51"/>
<path d="M36.1599 54.4103C37.0639 54.6693 38.3597 55.146 38.2239 57.7966C38.2878 58.5811 38.5278 60.7871 38.7995 62.9369C39.0238 64.6986 39.2637 66.4764 39.4317 67.4949C39.6717 68.8849 40.0476 69.8871 40.7276 70.5904C41.3997 71.3019 42.4235 71.7702 43.9356 72.1016C45.6632 72.4735 46.7512 72.1097 47.4551 71.5037C48.183 70.8812 48.5672 69.9842 48.8072 69.3782C49.0311 68.7963 49.1991 67.2446 49.2952 65.1675C49.3909 63.0823 49.407 60.5203 49.3511 57.9261C49.3505 57.8844 49.3498 57.843 49.3491 57.8018C49.3406 57.2922 49.3327 56.8194 49.503 56.3258C49.7112 55.752 50.079 55.2346 50.5348 54.9033C50.9589 54.5962 51.5667 54.3863 52.0868 54.4346C52.1838 54.4433 52.28 54.4595 52.3746 54.483C52.286 54.1279 52.1587 53.741 52.0139 53.3301C51.8323 52.8139 51.7888 52.6596 51.7344 52.5093C51.6699 52.3311 51.5902 52.1586 51.2473 51.3958C50.3829 49.4482 49.2791 46.9589 50.5108 41.1803C50.8628 39.564 51.7588 38.7153 52.8867 38.3596C53.6069 38.1337 54.4068 38.1175 55.1986 38.2385C55.9587 38.3599 56.7188 38.5946 57.3902 38.8691C57.8115 39.0463 58.2182 39.2571 58.6064 39.4994C58.3426 36.1212 56.8865 28.0879 48.8952 28.2252C42.2715 28.3303 38.5518 32.7186 36.8393 35.8622C36.4073 36.646 36.1114 37.3493 35.9273 37.8825L35.9255 37.8871C35.9104 37.9261 35.8952 37.9652 35.8875 38.0039C39.7993 37.5917 41.3672 38.9659 41.6952 41.0427C42.1591 43.9604 39.8073 48.2195 38.6155 50.3774C38.5878 50.4277 38.5608 50.4768 38.5345 50.5246C38.2944 50.9612 38.1124 51.292 38.0475 51.4523C37.5759 52.6077 36.9916 53.3516 36.5277 53.9254C36.498 53.9638 36.469 54.0012 36.4408 54.0376C36.3325 54.1771 36.2361 54.3014 36.1599 54.4103Z" fill="#569B51"/>
<path d="M53.2548 57.094C54.1029 58.1851 54.3672 58.5162 56.9989 59.0659C57.4705 59.1627 57.7911 59.2678 57.9828 59.3649C57.7429 59.5346 57.3747 59.6881 57.0551 59.7692C56.4065 59.9309 55.3268 60.1327 54.1832 59.9309C53.0553 59.7368 51.8471 59.1552 50.8631 57.7729C50.6627 57.4902 50.7032 57.1024 50.8069 56.7869C50.919 56.4799 51.1108 56.205 51.3347 56.0434C51.5031 55.922 51.7752 55.8169 51.9669 55.8331C52.0853 55.8407 52.1965 55.8927 52.2789 55.9788C52.6252 56.3312 52.9511 56.7035 53.2548 57.094Z" fill="#569B51"/>
<path d="M58.367 53.4165C58.1761 53.6252 57.973 53.8222 57.7589 54.0065C59.0421 55.3868 60.2825 56.8071 61.4783 58.2653C61.9187 58.7989 62.3344 59.1221 62.7186 59.2597C63.4225 59.5184 64.1504 59.1302 64.8623 58.3302C65.7181 57.3685 66.5266 55.8733 67.2539 54.1276C69.5739 48.5752 71.1018 40.6146 71.1978 38.6669C71.8541 25.3156 59.8303 28.2816 56.111 29.5182C60.2303 33.6078 60.0468 40.9219 60.0385 40.9784C60.0456 41.1294 60.035 41.3159 60.0216 41.5523C60.0193 41.5938 60.0168 41.6368 60.0144 41.6814C59.9424 42.8209 59.8146 45.0113 60.1506 47.4438C60.2356 48.0354 60.249 48.6352 60.1904 49.2301C60.0385 50.8545 59.3665 52.3091 58.367 53.4165Z" fill="#569B51"/>
<path d="M35.6318 35.192C36.9277 32.7994 39.2955 29.7528 43.0634 28.0716C41.2554 27.6997 38.3437 27.3765 35.4239 28.2255C33.3677 28.8317 31.304 30.0196 29.6162 32.1937C28.6402 33.4624 28.8243 36.9864 30.0081 41.3101C31.0319 45.0681 32.8238 49.3596 35.2797 53.2633C35.3341 53.2005 35.3887 53.1297 35.4431 53.0592L35.4477 53.0533C35.4715 53.029 35.4956 52.9965 35.5197 52.9641C34.0959 50.6042 34.3677 48.3252 34.6237 46.1835C34.7278 45.3429 34.8238 44.5348 34.7997 43.7669C34.7691 42.995 34.673 42.3335 34.5808 41.6982C34.5764 41.6684 34.5721 41.6387 34.5678 41.609C34.4316 40.7522 34.3115 39.9359 34.3436 38.9418C34.3436 38.9299 34.3417 38.9178 34.3397 38.9057C34.3378 38.8935 34.3359 38.8813 34.3359 38.8691C34.2957 38.6348 34.3837 38.1012 34.6237 37.4226C34.8961 36.6514 35.2333 35.9051 35.6318 35.192Z" fill="#569B51"/>
<path fill-rule="evenodd" clip-rule="evenodd" d="M58.6406 41.3828C58.6476 41.2453 58.6546 41.1077 58.6546 40.9703C58.6469 40.9378 57.8791 40.5824 56.8701 40.1618C56.2861 39.9275 55.6381 39.7175 54.9982 39.6205C54.3901 39.5312 53.7984 39.5312 53.2946 39.6932C52.6306 39.9032 52.0865 40.4367 51.8706 41.4711C50.7269 46.8135 51.7264 49.0601 52.5105 50.822C52.9099 51.7097 53.0293 52.0517 53.1799 52.4828C53.2168 52.5885 53.2556 52.6995 53.3008 52.8252C53.4679 53.2889 53.614 53.7319 53.7184 54.1597L53.7334 54.1591C53.9369 54.1512 54.1474 54.143 54.3506 54.1114C55.5029 53.9494 56.5508 53.3516 57.3426 52.4708C58.1849 51.5402 58.7019 50.3564 58.8145 49.1006C58.8627 48.632 58.8541 48.139 58.7824 47.6379C58.4223 45.0437 58.5588 42.7725 58.6305 41.6006C58.6332 41.528 58.6369 41.4554 58.6406 41.3828ZM52.8867 40.6227C53.3465 40.3728 54.0408 40.2779 54.551 40.3884C54.9071 40.4782 55.0591 40.6539 55.0705 40.8639C55.0819 41.0739 54.9516 41.3179 54.7428 41.5441C54.5269 41.7703 54.2227 41.9725 53.879 42.0209H53.8706C53.5189 42.0695 53.1906 41.9482 52.9506 41.7865C52.6949 41.6087 52.5266 41.3662 52.5031 41.1965C52.479 40.9784 52.6229 40.7762 52.8867 40.6227Z" fill="#569B51"/>
<path fill-rule="evenodd" clip-rule="evenodd" d="M40.3357 41.2614C40.1198 39.8954 38.8959 39.0223 35.7281 39.4186C35.7358 40.1216 35.8319 40.7522 35.9363 41.4065C35.9398 41.4305 35.9434 41.4546 35.9469 41.4787C36.0476 42.1602 36.1533 42.8753 36.1843 43.7261C36.2076 44.5582 36.1083 45.4137 36.0063 46.2924L36.0002 46.3448C35.7924 48.0744 35.5765 49.9009 36.4082 51.6788C36.536 51.4526 36.6562 51.194 36.776 50.9191C36.8801 50.6688 37.1043 50.2485 37.4082 49.7069C38.5278 47.6784 40.7199 43.702 40.3357 41.2614ZM37.3115 40.9946C37.1117 40.7843 36.9916 40.5338 37.0157 40.3884C37.0401 40.2186 37.1997 40.0976 37.4471 40.0408C37.663 39.984 37.9512 39.9759 38.2551 40.0164C38.5593 40.0648 38.831 40.1537 39.0231 40.2589C39.2535 40.3921 39.3465 40.5419 39.344 40.691C39.3403 40.9091 39.1318 41.126 38.8474 41.2854C38.6059 41.4168 38.3641 41.4639 38.1324 41.4377C37.8347 41.404 37.5537 41.2489 37.3115 40.9946Z" fill="#569B51"/>
<path d="M35.4606 55.6601C35.4173 55.6474 35.3754 55.6351 35.3359 55.6228C33.706 56.8661 30.9798 56.353 29.1772 56.0138L29.1603 56.0106C29.5921 56.4309 30.2959 56.9077 31.136 57.304C31.9522 57.6834 33.2321 57.9424 34.4319 58.0147C35.12 58.0475 35.768 58.0313 36.2559 57.9261C36.5679 57.8693 36.7757 57.8048 36.8399 57.7402C36.9196 56.0829 36.1669 55.8672 35.6866 55.7295L35.6799 55.7276C35.6056 55.7027 35.5312 55.6808 35.4606 55.6601Z" fill="#569B51"/>
<path fill-rule="evenodd" clip-rule="evenodd" d="M36.0524 61.389C36.057 61.4279 36.0609 61.4612 36.0638 61.4904C36.1917 66.7111 37.0237 69.7096 38.3276 71.5765C39.8233 73.7425 41.6875 74.3163 43.7833 74.7687C49.175 75.9326 50.3109 72.4248 50.9431 70.4529C50.9556 70.4176 50.9672 70.3839 50.9785 70.3511C51.0036 70.2785 51.0272 70.2101 51.0546 70.1377C51.3267 69.3864 51.5028 68.4406 51.6229 67.3738C51.735 66.3557 51.7906 65.3051 51.8311 64.2461C51.8401 64.0692 51.8466 63.8489 51.8535 63.6105C51.8586 63.4356 51.864 63.2509 51.8709 63.0664C51.8786 62.7594 51.8629 62.4683 51.8388 62.2018C52.4364 62.47 53.0654 62.6601 53.7107 62.7675C55.3586 63.0502 56.8389 62.7837 57.7268 62.5572C58.4705 62.3715 59.4143 61.935 59.9983 61.3771C60.0944 61.2882 60.1901 61.1833 60.2704 61.0863C60.7661 61.4985 61.2782 61.7893 61.7983 61.9753C63.7338 62.6786 65.4379 61.9431 66.9176 60.2782C67.9899 59.0822 68.9498 57.3205 69.7978 55.2918C72.2457 49.4245 73.8616 40.9628 73.9653 38.8776C74.8292 21.4365 59.3019 25.6067 55.0705 27.0616C54.3277 26.6148 53.532 26.2645 52.7023 26.0192C51.5503 25.6719 50.2708 25.4856 48.8548 25.51C48.1349 25.5181 47.4227 25.5668 46.7028 25.6395C46.2043 25.6939 45.708 25.7667 45.2148 25.8576C43.4868 25.3565 39.4391 24.4594 35.3754 25.4373C32.5915 26.1081 29.7437 27.5952 27.4398 30.5613C25.92 32.5251 25.9357 36.9942 27.3437 42.1345C28.3595 45.8522 30.0714 50.0467 32.3994 53.9501C31.8794 53.8209 31.0554 53.6434 29.7514 53.3685C28.7357 53.1582 27.9435 53.2309 27.3675 53.5139C26.3678 53.9987 25.9357 54.7988 26.0077 55.8415C26.0398 56.3751 26.2557 56.9005 26.6078 57.4013C27.1918 58.2014 28.4636 59.2117 29.9757 59.9228C30.7116 60.2623 31.6635 60.529 32.6474 60.6988C33.6394 60.8682 34.6716 60.9409 35.5595 60.9007H35.6475L35.9916 60.8682C35.9996 60.949 36.0076 61.0298 36.0237 61.1188C36.034 61.2325 36.0443 61.3197 36.0524 61.389ZM29.4803 54.653C33.1042 55.4128 34.1842 54.936 34.5042 54.6287C31.7762 50.4423 29.7922 45.7548 28.6804 41.6808C27.3845 36.9449 27.2804 32.9523 28.5284 31.336C30.4244 28.8954 32.7364 27.5618 35.04 26.891C38.5278 25.8728 41.9676 26.3736 43.8475 26.8182C43.8818 26.826 43.9142 26.8332 43.9451 26.8401C44.044 26.8621 44.1264 26.8805 44.1996 26.8991C44.2398 26.9153 44.9516 27.1175 45.4557 27.2548C46.5036 26.9958 47.6475 26.8423 48.8714 26.8264C51.399 26.7861 53.3512 27.4326 54.8632 28.4751C57.4069 27.5215 73.398 22.1794 72.5823 38.7312C72.478 40.7438 70.9103 48.963 68.5263 54.6689C67.7345 56.5598 66.8543 58.1845 65.8947 59.2675C64.7909 60.4959 63.5824 61.0535 62.2628 60.5768C61.6392 60.3505 61.0147 59.8978 60.4153 59.1624C58.7268 57.1096 57.1833 55.4206 56.6073 54.8062C55.9645 55.1559 55.2657 55.3884 54.543 55.493C54.3176 55.5245 54.0907 55.5435 53.8632 55.5498C53.8632 55.5822 53.8632 55.6144 53.8555 55.6468C54.0243 55.8354 54.1871 56.0295 54.3435 56.2287C54.9513 57.0128 55.1431 57.2553 57.2713 57.6996C58.2308 57.9018 58.8068 58.1683 59.1188 58.4675C59.4467 58.7745 59.5505 59.1218 59.503 59.4778C59.4548 59.7848 59.2948 60.051 59.0548 60.2775C58.6469 60.6654 57.9507 60.9808 57.3905 61.1262C56.6227 61.3203 55.3426 61.5546 53.9432 61.3125C52.887 61.1262 51.7755 60.6738 50.7674 59.7524C50.7832 61.7247 50.751 63.6239 50.6794 65.2321C50.5756 67.4387 50.3832 69.1601 50.0873 69.8953C49.7912 70.6388 49.3273 71.7462 48.3514 72.5786C47.3597 73.4195 45.8874 73.9528 43.6477 73.4679C41.8558 73.0798 40.6161 72.4897 39.7279 71.5605C38.8397 70.6313 38.3601 69.4026 38.0719 67.7298C37.9042 66.7438 37.6562 64.9335 37.432 63.1069C37.2482 61.652 37.0799 60.2136 36.9681 59.1873C36.8319 59.2276 36.68 59.2678 36.528 59.3003C35.9122 59.4213 35.1521 59.4538 34.3603 59.4135C33.0082 59.3327 31.5282 59.0254 30.5603 58.573C29.2564 57.9586 28.1927 57.1342 27.7285 56.4877C27.5284 56.2044 27.4086 55.9298 27.3925 55.663C27.3604 55.2268 27.5445 54.8955 27.9605 54.6936C28.2804 54.5401 28.7764 54.5076 29.4803 54.653Z" fill="#569B51"/>
</svg>
