<svg width="100" height="129" viewBox="0 0 100 129" fill="none" xmlns="http://www.w3.org/2000/svg">
<path d="M49.4728 52.2522L50.9664 51.5472L51.3059 49.97L50.2875 48.6946H48.6242L47.6061 49.97L47.9793 51.5472L49.4728 52.2522Z" fill="#569B51"/>
<path d="M60.0636 51.4465C60.1696 50.3114 60.0894 49.1668 59.8261 48.057C59.5544 46.8825 59.1131 45.8083 58.5362 44.8685L54.4288 48.5268C54.3271 48.6274 54.2591 48.7617 54.2252 48.896C54.1234 49.3658 54.3949 49.8358 54.8701 49.97L60.0636 51.4465Z" fill="#569B51"/>
<path d="M52.4601 45.9762L56.9068 42.8549C55.2621 41.2273 53.1086 40.198 50.7968 39.9348L51.1022 45.4056L51.1026 45.4069C51.1366 45.5406 51.1706 45.6743 51.272 45.7748C51.5774 46.1438 52.0867 46.2111 52.4601 45.9762Z" fill="#569B51"/>
<path d="M47.6061 40.0019C47.4279 40.0354 47.2496 40.069 47.0629 40.1025C45.1281 40.5388 43.397 41.4788 42.0052 42.8549L46.5197 46.043C46.6216 46.1101 46.7914 46.1436 46.927 46.1436C47.4363 46.1436 47.8098 45.7408 47.8437 45.271L48.1491 39.9013C47.9624 39.9348 47.7842 39.9684 47.6061 40.0019Z" fill="#569B51"/>
<path d="M44.4151 48.4258L40.3758 44.8683C39.1537 46.8485 38.6447 49.1643 38.8483 51.4465L44.1097 49.9362C44.2795 49.9025 44.4151 49.8017 44.5171 49.6676C44.8225 49.2984 44.7886 48.728 44.4151 48.4258Z" fill="#569B51"/>
<path d="M44.8566 53.0573L39.4594 53.9636C40.274 56.1785 41.8015 58.0244 43.7024 59.2327L45.773 54.2993C45.8408 54.1314 45.8408 53.9634 45.8069 53.7622C45.7052 53.3259 45.2978 53.0237 44.8566 53.0573Z" fill="#569B51"/>
<path d="M49.4728 60.9108C50.2875 60.9108 51.0683 60.8102 51.8491 60.6423C51.9994 60.5978 52.1495 60.5598 52.2969 60.5225C52.4823 60.4757 52.6631 60.4299 52.8333 60.3739L50.2197 55.7087C50.1092 55.561 49.9709 55.4357 49.8124 55.3397C49.4389 55.1383 48.9977 55.2724 48.7262 55.5746L46.0447 60.3739C47.1307 60.7096 48.2849 60.9108 49.4728 60.9108Z" fill="#569B51"/>
<path d="M55.2096 59.2327C56.4993 58.3936 57.6196 57.3197 58.4682 55.9773C58.9094 55.3397 59.249 54.6683 59.4526 53.93L54.0215 53.0237C53.8517 53.0237 53.682 53.0573 53.5463 53.1243C53.139 53.3259 52.9692 53.7622 53.0711 54.1647L55.2096 59.2327Z" fill="#569B51"/>
<path fill-rule="evenodd" clip-rule="evenodd" d="M36.7778 72.4898C37.5586 73.4631 38.7126 74 39.9346 74L59.0795 73.9665C60.3015 73.9665 61.4555 73.3959 62.2363 72.4562L74.117 57.8569C74.8976 56.8836 75.1693 55.6418 74.8976 54.4335L70.6545 36.2096C70.3831 35.0014 69.5684 34.028 68.4483 33.4912L51.2723 25.4028C50.7291 25.1341 50.1183 25 49.5073 25C48.8962 25 48.2852 25.1343 47.742 25.4026L30.5663 33.5247C29.4459 34.0616 28.6313 35.0349 28.3598 36.2432L24.1167 54.4671C23.8113 55.6755 24.1167 56.9171 24.8975 57.8905L36.7778 72.4898ZM66.6488 53.1918H66.6827C67.2937 53.3594 67.6672 53.8967 67.6672 54.2995C67.5313 54.7357 67.0901 55.0712 66.581 55.0712C66.479 55.0712 66.4112 55.0712 66.3093 55.0377C66.2754 55.0042 66.2415 55.0042 66.2076 55.0042C66.1735 55.0042 66.1395 54.9958 66.1056 54.9874C66.0717 54.979 66.0378 54.9706 66.0039 54.9706C65.7663 54.9034 65.5965 54.8363 65.3929 54.7355C65.3418 54.7188 65.2908 54.6936 65.2398 54.6684C65.189 54.6433 65.1382 54.6182 65.0875 54.6014H65.0535C64.4084 54.3663 63.8315 54.1651 63.2883 54.0981H63.2205C63.0677 54.0981 62.9722 54.1547 62.8767 54.2112C62.8448 54.2301 62.813 54.249 62.779 54.2657C62.7622 54.2657 62.7538 54.2741 62.7453 54.2824C62.7368 54.2908 62.7283 54.2993 62.7112 54.2993L62.3038 54.2322C61.9645 55.2726 61.4894 56.313 60.8783 57.2528C59.7241 59.065 58.1967 60.5419 56.3975 61.5824L56.5673 61.9851C56.5673 62.0019 56.5588 62.0103 56.5503 62.0186C56.5419 62.027 56.5334 62.0354 56.5334 62.0522C56.5263 62.0872 56.5178 62.1207 56.5093 62.154C56.4771 62.2803 56.4458 62.4031 56.4995 62.589C56.6596 63.0646 56.9714 63.5401 57.3203 64.0721C57.3408 64.1034 57.3615 64.1349 57.3822 64.1665V64.2002C57.4161 64.2505 57.45 64.2924 57.4839 64.3343C57.5178 64.3763 57.5517 64.4182 57.5857 64.4685C57.7215 64.6363 57.8572 64.8042 57.9591 65.0056C57.993 65.0393 58.0269 65.1063 58.0608 65.1734C58.0608 65.1901 58.0694 65.1986 58.0779 65.2069C58.0864 65.2153 58.0949 65.2237 58.0949 65.2405C58.2306 65.5089 58.2306 65.8111 58.1628 66.0795C58.0947 66.3479 57.8911 66.5495 57.6535 66.6836C57.5178 66.7507 57.382 66.7844 57.2461 66.7844C56.8388 66.7844 56.4314 66.5493 56.228 66.1466C56.228 66.1466 56.1939 66.113 56.1939 66.0795C56.1768 66.0458 56.1598 66.0205 56.1427 65.9952C56.1258 65.9701 56.1089 65.945 56.0919 65.9117C56.0241 65.7774 55.9864 65.6432 55.9487 65.5089C55.9299 65.4418 55.9111 65.3746 55.8884 65.3075L55.7865 65.0056V64.972C55.7678 64.9218 55.7493 64.872 55.731 64.8226C55.5164 64.2451 55.3239 63.7268 55.0738 63.294C54.9379 63.0926 54.8023 63.0253 54.6325 62.9918C54.5986 62.9583 54.5986 62.9583 54.5645 62.9583L54.361 62.589C53.7836 62.7922 53.1941 62.9603 52.596 63.0926C51.6454 63.3275 50.6271 63.4281 49.6426 63.4281C48.0134 63.4281 46.384 63.1261 44.8905 62.5555L44.6527 62.9918C44.6188 63.0253 44.6188 63.0253 44.5849 63.0253C44.5565 63.0394 44.5267 63.052 44.4959 63.0649C44.3797 63.1139 44.2509 63.1682 44.1436 63.3275C43.8736 63.7429 43.7096 64.211 43.5109 64.7779C43.4849 64.852 43.4584 64.9279 43.4309 65.0056L43.3289 65.3075C43.3064 65.3745 43.2876 65.4377 43.2688 65.5009C43.2311 65.6279 43.1933 65.7548 43.1253 65.9117C43.0914 65.9454 43.0574 66.0124 43.0235 66.0795C43.0235 66.0795 42.9896 66.113 42.9896 66.1466C42.7859 66.5158 42.3786 66.7844 41.9713 66.7844C41.8354 66.7844 41.6996 66.7507 41.5639 66.6836C41.0548 66.4487 40.8512 65.8111 41.1226 65.2405C41.1226 65.2405 41.1566 65.2069 41.1566 65.1734C41.1905 65.1061 41.2244 65.0391 41.2583 65.0056C41.2934 64.9536 41.3262 64.9038 41.3579 64.8557C41.449 64.7175 41.5312 64.593 41.6319 64.4685C41.6658 64.4183 41.6996 64.3765 41.7334 64.3347C41.7674 64.2926 41.8014 64.2506 41.8354 64.2001V64.1665C42.2088 63.5959 42.5145 63.0926 42.7179 62.589C42.7857 62.3541 42.7179 62.1863 42.6501 62.052C42.6501 62.0353 42.6417 62.027 42.6332 62.0187C42.6247 62.0103 42.6162 62.0018 42.6162 61.9849L42.8199 61.5488C42.3106 61.2467 41.8354 60.9445 41.3602 60.5755C39.2896 58.9645 37.7282 56.7493 36.9135 54.2659L36.4382 54.333C36.4212 54.333 36.4127 54.3246 36.4043 54.3162C36.3958 54.3078 36.3873 54.2995 36.3703 54.2995C36.3635 54.2949 36.3565 54.2903 36.3493 54.2855C36.25 54.2191 36.119 54.1316 35.9291 54.1316H35.8613C35.3181 54.1987 34.741 54.4 34.096 54.6352H34.0621C34.0109 54.6519 33.9598 54.6772 33.9086 54.7025C33.858 54.7275 33.8073 54.7526 33.7567 54.7693C33.553 54.8701 33.3833 54.9371 33.1455 55.0042C33.1116 55.0042 33.0777 55.0126 33.0437 55.0209C33.0098 55.0293 32.9759 55.0377 32.942 55.0377C32.942 55.0712 32.9081 55.0712 32.8742 55.0712C32.7722 55.105 32.7044 55.105 32.6025 55.105C32.0595 55.105 31.6182 54.8028 31.5163 54.3328C31.4144 53.7959 31.7878 53.2253 32.3988 53.0912C32.4329 53.0577 32.4668 53.0577 32.5008 53.0577C32.5348 53.0577 32.5688 53.0492 32.6027 53.0408C32.6367 53.0324 32.6705 53.0239 32.7044 53.0239C32.7346 53.0197 32.7642 53.0154 32.7933 53.0112C32.9937 52.9824 33.1715 52.9569 33.3494 52.9569C33.4511 52.9234 33.5869 52.9233 33.6887 52.9233H33.7228C34.4355 52.8563 35.0466 52.789 35.5556 52.6212C35.7593 52.5206 35.8613 52.3863 35.9291 52.252C35.9291 52.2353 35.9375 52.227 35.946 52.2187C35.9545 52.2103 35.963 52.2018 35.963 52.1849L36.4043 52.0508C35.963 48.9631 36.6079 45.8418 38.3051 43.1904C38.3291 43.1198 38.3696 43.0657 38.4151 43.0049C38.4344 42.979 38.4547 42.952 38.4749 42.922L38.1356 42.6198V42.5527C38.1356 42.3849 38.1356 42.2171 37.9658 42.0494C37.5753 41.6955 37.0912 41.4032 36.5137 41.0545C36.4888 41.0394 36.4637 41.0243 36.4384 41.009C36.3364 40.9417 36.2347 40.8747 36.1328 40.8411C35.9291 40.7404 35.7593 40.6396 35.5556 40.5055C35.5217 40.4887 35.4963 40.4635 35.4708 40.4384C35.4453 40.4132 35.4198 40.3881 35.3859 40.3713C35.3689 40.3713 35.3605 40.3629 35.352 40.3545C35.3435 40.346 35.335 40.3376 35.3181 40.3376C34.8429 39.9348 34.741 39.2637 35.0805 38.8274C35.2502 38.5925 35.5556 38.4582 35.8613 38.4582C36.1341 38.4601 36.3978 38.555 36.6081 38.7268C36.6081 38.7475 36.6211 38.7554 36.639 38.7664C36.65 38.7731 36.663 38.781 36.676 38.7938C36.7156 38.8332 36.7552 38.8609 36.7881 38.8839C36.8115 38.9002 36.8314 38.9142 36.8455 38.9282C37.0153 39.0958 37.1511 39.2301 37.287 39.398C37.3566 39.4438 37.4104 39.5054 37.4591 39.5612C37.4816 39.5871 37.5031 39.6117 37.5246 39.6329C37.9997 40.1362 38.441 40.5727 38.8822 40.8747C38.9842 40.9417 39.0859 40.9753 39.1879 40.9753C39.2218 40.9753 39.2557 40.9669 39.2897 40.9585C39.3237 40.9501 39.3576 40.9417 39.3915 40.9417H39.4594L39.7989 41.1766C41.5978 39.2974 43.906 37.9883 46.5197 37.4177C47.1307 37.2834 47.7417 37.2164 48.3527 37.1493L48.3869 36.713L48.4547 36.646C48.4673 36.6335 48.4804 36.621 48.4937 36.6083C48.5885 36.5182 48.6965 36.4155 48.7262 36.2097C48.7801 35.7826 48.7267 35.3131 48.6684 34.8011C48.6534 34.6693 48.6381 34.5347 48.6242 34.3973V34.3638C48.6087 34.3022 48.6003 34.2477 48.5924 34.197C48.5832 34.1371 48.5748 34.0826 48.5564 34.0281C48.4886 33.8267 48.4547 33.6253 48.4547 33.3904V33.122C48.4547 32.8198 48.5566 32.5514 48.7601 32.35C48.9638 32.1486 49.2353 32.0145 49.507 32.0145C50.0839 32.0145 50.5592 32.5178 50.5592 33.122V33.4239C50.5251 33.6588 50.4912 33.8604 50.4573 34.0616C50.4234 34.1624 50.3895 34.2965 50.3895 34.3973V34.4308C50.3848 34.477 50.3801 34.5229 50.3755 34.5685C50.3128 35.1849 50.256 35.7431 50.2875 36.2432C50.3175 36.4493 50.4256 36.552 50.5205 36.6422C50.5338 36.6548 50.5468 36.6671 50.5592 36.6795L50.6271 36.7466L50.661 37.1828C53.2469 37.4203 55.7093 38.3873 57.7554 39.9686C58.2306 40.3713 58.7058 40.7741 59.147 41.2439L59.5546 40.9753H59.6224C59.6902 41.009 59.7582 41.009 59.8261 41.009C59.928 41.009 60.0297 40.9753 60.1315 40.9082C60.5727 40.6062 61.014 40.2035 61.4894 39.6999C61.559 39.6541 61.6128 39.5925 61.6615 39.5367C61.684 39.5109 61.7055 39.4863 61.7269 39.465C61.8618 39.2982 61.9968 39.1647 62.1652 38.9982L62.1682 38.9952C62.2021 38.9785 62.2276 38.9533 62.2531 38.9281C62.2786 38.9029 62.3041 38.8777 62.338 38.8609L62.4058 38.7938C62.6434 38.626 62.8812 38.5254 63.1525 38.5254C63.4581 38.5254 63.7635 38.6595 63.9332 38.8944C64.2728 39.3309 64.1708 40.0021 63.6957 40.4049C63.6957 40.4256 63.6827 40.4335 63.6649 40.4444C63.6538 40.4512 63.6408 40.4592 63.6278 40.4721C63.588 40.5113 63.5483 40.5391 63.5154 40.5621C63.4921 40.5784 63.4721 40.5923 63.4581 40.6062C63.2544 40.7406 63.0846 40.8411 62.881 40.9417C62.8299 40.9754 62.7789 41.0006 62.7279 41.0258C62.6771 41.051 62.6263 41.0761 62.5756 41.1096C62.5491 41.1256 62.5229 41.1414 62.4968 41.1572C61.9206 41.5051 61.4376 41.7967 61.0479 42.15C60.9123 42.3178 60.8783 42.4857 60.8783 42.6535V42.7206L60.5388 43.0226C61.4258 44.3678 62.0691 45.8556 62.4397 47.4191C62.8053 48.9698 62.8858 50.5728 62.6773 52.1516L63.1185 52.2857C63.1185 52.3025 63.127 52.3108 63.1355 52.3192C63.144 52.3276 63.1525 52.336 63.1525 52.3528C63.2204 52.487 63.2884 52.6212 63.5259 52.722C64.0691 52.8898 64.6462 52.9569 65.3589 53.0239H65.3929C65.5287 53.0577 65.6304 53.0577 65.7324 53.0577C65.9102 53.0577 66.088 53.0832 66.2883 53.112C66.3175 53.1162 66.3471 53.1205 66.3773 53.1247C66.4114 53.1247 66.4453 53.1331 66.4793 53.1415C66.5132 53.1499 66.5471 53.1583 66.581 53.1583C66.581 53.1918 66.6149 53.1918 66.6488 53.1918Z" fill="#569B51"/>
<path d="M19.186 117H21.1841L18.5845 112.085L21.0552 109.411H18.9443L15.7432 113.127V109.411H14.0781V117H15.7432V115.163L17.4243 113.342L19.186 117Z" fill="#569B51"/>
<path d="M24.7129 117.107C26.7808 117.107 27.7852 115.979 27.7852 114.073V109.411H26.1201V114.18C26.1201 115.072 25.5991 115.593 24.7129 115.593C23.8374 115.593 23.3379 115.072 23.3379 114.18V109.411H21.6729V114.126C21.6729 115.99 22.6611 117.107 24.7129 117.107Z" fill="#569B51"/>
<path d="M29.3428 117H33.3442C34.9771 117 35.8955 116.184 35.8955 114.895C35.8955 113.788 35.2241 113.192 34.4507 113.047V113.009C34.9824 112.8 35.5034 112.327 35.5034 111.419C35.5034 110.2 34.5903 109.411 33.0327 109.411H29.3428V117ZM31.0078 112.488V110.823H32.8394C33.5161 110.823 33.8062 111.092 33.8062 111.624C33.8062 112.166 33.5161 112.488 32.8018 112.488H31.0078ZM31.0078 115.582V113.772H33.1777C33.8384 113.772 34.2197 114.094 34.2197 114.685C34.2197 115.201 33.9297 115.582 33.1777 115.582H31.0078Z" fill="#569B51"/>
<path d="M37.1094 117H42.9478V115.593H38.7744V113.901H42.4053V112.494H38.7744V110.818H42.6899V109.411H37.1094V117Z" fill="#569B51"/>
<path d="M50.231 115.088C50.0806 114.234 49.7905 113.697 49.0869 113.477C50.0054 113.246 50.4565 112.698 50.4565 111.65C50.4565 110.249 49.5273 109.411 47.728 109.411H44.21V117.011H45.8696V113.847H46.5356C48.1523 113.847 48.394 114.067 48.582 115.222L48.8774 117H50.5693L50.231 115.088ZM45.8804 110.818H47.7227C48.4424 110.818 48.7915 111.146 48.7915 111.688C48.7915 112.198 48.4746 112.569 47.7817 112.569H45.8804V110.818Z" fill="#569B51"/>
<path d="M51.8906 117H53.5557V111.865H53.6147L56.832 117H58.6099V109.411H56.9448V114.567H56.8965L53.647 109.411H51.8906V117Z" fill="#569B51"/>
<path d="M60.334 117H66.1724V115.593H61.999V113.901H65.6299V112.494H61.999V110.818H65.9146V109.411H60.334V117Z" fill="#569B51"/>
<path d="M68.8364 117H70.5015V110.812H72.7788V109.411H66.5698V110.812H68.8364V117Z" fill="#569B51"/>
<path d="M73.8047 117H79.6431V115.593H75.4697V113.901H79.1006V112.494H75.4697V110.818H79.3853V109.411H73.8047V117Z" fill="#569B51"/>
<path d="M83.4834 117.086C85.4009 117.086 86.416 116.092 86.416 114.653C86.416 112.95 84.998 112.623 83.8057 112.359C82.9409 112.161 82.1943 111.994 82.1943 111.35C82.1943 110.834 82.6025 110.522 83.2954 110.522C84.0151 110.522 84.5093 110.872 84.5254 111.624H86.1152C86.0991 109.765 84.4717 109.298 83.2739 109.298C81.6787 109.298 80.5669 110.109 80.5669 111.575C80.5669 113.079 81.8076 113.423 82.9302 113.691C83.8701 113.912 84.7402 114.089 84.7402 114.868C84.7402 115.448 84.2783 115.77 83.5317 115.77C82.7314 115.77 82.1084 115.394 82.0762 114.438H80.438C80.438 116.522 82.0332 117.086 83.4834 117.086Z" fill="#569B51"/>
</svg>
