<svg width="100" height="129" viewBox="0 0 100 129" fill="none" xmlns="http://www.w3.org/2000/svg">
<path d="M45.9341 117.107C47.9214 117.107 49.2534 116.055 49.3984 114.003H47.728C47.6475 115.077 46.9922 115.689 45.9341 115.689C44.6343 115.689 43.9951 114.728 43.9951 113.203C43.9951 111.683 44.6343 110.721 45.9341 110.721C46.9922 110.721 47.6475 111.333 47.728 112.408H49.3984C49.2534 110.356 47.9214 109.298 45.9341 109.298C43.7051 109.298 42.3408 110.673 42.3408 113.203C42.3408 115.738 43.7051 117.107 45.9341 117.107Z" fill="#569B51"/>
<path d="M57.5464 112.343L57.7612 111.119H56.3809L56.6816 109.411H55.4087L55.1079 111.119H53.4536L53.7544 109.411H52.4814L52.1807 111.119H50.7949L50.5747 112.343H51.9658L51.6865 113.933H50.2954L50.0806 115.158H51.4663L51.144 117H52.4116L52.7393 115.158H54.3936L54.0659 117H55.3389L55.6665 115.158H57.0522L57.2671 113.933H55.8813L56.1606 112.343H57.5464ZM54.6084 113.933H52.9541L53.2334 112.343H54.8877L54.6084 113.933Z" fill="#569B51"/>
<path d="M66.3277 49.0461V51.0249H68.3302V49.0461H66.3277Z" fill="#569B51"/>
<path fill-rule="evenodd" clip-rule="evenodd" d="M75 38.4463C75 37.5106 74.7998 36.667 74.3839 35.9613C73.9834 35.2557 73.3826 34.6728 72.5817 34.2126C69.2545 32.3028 65.9235 30.393 62.5924 28.4832C59.2614 26.5734 55.9304 24.6636 52.6032 22.7538C50.801 21.7261 49.0758 21.7568 47.289 22.7998C45.9079 23.6075 41.6384 26.0534 37.3087 28.5339C33.3328 30.8116 29.306 33.1185 27.4184 34.2126C25.7856 35.1483 25 36.5903 25 38.4617V61.5326C25 62.453 25.2002 63.266 25.5853 63.9716C25.9859 64.6926 26.602 65.3062 27.4184 65.7817C28.9544 66.6685 31.8912 68.3498 35.0651 70.167L35.0673 70.1682C40.0729 73.0339 45.6678 76.237 47.289 77.1944C49.0758 78.2373 50.8164 78.2833 52.6032 77.2405C56.7292 74.8626 60.8611 72.4966 64.9916 70.1314L64.9953 70.1293C67.5252 68.6806 70.0546 67.2323 72.5817 65.7817C73.4134 65.3062 74.0142 64.7079 74.4147 63.9716C74.7998 63.266 75 62.453 75 61.5326V38.4463ZM57.1934 54.0162C55.7764 56.5165 53.0807 58.2193 49.9846 58.2193C46.9039 58.2193 44.2237 56.5472 42.8065 54.0622C42.1134 52.8504 41.7128 51.4698 41.7128 49.9818C41.7128 45.4259 45.4097 41.7444 49.9846 41.7444C53.0345 41.7444 55.6993 43.4011 57.1319 45.8554L64.3561 41.7137C61.4757 36.7744 56.1152 33.4457 49.9692 33.4457C40.7886 33.4457 33.3642 40.8547 33.3642 49.9818C33.3642 52.9731 34.1651 55.7956 35.5669 58.2193C38.4319 63.174 43.8231 66.518 49.9846 66.518C56.1614 66.518 61.5527 63.1587 64.4177 58.1733L57.1934 54.0162ZM66.3277 46.0702H64.6795V47.4047H63.355V49.0461H64.6795V51.0249H63.355V52.6662H64.6795V54.0008H66.3277V52.6662H68.3302V54.0008H69.9784V52.6662H71.3186V51.0249H69.9784V49.0461H71.3186V47.4047H69.9784V46.0702H68.3302V47.4047H66.3277V46.0702Z" fill="#569B51"/>
</svg>
