<svg width="100" height="129" viewBox="0 0 100 129" fill="none" xmlns="http://www.w3.org/2000/svg">
<path d="M30.2344 117H32.0337L29.3911 109.411H27.1782L24.5356 117H26.335L26.9043 115.201H29.665L30.2344 117ZM27.3286 113.863L28.2632 110.925H28.3062L29.2407 113.863H27.3286Z" fill="#569B51"/>
<path d="M33.0005 117H34.6655V111.865H34.7246L37.9419 117H39.7197V109.411H38.0547V114.567H38.0063L34.7568 109.411H33.0005V117Z" fill="#569B51"/>
<path d="M41.4438 117H44.355C46.9814 117 48.1685 115.63 48.1685 113.235C48.1685 110.834 47.0352 109.411 44.3657 109.411H41.4438V117ZM43.1089 115.577V110.829H44.3442C45.9609 110.829 46.5195 111.693 46.5195 113.181C46.5195 114.728 45.9126 115.577 44.2207 115.577H43.1089Z" fill="#569B51"/>
<path d="M55.457 115.088C55.3066 114.234 55.0166 113.697 54.313 113.477C55.2314 113.246 55.6826 112.698 55.6826 111.65C55.6826 110.249 54.7534 109.411 52.9541 109.411H49.436V117.011H51.0957V113.847H51.7617C53.3784 113.847 53.6201 114.067 53.8081 115.222L54.1035 117H55.7954L55.457 115.088ZM51.1064 110.818H52.9487C53.6685 110.818 54.0176 111.146 54.0176 111.688C54.0176 112.198 53.7007 112.569 53.0078 112.569H51.1064V110.818Z" fill="#569B51"/>
<path d="M60.1514 117.107C62.3696 117.107 63.7715 115.738 63.7715 113.203C63.7715 110.673 62.3696 109.298 60.1514 109.298C57.9224 109.298 56.5581 110.673 56.5581 113.203C56.5581 115.738 57.9224 117.107 60.1514 117.107ZM60.1514 115.689C58.8516 115.689 58.2124 114.728 58.2124 113.203C58.2124 111.683 58.8516 110.721 60.1514 110.721C61.4404 110.721 62.1172 111.683 62.1172 113.203C62.1172 114.728 61.4404 115.689 60.1514 115.689Z" fill="#569B51"/>
<path d="M65.0444 117H66.7095V109.411H65.0444V117Z" fill="#569B51"/>
<path d="M68.439 117H71.3501C73.9766 117 75.1636 115.63 75.1636 113.235C75.1636 110.834 74.0303 109.411 71.3608 109.411H68.439V117ZM70.104 115.577V110.829H71.3394C72.9561 110.829 73.5146 111.693 73.5146 113.181C73.5146 114.728 72.9077 115.577 71.2158 115.577H70.104Z" fill="#569B51"/>
<path d="M61.5063 56.9189C60.3583 56.9189 59.4244 55.99 59.4244 54.8489C59.4244 53.7078 60.3583 52.7796 61.5063 52.7796C62.6545 52.7796 63.5884 53.7076 63.5884 54.8489C63.5884 55.9902 62.6545 56.9189 61.5063 56.9189ZM38.4937 56.9189C37.3457 56.9189 36.4118 55.99 36.4118 54.8489C36.4118 53.7078 37.3455 52.7796 38.4937 52.7796C39.6417 52.7796 40.5756 53.7076 40.5756 54.8489C40.5756 55.9902 39.6419 56.9189 38.4937 56.9189ZM62.2531 44.4533L66.4141 37.2902C66.5287 37.0925 66.5596 36.8578 66.5002 36.6374C66.4408 36.4171 66.2959 36.2291 66.0973 36.1149C65.8984 36.0011 65.6622 35.9703 65.4405 36.0294C65.2188 36.0884 65.0298 36.2324 64.9148 36.4298L60.7017 43.6834C57.4796 42.2221 53.8612 41.4079 50 41.4079C46.1388 41.4079 42.5204 42.2221 39.2985 43.6834L35.0852 36.4298C34.9702 36.2324 34.7812 36.0884 34.5595 36.0294C34.3378 35.9703 34.1016 36.0011 33.9027 36.1149C33.704 36.229 33.559 36.417 33.4995 36.6373C33.4401 36.8577 33.4712 37.0926 33.5859 37.2902L37.7469 44.4533C30.6018 48.3159 25.7149 55.5057 25 64H75C74.2845 55.5059 69.3977 48.3159 62.2531 44.4531" fill="#569B51"/>
</svg>
