<svg width="100" height="129" viewBox="0 0 100 129" fill="none" xmlns="http://www.w3.org/2000/svg">
<path d="M33.3013 114.073H34.9985C34.8965 114.895 34.3755 115.657 33.1831 115.657C31.7437 115.657 31.2173 114.535 31.2173 113.165C31.2173 111.774 31.7705 110.678 33.21 110.678C34.166 110.678 34.8696 111.151 34.8911 112.042H36.583C36.5562 110.189 34.9932 109.292 33.1938 109.292C30.8521 109.292 29.5308 110.802 29.5308 113.224C29.5308 115.609 30.8091 117.107 32.9521 117.107C33.9404 117.107 34.7676 116.742 35.1973 116.071L35.2026 117H36.583V112.762H33.3013V114.073Z" fill="#569B51"/>
<path d="M38.1138 117H39.7788V109.411H38.1138V117Z" fill="#569B51"/>
<path d="M43.0713 117H44.7363V110.812H47.0137V109.411H40.8047V110.812H43.0713V117Z" fill="#569B51"/>
<path d="M48.0396 117H49.7046V113.896H53.0562V117H54.7212V109.411H53.0562V112.499H49.7046V109.411H48.0396V117Z" fill="#569B51"/>
<path d="M59.3296 117.107C61.3975 117.107 62.4019 115.979 62.4019 114.073V109.411H60.7368V114.18C60.7368 115.072 60.2158 115.593 59.3296 115.593C58.4541 115.593 57.9546 115.072 57.9546 114.18V109.411H56.2896V114.126C56.2896 115.99 57.2778 117.107 59.3296 117.107Z" fill="#569B51"/>
<path d="M63.9595 117H67.9609C69.5938 117 70.5122 116.184 70.5122 114.895C70.5122 113.788 69.8408 113.192 69.0674 113.047V113.009C69.5991 112.8 70.1201 112.327 70.1201 111.419C70.1201 110.2 69.207 109.411 67.6494 109.411H63.9595V117ZM65.6245 112.488V110.823H67.4561C68.1328 110.823 68.4229 111.092 68.4229 111.624C68.4229 112.166 68.1328 112.488 67.4185 112.488H65.6245ZM65.6245 115.582V113.772H67.7944C68.4551 113.772 68.8364 114.094 68.8364 114.685C68.8364 115.201 68.5464 115.582 67.7944 115.582H65.6245Z" fill="#569B51"/>
<path d="M50 25C36.1872 25 25 36.3578 25 50.3813C25 62.3094 33.0617 72.2091 43.9383 75C43.8128 74.6825 43.7511 74.2375 43.7511 73.7947V69.4788H40.6255C38.9383 69.4788 37.3745 68.7184 36.6872 67.3208C35.8745 65.7979 35.7489 63.4499 33.6872 61.9897C33.0617 61.4821 33.5617 60.9744 34.2489 61.0371C35.5617 61.4172 36.6234 62.3072 37.6234 63.6378C38.6234 64.9706 39.0617 65.2882 40.9362 65.2882C41.8106 65.2882 43.1851 65.2255 44.4362 65.0333C45.1234 63.2555 46.3106 61.67 47.7489 60.9096C39.3745 59.8944 35.3745 55.7059 35.3745 49.9946C35.3745 47.5191 36.4362 45.1711 38.1872 43.1406C37.6255 41.1727 36.8745 37.1117 38.4383 35.5262C42.1894 35.5262 44.4383 38.0017 45 38.6346C46.8745 37.9995 48.9383 37.6193 51.0617 37.6193C53.2489 37.6193 55.2489 37.9995 57.1234 38.6346C57.6851 37.9995 59.9362 35.5262 63.6851 35.5262C65.1851 37.0491 64.4979 41.1727 63.8723 43.1406C65.6234 45.1084 66.6234 47.5191 66.6234 49.9946C66.6234 55.7059 62.6851 59.8944 54.3745 60.7822C56.6872 61.9875 58.3128 65.4134 58.3128 67.9516V73.732C58.3128 73.9221 58.2511 74.1122 58.2511 74.3023C68 70.8764 75 61.4864 75 50.3813C75 36.3578 63.8128 25 50 25Z" fill="#569B51"/>
</svg>
