<svg width="100" height="129" viewBox="0 0 100 129" fill="none" xmlns="http://www.w3.org/2000/svg">
<path fill-rule="evenodd" clip-rule="evenodd" d="M48.3444 33.8054C44.3936 29.9657 42.2247 29.1456 41.0955 29.1456C40.6936 29.1352 40.2994 29.2521 39.9671 29.4808C38.5322 30.4997 38.8182 33.4417 40.8147 38.2291C40.9184 38.4777 41.0261 38.7295 41.1376 38.9843C36.2687 41.9225 32.4812 45.5094 30.2524 49.1821L19 53.3291L25.3141 60.6739L25.1417 70.4051L36.3637 66.2692C40.4095 67.6411 45.6021 67.9188 51.2149 66.9904C51.2877 67.245 51.3615 67.4952 51.4362 67.7409C52.8969 72.5569 54.4967 75 56.1866 75C56.2356 75 56.2871 75 56.3386 74.9948C58.5664 74.797 59.5637 70.4189 60.0089 66.2591C60.1942 66.4393 60.3782 66.6154 60.5608 66.7872C63.4769 69.5318 65.7285 70.9223 67.2561 70.9223C67.6606 70.9327 68.0573 70.8157 68.3896 70.587C70.2676 69.2563 68.8353 64.7574 67.3051 61.2175L67.2938 61.1918C77.1308 55.472 82.7837 47.122 80.4925 40.4697C80.4795 40.4299 80.4659 40.3903 80.4517 40.3508L80.4538 40.35C80.4471 40.3313 80.4404 40.3125 80.4334 40.2939C77.4715 32.2296 63.6663 29.8942 49.463 35.0349C49.518 34.3891 49.5824 33.7653 49.6561 33.1661C50.2692 28.1656 51.3718 26.3151 52.1292 26.2475C52.1472 26.2449 52.1627 26.2449 52.1782 26.2449C52.6599 26.2449 53.2756 26.8661 53.9067 27.9915C54.5894 29.213 55.2772 30.9855 55.9084 33.1635L57.1424 32.9244C55.2515 26.4009 53.4044 25 52.1782 25C52.1266 25 52.0725 25.0026 52.021 25.0078C50.2744 25.1637 49.0688 27.8563 48.435 33.0128C48.4031 33.2726 48.3729 33.5368 48.3444 33.8054ZM58.8838 65.1313C58.8589 65.1056 58.8339 65.0798 58.809 65.054C56.6577 65.7948 54.52 66.3654 52.4322 66.7714C52.4912 66.9754 52.5508 67.1764 52.611 67.3745C53.2189 69.3783 53.8861 71.0313 54.5431 72.1515C55.1459 73.1859 55.7307 73.7551 56.1866 73.7551C56.2021 73.7551 56.2175 73.7551 56.233 73.7525C56.9515 73.6906 58.302 71.7902 58.8838 65.1313ZM48.199 35.4021C48.1961 35.4398 48.1933 35.4775 48.1905 35.5153C46.0694 36.3495 44.0676 37.3066 42.209 38.3581C42.1195 38.1519 42.0325 37.9477 41.9482 37.7457C40.0109 33.1065 40.0521 30.9441 40.6756 30.5023C40.7812 30.4269 40.928 30.3905 41.1135 30.3905C41.7583 30.3905 43.7297 30.8802 48.199 35.4021ZM60.1554 64.6594C60.5769 65.0853 60.9924 65.4909 61.4006 65.875C65.0535 69.3135 66.6997 69.6851 67.2381 69.6851C67.4236 69.6851 67.573 69.6461 67.6864 69.5656C68.3423 69.101 68.3433 66.7913 66.1938 61.8109C64.3144 62.8342 62.296 63.7618 60.1625 64.5659L60.1554 64.6594Z" fill="#569B51"/>
<path d="M36.6152 109.411H30.6748V110.818H34.5044L30.5513 115.91V117H36.6152V115.593H32.7856L36.6152 110.582V109.411Z" fill="#569B51"/>
<path d="M37.8667 117H43.7051V115.593H39.5317V113.901H43.1626V112.494H39.5317V110.818H43.4473V109.411H37.8667V117Z" fill="#569B51"/>
<path d="M44.9673 117H46.627V114.39H48.8076C50.4458 114.39 51.418 113.471 51.418 111.946C51.418 110.42 50.4512 109.411 48.8076 109.411H44.9673V117ZM46.627 112.982V110.818H48.5391C49.3877 110.818 49.7637 111.205 49.7637 111.897C49.7637 112.574 49.4038 112.982 48.5391 112.982H46.627Z" fill="#569B51"/>
<path d="M52.5405 117H57.7827V115.582H54.2056V109.411H52.5405V117Z" fill="#569B51"/>
<path d="M58.814 117H60.479V109.411H58.814V117Z" fill="#569B51"/>
<path d="M62.2085 117H63.8735V111.865H63.9326L67.1499 117H68.9277V109.411H67.2627V114.567H67.2144L63.9648 109.411H62.2085V117Z" fill="#569B51"/>
</svg>
