<svg width="100" height="129" viewBox="0 0 100 129" fill="none" xmlns="http://www.w3.org/2000/svg">
<path d="M45.4125 37.885L31 65.7165L37.4236 25.034C37.6646 23.7734 38.3688 23.6448 39.0045 24.7621L45.4125 37.8808L47.8692 32.2817C48.4904 31.1644 49.5063 31.1496 50.1274 32.2817L54.7342 41.6441L60.9137 35.3765C61.8319 34.489 62.7772 34.7883 63.0161 36.049L68 65.472L51.4695 75.5425C50.8898 75.8714 49.3525 76 49.3525 76C49.3525 76 47.9544 75.8271 47.4184 75.5278L31 65.7165L49.728 46.7216L45.4125 37.885Z" fill="#569B51"/>
<path d="M23.9019 117H25.5669V113.901H29.0259V112.494H25.5669V110.818H29.4985V109.411H23.9019V117Z" fill="#569B51"/>
<path d="M30.6265 117H32.2915V109.411H30.6265V117Z" fill="#569B51"/>
<path d="M40.042 115.088C39.8916 114.234 39.6016 113.697 38.8979 113.477C39.8164 113.246 40.2676 112.698 40.2676 111.65C40.2676 110.249 39.3384 109.411 37.5391 109.411H34.021V117.011H35.6807V113.847H36.3467C37.9634 113.847 38.2051 114.067 38.3931 115.222L38.6885 117H40.3804L40.042 115.088ZM35.6914 110.818H37.5337C38.2534 110.818 38.6025 111.146 38.6025 111.688C38.6025 112.198 38.2856 112.569 37.5928 112.569H35.6914V110.818Z" fill="#569B51"/>
<path d="M41.7017 117H47.54V115.593H43.3667V113.901H46.9976V112.494H43.3667V110.818H47.2822V109.411H41.7017V117Z" fill="#569B51"/>
<path d="M48.8022 117H52.8037C54.4365 117 55.355 116.184 55.355 114.895C55.355 113.788 54.6836 113.192 53.9102 113.047V113.009C54.4419 112.8 54.9629 112.327 54.9629 111.419C54.9629 110.2 54.0498 109.411 52.4922 109.411H48.8022V117ZM50.4673 112.488V110.823H52.2988C52.9756 110.823 53.2656 111.092 53.2656 111.624C53.2656 112.166 52.9756 112.488 52.2612 112.488H50.4673ZM50.4673 115.582V113.772H52.6372C53.2979 113.772 53.6792 114.094 53.6792 114.685C53.6792 115.201 53.3892 115.582 52.6372 115.582H50.4673Z" fill="#569B51"/>
<path d="M61.29 117H63.0894L60.4468 109.411H58.2339L55.5913 117H57.3906L57.96 115.201H60.7207L61.29 117ZM58.3843 113.863L59.3188 110.925H59.3618L60.2964 113.863H58.3843Z" fill="#569B51"/>
<path d="M66.5591 117.086C68.4766 117.086 69.4917 116.092 69.4917 114.653C69.4917 112.95 68.0737 112.623 66.8813 112.359C66.0166 112.161 65.27 111.994 65.27 111.35C65.27 110.834 65.6782 110.522 66.3711 110.522C67.0908 110.522 67.585 110.872 67.6011 111.624H69.1909C69.1748 109.765 67.5474 109.298 66.3496 109.298C64.7544 109.298 63.6426 110.109 63.6426 111.575C63.6426 113.079 64.8833 113.423 66.0059 113.691C66.9458 113.912 67.8159 114.089 67.8159 114.868C67.8159 115.448 67.354 115.77 66.6074 115.77C65.8071 115.77 65.1841 115.394 65.1519 114.438H63.5137C63.5137 116.522 65.1089 117.086 66.5591 117.086Z" fill="#569B51"/>
<path d="M70.7163 117H76.5547V115.593H72.3813V113.901H76.0122V112.494H72.3813V110.818H76.2969V109.411H70.7163V117Z" fill="#569B51"/>
</svg>
