<svg width="100" height="129" viewBox="0 0 100 129" fill="none" xmlns="http://www.w3.org/2000/svg">
<path d="M26.0933 117H27.2051C28.7681 117 29.6221 116.361 29.6221 114.835V109.411H27.957V114.508C27.957 115.362 27.624 115.593 26.8506 115.593H26.0933V117Z" fill="#569B51"/>
<path d="M31.2334 117H37.0718V115.593H32.8984V113.901H36.5293V112.494H32.8984V110.818H36.814V109.411H31.2334V117Z" fill="#569B51"/>
<path d="M39.7358 117H41.4009V110.812H43.6782V109.411H37.4692V110.812H39.7358V117Z" fill="#569B51"/>
<path d="M44.7041 117H46.3638V114.39H48.5444C50.1826 114.39 51.1548 113.471 51.1548 111.946C51.1548 110.42 50.188 109.411 48.5444 109.411H44.7041V117ZM46.3638 112.982V110.818H48.2759C49.1245 110.818 49.5005 111.205 49.5005 111.897C49.5005 112.574 49.1406 112.982 48.2759 112.982H46.3638Z" fill="#569B51"/>
<path d="M56.5044 117H58.3037L55.6611 109.411H53.4482L50.8057 117H52.605L53.1743 115.201H55.9351L56.5044 117ZM53.5986 113.863L54.5332 110.925H54.5762L55.5107 113.863H53.5986Z" fill="#569B51"/>
<path d="M62.1333 117.107C64.1206 117.107 65.4526 116.055 65.5977 114.003H63.9272C63.8467 115.077 63.1914 115.689 62.1333 115.689C60.8335 115.689 60.1943 114.728 60.1943 113.203C60.1943 111.683 60.8335 110.721 62.1333 110.721C63.1914 110.721 63.8467 111.333 63.9272 112.408H65.5977C65.4526 110.356 64.1206 109.298 62.1333 109.298C59.9043 109.298 58.54 110.673 58.54 113.203C58.54 115.738 59.9043 117.107 62.1333 117.107Z" fill="#569B51"/>
<path d="M71.9517 117H73.9497L71.3501 112.085L73.8208 109.411H71.71L68.5088 113.127V109.411H66.8438V117H68.5088V115.163L70.1899 113.342L71.9517 117Z" fill="#569B51"/>
<path d="M61.5063 56.9189C60.3583 56.9189 59.4244 55.99 59.4244 54.8489C59.4244 53.7078 60.3583 52.7796 61.5063 52.7796C62.6545 52.7796 63.5884 53.7076 63.5884 54.8489C63.5884 55.9902 62.6545 56.9189 61.5063 56.9189ZM38.4937 56.9189C37.3457 56.9189 36.4118 55.99 36.4118 54.8489C36.4118 53.7078 37.3455 52.7796 38.4937 52.7796C39.6417 52.7796 40.5756 53.7076 40.5756 54.8489C40.5756 55.9902 39.6419 56.9189 38.4937 56.9189ZM62.2531 44.4533L66.4141 37.2902C66.5287 37.0925 66.5596 36.8578 66.5002 36.6374C66.4408 36.4171 66.2959 36.2291 66.0973 36.1149C65.8984 36.0011 65.6622 35.9703 65.4405 36.0294C65.2188 36.0884 65.0298 36.2324 64.9148 36.4298L60.7017 43.6834C57.4796 42.2221 53.8612 41.4079 50 41.4079C46.1388 41.4079 42.5204 42.2221 39.2985 43.6834L35.0852 36.4298C34.9702 36.2324 34.7812 36.0884 34.5595 36.0294C34.3378 35.9703 34.1016 36.0011 33.9027 36.1149C33.704 36.229 33.559 36.417 33.4995 36.6373C33.4401 36.8577 33.4712 37.0926 33.5859 37.2902L37.7469 44.4533C30.6018 48.3159 25.7149 55.5057 25 64H75C74.2845 55.5059 69.3977 48.3159 62.2531 44.4531" fill="#569B51"/>
</svg>
