<svg width="100" height="129" viewBox="0 0 100 129" fill="none" xmlns="http://www.w3.org/2000/svg">
<path d="M35.9976 117H37.9956L35.396 112.085L37.8667 109.411H35.7559L32.5547 113.127V109.411H30.8896V117H32.5547V115.163L34.2358 113.342L35.9976 117Z" fill="#569B51"/>
<path d="M41.6802 117.107C43.8984 117.107 45.3003 115.738 45.3003 113.203C45.3003 110.673 43.8984 109.298 41.6802 109.298C39.4512 109.298 38.0869 110.673 38.0869 113.203C38.0869 115.738 39.4512 117.107 41.6802 117.107ZM41.6802 115.689C40.3804 115.689 39.7412 114.728 39.7412 113.203C39.7412 111.683 40.3804 110.721 41.6802 110.721C42.9692 110.721 43.646 111.683 43.646 113.203C43.646 114.728 42.9692 115.689 41.6802 115.689Z" fill="#569B51"/>
<path d="M47.7495 117H49.4146V110.812H51.6919V109.411H45.4829V110.812H47.7495V117Z" fill="#569B51"/>
<path d="M52.7178 117H57.96V115.582H54.3828V109.411H52.7178V117Z" fill="#569B51"/>
<path d="M58.9912 117H60.6562V109.411H58.9912V117Z" fill="#569B51"/>
<path d="M62.3857 117H64.0508V111.865H64.1099L67.3271 117H69.105V109.411H67.4399V114.567H67.3916L64.1421 109.411H62.3857V117Z" fill="#569B51"/>
<path d="M25 25H75L50.0676 49.8885L75 75H25.0001L25 25Z" fill="#569B51"/>
<path d="M25 25H75L50.0676 49.8885L75 75H25.0001L25 25Z" fill="#569B51"/>
</svg>
