<svg width="100" height="129" viewBox="0 0 100 129" fill="none" xmlns="http://www.w3.org/2000/svg">
<path d="M42.7991 55.604L30.406 65.2169L25 62.5372V37.484L30.3846 34.7831L42.6923 44.4173L62.1795 25L75 30.0829V69.832L62.2436 75L42.7991 55.604ZM61.7949 58.9855V41.0145L50.1282 50.0106L61.7949 58.9855ZM30.8333 55.7529L36.9658 50.202L30.8333 44.1195V55.7529Z" fill="#569B51"/>
<path d="M11.9673 117H14.1802L16.8228 109.411H15.0234L13.0952 115.501H13.0522L11.124 109.411H9.32471L11.9673 117Z" fill="#569B51"/>
<path d="M17.7896 117H19.4546V109.411H17.7896V117Z" fill="#569B51"/>
<path d="M23.7622 117.086C25.6797 117.086 26.6948 116.092 26.6948 114.653C26.6948 112.95 25.2769 112.623 24.0845 112.359C23.2197 112.161 22.4731 111.994 22.4731 111.35C22.4731 110.834 22.8813 110.522 23.5742 110.522C24.2939 110.522 24.7881 110.872 24.8042 111.624H26.394C26.3779 109.765 24.7505 109.298 23.5527 109.298C21.9575 109.298 20.8457 110.109 20.8457 111.575C20.8457 113.079 22.0864 113.423 23.209 113.691C24.1489 113.912 25.019 114.089 25.019 114.868C25.019 115.448 24.5571 115.77 23.8105 115.77C23.0103 115.77 22.3872 115.394 22.355 114.438H20.7168C20.7168 116.522 22.312 117.086 23.7622 117.086Z" fill="#569B51"/>
<path d="M30.7983 117.107C32.8662 117.107 33.8706 115.979 33.8706 114.073V109.411H32.2056V114.18C32.2056 115.072 31.6846 115.593 30.7983 115.593C29.9229 115.593 29.4233 115.072 29.4233 114.18V109.411H27.7583V114.126C27.7583 115.99 28.7466 117.107 30.7983 117.107Z" fill="#569B51"/>
<path d="M39.9775 117H41.7769L39.1343 109.411H36.9214L34.2788 117H36.0781L36.6475 115.201H39.4082L39.9775 117ZM37.0718 113.863L38.0063 110.925H38.0493L38.9839 113.863H37.0718Z" fill="#569B51"/>
<path d="M42.7437 117H47.9858V115.582H44.4087V109.411H42.7437V117Z" fill="#569B51"/>
<path d="M54.2378 117.086C56.1553 117.086 57.1704 116.092 57.1704 114.653C57.1704 112.95 55.7524 112.623 54.5601 112.359C53.6953 112.161 52.9487 111.994 52.9487 111.35C52.9487 110.834 53.3569 110.522 54.0498 110.522C54.7695 110.522 55.2637 110.872 55.2798 111.624H56.8696C56.8535 109.765 55.2261 109.298 54.0283 109.298C52.4331 109.298 51.3213 110.109 51.3213 111.575C51.3213 113.079 52.562 113.423 53.6846 113.691C54.6245 113.912 55.4946 114.089 55.4946 114.868C55.4946 115.448 55.0327 115.77 54.2861 115.77C53.4858 115.77 52.8628 115.394 52.8306 114.438H51.1924C51.1924 116.522 52.7876 117.086 54.2378 117.086Z" fill="#569B51"/>
<path d="M59.8076 117H61.4727V110.812H63.75V109.411H57.541V110.812H59.8076V117Z" fill="#569B51"/>
<path d="M67.5903 117.107C69.6582 117.107 70.6626 115.979 70.6626 114.073V109.411H68.9976V114.18C68.9976 115.072 68.4766 115.593 67.5903 115.593C66.7148 115.593 66.2153 115.072 66.2153 114.18V109.411H64.5503V114.126C64.5503 115.99 65.5386 117.107 67.5903 117.107Z" fill="#569B51"/>
<path d="M72.2202 117H75.1313C77.7578 117 78.9448 115.63 78.9448 113.235C78.9448 110.834 77.8115 109.411 75.1421 109.411H72.2202V117ZM73.8853 115.577V110.829H75.1206C76.7373 110.829 77.2959 111.693 77.2959 113.181C77.2959 114.728 76.689 115.577 74.9971 115.577H73.8853Z" fill="#569B51"/>
<path d="M80.2124 117H81.8774V109.411H80.2124V117Z" fill="#569B51"/>
<path d="M86.749 117.107C88.9673 117.107 90.3691 115.738 90.3691 113.203C90.3691 110.673 88.9673 109.298 86.749 109.298C84.52 109.298 83.1558 110.673 83.1558 113.203C83.1558 115.738 84.52 117.107 86.749 117.107ZM86.749 115.689C85.4492 115.689 84.8101 114.728 84.8101 113.203C84.8101 111.683 85.4492 110.721 86.749 110.721C88.0381 110.721 88.7148 111.683 88.7148 113.203C88.7148 114.728 88.0381 115.689 86.749 115.689Z" fill="#569B51"/>
</svg>
