<svg width="100" height="129" viewBox="0 0 100 129" fill="none" xmlns="http://www.w3.org/2000/svg">
<path d="M41.9917 117H43.791L41.1484 109.411H38.9355L36.293 117H38.0923L38.6616 115.201H41.4224L41.9917 117ZM39.0859 113.863L40.0205 110.925H40.0635L40.998 113.863H39.0859Z" fill="#569B51"/>
<path d="M44.2261 117H45.3379C46.9009 117 47.7549 116.361 47.7549 114.835V109.411H46.0898V114.508C46.0898 115.362 45.7568 115.593 44.9834 115.593H44.2261V117Z" fill="#569B51"/>
<path d="M54.313 117H56.1123L53.4697 109.411H51.2568L48.6143 117H50.4136L50.9829 115.201H53.7437L54.313 117ZM51.4072 113.863L52.3418 110.925H52.3848L53.3193 113.863H51.4072Z" fill="#569B51"/>
<path d="M56.354 117H58.293L60.0117 114.331L61.7466 117H63.6802L61.1128 113.203L63.6641 109.411H61.7358L60.0225 112.128L58.3037 109.411H56.3647L58.8999 113.203L56.354 117Z" fill="#569B51"/>
<path fill-rule="evenodd" clip-rule="evenodd" d="M50.7826 51.9974L40.745 61.87L30.8724 51.9974L33.8751 48.8707L37.6936 52.1425L37.9519 52.1431V32.8104C37.9519 28.4835 41.4354 25 45.7623 25H54.63C58.9569 25 62.4404 28.4835 62.4404 32.8104V35.3163H55.7661V33.3041C55.7661 30.9108 53.8394 28.9841 51.4461 28.9841H48.0135C45.6203 28.9841 43.6935 30.9108 43.6935 33.3041V52.1564L44.0584 52.157L47.3272 48.8708L50.7826 51.9974ZM49.1152 47.2647L59.1527 37.3922L69.0253 47.2648L66.0227 50.3915L62.2042 47.1197L61.9459 47.1191V66.4518C61.9459 70.7787 58.4624 74.2622 54.1354 74.2622H45.2678C40.9408 74.2622 37.4574 70.7787 37.4574 66.4518V63.9459H44.1316V65.9581C44.1316 68.3514 46.0584 70.2781 48.4517 70.2781H51.8842C54.2775 70.2781 56.2043 68.3514 56.2043 65.9581V47.1058L55.8394 47.1052L52.5706 50.3914L49.1152 47.2647Z" fill="#569B51"/>
</svg>
