<svg width="100" height="129" viewBox="0 0 100 129" fill="none" xmlns="http://www.w3.org/2000/svg">
<path d="M41.7017 117H43.9146L46.5571 109.411H44.7578L42.8296 115.501H42.7866L40.8584 109.411H39.0591L41.7017 117Z" fill="#569B51"/>
<path d="M50.1772 117.107C52.2451 117.107 53.2495 115.979 53.2495 114.073V109.411H51.5845V114.18C51.5845 115.072 51.0635 115.593 50.1772 115.593C49.3018 115.593 48.8022 115.072 48.8022 114.18V109.411H47.1372V114.126C47.1372 115.99 48.1255 117.107 50.1772 117.107Z" fill="#569B51"/>
<path d="M54.8071 117H60.6455V115.593H56.4722V113.901H60.103V112.494H56.4722V110.818H60.3877V109.411H54.8071V117Z" fill="#569B51"/>
<path d="M50.5 75L23 25H33.8625H44.0375L50.5 36.5942L56.825 25H78L50.5 75Z" fill="#569B51"/>
</svg>
