<svg width="100" height="129" viewBox="0 0 100 129" fill="none" xmlns="http://www.w3.org/2000/svg">
<path d="M12.1338 117H13.7988V111.865H13.8579L17.0752 117H18.853V109.411H17.188V114.567H17.1396L13.8901 109.411H12.1338V117Z" fill="#569B51"/>
<path d="M20.5771 117H22.2422V109.411H20.5771V117Z" fill="#569B51"/>
<path d="M27.2803 114.073H28.9775C28.8755 114.895 28.3545 115.657 27.1621 115.657C25.7227 115.657 25.1963 114.535 25.1963 113.165C25.1963 111.774 25.7495 110.678 27.189 110.678C28.145 110.678 28.8486 111.151 28.8701 112.042H30.562C30.5352 110.189 28.9722 109.292 27.1729 109.292C24.8311 109.292 23.5098 110.802 23.5098 113.224C23.5098 115.609 24.7881 117.107 26.9312 117.107C27.9194 117.107 28.7466 116.742 29.1763 116.071L29.1816 117H30.562V112.762H27.2803V114.073Z" fill="#569B51"/>
<path d="M32.0928 117H33.7578V113.896H37.1094V117H38.7744V109.411H37.1094V112.499H33.7578V109.411H32.0928V117Z" fill="#569B51"/>
<path d="M42.0669 117H43.7319V110.812H46.0093V109.411H39.8003V110.812H42.0669V117Z" fill="#569B51"/>
<path d="M50.521 117H52.9487L54.1895 111.237L55.457 117H57.8794L59.4478 109.411H57.6914L56.5635 115.582H56.5044L55.1562 109.411H53.2549L51.9067 115.582H51.8423L50.7144 109.411H48.958L50.521 117Z" fill="#569B51"/>
<path d="M65.2915 117H67.0908L64.4482 109.411H62.2354L59.5928 117H61.3921L61.9614 115.201H64.7222L65.2915 117ZM62.3857 113.863L63.3203 110.925H63.3633L64.2979 113.863H62.3857Z" fill="#569B51"/>
<path d="M68.686 117H70.3511V110.812H72.6284V109.411H66.4194V110.812H68.686V117Z" fill="#569B51"/>
<path d="M76.4634 117.107C78.4507 117.107 79.7827 116.055 79.9277 114.003H78.2573C78.1768 115.077 77.5215 115.689 76.4634 115.689C75.1636 115.689 74.5244 114.728 74.5244 113.203C74.5244 111.683 75.1636 110.721 76.4634 110.721C77.5215 110.721 78.1768 111.333 78.2573 112.408H79.9277C79.7827 110.356 78.4507 109.298 76.4634 109.298C74.2344 109.298 72.8701 110.673 72.8701 113.203C72.8701 115.738 74.2344 117.107 76.4634 117.107Z" fill="#569B51"/>
<path d="M81.1738 117H82.8389V113.896H86.1904V117H87.8555V109.411H86.1904V112.499H82.8389V109.411H81.1738V117Z" fill="#569B51"/>
<path d="M55.0223 43.7428C55.5984 43.7428 56.0656 43.2795 56.0656 42.7081C56.0656 42.1367 55.5985 41.6735 55.0223 41.6735C54.4462 41.6735 53.9792 42.1367 53.9792 42.7081C53.9792 43.2795 54.4462 43.7428 55.0223 43.7428Z" fill="#569B51"/>
<path d="M45.0223 43.6844C45.5984 43.6844 46.0656 43.2212 46.0656 42.6498C46.0656 42.0784 45.5985 41.6152 45.0223 41.6152C44.4462 41.6152 43.9792 42.0784 43.9792 42.6498C43.9792 43.2212 44.4462 43.6844 45.0223 43.6844Z" fill="#569B51"/>
<path fill-rule="evenodd" clip-rule="evenodd" d="M53.814 48.62C54.047 48.9396 54.059 49.3654 53.8303 49.6879C53.1104 50.703 51.947 51.6991 50.701 52.6612C50.5856 52.7506 50.4432 52.8004 50.2959 52.8027C50.1486 52.8051 50.0046 52.7599 49.8862 52.6742C48.5609 51.7164 47.3881 50.7828 46.7068 49.7752C46.4904 49.4549 46.507 49.0322 46.7439 48.7262C46.8719 48.5607 47.0015 48.401 47.1343 48.2487C46.4215 48.9462 45.5281 49.36 44.5827 49.36C42.3727 49.36 40.5813 47.0406 40.5813 44.1795C40.5813 41.3185 42.3727 38.9992 44.5829 38.9992C46.7927 38.9992 48.7183 41.3767 48.7183 44.2379C48.7183 45.6922 48.2208 46.9915 47.4413 47.9175C48.1809 47.1707 49.0489 46.6714 50.2982 46.6714C51.3285 46.6714 52.156 47.028 52.8227 47.5633C51.9876 46.6139 51.4605 45.2214 51.4605 43.6695C51.4605 40.8084 53.2521 38.4892 55.4621 38.4892C57.6721 38.4892 59.5977 40.8666 59.5977 43.7277C59.5977 46.5888 57.6721 48.8498 55.4621 48.8498C54.7079 48.8498 54.0024 48.5797 53.4002 48.1101C53.5478 48.2728 53.6855 48.4438 53.814 48.62ZM58.0625 44.3401C58.0625 46.2156 56.8639 47.722 55.477 47.722C54.0902 47.722 52.9063 46.2011 52.9063 44.3257C52.9063 42.45 54.0902 40.9302 55.477 40.9302C56.8639 40.9302 58.0625 42.4644 58.0625 44.3401ZM47.2728 44.2819C47.2728 46.1574 46.0741 47.6638 44.687 47.6638C43.3002 47.6638 42.1163 46.1429 42.1163 44.2674C42.1163 42.3918 43.3003 40.872 44.6872 40.872C46.0741 40.872 47.2728 42.4063 47.2728 44.2819Z" fill="#569B51"/>
<path fill-rule="evenodd" clip-rule="evenodd" d="M58.3981 69.3326C57.8467 69.7436 57.2731 70.1182 56.6791 70.4534L70 70.4536V75H30V70.4536H43.7367C42.7069 69.8807 41.7415 69.1926 40.8502 68.4027C31.8712 63.8709 28.7058 54.4319 34.7492 46.487C35.2737 43.9463 36.1598 41.3445 37.4516 38.744C36.9664 37.5048 36.6316 34.3061 36.3055 30.9949C36.1914 30.2235 36.9683 29.6174 37.7122 29.897L43.4128 32.0411C44.9148 31.173 46.5317 30.5889 48.2414 30.2342C47.5192 29.6234 46.8392 28.6899 46.1625 27.7313C46.0693 27.5187 46.2483 27.3885 46.4138 27.2681C46.427 27.2585 46.4402 27.2489 46.4531 27.2394C46.5503 27.1676 46.6912 27.2033 46.7991 27.2591C47.4367 27.5078 47.9972 27.7957 48.4761 28.1247C49.0725 26.6866 49.8186 25.5234 51.5388 25.01C51.7614 24.9436 51.9563 25.2244 51.7623 25.3707C50.7317 26.1479 50.5986 27.1812 50.7269 28.3331C50.7383 28.4366 50.8142 28.5298 50.9188 28.5489C51.065 28.5756 51.2683 28.5871 51.4381 28.4636C52.0364 27.88 52.567 27.4795 53.4166 27.0828C53.9381 26.7629 54.508 27.3214 54.0536 27.7278C53.3994 28.2985 53.1356 28.7976 52.8577 29.3927C52.8527 29.426 52.8457 29.4655 52.838 29.5094C52.7726 29.8809 52.651 30.5715 53.1744 30.5984C54.2497 30.6539 55.5592 30.9449 56.8256 31.8078C58.4983 31.0483 60.2497 30.462 62.0691 30.0262C62.6794 29.8188 63.302 30.3058 63.2289 30.9338C63.1919 32.8725 62.9283 35.0047 62.4888 37.287C64.0892 39.971 65.1784 42.7324 65.8182 45.4715C74.1446 54.1979 69.1427 65.268 58.3981 69.3326ZM50.1192 41.3383C52.6676 35.1741 58.2886 34.3816 62.2801 38.3217C65.5931 41.5919 65.6781 50.6061 57.6304 52.2675C65.8122 58.9122 60.2236 70.191 50.8792 70.191C41.4903 70.0599 35.4992 58.9999 44.2176 52.1799C36.0804 52.5298 34.6926 44.2109 37.6453 39.4147C40.3453 35.0287 48.152 34.3437 50.1192 41.3383ZM42.2206 73.8778C41.371 73.8632 41.4009 72.6246 41.4009 72.6246C41.4009 72.6246 41.4157 72.1291 41.6542 71.9033C42.4317 71.1669 43.6021 70.4177 44.8584 70.4096C46.8159 70.4168 48.2134 71.5224 48.6018 72.4544C48.6734 72.6266 48.7109 72.7928 48.7109 72.9451C48.7109 73.4836 48.4558 73.597 48.1702 73.7239C48.0848 73.7619 47.9967 73.8011 47.9118 73.8532C47.9118 73.8532 47.9434 74.5044 47.2876 74.5044C46.6318 74.5044 46.7809 73.936 46.7809 73.936H45.7674C45.7674 73.936 45.827 74.4899 45.1863 74.5044C44.5454 74.5191 44.6498 73.9797 44.6498 73.9797H43.5768C43.4273 74.6561 42.4868 74.6602 42.2206 73.8778ZM58.286 73.9217C59.1356 73.9069 59.1353 72.6246 59.1353 72.6246C59.1353 72.6246 59.1357 72.1875 58.8076 71.8523C57.9898 71.1591 56.934 70.4177 55.6778 70.4096C53.7203 70.4168 52.3228 71.5224 51.9343 72.4544C51.8628 72.6266 51.8253 72.7928 51.8253 72.9451C51.8253 73.4836 52.0804 73.597 52.3659 73.7239C52.4513 73.7619 52.5395 73.8011 52.6243 73.8532C52.6243 73.8532 52.5629 74.5044 53.2187 74.5044C53.8745 74.5044 53.7553 73.936 53.7553 73.936H54.7687C54.7687 73.936 54.6792 74.4899 55.3201 74.5044C55.9609 74.5191 55.8864 73.9797 55.8864 73.9797H56.9595C57.0587 74.6559 58.1521 74.6647 58.286 73.9217Z" fill="#569B51"/>
</svg>
