<svg width="100" height="129" viewBox="0 0 100 129" fill="none" xmlns="http://www.w3.org/2000/svg">
<path d="M17.4458 117H19.1108V111.076H19.1646L21.1196 117H22.6343L24.6001 111.076H24.6484V117H26.3081V109.411H23.7461L21.8823 115.045L20.0132 109.411H17.4458V117Z" fill="#569B51"/>
<path d="M28.0376 117H33.876V115.593H29.7026V113.901H33.3335V112.494H29.7026V110.818H33.6182V109.411H28.0376V117Z" fill="#569B51"/>
<path d="M35.1382 117H36.8032V111.076H36.8569L38.812 117H40.3267L42.2925 111.076H42.3408V117H44.0005V109.411H41.4385L39.5747 115.045L37.7056 109.411H35.1382V117Z" fill="#569B51"/>
<path d="M48.8721 117.107C50.8594 117.107 52.1914 116.055 52.3364 114.003H50.666C50.5854 115.077 49.9302 115.689 48.8721 115.689C47.5723 115.689 46.9331 114.728 46.9331 113.203C46.9331 111.683 47.5723 110.721 48.8721 110.721C49.9302 110.721 50.5854 111.333 50.666 112.408H52.3364C52.1914 110.356 50.8594 109.298 48.8721 109.298C46.6431 109.298 45.2788 110.673 45.2788 113.203C45.2788 115.738 46.6431 117.107 48.8721 117.107Z" fill="#569B51"/>
<path d="M58.4219 117H60.2212L57.5786 109.411H55.3657L52.7231 117H54.5225L55.0918 115.201H57.8525L58.4219 117ZM55.5161 113.863L56.4507 110.925H56.4937L57.4282 113.863H55.5161Z" fill="#569B51"/>
<path d="M64.0508 117.107C66.0381 117.107 67.3701 116.055 67.5151 114.003H65.8447C65.7642 115.077 65.1089 115.689 64.0508 115.689C62.751 115.689 62.1118 114.728 62.1118 113.203C62.1118 111.683 62.751 110.721 64.0508 110.721C65.1089 110.721 65.7642 111.333 65.8447 112.408H67.5151C67.3701 110.356 66.0381 109.298 64.0508 109.298C61.8218 109.298 60.4575 110.673 60.4575 113.203C60.4575 115.738 61.8218 117.107 64.0508 117.107Z" fill="#569B51"/>
<path d="M68.7612 117H70.4263V113.896H73.7778V117H75.4429V109.411H73.7778V112.499H70.4263V109.411H68.7612V117Z" fill="#569B51"/>
<path d="M77.1724 117H83.0107V115.593H78.8374V113.901H82.4683V112.494H78.8374V110.818H82.7529V109.411H77.1724V117Z" fill="#569B51"/>
<path d="M27.3987 26C23.4896 50.7901 25.5347 74 25.5347 74H37.7544C36.5917 67.8113 32.4205 39.5374 35.8905 39.4441C37.7501 39.7393 46.2462 63.431 46.2462 63.431C46.2462 63.431 48.1171 63.198 49.9999 63.198C51.8828 63.198 53.7539 63.431 53.7539 63.431C53.7539 63.431 62.2501 39.7396 64.1097 39.4441C67.5793 39.5374 63.4081 67.8113 62.2458 73.9997H74.4652C74.4652 73.9997 76.5106 50.7901 72.6012 26H61.2877C59.9935 26.0153 56.5175 31.2148 53.7455 35.3613C51.9054 38.1139 50.3755 40.4024 49.9999 40.4024C49.6243 40.4024 48.0945 38.1139 46.2544 35.3613C43.4824 31.2148 40.0064 26.0153 38.7122 26H27.3987Z" fill="#569B51"/>
<path d="M47.5898 71.1062C47.5898 71.8737 47.2851 72.6097 46.7427 73.1524C46.2003 73.6951 45.4647 74 44.6976 74C43.9306 74 43.195 73.6951 42.6526 73.1524C42.1102 72.6097 41.8055 71.8737 41.8055 71.1062C41.8055 70.3387 42.1102 69.6027 42.6526 69.06C43.195 68.5173 43.9306 68.2124 44.6976 68.2124C45.4647 68.2124 46.2003 68.5173 46.7427 69.06C47.2851 69.6027 47.5898 70.3387 47.5898 71.1062Z" fill="#569B51"/>
<path d="M57.3469 73.1522C57.8892 72.6095 58.1939 71.8735 58.1939 71.106C58.1939 70.3386 57.8892 69.6026 57.3469 69.0599C56.8045 68.5172 56.0689 68.2124 55.3019 68.2124C54.5349 68.2124 53.7993 68.5172 53.2569 69.0599C52.7146 69.6026 52.4099 70.3386 52.4099 71.106C52.4099 71.8735 52.7146 72.6095 53.2569 73.1522C53.7993 73.6949 54.5349 73.9997 55.3019 73.9997C56.0689 73.9997 56.8045 73.6949 57.3469 73.1522Z" fill="#569B51"/>
</svg>
