<svg width="100" height="129" viewBox="0 0 100 129" fill="none" xmlns="http://www.w3.org/2000/svg">
<path d="M27.1943 114.073H28.8916C28.7896 114.895 28.2686 115.657 27.0762 115.657C25.6367 115.657 25.1104 114.535 25.1104 113.165C25.1104 111.774 25.6636 110.678 27.103 110.678C28.0591 110.678 28.7627 111.151 28.7842 112.042H30.4761C30.4492 110.189 28.8862 109.292 27.0869 109.292C24.7451 109.292 23.4238 110.802 23.4238 113.224C23.4238 115.609 24.7021 117.107 26.8452 117.107C27.8335 117.107 28.6606 116.742 29.0903 116.071L29.0957 117H30.4761V112.762H27.1943V114.073Z" fill="#569B51"/>
<path d="M38.0278 115.088C37.8774 114.234 37.5874 113.697 36.8838 113.477C37.8022 113.246 38.2534 112.698 38.2534 111.65C38.2534 110.249 37.3242 109.411 35.5249 109.411H32.0068V117.011H33.6665V113.847H34.3325C35.9492 113.847 36.1909 114.067 36.3789 115.222L36.6743 117H38.3662L38.0278 115.088ZM33.6772 110.818H35.5195C36.2393 110.818 36.5884 111.146 36.5884 111.688C36.5884 112.198 36.2715 112.569 35.5786 112.569H33.6772V110.818Z" fill="#569B51"/>
<path d="M44.6343 117H46.4336L43.791 109.411H41.5781L38.9355 117H40.7349L41.3042 115.201H44.0649L44.6343 117ZM41.7285 113.863L42.6631 110.925H42.7061L43.6406 113.863H41.7285Z" fill="#569B51"/>
<path d="M47.4004 117H49.0601V114.39H51.2407C52.8789 114.39 53.8511 113.471 53.8511 111.946C53.8511 110.42 52.8843 109.411 51.2407 109.411H47.4004V117ZM49.0601 112.982V110.818H50.9722C51.8208 110.818 52.1968 111.205 52.1968 111.897C52.1968 112.574 51.8369 112.982 50.9722 112.982H49.0601Z" fill="#569B51"/>
<path d="M54.9736 117H56.6387V113.896H59.9902V117H61.6553V109.411H59.9902V112.499H56.6387V109.411H54.9736V117Z" fill="#569B51"/>
<path d="M70.2974 116.662L69.4272 115.797C69.8945 115.152 70.147 114.282 70.147 113.203C70.147 110.673 68.7451 109.298 66.5269 109.298C64.2979 109.298 62.9336 110.673 62.9336 113.203C62.9336 115.738 64.2979 117.107 66.5269 117.107C67.2627 117.107 67.9072 116.957 68.439 116.667L69.3682 117.607L70.2974 116.662ZM66.5269 115.689C65.2271 115.689 64.5879 114.728 64.5879 113.203C64.5879 111.683 65.2271 110.721 66.5269 110.721C67.8159 110.721 68.4927 111.683 68.4927 113.203C68.4927 113.75 68.4067 114.223 68.2349 114.604L67.0264 113.401L66.1294 114.32L67.3271 115.539C67.0962 115.636 66.8276 115.689 66.5269 115.689Z" fill="#569B51"/>
<path d="M71.5596 117H76.8018V115.582H73.2246V109.411H71.5596V117Z" fill="#569B51"/>
<path fill-rule="evenodd" clip-rule="evenodd" d="M67.4739 66.0478C69.8697 67.3961 72.9399 66.5955 74.3171 64.25C75.7087 61.9045 74.891 58.9129 72.4808 57.5506C72.0575 57.3124 71.6132 57.1412 71.1609 57.0338V43.9696C71.6181 43.8624 72.0674 43.6902 72.4951 43.4494C74.891 42.0871 75.7087 39.0955 74.3315 36.75C72.9399 34.4045 69.8841 33.6039 67.4882 34.9522C67.0572 35.1973 66.6773 35.4952 66.352 35.8325L54.8 29.3029C54.9346 28.859 55.0069 28.3888 55.0069 27.9017C55.0069 25.191 52.7689 23 50 23C47.2311 23 44.9931 25.191 44.9931 27.9017C44.9931 28.3861 45.0646 28.8538 45.1978 29.2955L33.6426 35.8269C33.3185 35.4919 32.9404 35.196 32.5118 34.9522C30.1159 33.6039 27.0458 34.4045 25.6686 36.75C24.2913 39.0955 25.109 42.1011 27.5049 43.4494C27.9326 43.6902 28.3819 43.8624 28.8391 43.9696V57.0336C28.3871 57.1409 27.9428 57.3122 27.5192 57.5506C25.1234 58.9129 24.3056 61.9045 25.6829 64.25C27.0601 66.5955 30.1159 67.3961 32.5261 66.0478C32.9503 65.8066 33.325 65.5143 33.6468 65.1836L45.1957 71.7115C45.0638 72.1511 44.9931 72.6165 44.9931 73.0983C44.9931 75.809 47.2311 78 50 78C52.7689 78 55.0069 75.7949 55.0069 73.0983C55.0069 72.5584 54.9181 72.0391 54.754 71.5536L66.2355 65.0637C66.5825 65.4452 66.9969 65.7793 67.4739 66.0478ZM65.1146 62.972C65.1417 63.0801 65.1726 63.1873 65.2071 63.2934L53.7028 69.7961C52.7876 68.8129 51.4685 68.1966 50 68.1966C48.582 68.1966 47.3032 68.7713 46.393 69.6961L34.8322 63.1615C34.8508 63.0987 34.8681 63.0355 34.8841 62.972H65.1146ZM66.5189 58.2476C66.1805 58.5635 65.8823 58.9315 65.6376 59.3483C65.3942 59.7627 65.2194 60.1977 65.1097 60.6405H34.8906C34.7809 60.198 34.606 59.763 34.3625 59.3483C34.1168 58.9342 33.8192 58.5683 33.4826 58.2538L48.6054 32.6114C49.048 32.7364 49.5159 32.8034 50 32.8034C50.4857 32.8034 50.9551 32.7359 51.399 32.6101L66.5189 58.2476ZM68.7794 57.0386C68.7145 57.0542 68.6498 57.0711 68.5856 57.0892L53.462 31.4454C53.5076 31.4027 53.5524 31.3591 53.5964 31.3147L65.1759 37.8598C64.818 39.0906 64.9493 40.4552 65.6519 41.6517C66.3568 42.8521 67.505 43.6478 68.7794 43.9579V57.0386ZM46.398 31.3091C46.4448 31.3565 46.4926 31.403 46.5413 31.4485L31.418 57.0917C31.3526 57.0731 31.2868 57.0558 31.2206 57.0398V43.9579C32.495 43.6478 33.6432 42.8521 34.3481 41.6517C35.0521 40.4527 35.1826 39.085 34.8219 37.8523L46.398 31.3091Z" fill="#569B51"/>
</svg>
