<svg width="100" height="129" viewBox="0 0 100 129" fill="none" xmlns="http://www.w3.org/2000/svg">
<path d="M18.9873 117.107C21.2056 117.107 22.6074 115.738 22.6074 113.203C22.6074 110.673 21.2056 109.298 18.9873 109.298C16.7583 109.298 15.394 110.673 15.394 113.203C15.394 115.738 16.7583 117.107 18.9873 117.107ZM18.9873 115.689C17.6875 115.689 17.0483 114.728 17.0483 113.203C17.0483 111.683 17.6875 110.721 18.9873 110.721C20.2764 110.721 20.9531 111.683 20.9531 113.203C20.9531 114.728 20.2764 115.689 18.9873 115.689Z" fill="#569B51"/>
<path d="M23.8804 117H27.8818C29.5146 117 30.4331 116.184 30.4331 114.895C30.4331 113.788 29.7617 113.192 28.9883 113.047V113.009C29.52 112.8 30.041 112.327 30.041 111.419C30.041 110.2 29.1279 109.411 27.5703 109.411H23.8804V117ZM25.5454 112.488V110.823H27.377C28.0537 110.823 28.3438 111.092 28.3438 111.624C28.3438 112.166 28.0537 112.488 27.3394 112.488H25.5454ZM25.5454 115.582V113.772H27.7153C28.376 113.772 28.7573 114.094 28.7573 114.685C28.7573 115.201 28.4673 115.582 27.7153 115.582H25.5454Z" fill="#569B51"/>
<path d="M30.8467 117H31.9585C33.5215 117 34.3755 116.361 34.3755 114.835V109.411H32.7104V114.508C32.7104 115.362 32.3774 115.593 31.604 115.593H30.8467V117Z" fill="#569B51"/>
<path d="M35.9868 117H41.8252V115.593H37.6519V113.901H41.2827V112.494H37.6519V110.818H41.5674V109.411H35.9868V117Z" fill="#569B51"/>
<path d="M46.1543 117.107C48.1416 117.107 49.4736 116.055 49.6187 114.003H47.9482C47.8677 115.077 47.2124 115.689 46.1543 115.689C44.8545 115.689 44.2153 114.728 44.2153 113.203C44.2153 111.683 44.8545 110.721 46.1543 110.721C47.2124 110.721 47.8677 111.333 47.9482 112.408H49.6187C49.4736 110.356 48.1416 109.298 46.1543 109.298C43.9253 109.298 42.561 110.673 42.561 113.203C42.561 115.738 43.9253 117.107 46.1543 117.107Z" fill="#569B51"/>
<path d="M52.2021 117H53.8672V110.812H56.1445V109.411H49.9355V110.812H52.2021V117Z" fill="#569B51"/>
<path d="M57.1704 117H58.8354V109.411H57.1704V117Z" fill="#569B51"/>
<path d="M62.4556 117H64.6685L67.311 109.411H65.5117L63.5835 115.501H63.5405L61.6123 109.411H59.813L62.4556 117Z" fill="#569B51"/>
<path d="M68.2778 117H74.1162V115.593H69.9429V113.901H73.5737V112.494H69.9429V110.818H73.8584V109.411H68.2778V117Z" fill="#569B51"/>
<path d="M81.1631 117.107C83.1504 117.107 84.4824 116.055 84.6274 114.003H82.957C82.8765 115.077 82.2212 115.689 81.1631 115.689C79.8633 115.689 79.2241 114.728 79.2241 113.203C79.2241 111.683 79.8633 110.721 81.1631 110.721C82.2212 110.721 82.8765 111.333 82.957 112.408H84.6274C84.4824 110.356 83.1504 109.298 81.1631 109.298C78.9341 109.298 77.5698 110.673 77.5698 113.203C77.5698 115.738 78.9341 117.107 81.1631 117.107Z" fill="#569B51"/>
<path d="M26.7474 36.6044C26.7474 37.1577 26.4124 37.5671 25.8377 37.5671C25.3591 37.5671 25 37.1577 25 36.6044C25 36.0745 25.3829 35.6414 25.8856 35.6414C26.4124 35.6414 26.7474 36.0745 26.7474 36.6044ZM25.4227 65.5385V43.4057H26.3247V65.5385H25.4227ZM56.3281 49.7688C56.3281 60.9275 50.1689 66 43.427 66C36.5398 66 30.9626 60.5133 30.9626 50.2303C30.9626 39.6719 36.7341 34 43.912 34C50.9443 33.9992 56.3281 39.5785 56.3281 49.7688ZM31.8767 49.9994C31.8767 58.4602 35.9539 65.0329 43.4696 65.0329C51.0376 65.0329 55.3782 58.258 55.3782 49.9031C55.3782 42.1554 51.9002 35.0848 43.9639 35.0848C36.0275 35.0848 31.8767 41.742 31.8767 49.9994ZM59.6388 63.1404C61.1521 64.1548 63.7642 65.1344 66.0107 65.1344C70.2745 65.1344 74.0666 62.1344 74.0666 57.7188C74.0666 53.6211 71.5405 51.483 67.2518 49.6463C63.4135 48.0025 59.9625 46.2184 59.9625 41.8379C59.9625 37.2734 63.5382 34.0449 68.398 34.0449C71.0113 34.0449 72.9827 34.7827 73.8997 35.4282L73.5353 36.2242C72.7559 35.6713 70.6493 34.9667 68.3578 34.9667C63.2217 34.9667 60.9844 38.8699 60.9844 41.7433C60.9844 45.712 64.0433 47.039 67.9862 48.9296C72.5705 51.1885 75 53.1806 75 57.5153C75 62.1725 71.6994 65.9527 65.831 65.9527C63.4007 65.9527 60.6044 65.1231 59.229 64.0622L59.6388 63.1404Z" fill="#569B51"/>
</svg>
