<svg width="100" height="129" viewBox="0 0 100 129" fill="none" xmlns="http://www.w3.org/2000/svg">
<path d="M64.1498 37.9243C64.0898 37.7892 64.1648 37.6241 64.3 37.5641C64.4201 37.489 64.5702 37.519 64.6453 37.6241C64.9155 38.1345 64.8404 38.75 64.4651 39.1854C64.4201 39.2454 64.33 39.2904 64.2549 39.2904C64.1949 39.3055 64.1198 39.3055 64.0598 39.2904L64.0447 39.2754C63.9396 39.1704 63.9547 38.9902 64.0598 38.8851C64.2849 38.6299 64.315 38.2546 64.1648 37.9544C64.1648 37.9469 64.1611 37.9431 64.1573 37.9394C64.1536 37.9356 64.1498 37.9319 64.1498 37.9243Z" fill="#569B51"/>
<path fill-rule="evenodd" clip-rule="evenodd" d="M25.206 46.8114C26.9626 33.1204 39.4834 23.4376 53.1752 25.209C66.8821 26.9655 76.5505 39.5006 74.794 53.1916C73.0224 66.8826 60.5016 76.5504 46.8097 74.794C33.1179 73.0376 23.4495 60.5025 25.206 46.8114ZM57.0936 41.317C57.4239 40.9868 57.8593 40.8066 58.3247 40.7916C56.6282 39.4105 54.9618 39.5006 45.8339 48.6129L47.8156 50.5945L57.0936 41.317ZM57.4389 41.7374L48.1909 50.9248L49.437 52.2308L59.2105 43.6139C59.4807 43.3737 59.6308 43.0434 59.6459 42.6831C59.6609 42.3378 59.5257 41.9926 59.2705 41.7374C58.7601 41.242 57.9494 41.242 57.4389 41.7374ZM46.5845 52.9063L48.8815 52.3209L47.8456 51.3601L46.4494 52.7562C46.4194 52.8013 46.4194 52.8613 46.4494 52.9063C46.4945 52.9364 46.5395 52.9364 46.5845 52.9063ZM45.4736 48.9131L43.0265 51.3601L42.9814 51.4202C42.9364 51.4652 42.9214 51.5102 42.9364 51.5703C42.9514 51.6603 43.0415 51.7204 43.1316 51.7054L47.3202 50.8047L45.4736 48.9131ZM35.3098 63.9703C35.3248 64.0153 35.3848 64.0603 35.4449 64.0753L39.8287 64.3606L37.2765 61.8235L35.3098 63.8051C35.2948 63.8502 35.2948 63.9102 35.3098 63.9703ZM40.234 61.9737C40.189 61.7635 40.2941 61.5533 40.4893 61.4482H40.5043V61.4182C44.3176 59.6017 47.8907 57.3049 51.1335 54.6027L49.3169 52.7863L45.5186 53.5969L37.6818 61.4482L40.234 64.0753C40.3091 64.1504 40.4442 64.1504 40.5343 64.0753C40.6244 64.0153 40.6844 63.8952 40.6544 63.7751L40.234 61.9737ZM49.7673 52.5611L51.5088 54.3025C55.5473 50.4444 59.4807 46.4812 59.796 43.6889C59.7209 43.794 59.6308 43.8841 59.5408 43.9591L49.7673 52.5611ZM59.2555 35.4623C57.7392 36.9185 57.6791 39.3204 59.1354 40.8366L59.1204 40.8066C60.2614 41.9776 62.0329 42.2778 63.5042 41.5572L60.8919 38.9601C60.8019 38.855 60.8019 38.7049 60.8919 38.5998L64.2548 35.2521C62.7686 34.0512 60.6367 34.1412 59.2555 35.4623ZM63.9246 41.302C64.1347 41.1669 64.3149 41.0018 64.4951 40.8366C65.9513 39.3955 65.9963 37.0836 64.6152 35.5974L61.4174 38.795L63.9246 41.302Z" fill="#569B51"/>
<path d="M23.0532 117H24.7129V114.39H26.8936C28.5317 114.39 29.5039 113.471 29.5039 111.946C29.5039 110.42 28.5371 109.411 26.8936 109.411H23.0532V117ZM24.7129 112.982V110.818H26.625C27.4736 110.818 27.8496 111.205 27.8496 111.897C27.8496 112.574 27.4897 112.982 26.625 112.982H24.7129Z" fill="#569B51"/>
<path d="M33.876 117.107C36.0942 117.107 37.4961 115.738 37.4961 113.203C37.4961 110.673 36.0942 109.298 33.876 109.298C31.647 109.298 30.2827 110.673 30.2827 113.203C30.2827 115.738 31.647 117.107 33.876 117.107ZM33.876 115.689C32.5762 115.689 31.937 114.728 31.937 113.203C31.937 111.683 32.5762 110.721 33.876 110.721C35.165 110.721 35.8418 111.683 35.8418 113.203C35.8418 114.728 35.165 115.689 33.876 115.689Z" fill="#569B51"/>
<path d="M41.3794 117.086C43.2969 117.086 44.312 116.092 44.312 114.653C44.312 112.95 42.894 112.623 41.7017 112.359C40.8369 112.161 40.0903 111.994 40.0903 111.35C40.0903 110.834 40.4985 110.522 41.1914 110.522C41.9111 110.522 42.4053 110.872 42.4214 111.624H44.0112C43.9951 109.765 42.3677 109.298 41.1699 109.298C39.5747 109.298 38.4629 110.109 38.4629 111.575C38.4629 113.079 39.7036 113.423 40.8262 113.691C41.7661 113.912 42.6362 114.089 42.6362 114.868C42.6362 115.448 42.1743 115.77 41.4277 115.77C40.6274 115.77 40.0044 115.394 39.9722 114.438H38.334C38.334 116.522 39.9292 117.086 41.3794 117.086Z" fill="#569B51"/>
<path d="M46.9492 117H48.6143V110.812H50.8916V109.411H44.6826V110.812H46.9492V117Z" fill="#569B51"/>
<path d="M51.9175 117H53.5825V111.076H53.6362L55.5913 117H57.106L59.0718 111.076H59.1201V117H60.7798V109.411H58.2178L56.354 115.045L54.4849 109.411H51.9175V117Z" fill="#569B51"/>
<path d="M67.4561 117H69.2554L66.6128 109.411H64.3999L61.7573 117H63.5566L64.126 115.201H66.8867L67.4561 117ZM64.5503 113.863L65.4849 110.925H65.5278L66.4624 113.863H64.5503Z" fill="#569B51"/>
<path d="M70.2222 117H71.8872V111.865H71.9463L75.1636 117H76.9414V109.411H75.2764V114.567H75.228L71.9785 109.411H70.2222V117Z" fill="#569B51"/>
</svg>
