<svg width="100" height="129" viewBox="0 0 100 129" fill="none" xmlns="http://www.w3.org/2000/svg">
<path d="M52.8743 25L34.5968 41.0194L19 69.314H33.0628L52.8743 25ZM55.3057 28.7481L47.5054 50.969L62.4617 69.9612L33.4463 75H81L55.3057 28.7481Z" fill="#569B51"/>
<path d="M37.4907 117H39.29L36.6475 109.411H34.4346L31.792 117H33.5913L34.1606 115.201H36.9214L37.4907 117ZM34.585 113.863L35.5195 110.925H35.5625L36.4971 113.863H34.585Z" fill="#569B51"/>
<path d="M45.8052 109.411H39.8647V110.818H43.6943L39.7412 115.91V117H45.8052V115.593H41.9756L45.8052 110.582V109.411Z" fill="#569B51"/>
<path d="M49.7637 117.107C51.8315 117.107 52.8359 115.979 52.8359 114.073V109.411H51.1709V114.18C51.1709 115.072 50.6499 115.593 49.7637 115.593C48.8882 115.593 48.3887 115.072 48.3887 114.18V109.411H46.7236V114.126C46.7236 115.99 47.7119 117.107 49.7637 117.107Z" fill="#569B51"/>
<path d="M60.4146 115.088C60.2642 114.234 59.9741 113.697 59.2705 113.477C60.189 113.246 60.6401 112.698 60.6401 111.65C60.6401 110.249 59.7109 109.411 57.9116 109.411H54.3936V117.011H56.0532V113.847H56.7192C58.3359 113.847 58.5776 114.067 58.7656 115.222L59.061 117H60.7529L60.4146 115.088ZM56.064 110.818H57.9062C58.626 110.818 58.9751 111.146 58.9751 111.688C58.9751 112.198 58.6582 112.569 57.9653 112.569H56.064V110.818Z" fill="#569B51"/>
<path d="M62.0742 117H67.9126V115.593H63.7393V113.901H67.3701V112.494H63.7393V110.818H67.6548V109.411H62.0742V117Z" fill="#569B51"/>
</svg>
