<svg width="100" height="129" viewBox="0 0 100 129" fill="none" xmlns="http://www.w3.org/2000/svg">
<path d="M17.4995 117.086C19.417 117.086 20.4321 116.092 20.4321 114.653C20.4321 112.95 19.0142 112.623 17.8218 112.359C16.957 112.161 16.2104 111.994 16.2104 111.35C16.2104 110.834 16.6187 110.522 17.3115 110.522C18.0312 110.522 18.5254 110.872 18.5415 111.624H20.1313C20.1152 109.765 18.4878 109.298 17.29 109.298C15.6948 109.298 14.583 110.109 14.583 111.575C14.583 113.079 15.8237 113.423 16.9463 113.691C17.8862 113.912 18.7563 114.089 18.7563 114.868C18.7563 115.448 18.2944 115.77 17.5479 115.77C16.7476 115.77 16.1245 115.394 16.0923 114.438H14.4541C14.4541 116.522 16.0493 117.086 17.4995 117.086Z" fill="#569B51"/>
<path d="M24.874 117.107C27.0923 117.107 28.4941 115.738 28.4941 113.203C28.4941 110.673 27.0923 109.298 24.874 109.298C22.645 109.298 21.2808 110.673 21.2808 113.203C21.2808 115.738 22.645 117.107 24.874 117.107ZM24.874 115.689C23.5742 115.689 22.9351 114.728 22.9351 113.203C22.9351 111.683 23.5742 110.721 24.874 110.721C26.1631 110.721 26.8398 111.683 26.8398 113.203C26.8398 114.728 26.1631 115.689 24.874 115.689Z" fill="#569B51"/>
<path d="M29.7671 117H31.4321V111.865H31.4912L34.7085 117H36.4863V109.411H34.8213V114.567H34.7729L31.5234 109.411H29.7671V117Z" fill="#569B51"/>
<path d="M43.1572 117H44.9565L42.314 109.411H40.1011L37.4585 117H39.2578L39.8271 115.201H42.5879L43.1572 117ZM40.2515 113.863L41.186 110.925H41.229L42.1636 113.863H40.2515Z" fill="#569B51"/>
<path d="M51.9443 115.088C51.7939 114.234 51.5039 113.697 50.8003 113.477C51.7188 113.246 52.1699 112.698 52.1699 111.65C52.1699 110.249 51.2407 109.411 49.4414 109.411H45.9233V117.011H47.583V113.847H48.249C49.8657 113.847 50.1074 114.067 50.2954 115.222L50.5908 117H52.2827L51.9443 115.088ZM47.5938 110.818H49.436C50.1558 110.818 50.5049 111.146 50.5049 111.688C50.5049 112.198 50.188 112.569 49.4951 112.569H47.5938V110.818Z" fill="#569B51"/>
<path d="M63.1592 116.662L62.2891 115.797C62.7563 115.152 63.0088 114.282 63.0088 113.203C63.0088 110.673 61.6069 109.298 59.3887 109.298C57.1597 109.298 55.7954 110.673 55.7954 113.203C55.7954 115.738 57.1597 117.107 59.3887 117.107C60.1245 117.107 60.769 116.957 61.3008 116.667L62.23 117.607L63.1592 116.662ZM59.3887 115.689C58.0889 115.689 57.4497 114.728 57.4497 113.203C57.4497 111.683 58.0889 110.721 59.3887 110.721C60.6777 110.721 61.3545 111.683 61.3545 113.203C61.3545 113.75 61.2686 114.223 61.0967 114.604L59.8882 113.401L58.9912 114.32L60.189 115.539C59.958 115.636 59.6895 115.689 59.3887 115.689Z" fill="#569B51"/>
<path d="M67.3003 117.107C69.3682 117.107 70.3726 115.979 70.3726 114.073V109.411H68.7075V114.18C68.7075 115.072 68.1865 115.593 67.3003 115.593C66.4248 115.593 65.9253 115.072 65.9253 114.18V109.411H64.2603V114.126C64.2603 115.99 65.2485 117.107 67.3003 117.107Z" fill="#569B51"/>
<path d="M71.9302 117H75.9316C77.5645 117 78.4829 116.184 78.4829 114.895C78.4829 113.788 77.8115 113.192 77.0381 113.047V113.009C77.5698 112.8 78.0908 112.327 78.0908 111.419C78.0908 110.2 77.1777 109.411 75.6201 109.411H71.9302V117ZM73.5952 112.488V110.823H75.4268C76.1035 110.823 76.3936 111.092 76.3936 111.624C76.3936 112.166 76.1035 112.488 75.3892 112.488H73.5952ZM73.5952 115.582V113.772H75.7651C76.4258 113.772 76.8071 114.094 76.8071 114.685C76.8071 115.201 76.5171 115.582 75.7651 115.582H73.5952Z" fill="#569B51"/>
<path d="M79.6968 117H85.5352V115.593H81.3618V113.901H84.9927V112.494H81.3618V110.818H85.2773V109.411H79.6968V117Z" fill="#569B51"/>
<path d="M41.3345 28.4395C55.975 32.692 67.6506 44.8834 71.077 59.4834L73.3834 58.9266C69.7625 43.4926 57.4361 30.6183 41.9827 26.1242L41.3345 28.4395Z" fill="#569B51"/>
<path d="M56.3432 26.6469C63.7302 31.1935 69.7417 37.9912 73.2706 45.7857L75 44.9819C71.3143 36.8407 65.0396 29.745 57.331 25L56.3432 26.6469Z" fill="#569B51"/>
<path d="M66.2517 75H69.1039C69.1039 50.1365 48.8693 29.909 24 29.909V32.7983C47.2967 32.7983 66.2517 51.7309 66.2517 75Z" fill="#569B51"/>
</svg>
