<svg width="100" height="129" viewBox="0 0 100 129" fill="none" xmlns="http://www.w3.org/2000/svg">
<path d="M35.8794 115.088C35.729 114.234 35.439 113.697 34.7354 113.477C35.6538 113.246 36.105 112.698 36.105 111.65C36.105 110.249 35.1758 109.411 33.3765 109.411H29.8584V117.011H31.5181V113.847H32.1841C33.8008 113.847 34.0425 114.067 34.2305 115.222L34.5259 117H36.2178L35.8794 115.088ZM31.5288 110.818H33.3711C34.0908 110.818 34.4399 111.146 34.4399 111.688C34.4399 112.198 34.123 112.569 33.4302 112.569H31.5288V110.818Z" fill="#569B51"/>
<path d="M36.814 117H38.7529L40.4717 114.331L42.2065 117H44.1401L41.5728 113.203L44.124 109.411H42.1958L40.4824 112.128L38.7637 109.411H36.8247L39.3599 113.203L36.814 117Z" fill="#569B51"/>
<path d="M44.5483 117H45.6602C47.2231 117 48.0771 116.361 48.0771 114.835V109.411H46.4121V114.508C46.4121 115.362 46.0791 115.593 45.3057 115.593H44.5483V117Z" fill="#569B51"/>
<path d="M54.6353 117H56.4346L53.792 109.411H51.5791L48.9365 117H50.7358L51.3052 115.201H54.0659L54.6353 117ZM51.7295 113.863L52.6641 110.925H52.707L53.6416 113.863H51.7295Z" fill="#569B51"/>
<path d="M58.8086 117H61.0215L63.6641 109.411H61.8647L59.9365 115.501H59.8936L57.9653 109.411H56.166L58.8086 117Z" fill="#569B51"/>
<path d="M69.0942 117H70.8936L68.251 109.411H66.0381L63.3955 117H65.1948L65.7642 115.201H68.5249L69.0942 117ZM66.1885 113.863L67.123 110.925H67.166L68.1006 113.863H66.1885Z" fill="#569B51"/>
<path fill-rule="evenodd" clip-rule="evenodd" d="M47.9366 27.236C47.8862 27.2417 47.8359 27.2475 47.7856 27.2534C49.5561 27.1982 51.4172 27.3453 53.3623 27.7245C63.8325 29.9181 70.8354 38.325 69.5743 42.4045C69.0637 45.8076 57.7339 46.1505 48.7276 40.886L48.7037 40.8781C33.5736 45.0087 34.6661 61.7608 47.0831 67.1399C45.5542 65.744 44.0579 63.7836 43.4674 62.0612C43.3345 61.6734 43.2475 61.2977 43.2163 60.9433C43.1921 60.6677 43.2016 60.4049 43.2496 60.1593L43.2786 60.1881C46.2101 63.1011 48.9335 65.1966 51.6068 66.5353C53.2249 67.3155 54.6284 67.7035 56.0073 68.0688C56.7903 68.2224 57.5765 68.3135 58.3699 68.3437C58.3742 68.3281 58.4037 68.3235 58.4809 68.3379V68.3475C60.2098 68.4009 61.9737 68.166 63.8139 67.6586C61.2236 68.1184 58.5158 67.0441 55.7079 64.6589C61.5885 64.034 66.7138 61.7371 70.8128 57.1688C68.0997 59.3785 65.1719 60.1181 62.0877 59.7842C69.7006 53.9254 73.1958 45.6854 70.494 38.2608C74.2717 42.7764 75.1474 46.8852 70.0435 54.8345C72.4461 53.008 74.3669 50.3484 75.8227 46.8854C76.8878 55.0359 73.0936 60.9994 66.0657 64.5089C68.1422 64.353 72.7956 62.32 75.3989 59.9858C71.7051 69.871 62.6633 74.0423 56.6086 74.7833C44.1432 76.3485 32.7697 69.2309 28.5015 59.9858C28.3099 59.4584 28.1438 58.926 28.0028 58.3905C27.7312 57.8837 27.4897 57.3598 27.2778 56.8213L27.276 56.8193C27.2195 56.7568 27.1492 56.679 27.0805 56.6306C26.357 56.0108 24.8224 54.6661 24.0262 52.4319C23.8964 51.764 24.2713 51.1946 24.6691 50.5904C25.0859 49.9574 25.528 49.286 25.4415 48.4228C25.4662 47.5327 25.1973 46.7078 24.9215 45.8621C24.5699 44.784 24.2074 43.6721 24.4283 42.3483C24.7073 41.2674 25.72 40.373 26.6813 39.5239C27.3628 38.922 28.0184 38.3428 28.3687 37.7362C28.7032 37.4486 28.6873 36.6926 28.6683 35.7815C28.6388 34.3752 28.6016 32.5994 29.8324 31.6053C30.8742 30.7591 31.7502 30.6671 32.7325 30.5639C33.6665 30.4658 34.6964 30.3577 36.0563 29.5816C37.2805 28.6803 37.956 27.8678 38.5338 27.1727C39.2808 26.274 39.8647 25.5717 41.2599 25.1275C42.661 24.8379 45.7069 24.8557 47.9366 27.236ZM56.158 37.2675C56.0175 37.2675 55.8784 37.2398 55.7487 37.1861C55.6189 37.1324 55.501 37.0536 55.4016 36.9544C55.3023 36.8551 55.2235 36.7373 55.1698 36.6076C55.116 36.4779 55.0884 36.3389 55.0884 36.1986C55.0884 36.0582 55.1161 35.9192 55.1699 35.7895C55.2236 35.6599 55.3024 35.542 55.4018 35.4428C55.5011 35.3435 55.6191 35.2648 55.7489 35.2111C55.8786 35.1574 56.0178 35.1298 56.1582 35.1298C56.4419 35.1298 56.714 35.2424 56.9146 35.4429C57.1153 35.6433 57.228 35.9152 57.228 36.1987C57.228 36.4821 57.1153 36.754 56.9146 36.9545C56.714 37.1549 56.4417 37.2675 56.158 37.2675Z" fill="#569B51"/>
</svg>
