<svg width="100" height="129" viewBox="0 0 100 129" fill="none" xmlns="http://www.w3.org/2000/svg">
<path d="M38.7905 117.107C40.7778 117.107 42.1099 116.055 42.2549 114.003H40.5845C40.5039 115.077 39.8486 115.689 38.7905 115.689C37.4907 115.689 36.8516 114.728 36.8516 113.203C36.8516 111.683 37.4907 110.721 38.7905 110.721C39.8486 110.721 40.5039 111.333 40.5845 112.408H42.2549C42.1099 110.356 40.7778 109.298 38.7905 109.298C36.5615 109.298 35.1973 110.673 35.1973 113.203C35.1973 115.738 36.5615 117.107 38.7905 117.107Z" fill="#569B51"/>
<path d="M46.0791 117.086C47.9966 117.086 49.0117 116.092 49.0117 114.653C49.0117 112.95 47.5938 112.623 46.4014 112.359C45.5366 112.161 44.79 111.994 44.79 111.35C44.79 110.834 45.1982 110.522 45.8911 110.522C46.6108 110.522 47.105 110.872 47.1211 111.624H48.7109C48.6948 109.765 47.0674 109.298 45.8696 109.298C44.2744 109.298 43.1626 110.109 43.1626 111.575C43.1626 113.079 44.4033 113.423 45.5259 113.691C46.4658 113.912 47.3359 114.089 47.3359 114.868C47.3359 115.448 46.874 115.77 46.1274 115.77C45.3271 115.77 44.7041 115.394 44.6719 114.438H43.0337C43.0337 116.522 44.6289 117.086 46.0791 117.086Z" fill="#569B51"/>
<path d="M52.8145 117.086C54.7319 117.086 55.7471 116.092 55.7471 114.653C55.7471 112.95 54.3291 112.623 53.1367 112.359C52.272 112.161 51.5254 111.994 51.5254 111.35C51.5254 110.834 51.9336 110.522 52.6265 110.522C53.3462 110.522 53.8403 110.872 53.8564 111.624H55.4463C55.4302 109.765 53.8027 109.298 52.605 109.298C51.0098 109.298 49.8979 110.109 49.8979 111.575C49.8979 113.079 51.1387 113.423 52.2612 113.691C53.2012 113.912 54.0713 114.089 54.0713 114.868C54.0713 115.448 53.6094 115.77 52.8628 115.77C52.0625 115.77 51.4395 115.394 51.4072 114.438H49.769C49.769 116.522 51.3643 117.086 52.8145 117.086Z" fill="#569B51"/>
<path d="M61.9507 117.107C63.417 117.107 64.7544 116.291 64.7544 114.728C64.7437 113.643 64.0991 113.09 63.4009 112.961V112.923C63.9219 112.741 64.373 112.257 64.373 111.446C64.373 110.093 63.186 109.298 61.811 109.298C60.3877 109.298 59.3027 110.152 59.3027 111.731H60.8657C60.8765 111.172 61.1826 110.743 61.8486 110.743C62.4019 110.743 62.7832 111.033 62.7832 111.591C62.7832 112.118 62.4717 112.392 61.9614 112.392H61.6016V113.616H61.9614C62.6543 113.616 63.1538 113.971 63.1538 114.647C63.1538 115.33 62.6274 115.679 61.9829 115.679C61.2095 115.679 60.769 115.179 60.769 114.427H59.1846C59.1846 116.264 60.4629 117.107 61.9507 117.107Z" fill="#569B51"/>
<path d="M45.9307 24H40.4724V31.0077H45.931V28.6719H42.7551V26.336H45.9307V24Z" fill="#569B51"/>
<path d="M52.481 24H47.0225L47.0224 28.5701H50.1985V28.9763H47.0227V31.1094H52.481V26.4375H49.3052V26.0313H52.481V24Z" fill="#569B51"/>
<path d="M59.0313 24H53.573V28.5701H56.7486V28.9763H53.5728V31.1094H59.0313V26.4375H55.8555V26.0313H59.0313V24Z" fill="#569B51"/>
<path fill-rule="evenodd" clip-rule="evenodd" d="M49.978 76L35.2763 71.8234L32 34.2193H68L64.7203 71.8176L49.978 76ZM39.9146 55.8527L39.5107 51.2407L55.9249 51.2408L56.3349 46.518L39.1087 46.518L38.699 41.906L61.274 41.906L60.4605 51.2408L60.3505 52.4792L59.2236 65.4004L50 68.0162V68.017L49.9793 68.0228L40.7473 65.4003L40.116 58.1588H44.6402L44.9611 61.837L49.9802 63.224L49.9843 63.2229L55.0109 61.8342L55.5341 55.8527L39.9146 55.8527Z" fill="#569B51"/>
</svg>
