<svg width="100" height="129" viewBox="0 0 100 129" fill="none" xmlns="http://www.w3.org/2000/svg">
<path d="M42.8403 115.088C42.6899 114.234 42.3999 113.697 41.6963 113.477C42.6147 113.246 43.0659 112.698 43.0659 111.65C43.0659 110.249 42.1367 109.411 40.3374 109.411H36.8193V117.011H38.479V113.847H39.145C40.7617 113.847 41.0034 114.067 41.1914 115.222L41.4868 117H43.1787L42.8403 115.088ZM38.4897 110.818H40.332C41.0518 110.818 41.4009 111.146 41.4009 111.688C41.4009 112.198 41.084 112.569 40.3911 112.569H38.4897V110.818ZM47.1533 117.107C49.2212 117.107 50.2256 115.979 50.2256 114.073V109.411H48.5605V114.18C48.5605 115.072 48.0396 115.593 47.1533 115.593C46.2778 115.593 45.7783 115.072 45.7783 114.18V109.411H44.1133V114.126C44.1133 115.99 45.1016 117.107 47.1533 117.107ZM54.3613 117.086C56.2788 117.086 57.2939 116.092 57.2939 114.653C57.2939 112.95 55.876 112.623 54.6836 112.359C53.8188 112.161 53.0723 111.994 53.0723 111.35C53.0723 110.834 53.4805 110.522 54.1733 110.522C54.8931 110.522 55.3872 110.872 55.4033 111.624H56.9932C56.9771 109.765 55.3496 109.298 54.1519 109.298C52.5566 109.298 51.4448 110.109 51.4448 111.575C51.4448 113.079 52.6855 113.423 53.8081 113.691C54.748 113.912 55.6182 114.089 55.6182 114.868C55.6182 115.448 55.1562 115.77 54.4097 115.77C53.6094 115.77 52.9863 115.394 52.9541 114.438H51.3159C51.3159 116.522 52.9111 117.086 54.3613 117.086ZM59.9312 117H61.5962V110.812H63.8735V109.411H57.6646V110.812H59.9312V117Z" fill="#569B51"/>
<path d="M74.6584 49.3868L72.5594 48.0874C72.5417 47.8834 72.5217 47.6797 72.4996 47.4761L74.3035 45.7935C74.3937 45.7097 74.4609 45.6042 74.4987 45.487C74.5365 45.3698 74.5436 45.2449 74.5193 45.1242C74.4956 45.0034 74.4414 44.8907 74.3617 44.7969C74.282 44.7031 74.1796 44.6312 74.0643 44.5883L71.7582 43.726C71.7003 43.5269 71.6401 43.3284 71.5775 43.1307L73.016 41.1329C73.0881 41.033 73.1334 40.9164 73.1477 40.7941C73.162 40.6717 73.1447 40.5478 73.0976 40.434C73.0505 40.3202 72.9751 40.2204 72.8785 40.144C72.782 40.0675 72.6675 40.0171 72.5459 39.9973L70.1143 39.6018C70.0197 39.4175 69.9213 39.2358 69.8221 39.0558L70.8438 36.813C70.8952 36.7011 70.917 36.5779 70.9072 36.4551C70.8973 36.3323 70.8561 36.2142 70.7875 36.1119C70.7194 36.0093 70.6261 35.9259 70.5165 35.8697C70.4069 35.8136 70.2848 35.7865 70.1617 35.7912L67.6937 35.8771C67.5663 35.7175 67.4363 35.5598 67.3039 35.4043L67.8711 33.0004C67.8995 32.8805 67.8967 32.7554 67.8629 32.6369C67.8292 32.5184 67.7657 32.4105 67.6785 32.3235C67.5915 32.2364 67.4837 32.173 67.3653 32.1393C67.2468 32.1056 67.1218 32.1027 67.002 32.1309L64.5986 32.6975C64.4426 32.5652 64.2847 32.4353 64.1248 32.3077L64.2111 29.8399C64.2158 29.7169 64.1887 29.5947 64.1327 29.4852C64.0766 29.3756 63.9933 29.2822 63.8908 29.214C63.7885 29.1455 63.6703 29.1043 63.5476 29.0944C63.4249 29.0845 63.3016 29.1061 63.1897 29.1573L60.9475 30.1796C60.7666 30.0797 60.5846 29.9821 60.4014 29.8866L60.0049 27.4546C59.985 27.3332 59.9345 27.2188 59.8581 27.1224C59.7817 27.0259 59.6819 26.9506 59.5682 26.9035C59.4545 26.8564 59.3307 26.8392 59.2084 26.8533C59.0862 26.8675 58.9696 26.9127 58.8697 26.9845L56.8705 28.423C56.6738 28.3605 56.476 28.3001 56.2764 28.2429L55.4141 25.9365C55.3712 25.8209 55.2994 25.7183 55.2055 25.6385C55.1116 25.5586 54.9989 25.5041 54.8779 25.4802C54.7573 25.4565 54.6326 25.4639 54.5156 25.5017C54.3986 25.5395 54.2931 25.6064 54.2092 25.6963L52.5266 27.5015C52.3231 27.4787 52.1193 27.4588 51.9152 27.4417L50.6158 25.3422C50.5511 25.2375 50.4607 25.1512 50.3532 25.0913C50.2457 25.0314 50.1247 25 50.0017 25C49.8786 25 49.7576 25.0314 49.6501 25.0913C49.5427 25.1512 49.4522 25.2375 49.3875 25.3422L48.0881 27.4417C47.8838 27.4587 47.6798 27.4787 47.4762 27.5015L45.7932 25.6963C45.7093 25.6061 45.6037 25.5389 45.4865 25.5011C45.3694 25.4632 45.2444 25.456 45.1237 25.4801C45.0029 25.5042 44.8903 25.5587 44.7966 25.6386C44.7029 25.7185 44.6312 25.8211 44.5883 25.9365L43.7262 28.2429C43.5264 28.3001 43.3287 28.3609 43.1314 28.423L41.1326 26.9845C41.0328 26.9123 40.9161 26.867 40.7937 26.8528C40.6713 26.8386 40.5473 26.856 40.4336 26.9035C40.32 26.9506 40.2203 27.026 40.1439 27.1225C40.0675 27.2189 40.017 27.3332 39.9971 27.4546L39.6006 29.8866C39.417 29.9817 39.2355 30.0796 39.0545 30.1796L36.8121 29.1571C36.7002 29.1059 36.577 29.0842 36.4543 29.0942C36.3316 29.1041 36.2135 29.1454 36.1113 29.214C36.0088 29.2821 35.9254 29.3755 35.8693 29.4851C35.8131 29.5947 35.786 29.7169 35.7906 29.8399L35.8766 32.3077C35.7169 32.4355 35.5589 32.5654 35.4027 32.6975L32.9994 32.1311C32.8795 32.103 32.7545 32.1059 32.636 32.1396C32.5176 32.1732 32.4097 32.2365 32.3225 32.3235C32.2352 32.4105 32.1717 32.5184 32.138 32.6369C32.1043 32.7554 32.1015 32.8805 32.1299 33.0004L32.6961 35.4043C32.5646 35.5599 32.4348 35.7175 32.3072 35.8771L29.8393 35.7912C29.7164 35.7873 29.5945 35.8147 29.485 35.8707C29.3756 35.9268 29.2822 36.0097 29.2135 36.1117C29.145 36.214 29.1038 36.3321 29.0939 36.4549C29.0839 36.5776 29.1055 36.7008 29.1566 36.8128L30.1789 39.0558C30.0795 39.2358 29.9813 39.4175 29.8859 39.6018L27.4545 39.9973C27.333 40.0172 27.2186 40.0677 27.1221 40.1441C27.0256 40.2206 26.9502 40.3204 26.9031 40.4341C26.856 40.5479 26.8388 40.6718 26.853 40.7941C26.8672 40.9164 26.9124 41.033 26.9844 41.1329L28.4229 43.1309C28.3604 43.3281 28.2996 43.5262 28.2422 43.726L25.9359 44.5883C25.8208 44.6315 25.7185 44.7035 25.6389 44.7973C25.5593 44.8911 25.505 45.0037 25.481 45.1243C25.4571 45.245 25.4643 45.3698 25.502 45.4869C25.5398 45.604 25.6068 45.7095 25.6967 45.7935L27.5008 47.4759C27.4783 47.679 27.4584 47.8835 27.4412 48.0874L25.3418 49.3868C25.2372 49.4516 25.1509 49.542 25.0911 49.6495C25.0312 49.757 24.9999 49.878 25 50.0011C25 50.2518 25.1295 50.4841 25.342 50.6149L27.4412 51.9143C27.4584 52.1188 27.4783 52.3229 27.5008 52.5258L25.6965 54.2088C25.6064 54.2927 25.5393 54.3982 25.5014 54.5153C25.4636 54.6324 25.4563 54.7573 25.4803 54.878C25.5043 54.9987 25.5588 55.1113 25.6385 55.205C25.7183 55.2988 25.8206 55.3706 25.9359 55.4137L28.2422 56.2759C28.2996 56.4756 28.3604 56.6738 28.4229 56.8711L26.9844 58.8693C26.9123 58.9691 26.867 59.0858 26.8527 59.2081C26.8385 59.3305 26.8557 59.4544 26.9029 59.5682C26.9501 59.682 27.0256 59.7818 27.1222 59.8581C27.2189 59.9345 27.3335 59.9848 27.4551 60.0044L29.8861 60.3999C29.9813 60.5843 30.0787 60.7659 30.1791 60.9468L29.1566 63.1889C29.1054 63.3009 29.0838 63.4241 29.0937 63.5469C29.1037 63.6696 29.1449 63.7878 29.2135 63.8901C29.2817 63.9925 29.375 64.0758 29.4846 64.1319C29.5941 64.1881 29.7162 64.2151 29.8393 64.2106L32.3061 64.1242C32.4348 64.2846 32.5643 64.4418 32.6961 64.5981L32.1299 67.0023C32.1015 67.122 32.1044 67.2469 32.1381 67.3652C32.1718 67.4835 32.2353 67.5911 32.3225 67.6779C32.4094 67.7652 32.5173 67.8287 32.6359 67.8623C32.7544 67.8959 32.8796 67.8985 32.9994 67.8699L35.4027 67.3039C35.559 67.4367 35.7172 67.5656 35.8768 67.6925L35.7908 70.161C35.7864 70.284 35.8135 70.4061 35.8696 70.5157C35.9256 70.6253 36.0088 70.7187 36.1112 70.787C36.2135 70.8554 36.3317 70.8964 36.4543 70.9062C36.577 70.916 36.7002 70.8943 36.8121 70.8431L39.0545 69.8214C39.235 69.9217 39.4171 70.0193 39.6006 70.1142L39.9971 72.5448C40.0167 72.6664 40.0671 72.7809 40.1435 72.8775C40.2199 72.9741 40.3198 73.0495 40.4336 73.0965C40.5474 73.1436 40.6712 73.161 40.7936 73.1469C40.9159 73.1327 41.0326 73.0877 41.1326 73.0159L43.1305 71.5764C43.3277 71.6389 43.526 71.7001 43.7256 71.7575L44.5879 74.0629C44.6308 74.1783 44.7026 74.2807 44.7965 74.3605C44.8903 74.4402 45.003 74.4945 45.1238 74.5182C45.2445 74.5425 45.3694 74.5354 45.4865 74.4976C45.6037 74.4598 45.7091 74.3925 45.7928 74.3022L47.4758 72.4979C47.6789 72.5213 47.8832 72.5409 48.0877 72.559L49.3871 74.6582C49.4519 74.7627 49.5423 74.8489 49.6497 74.9087C49.7571 74.9685 49.878 74.9999 50.001 75C50.124 75 50.2449 74.9686 50.3524 74.9088C50.4599 74.8489 50.5504 74.7627 50.6152 74.6582L51.9146 72.559C52.1191 72.5409 52.3232 72.5213 52.5262 72.4979L54.2088 74.3022C54.2924 74.3924 54.3979 74.4597 54.515 74.4975C54.6321 74.5353 54.7569 74.5424 54.8775 74.5182C54.9983 74.4944 55.111 74.44 55.2048 74.3603C55.2986 74.2806 55.3705 74.1782 55.4135 74.0629L56.2758 71.7575C56.4754 71.7001 56.6738 71.6389 56.8711 71.5764L58.8693 73.0159C58.9693 73.0877 59.086 73.1329 59.2083 73.147C59.3306 73.1611 59.4544 73.1437 59.5682 73.0965C59.6819 73.0494 59.7816 72.9739 59.858 72.8773C59.9344 72.7808 59.9848 72.6663 60.0045 72.5448L60.401 70.1142C60.5844 70.019 60.7658 69.9202 60.9469 69.8212L63.1893 70.8431C63.3012 70.8944 63.4244 70.9163 63.5471 70.9066C63.6699 70.8968 63.7881 70.8558 63.8906 70.7874C63.993 70.7191 64.0762 70.6256 64.1322 70.5159C64.1883 70.4063 64.2153 70.2841 64.2107 70.161L64.1248 67.6927C64.2846 67.5656 64.4424 67.436 64.598 67.3039L67.0016 67.8699C67.2457 67.9273 67.5016 67.8562 67.6779 67.6779C67.7651 67.5911 67.8286 67.4835 67.8623 67.3652C67.896 67.2469 67.8989 67.122 67.8705 67.0023L67.3045 64.5981C67.4363 64.4418 67.5662 64.2846 67.6932 64.1242L70.1611 64.2106C70.2841 64.2152 70.4063 64.1882 70.5158 64.1321C70.6254 64.076 70.7188 63.9927 70.7869 63.8903C70.8556 63.7879 70.8969 63.6697 70.9067 63.5468C70.9166 63.424 70.8948 63.3007 70.8434 63.1887L69.8215 60.9469C69.9213 60.7659 70.0193 60.5843 70.1139 60.4001L72.5455 60.0044C72.6671 59.9849 72.7816 59.9345 72.8781 59.858C72.9746 59.7815 73.0499 59.6816 73.0967 59.5677C73.1438 59.454 73.1611 59.3302 73.1469 59.2079C73.1328 59.0857 73.0875 58.9691 73.0156 58.8693L71.5771 56.8712C71.6393 56.6738 71.7 56.4756 71.7578 56.2759L74.0637 55.4137C74.1791 55.3707 74.2816 55.2989 74.3613 55.205C74.441 55.1111 74.4953 54.9984 74.5189 54.8775C74.5433 54.7569 74.5362 54.632 74.4983 54.5149C74.4605 54.3978 74.3932 54.2924 74.3029 54.2088L72.4992 52.5258C72.5211 52.3227 72.5412 52.1184 72.5588 51.9145L74.658 50.6149C74.7627 50.5503 74.849 50.4599 74.9089 50.3525C74.9688 50.245 75.0001 50.1241 75 50.0011C75 49.7509 74.8711 49.5183 74.6584 49.3868ZM60.6092 66.7998C59.8076 66.6269 59.2979 65.8369 59.4699 65.0328C59.6414 64.2297 60.4309 63.7186 61.2322 63.8914C62.0338 64.0631 62.5443 64.8545 62.3725 65.657C62.2006 66.4597 61.4104 66.9714 60.6092 66.7998ZM59.8959 61.9758C59.722 61.9385 59.5424 61.9359 59.3674 61.9681C59.1925 62.0002 59.0256 62.0666 58.8763 62.1633C58.727 62.26 58.5982 62.3852 58.4974 62.5317C58.3965 62.6783 58.3255 62.8432 58.2885 63.0172L57.5432 66.4951C55.2434 67.5388 52.6896 68.1187 50 68.1187C47.2488 68.1187 44.6395 67.5101 42.2988 66.4218L41.5539 62.9442C41.3973 62.2124 40.6777 61.7462 39.9469 61.9032L36.8766 62.5625C36.3059 61.9752 35.7756 61.3501 35.2891 60.6915H50.2285C50.3975 60.6915 50.5102 60.6608 50.5102 60.5069V55.2225C50.5102 55.0687 50.3975 55.0381 50.2283 55.0381H45.8594V51.6885H50.585C51.0162 51.6885 52.8914 51.8116 53.4908 54.2084C53.6787 54.9455 54.0908 57.3431 54.3729 58.1107C54.6537 58.9716 55.7973 60.6913 57.016 60.6913H64.4604C64.5449 60.6913 64.6352 60.6817 64.7303 60.6645C64.2138 61.366 63.6479 62.0298 63.0371 62.6508L59.8961 61.9758H59.8959ZM39.2338 66.7271C38.432 66.9002 37.6428 66.389 37.4703 65.5859C37.2988 64.7814 37.8086 63.9918 38.6102 63.819C39.4119 63.6475 40.2016 64.1586 40.3734 64.9615C40.5449 65.7642 40.0348 66.5552 39.2336 66.7271H39.2338ZM33.5664 43.7471C33.899 44.4975 33.5605 45.3769 32.8111 45.709C32.0617 46.042 31.1846 45.7031 30.8521 44.9521C30.5195 44.2012 30.8578 43.3233 31.6074 42.9903C31.7857 42.9112 31.9778 42.868 32.1728 42.8633C32.3678 42.8585 32.5618 42.8922 32.7438 42.9625C32.9257 43.0328 33.092 43.1382 33.2332 43.2728C33.3743 43.4074 33.4876 43.5685 33.5664 43.7469V43.7471ZM31.8246 47.8759L35.023 46.4546C35.3514 46.3086 35.6083 46.0382 35.7374 45.7028C35.8664 45.3674 35.8571 44.9945 35.7113 44.666L35.0527 43.1766H37.6434V54.8537H32.4166C31.9533 53.2227 31.7189 51.5353 31.7201 49.8397C31.7201 49.1761 31.7559 48.5202 31.8246 47.8757V47.8759ZM45.8602 46.7418V43.2998H52.0293C52.348 43.2998 54.2793 43.6682 54.2793 45.1123C54.2793 46.3113 52.798 46.7412 51.5799 46.7412H45.8602V46.7418ZM68.2805 49.8397C68.2805 50.2964 68.2637 50.7483 68.2303 51.1967H66.3547C66.167 51.1967 66.0914 51.3202 66.0914 51.504V52.3653C66.0914 54.3926 64.9482 54.8336 63.9465 54.9459C62.9926 55.0533 61.9348 54.5465 61.8045 53.9627C61.2416 50.7975 60.3039 50.1216 58.823 48.9534C60.6609 47.7865 62.573 46.0648 62.573 43.7602C62.573 41.2719 60.8672 39.7046 59.7043 38.936C58.073 37.8607 56.2668 37.6451 55.7795 37.6451H36.3826C39.0129 34.7096 42.5777 32.6301 46.6096 31.8735L48.8959 34.2719C49.0186 34.4006 49.1654 34.5039 49.328 34.5758C49.4907 34.6477 49.6659 34.6868 49.8437 34.6909C50.0215 34.695 50.1983 34.664 50.3641 34.5997C50.5298 34.5354 50.6813 34.439 50.8098 34.316L53.368 31.8692C58.7283 32.8672 63.2668 36.2039 65.8822 40.7817L64.1309 44.7373C63.8285 45.4219 64.1371 46.2224 64.8197 46.5257L68.1916 48.0234C68.2498 48.622 68.2805 49.2267 68.2805 49.8397ZM48.8969 29.8331C49.4893 29.2657 50.4289 29.2882 50.9961 29.8813C51.5621 30.4762 51.5406 31.4168 50.9469 31.9838C50.3545 32.5514 49.4148 32.5293 48.8477 31.935C48.5759 31.6495 48.4284 31.2679 48.4377 30.8739C48.4469 30.4798 48.612 30.1055 48.8969 29.8331ZM66.2764 43.8192C66.3552 43.6408 66.4684 43.4797 66.6095 43.3451C66.7506 43.2105 66.9169 43.1051 67.0988 43.0349C67.2808 42.9646 67.4747 42.9309 67.6697 42.9358C67.8646 42.9406 68.0567 42.9838 68.235 43.0629C68.9846 43.3953 69.3228 44.2744 68.9902 45.0248C68.9115 45.2033 68.7983 45.3644 68.6571 45.4991C68.516 45.6337 68.3497 45.7392 68.1677 45.8095C67.9858 45.8798 67.7917 45.9136 67.5967 45.9088C67.4017 45.904 67.2095 45.8608 67.0312 45.7816C66.2826 45.449 65.9443 44.5707 66.2764 43.8192Z" fill="#569B51"/>
</svg>
