<svg width="100" height="129" viewBox="0 0 100 129" fill="none" xmlns="http://www.w3.org/2000/svg">
<path d="M36.2661 117.086C38.1836 117.086 39.1987 116.092 39.1987 114.653C39.1987 112.95 37.7808 112.623 36.5884 112.359C35.7236 112.161 34.9771 111.994 34.9771 111.35C34.9771 110.834 35.3853 110.522 36.0781 110.522C36.7979 110.522 37.292 110.872 37.3081 111.624H38.8979C38.8818 109.765 37.2544 109.298 36.0566 109.298C34.4614 109.298 33.3496 110.109 33.3496 111.575C33.3496 113.079 34.5903 113.423 35.7129 113.691C36.6528 113.912 37.5229 114.089 37.5229 114.868C37.5229 115.448 37.061 115.77 36.3145 115.77C35.5142 115.77 34.8911 115.394 34.8589 114.438H33.2207C33.2207 116.522 34.8159 117.086 36.2661 117.086Z" fill="#569B51"/>
<path d="M41.1484 117H43.5762L44.8169 111.237L46.0845 117H48.5068L50.0752 109.411H48.3188L47.1909 115.582H47.1318L45.7837 109.411H43.8823L42.5342 115.582H42.4697L41.3418 109.411H39.5854L41.1484 117Z" fill="#569B51"/>
<path d="M51.1548 117H52.8198V109.411H51.1548V117Z" fill="#569B51"/>
<path d="M54.5493 117H56.2144V113.901H59.6733V112.494H56.2144V110.818H60.146V109.411H54.5493V117Z" fill="#569B51"/>
<path d="M63.0625 117H64.7275V110.812H67.0049V109.411H60.7959V110.812H63.0625V117Z" fill="#569B51"/>
<path fill-rule="evenodd" clip-rule="evenodd" d="M74.9756 37.3401C74.9885 37.8428 74.9959 38.3456 74.9979 38.8484H74.9969C74.9999 39.4465 74.9999 40.0435 74.9999 40.6406V59.3593C74.9999 59.4587 74.9999 59.558 74.9999 59.6573C75.0001 60.1557 75.0002 60.6536 74.9969 61.1515C74.9938 61.6546 74.9878 62.1577 74.9746 62.6598C74.9453 63.7559 74.8807 64.8611 74.6857 65.9441C74.4877 67.0432 74.1654 68.0666 73.6562 69.0667C72.6501 71.0437 71.0433 72.6508 69.0665 73.6573C68.0828 74.1533 67.0307 74.4999 65.9447 74.6857C64.8617 74.8807 63.7554 74.9443 62.6593 74.9746C62.1562 74.9878 61.6541 74.9938 61.1509 74.9969C60.6533 75.0002 60.155 75.0001 59.6578 74.9999C59.5584 74.9999 59.459 74.9999 59.3597 74.9999H40.6412C40.5415 74.9999 40.4418 74.9999 40.3421 74.9999C39.8441 75.0001 39.3467 75.0002 38.85 74.9969C38.3468 74.9938 37.8437 74.9878 37.3406 74.9746C36.2455 74.9453 35.1392 74.8807 34.0562 74.6857C32.956 74.4877 31.9336 74.1654 30.9344 73.6573C28.9571 72.6511 27.3498 71.0439 26.3437 69.0667C25.8473 68.0821 25.5007 67.029 25.3152 65.9421C25.1202 64.8601 25.0566 63.7549 25.0263 62.6588C25.0131 62.1567 25.0071 61.6536 25.003 61.1505C25 60.5534 25 59.9564 25 59.3583V40.6406C25 40.0435 25 39.4465 25.003 38.8484C25.0061 38.3463 25.0121 37.8442 25.0263 37.3391C25.0556 36.245 25.1202 35.1398 25.3152 34.0558C25.5122 32.9557 25.8345 31.9333 26.3437 30.9331C26.8439 29.9512 27.4958 29.0542 28.2753 28.2752C29.2527 27.2989 30.4126 26.5245 31.6891 25.9961C32.4509 25.6846 33.2442 25.4563 34.0552 25.3152C34.8684 25.1687 35.6938 25.096 36.5172 25.0566C36.792 25.0434 37.0668 25.0333 37.3406 25.0263C37.8437 25.0131 38.3468 25.0071 38.85 25.003C39.447 25 40.0431 25 40.6412 25H59.3597C59.9578 25 60.5549 25 61.1519 25.003C61.6551 25.0061 62.1572 25.0121 62.6613 25.0263C63.7565 25.0556 64.8617 25.1202 65.9467 25.3152C67.0327 25.5009 68.0848 25.8476 69.0685 26.3436C71.0448 27.3504 72.6512 28.9575 73.6572 30.9342C74.1539 31.918 74.5008 32.9705 74.6867 34.0568C74.8817 35.1398 74.9453 36.245 74.9756 37.3401ZM64.617 55.8598L64.6201 55.8628L64.6211 55.8638C68.9168 61.1494 67.7479 66.8158 67.1973 65.746C64.9525 61.3777 60.7689 62.493 58.6503 63.5921C58.4755 63.6962 58.2957 63.7962 58.1149 63.8922C58.0936 63.9063 58.0684 63.9195 58.0482 63.9326L58.0512 63.9276C53.6433 66.2693 47.7251 66.4431 41.7725 63.8851C36.9285 61.7875 32.8315 58.2749 30.0189 53.808C31.3868 54.8195 32.8515 55.6932 34.3914 56.4164C40.6814 59.3613 46.9987 59.1491 51.4692 56.4134C45.1065 51.5198 39.7944 45.1472 35.7219 39.9828C34.939 39.0564 34.2257 38.0947 33.6266 37.0945C38.5033 41.5578 46.2077 47.1636 48.9718 48.7143C43.1041 42.5155 37.9345 34.8821 38.1769 35.1266C47.417 44.438 55.9438 49.7013 55.9438 49.7013C56.1992 49.8396 56.4492 49.9876 56.6934 50.1448C56.8682 49.6963 57.0258 49.2346 57.1571 48.7527C58.6331 43.36 56.9732 37.1935 53.217 32.1019C61.7872 37.2481 66.8528 47.0232 64.7777 55.291C64.7395 55.44 64.697 55.5853 64.6546 55.7308C64.642 55.7737 64.6295 55.8167 64.617 55.8598Z" fill="#569B51"/>
</svg>
