<svg width="101" height="100" viewBox="0 0 101 100" fill="none" xmlns="http://www.w3.org/2000/svg">
<path fill-rule="evenodd" clip-rule="evenodd" d="M37.2357 33.7197C37.2357 35.3209 35.9433 36.6203 34.3508 36.6203C32.7584 36.6203 31.466 35.3209 31.466 33.7197C31.466 23.1653 40.0051 14.5833 50.502 14.5833C60.9951 14.5833 69.5342 23.1653 69.5342 33.7197C69.5342 44.2741 60.9951 52.8561 50.502 52.8561C46.2056 52.8561 42.1553 51.4677 38.7935 48.8378C37.5357 47.8554 37.3088 46.0338 38.2857 44.7692C39.2589 43.5006 41.0783 43.2763 42.336 44.2625C44.6747 46.088 47.498 47.0549 50.502 47.0549C57.8179 47.0549 63.7645 41.0718 63.7645 33.7197C63.7645 26.3676 57.8179 20.3846 50.502 20.3846C43.1861 20.3846 37.2357 26.3676 37.2357 33.7197ZM29.7528 45.7716C29.7528 47.3728 28.4604 48.6722 26.868 48.6722C18.5636 48.6722 11.8054 41.8809 11.8054 33.531C11.8054 25.181 18.5636 18.3858 26.868 18.3858C28.4604 18.3858 29.7528 19.6853 29.7528 21.2864C29.7528 22.8876 28.4604 24.1871 26.868 24.1871C21.7446 24.1871 17.575 28.3794 17.575 33.531C17.575 38.6825 21.7446 42.871 26.868 42.871C28.4604 42.871 29.7528 44.1705 29.7528 45.7716ZM21.4631 61.967C19.6091 62.0907 17.7474 62.3653 15.9281 62.7753C13.1355 63.3283 11.2162 64.272 10.72 65.3162C10.3469 66.109 10.3469 67.0256 10.72 67.8185C10.9585 68.3174 11.9278 69.5589 15.878 70.3749C17.4397 70.6959 18.4436 72.2274 18.1244 73.7976C17.8474 75.1706 16.6435 76.1143 15.3011 76.1143C15.1088 76.1143 14.9164 76.0949 14.7203 76.0563C9.94685 75.0739 6.85047 73.1402 5.51191 70.3092C4.38491 67.9306 4.38491 65.2041 5.51191 62.8255C6.86585 59.9675 9.96993 58.0376 14.7395 57.0939C16.7743 56.6375 18.9321 56.3243 21.0746 56.1812C22.6132 56.0613 24.0402 57.2795 24.1479 58.8768C24.2556 60.478 23.0555 61.8625 21.4631 61.967ZM74.18 42.9655C72.5876 42.9655 71.2952 44.265 71.2952 45.8661C71.2952 47.4673 72.5876 48.7668 74.18 48.7668C82.4652 48.7668 89.208 41.987 89.208 33.6564C89.208 25.322 82.4652 18.5461 74.18 18.5461C72.5876 18.5461 71.2952 19.8417 71.2952 21.4467C71.2952 23.0479 72.5876 24.3473 74.18 24.3473C79.2842 24.3473 83.4384 28.5242 83.4384 33.6564C83.4384 38.7886 79.2842 42.9655 74.18 42.9655ZM86.3452 57.1648C91.0417 58.1008 94.1381 60.0229 95.4882 62.8655C96.6152 65.244 96.6152 67.9668 95.4882 70.3453C94.1535 73.1647 91.0648 75.0946 86.2991 76.0808C86.1068 76.1233 85.9106 76.1427 85.7144 76.1427C84.3759 76.1427 83.1758 75.1951 82.895 73.826C82.5757 72.2558 83.5796 70.7204 85.1413 70.3994C89.0762 69.5834 90.0455 68.3458 90.2801 67.8507C90.6532 67.0618 90.6532 66.1529 90.2801 65.3639C89.7878 64.3236 87.8761 63.3838 85.1605 62.8423C83.2719 62.4246 81.4103 62.15 79.5717 62.0263C77.9792 61.9218 76.7791 60.5334 76.8868 58.9361C76.9907 57.3389 78.3793 56.1554 79.9563 56.2405C82.0911 56.3836 84.2374 56.6969 86.3452 57.1648ZM50.501 58.8586C43.5543 58.8586 22.4181 58.8586 22.4181 72.1744C22.4181 75.1795 23.5951 79.3409 29.2033 82.1062C30.9265 82.9493 33.0112 83.6377 35.4037 84.1521C36.9538 84.5001 38.4924 83.4869 38.8232 81.9205C39.1578 80.3542 38.1616 78.811 36.6038 78.4784C34.6729 78.0646 33.0343 77.5309 31.7419 76.8928C28.5917 75.3419 28.1878 73.559 28.1878 72.1744C28.1878 65.9632 40.3233 64.6598 50.501 64.6598C65.3097 64.6598 72.8141 67.1621 72.8141 72.1048C72.8141 78.3121 60.6786 79.6155 50.501 79.6155C48.9085 79.6155 47.6161 80.915 47.6161 82.5161C47.6161 84.1173 48.9085 85.4167 50.501 85.4167C57.4476 85.4167 78.5838 85.4167 78.5838 72.1048C78.5838 58.8586 58.1823 58.8586 50.501 58.8586Z" fill="white"/>
</svg>
