<svg width="101" height="100" viewBox="0 0 101 100" fill="none" xmlns="http://www.w3.org/2000/svg">
<path d="M74.613 20.0579C79.7456 21.9 84.8732 23.7402 87.5012 24.6847C90.1293 25.6292 90.2472 25.674 90.3106 25.6984C90.3741 25.7229 90.3791 25.7253 86.6378 27.8147C82.8965 29.9042 75.4085 34.0811 68.9103 37.7072C62.4121 41.3334 56.8998 44.4111 53.9744 46.0389C51.049 47.6668 50.6877 47.8572 50.344 47.9893C50.0003 48.1214 49.6417 48.2124 49.2369 48.2503C48.8321 48.2882 48.3807 48.273 47.8696 48.1594C47.3585 48.0458 46.7877 47.8336 39.9676 44.0786C33.1474 40.3236 20.078 33.0256 13.5624 29.3649C7.04688 25.7042 7.08511 25.6809 7.1905 25.6406C7.29589 25.6002 7.47033 25.5422 14.0099 23.0238C20.5495 20.5055 33.4859 15.5148 40.0959 12.9656C46.7059 10.4163 47.0049 10.3025 47.2413 10.2238C47.4776 10.145 47.6515 10.1013 47.8469 10.0663C48.0423 10.0313 48.2598 10.005 48.5395 10.0007C48.8192 9.99629 49.162 10.0138 49.4559 10.054C49.7499 10.0942 50.0054 10.1597 50.2787 10.2472C50.5521 10.3347 50.8487 10.4456 53.0208 11.3325C55.1928 12.2194 59.2135 13.8713 63.2472 15.5286" stroke="white" stroke-width="6" stroke-linecap="round" stroke-linejoin="bevel"/>
<path d="M23.6238 49.7961C23.3489 51.2047 23.0738 52.6136 22.6389 54.5354C22.2039 56.4573 21.6091 58.8914 21.2393 60.3748C20.8695 61.8582 20.7249 62.3903 20.3978 63.5193C20.0708 64.6483 19.5619 66.3724 19.2189 67.5194C18.8759 68.6664 18.6991 69.2352 18.5821 69.6848C18.465 70.1344 18.4079 70.4645 18.3717 70.8027C18.3355 71.141 18.3203 71.4867 18.3316 71.8106C18.3429 72.1346 18.3809 72.4384 18.4302 72.7109C18.4795 72.9835 18.5401 73.2256 18.6235 73.5025C18.7069 73.7794 18.8129 74.0907 18.9645 74.4065C19.1161 74.7224 19.3131 75.0423 19.5254 75.3365C19.7376 75.6306 19.9649 75.8988 20.4045 76.314C20.8441 76.7293 21.4959 77.2915 22.1666 77.8452C22.8374 78.3988 23.5271 78.9438 24.4327 79.6185C25.3384 80.2933 26.4602 81.0978 27.4075 81.7423C28.3549 82.3868 29.128 82.8712 29.9275 83.3556C30.7271 83.84 31.5532 84.3245 32.2884 84.7311C33.0235 85.1377 33.6678 85.4664 34.3044 85.7865C34.9409 86.1065 35.5701 86.418 36.4754 86.8296C37.3807 87.2412 38.5627 87.7532 39.3603 88.0993C40.158 88.4453 40.5716 88.6254 40.9717 88.7847C41.3717 88.9439 41.7583 89.0824 42.124 89.1991C42.4896 89.3159 42.8346 89.4111 43.1586 89.4928C43.4826 89.5746 43.7933 89.6446 44.1456 89.7095C44.498 89.7744 44.896 89.835 45.2204 89.8779C45.5448 89.9209 45.7959 89.9463 46.0392 89.9652C46.2825 89.984 46.5184 89.9962 46.8479 89.9992C47.1773 90.0022 47.5903 89.9962 48.0564 89.9656C48.5225 89.935 49.0372 89.88 49.5275 89.8066C50.0178 89.7332 50.4842 89.6414 51.0023 89.5104C51.5203 89.3795 52.0906 89.2092 52.6413 89.0131C53.192 88.8169 53.737 88.5891 54.4 88.321C55.0629 88.0529 55.8515 87.7414 56.6888 87.3738C57.5262 87.0062 58.4132 86.5822 59.2843 86.1464C60.1554 85.7107 61.0113 85.2628 61.9171 84.7601C62.8229 84.2574 63.7963 83.6895 64.7608 83.0901C65.7254 82.4908 66.6902 81.8544 67.7512 81.1022C68.8122 80.3499 69.97 79.4811 70.9453 78.7226C71.9206 77.9642 72.7139 77.3157 73.2816 76.8198C73.8493 76.324 74.2144 75.9577 74.5198 75.5663C74.8252 75.1749 75.0825 74.7465 75.2754 74.3307C75.4683 73.9148 75.597 73.5109 75.6853 73.1684C75.7737 72.826 75.822 72.5444 75.8541 72.2326C75.8863 71.9208 75.9024 71.578 75.8863 71.2111C75.8702 70.8442 75.8219 70.4525 75.7711 70.1594C75.7204 69.8663 75.6665 69.6696 75.5848 69.4005C75.5031 69.1315 75.3932 68.7887 75.2753 68.4126C75.1574 68.0365 75.0314 67.6265 74.9184 67.2501C74.8053 66.8736 74.7019 66.5194 74.5974 66.1646C74.4929 65.8099 74.3857 65.4489 74.233 64.923C74.0803 64.397 73.8819 63.7056 73.7349 63.1905C73.5879 62.6753 73.4922 62.3362 73.3686 61.9029C73.245 61.4696 73.0933 60.9417 72.9153 60.2368C72.7372 59.5319 72.5325 58.6493 72.3317 57.7973C72.1308 56.9452 71.9338 56.1233 71.7443 55.2886C71.5548 54.4539 71.3729 53.606 71.2251 52.9053C71.0774 52.2047 70.9637 51.6509 70.8861 51.2653C70.8085 50.8796 70.7669 50.6618 70.7254 50.4451C70.6839 50.2284 70.6423 50.0124 70.6007 49.7968" stroke="white" stroke-width="6" stroke-linecap="round"/>
<path d="M90.788 25.614C91.8028 36.1444 92.8181 46.6778 93.8335 57.2141" stroke="white" stroke-width="6" stroke-linecap="round"/>
</svg>
