<svg width="101" height="100" viewBox="0 0 101 100" fill="none" xmlns="http://www.w3.org/2000/svg">
<path fill-rule="evenodd" clip-rule="evenodd" d="M91.6937 43.6708C92.0104 45.7458 92.1687 47.8749 92.1687 49.9999C92.1687 72.9749 73.4771 91.6666 50.5021 91.6666C27.5271 91.6666 8.8354 72.9749 8.8354 49.9999C8.8354 27.0249 27.5271 8.33325 50.5021 8.33325C63.5354 8.33325 75.5729 14.2624 83.5312 24.5916C84.5521 25.9166 84.3021 27.8249 82.9812 28.8416C81.6562 29.8666 79.7562 29.6124 78.7271 28.2916C71.9312 19.4541 61.6396 14.3916 50.5021 14.3916C30.8687 14.3916 14.8937 30.3624 14.8937 49.9999C14.8937 69.6333 30.8687 85.6041 50.5021 85.6041C70.1354 85.6041 86.1104 69.6333 86.1104 49.9999C86.1104 48.1791 85.9729 46.3583 85.7021 44.5874C85.4521 42.9374 86.5854 41.3916 88.2396 41.1374C89.9021 40.8624 91.4396 42.0166 91.6937 43.6708ZM38.8596 49.9966C38.8596 49.1674 39.1887 48.3716 39.7804 47.7841L54.3054 33.3216C55.5304 32.1007 57.5096 32.1049 58.7262 33.3299C59.9429 34.5549 59.9429 36.5299 58.7179 37.7466L46.4137 49.9966L58.7179 62.2466C59.9429 63.4633 59.9429 65.4424 58.7262 66.6674C57.5096 67.8883 55.5304 67.8924 54.3054 66.6758L39.7804 52.2091C39.1887 51.6258 38.8596 50.8299 38.8596 49.9966Z" fill="white"/>
</svg>
