<svg width="101" height="100" viewBox="0 0 101 100" fill="none" xmlns="http://www.w3.org/2000/svg">
<path fill-rule="evenodd" clip-rule="evenodd" d="M44.1729 8.80837C46.2479 8.49171 48.3771 8.33337 50.5021 8.33337C73.4771 8.33337 92.1688 27.025 92.1688 50C92.1688 72.975 73.4771 91.6667 50.5021 91.6667C27.5271 91.6667 8.83545 72.975 8.83545 50C8.83545 36.9667 14.7646 24.9292 25.0938 16.9709C26.4188 15.95 28.3271 16.2 29.3438 17.5209C30.3688 18.8459 30.1146 20.7459 28.7938 21.775C19.9563 28.5709 14.8938 38.8625 14.8938 50C14.8938 69.6334 30.8646 85.6084 50.5021 85.6084C70.1354 85.6084 86.1063 69.6334 86.1063 50C86.1063 30.3667 70.1354 14.3917 50.5021 14.3917C48.6813 14.3917 46.8604 14.5292 45.0896 14.8C43.4396 15.05 41.8938 13.9167 41.6396 12.2625C41.3646 10.6 42.5188 9.06254 44.1729 8.80837ZM50.4988 61.6425C49.6696 61.6425 48.8738 61.3134 48.2863 60.7217L33.8238 46.1967C32.603 44.9717 32.6071 42.9925 33.8321 41.7759C35.0571 40.5592 37.0321 40.5592 38.2488 41.7842L50.4988 54.0884L62.7488 41.7842C63.9655 40.5592 65.9446 40.5592 67.1696 41.7759C68.3905 42.9925 68.3946 44.9717 67.178 46.1967L52.7113 60.7217C52.128 61.3134 51.3321 61.6425 50.4988 61.6425Z" fill="white"/>
</svg>
