<svg width="101" height="100" viewBox="0 0 101 100" fill="none" xmlns="http://www.w3.org/2000/svg">
<path fill-rule="evenodd" clip-rule="evenodd" d="M9.31039 56.3292C8.99372 54.2542 8.83539 52.1251 8.83539 50.0001C8.83539 27.0251 27.5271 8.3334 50.5021 8.3334C73.4771 8.3334 92.1687 27.0251 92.1687 50.0001C92.1687 72.9751 73.4771 91.6667 50.5021 91.6667C37.4687 91.6667 25.4312 85.7376 17.4729 75.4084C16.4521 74.0834 16.7021 72.1751 18.0229 71.1584C19.3479 70.1334 21.2479 70.3876 22.2771 71.7084C29.0729 80.5459 39.3646 85.6084 50.5021 85.6084C70.1354 85.6084 86.1104 69.6376 86.1104 50.0001C86.1104 30.3667 70.1354 14.3959 50.5021 14.3959C30.8687 14.3959 14.8937 30.3667 14.8937 50.0001C14.8937 51.8209 15.0312 53.6417 15.3021 55.4126C15.5521 57.0626 14.4187 58.6084 12.7646 58.8626C11.1021 59.1376 9.56455 57.9834 9.31039 56.3292ZM62.1446 50.0034C62.1446 50.8326 61.8154 51.6284 61.2237 52.2159L46.6987 66.6784C45.4737 67.8992 43.4946 67.8951 42.2779 66.6701C41.0612 65.4451 41.0612 63.4701 42.2862 62.2534L54.5904 50.0034L42.2862 37.7534C41.0612 36.5367 41.0612 34.5576 42.2779 33.3326C43.4946 32.1117 45.4737 32.1076 46.6987 33.3242L61.2237 47.7909C61.8154 48.3742 62.1446 49.1701 62.1446 50.0034Z" fill="white"/>
</svg>
