<svg width="101" height="100" viewBox="0 0 101 100" fill="none" xmlns="http://www.w3.org/2000/svg">
<path fill-rule="evenodd" clip-rule="evenodd" d="M56.8312 91.1917C54.7562 91.5084 52.627 91.6667 50.502 91.6667C27.527 91.6667 8.83537 72.975 8.83537 50C8.83537 27.025 27.527 8.33334 50.502 8.33334C73.477 8.33334 92.1687 27.025 92.1687 50C92.1687 63.0334 86.2395 75.0709 75.9104 83.0292C74.5854 84.05 72.677 83.8 71.6604 82.4792C70.6354 81.1542 70.8895 79.2542 72.2104 78.225C81.0479 71.4292 86.1104 61.1375 86.1104 50C86.1104 30.3667 70.1395 14.3917 50.502 14.3917C30.8687 14.3917 14.8979 30.3667 14.8979 50C14.8979 69.6334 30.8687 85.6084 50.502 85.6084C52.3229 85.6084 54.1437 85.4709 55.9145 85.2C57.5645 84.95 59.1104 86.0834 59.3645 87.7375C59.6395 89.4 58.4854 90.9375 56.8312 91.1917ZM50.5054 38.3575C51.3345 38.3575 52.1304 38.6867 52.7179 39.2783L67.1804 53.8033C68.4012 55.0283 68.397 57.0075 67.172 58.2242C65.947 59.4408 63.972 59.4408 62.7554 58.2158L50.5054 45.9117L38.2554 58.2158C37.0387 59.4408 35.0595 59.4408 33.8345 58.2242C32.6137 57.0075 32.6095 55.0283 33.8262 53.8033L48.2929 39.2783C48.8762 38.6867 49.672 38.3575 50.5054 38.3575Z" fill="white"/>
</svg>
