<svg width="101" height="100" viewBox="0 0 101 100" fill="none" xmlns="http://www.w3.org/2000/svg">
<path d="M69.7512 26.975H68.8899C68.7802 16.6792 60.601 8.33337 50.5487 8.33337C45.486 8.40421 41.0125 10.25 37.5304 13.7959C34.0929 17.2875 32.1833 21.9375 32.1101 26.975H31.2487C20.0385 26.975 10.9167 36.3292 10.9167 47.8292V70.8126C10.9167 82.3126 20.0385 91.6667 31.2487 91.6667C32.9309 91.6667 34.2961 90.2667 34.2961 88.5417C34.2961 86.8167 32.9309 85.4167 31.2487 85.4167C23.3987 85.4167 17.0114 78.8667 17.0114 70.8126V47.8292C17.0114 39.775 23.3987 33.225 31.2487 33.225H32.0898V39.8125C32.0898 41.5375 33.455 42.9375 35.1372 42.9375C36.8193 42.9375 38.1845 41.5375 38.1845 39.8125V27.1209C38.1967 23.7584 39.4888 20.6 41.817 18.2292C44.1533 15.8667 47.2698 14.7709 50.5366 14.5834C57.2367 14.5834 62.6854 20.125 62.7951 26.975H49.4639C47.7817 26.975 46.4165 28.375 46.4165 30.1C46.4165 31.825 47.7817 33.225 49.4639 33.225H62.8154V39.8125C62.8154 41.5375 64.1807 42.9375 65.8628 42.9375C67.545 42.9375 68.9102 41.5375 68.9102 39.8125V33.225H69.7512C77.6013 33.225 83.9886 39.775 83.9886 47.8292V70.8126C83.9886 78.8667 77.6013 85.4167 69.7512 85.4167H47.8467C46.1646 85.4167 44.7994 86.8167 44.7994 88.5417C44.7994 90.2667 46.1646 91.6667 47.8467 91.6667H69.7512C80.9615 91.6667 90.0833 82.3126 90.0833 70.8126V47.8292C90.0833 36.3292 80.9615 26.975 69.7512 26.975Z" fill="white"/>
</svg>
