<svg width="101" height="100" viewBox="0 0 101 100" fill="none" xmlns="http://www.w3.org/2000/svg">
<path fill-rule="evenodd" clip-rule="evenodd" d="M89.6825 65.6123L86.5345 41.1462C84.5213 30.1584 77.237 26.4958 71.0875 26.4958C70.164 18.4804 64.6297 11.7514 56.9465 9.30203C49.2633 6.8527 40.8587 9.13816 35.4714 15.1418C34.6867 15.9857 34.4117 17.1845 34.7498 18.2864C35.088 19.3883 35.988 20.226 37.1108 20.484C38.2336 20.7419 39.4087 20.3809 40.1933 19.5369V19.1706C45.3702 13.3886 54.25 12.8968 60.0329 18.0718C62.4666 20.2759 64.0691 23.2501 64.5719 26.4958H30.2369C24.3436 26.4958 17.2058 30.1584 14.7899 41.3293L13.8748 46.8232C13.7011 48.5081 14.8606 50.0401 16.5286 50.3295C18.1966 50.6189 19.8039 49.567 20.2073 47.922L21.0858 42.5379C22.4402 36.4214 25.8444 32.7588 30.2369 32.7588H71.0875C75.6996 32.7588 79.1038 36.4214 80.202 42.2816L83.3133 66.4913C84.2651 73.084 83.3133 77.9186 80.9341 80.812C78.5548 83.7055 73.9792 85.0973 67.3538 85.0973H33.9706C29.0946 85.4263 24.3033 83.6999 20.7564 80.3359C17.8696 76.3414 16.8671 71.286 18.0111 66.4913C18.2638 64.7416 17.051 63.1182 15.3023 62.8653C13.5536 62.6125 11.9312 63.8259 11.6785 65.5756C9.82294 72.2019 11.4057 79.3177 15.8948 84.531C20.3839 89.7444 27.1832 92.3631 34.0072 91.5068H67.3538C75.9925 91.5068 81.9956 89.3825 85.656 85.024C89.3165 80.6655 90.8905 74.1095 89.6825 65.6123ZM60.9479 50.1196C61.4047 50.2942 61.8868 50.3931 62.3754 50.4126C63.3409 50.3988 64.2619 50.0039 64.9377 49.3138C65.3301 48.9937 65.6327 48.5772 65.8162 48.1052C66.0212 47.6705 66.1215 47.1938 66.1091 46.7134C66.1468 46.4707 66.1468 46.2236 66.1091 45.9809C66.0751 45.7383 66.0009 45.5031 65.8895 45.285C65.8319 45.0537 65.7188 44.84 65.56 44.6623C65.2784 44.2773 64.946 43.9323 64.5717 43.6368C64.152 43.3834 63.6949 43.1979 63.2173 43.0874C62.7477 42.978 62.2593 42.978 61.7898 43.0874C61.5486 43.1271 61.3144 43.2011 61.0943 43.3072C60.861 43.3873 60.6394 43.4982 60.4354 43.6368L59.8863 44.1129C59.7013 44.2615 59.5513 44.4491 59.4471 44.6623L59.081 45.285V45.9809C59.0438 46.2236 59.0438 46.4706 59.081 46.7134C59.0558 47.191 59.1436 47.6679 59.3373 48.1052C59.6122 48.9498 60.1846 49.6658 60.9479 50.1196ZM42.7557 46.75C42.7557 48.7728 41.1168 50.4126 39.0952 50.4126C38.1553 50.3799 37.2639 49.9864 36.6061 49.3138C36.2598 48.9688 35.9859 48.5578 35.8008 48.1051C35.6258 47.6623 35.5388 47.1895 35.5446 46.7134C35.5068 46.4707 35.5068 46.2236 35.5446 45.9808C35.5785 45.7383 35.6528 45.503 35.7642 45.285C35.8373 45.0599 35.9488 44.8493 36.0937 44.6623C36.1979 44.449 36.3479 44.2614 36.5329 44.1129C36.6932 43.94 36.8782 43.7919 37.082 43.6734C37.2689 43.5284 37.4794 43.4169 37.7043 43.3438C37.9222 43.2323 38.1573 43.158 38.3998 43.124C38.8693 43.0146 39.3577 43.0146 39.8273 43.124C40.0698 43.158 40.3048 43.2323 40.5228 43.3438C40.7477 43.4169 40.9582 43.5284 41.1451 43.6734C41.3644 43.7999 41.5621 43.9607 41.7308 44.1496C41.9158 44.2981 42.0658 44.4857 42.17 44.6989C42.3122 44.8939 42.4348 45.1025 42.5361 45.3216L42.7557 46.0175C42.7756 46.2612 42.7756 46.5062 42.7557 46.75Z" fill="white"/>
</svg>
