<svg width="101" height="100" viewBox="0 0 101 100" fill="none" xmlns="http://www.w3.org/2000/svg">
<path fill-rule="evenodd" clip-rule="evenodd" d="M90.0394 27.7687C88.3853 25.8171 85.9812 24.6946 83.4521 24.6946H38.6824C36.9574 24.6946 35.5575 26.1232 35.5575 27.8835C35.5575 29.6438 36.9574 31.0725 38.6824 31.0725H83.4521C84.4312 31.0725 85.0396 31.6167 85.3146 31.9399C85.5895 32.2673 86.0312 32.9603 85.8895 33.9468L81.9355 61.8352C81.623 64.0207 79.7563 65.6704 77.5897 65.6704H32.1284C29.8243 65.6704 27.9451 63.9059 27.7535 61.5673L23.7411 12.7892C23.6244 11.3435 22.5619 10.1572 21.162 9.91062L12.4914 8.37567C10.7706 8.09504 9.17061 9.23881 8.87895 10.9778C8.58729 12.7126 9.72476 14.3624 11.4247 14.6643L17.7162 15.774L21.5245 62.0988C21.9911 67.7709 26.5493 72.0483 32.1284 72.0483H77.5897C82.8438 72.0483 87.3687 68.0515 88.1186 62.7493L92.0769 34.8609C92.4394 32.3013 91.6936 29.7204 90.0394 27.7687ZM25.1166 85.2292C25.1166 81.6788 27.9499 78.7875 31.429 78.7875C34.9081 78.7875 37.7372 81.6788 37.7372 85.2292C37.7372 88.7795 34.9081 91.6666 31.429 91.6666C27.9499 91.6666 25.1166 88.7795 25.1166 85.2292ZM72.003 85.2292C72.003 81.6788 74.8321 78.7875 78.3112 78.7875C81.7903 78.7875 84.6235 81.6788 84.6235 85.2292C84.6235 88.7795 81.7903 91.6666 78.3112 91.6666C74.8321 91.6666 72.003 88.7795 72.003 85.2292ZM74.0362 43.6012C74.0362 45.3615 72.6363 46.7901 70.9113 46.7901H59.3574C57.6283 46.7901 56.2325 45.3615 56.2325 43.6012C56.2325 41.8409 57.6283 40.4122 59.3574 40.4122H70.9113C72.6363 40.4122 74.0362 41.8409 74.0362 43.6012Z" fill="white"/>
</svg>
