<svg width="101" height="100" viewBox="0 0 101 100" fill="none" xmlns="http://www.w3.org/2000/svg">
<path fill-rule="evenodd" clip-rule="evenodd" d="M90.0466 22.6798V34.6054C90.0858 37.8479 88.8615 40.9735 86.643 43.2944C84.4246 45.6154 81.3938 46.9415 78.2175 46.9811H73.3683C71.7255 46.8015 70.4796 45.3863 70.4796 43.6996C70.4796 42.013 71.7255 40.5977 73.3683 40.4182H78.0705C79.5579 40.4083 80.98 39.7931 82.0214 38.7089C83.0627 37.6247 83.6373 36.1612 83.6177 34.6429V22.6798C83.5781 19.5692 81.1176 17.0574 78.0705 17.017H66.3517C63.288 17.017 60.8045 19.5523 60.8045 22.6798V40.5682C60.7447 42.3821 59.276 43.8148 57.4982 43.7934C56.6439 43.7739 55.8329 43.4059 55.2462 42.7718C54.6595 42.1376 54.346 41.29 54.3756 40.4182V22.6798C54.3659 19.4308 55.6233 16.3116 57.8703 14.0107C60.1173 11.7098 63.1691 10.4166 66.3517 10.4166H78.0705C84.6333 10.5757 89.9108 15.9798 90.0466 22.6798ZM34.6483 10.4166H22.9294C16.3116 10.4576 10.9568 15.9241 10.9167 22.6798V34.6429C10.9569 41.3925 16.3176 46.8481 22.9294 46.8686H34.6483C37.8309 46.8785 40.8865 45.5949 43.1404 43.301C45.3943 41.0072 46.6611 37.8919 46.6611 34.6429V22.6798C46.6409 15.9156 41.2744 10.4372 34.6483 10.4166ZM40.1954 34.6428C40.215 36.1611 39.6404 37.6246 38.5991 38.7088C37.5577 39.793 36.1356 40.4083 34.6482 40.4181H22.9294C21.4199 40.4491 19.9632 39.8505 18.8956 38.7607C17.828 37.6708 17.2417 36.1838 17.272 34.6428V22.6797C17.2717 21.1581 17.8712 19.7005 18.9355 18.6352C19.9997 17.5699 21.4392 16.9867 22.9294 17.0169H34.6482C37.7035 17.0373 40.1754 19.5607 40.1954 22.6797V34.6428ZM66.3515 53.1314H78.0703C84.6822 53.1519 90.0428 58.6075 90.0831 65.3571V77.3202C90.043 84.0759 84.6881 89.5424 78.0703 89.5833H66.3515C59.7397 89.5422 54.3955 84.0698 54.3754 77.3202V65.3571C54.3754 58.605 59.7373 53.1314 66.3515 53.1314ZM82.0039 81.3356C83.0463 80.2714 83.6276 78.8252 83.6177 77.3203V65.3571C83.6177 63.8552 83.0333 62.4149 81.993 61.3529C80.9527 60.2909 79.5418 59.6943 78.0706 59.6943H66.3517C63.2881 59.6943 60.8045 62.2296 60.8045 65.3571V77.3203C60.7946 78.8252 61.3759 80.2714 62.4184 81.3356C63.4608 82.3997 64.8775 82.9931 66.3517 82.983H78.0706C79.5448 82.9931 80.9614 82.3997 82.0039 81.3356ZM10.9167 77.2828V65.3572C10.9166 62.1082 12.1834 58.9929 14.4373 56.699C16.6912 54.4052 19.7468 53.1216 22.9294 53.1315H27.7419C28.9723 52.997 30.17 53.5914 30.8265 54.6623C31.4829 55.7332 31.4829 57.0927 30.8265 58.1636C30.17 59.2345 28.9723 59.8288 27.7419 59.6944H22.9294C19.8598 59.6943 17.3657 62.2236 17.3455 65.3572V77.1703C17.4236 80.2787 19.884 82.7739 22.9294 82.8331H34.7218C36.1993 82.8431 37.6197 82.2509 38.668 81.1878C39.7162 80.1248 40.3057 78.6787 40.3057 77.1703V59.4319C40.0661 58.1072 40.6392 56.7668 41.7536 56.0455C42.868 55.3242 44.3 55.3666 45.3715 56.1529C46.443 56.9391 46.9389 58.3111 46.6243 59.6194V77.2828C46.6243 84.0555 41.246 89.546 34.6116 89.546H22.9294C16.3523 89.4066 11.0531 83.997 10.9167 77.2828Z" fill="white"/>
</svg>
