<svg width="101" height="100" viewBox="0 0 101 100" fill="none" xmlns="http://www.w3.org/2000/svg">
<path fill-rule="evenodd" clip-rule="evenodd" d="M92.1667 44.0634C92.1667 45.8242 90.7392 47.2516 88.9784 47.2516H88.9418C88.0931 47.2518 87.2802 46.9097 86.687 46.3028C86.0938 45.6958 85.7705 44.8752 85.7902 44.0267V34.3888C85.7902 21.7092 78.7908 14.7098 66.1112 14.7098H34.8887C22.1725 14.7098 15.2097 21.7092 15.2097 34.3888V65.648C15.2097 78.3275 22.2092 85.2903 34.8887 85.2903H66.1112C78.8275 85.2903 85.7902 78.2909 85.7902 65.648C85.7902 63.8872 87.2176 62.4597 88.9784 62.4597C90.7392 62.4597 92.1666 63.8872 92.1667 65.648C92.1667 81.699 82.1989 91.6667 66.1479 91.6667H34.8887C18.8011 91.6667 8.83331 81.699 8.83331 65.648V34.3888C8.83331 18.3011 18.8011 8.33337 34.8887 8.33337H66.1112C82.1256 8.33337 92.1667 18.3011 92.1667 34.3888V44.0634ZM29.5017 69.5324V43.1105V42.854C29.5302 42.0113 29.8951 41.2152 30.5149 40.6436C31.1347 40.072 31.9577 39.7726 32.7999 39.8123C33.6456 39.841 34.4453 40.2047 35.0227 40.8233C35.6001 41.442 35.9078 42.2648 35.8782 43.1105V69.7522C35.8175 71.513 34.3408 72.8912 32.58 72.8305C30.8192 72.7698 29.441 71.2932 29.5017 69.5324ZM47.4581 30.5043V69.5691C47.4581 71.3299 48.8855 72.7573 50.6463 72.7573C52.4071 72.7573 53.8345 71.3299 53.8345 69.5691V30.5043C53.8345 28.7435 52.4071 27.3161 50.6463 27.3161C48.8855 27.3161 47.4581 28.7435 47.4581 30.5043ZM65.1216 69.5326V57.0729C65.1216 55.3121 66.549 53.8847 68.3098 53.8847C70.0706 53.8847 71.498 55.3121 71.498 57.0729V69.5326C71.498 71.2934 70.0706 72.7208 68.3098 72.7208C66.549 72.7208 65.1216 71.2934 65.1216 69.5326Z" fill="white"/>
</svg>
