<svg width="101" height="100" viewBox="0 0 101 100" fill="none" xmlns="http://www.w3.org/2000/svg">
<path fill-rule="evenodd" clip-rule="evenodd" d="M50.5281 8.33331C57.2687 8.33331 63.9836 9.99609 69.9499 13.1418C90.2634 23.8599 98.0754 49.1062 87.3646 69.4266C80.059 83.283 65.6751 91.6667 50.4804 91.6667C47.5119 91.6667 44.514 91.3473 41.5309 90.6866C39.8503 90.3122 38.7899 88.6458 39.1605 86.9646C39.5311 85.2835 41.1933 84.2301 42.8848 84.5934C58.4025 88.0438 74.4228 80.5962 81.8459 66.5158C90.9532 49.242 84.3117 27.7727 67.0401 18.6623C61.9691 15.9865 56.2596 14.5733 50.5244 14.5733H50.4841C30.9595 14.5733 15.0712 30.4633 15.0712 49.9945C15.0639 55.6839 16.4509 61.3476 19.0818 66.38L19.8817 67.9437C20.8614 69.7789 21.0779 72.0584 20.4431 74.1213C19.5662 76.4337 18.836 78.6838 18.2342 80.9229C20.5752 80.2181 23.4337 79.1793 25.4995 78.4269L26.3471 78.1222C27.9506 77.5239 29.7523 78.3718 30.3394 79.9942C30.9265 81.6129 30.0862 83.4042 28.468 83.9878L27.6314 84.2924L27.489 84.3441L27.4888 84.3441C24.4128 85.4588 20.271 86.9597 17.46 87.5886C17.2178 87.64 16.9573 87.6731 16.7188 87.6657C14.8034 87.6657 13.6365 86.8912 12.9944 86.2379C12.0073 85.2358 11.5376 83.83 11.5927 82.0607C11.6 81.8589 11.6257 81.6496 11.6734 81.4477C12.4146 78.291 13.3797 75.1417 14.5465 72.0914C14.6309 71.7941 14.5795 71.2545 14.341 70.803L13.5374 69.243C10.4589 63.3481 8.826 56.6786 8.83334 49.9908C8.83334 27.0203 27.5176 8.33331 50.4804 8.33331H50.5281ZM27.1813 49.9963C27.1813 47.2618 29.4012 45.0411 32.1349 45.0411C34.8685 45.0411 37.0885 47.2618 37.0885 49.9963C37.0885 52.7273 34.8685 54.948 32.1349 54.948C29.4012 54.948 27.1813 52.7273 27.1813 49.9963ZM55.4356 49.9948C55.4356 47.2639 53.2156 45.0395 50.482 45.0395C47.7483 45.0395 45.5284 47.2639 45.5284 49.9948C45.5284 52.7257 47.7483 54.9501 50.482 54.9501C53.2156 54.9501 55.4356 52.7257 55.4356 49.9948ZM68.8285 45.0395C71.5621 45.0395 73.7821 47.2639 73.7821 49.9948C73.7821 52.7257 71.5621 54.9501 68.8285 54.9501C66.0948 54.9501 63.8749 52.7257 63.8749 49.9948C63.8749 47.2639 66.0948 45.0395 68.8285 45.0395Z" fill="white"/>
</svg>
