<svg width="101" height="100" viewBox="0 0 101 100" fill="none" xmlns="http://www.w3.org/2000/svg">
<path fill-rule="evenodd" clip-rule="evenodd" d="M89.0175 48.2413C90.755 48.2413 92.1675 46.8288 92.1675 45.0913V34.3871C92.1675 18.2996 82.1258 8.33295 66.1383 8.33295H34.8883C18.8008 8.33295 8.83417 18.2996 8.83417 34.3996V65.6496C8.83417 81.6996 18.8008 91.6663 34.8883 91.6663H66.1508C82.2008 91.6663 92.1675 81.6996 92.155 65.6371C92.155 63.8788 90.7258 62.4496 88.9675 62.4496C87.205 62.4496 85.78 63.8788 85.78 65.6371C85.78 78.2788 78.8175 85.2788 66.1383 85.2788H34.8883C22.2092 85.2788 15.2092 78.2788 15.2092 65.6371V34.3871C15.2092 21.7079 22.2092 14.7079 34.9008 14.7079H66.1508C78.8342 14.7079 85.7925 21.6663 85.7925 34.3871V44.9788V44.9871C85.7967 46.7454 87.2217 48.1663 88.98 48.1663V48.2413H89.0175ZM41.3958 54.7721L38.5458 57.6221C37.275 58.8304 37.2041 60.8346 38.3875 62.1304L38.4791 62.1971C39.6958 63.4138 41.6541 63.4471 42.9083 62.2721L45.7458 59.4346C47.0333 58.2346 47.1041 56.2179 45.9041 54.9263C44.6999 53.643 42.6833 53.568 41.3958 54.7721ZM63.5949 61.6799C62.3699 62.9008 60.3908 62.9258 59.1366 61.7299L58.9783 61.5758L39.0616 41.6633C37.8449 40.3716 37.8199 38.3633 39.0074 37.0466C40.2241 35.8008 42.2158 35.7758 43.4616 36.9924C43.4741 37.0008 43.4824 37.0091 43.4949 37.0216L51.2658 44.7966L58.3366 37.7216C59.6074 36.5091 61.6116 36.5216 62.8699 37.7508C63.0949 37.9758 63.2866 38.2299 63.4324 38.5133C64.1533 39.7674 63.9449 41.3424 62.9241 42.3674L55.8824 49.4049L63.5408 57.0674C64.8324 58.2883 64.8824 60.3258 63.6574 61.6133C63.648 61.6275 63.6358 61.639 63.6232 61.6509C63.6137 61.6599 63.6039 61.6692 63.5949 61.6799Z" fill="white"/>
</svg>
