<svg width="101" height="100" viewBox="0 0 101 100" fill="none" xmlns="http://www.w3.org/2000/svg">
<path fill-rule="evenodd" clip-rule="evenodd" d="M91.1226 71.607C91.1935 71.7279 91.2518 71.857 91.3059 71.9862C91.8018 73.207 92.0851 74.4945 92.1559 75.8112C92.3185 78.957 91.2476 81.9737 89.1351 84.3154C87.0268 86.657 84.131 88.0362 80.9851 88.1945L36.1643 88.1987C34.4393 88.1987 33.0393 86.7987 33.0393 85.0737C33.0393 83.3487 34.4393 81.9487 36.1643 81.9487H80.8268C82.1434 81.8737 83.5018 81.232 84.4976 80.1279C85.4893 79.0279 85.9893 77.6154 85.9143 76.1362C85.8851 75.5779 85.7726 75.0279 85.5768 74.5029L55.3726 21.6445C53.8768 18.9404 50.4976 17.9654 47.8226 19.4445C46.9101 19.9487 46.1643 20.6945 45.6601 21.607L15.4309 74.507C14.9434 75.832 14.9768 77.2695 15.5268 78.5737C16.1018 79.9362 17.1726 80.9945 18.5434 81.5487C19.1226 81.7862 19.7226 81.9195 20.3434 81.9529C22.0643 82.0362 23.3934 83.507 23.3059 85.232C23.2226 86.8987 21.8393 88.1987 20.1851 88.1987C20.1309 88.1987 20.0809 88.1987 20.0268 88.1945C18.7018 88.1279 17.4101 87.8404 16.1851 87.3404C13.2768 86.157 10.9976 83.907 9.77261 81.007C8.54344 78.107 8.52261 74.8987 9.71011 71.982C9.76011 71.8529 9.81844 71.7279 9.88928 71.607L40.2101 18.5445C41.2601 16.6445 42.8559 15.0529 44.7934 13.9737C50.4893 10.8237 57.6768 12.8904 60.8226 18.582L91.1226 71.607ZM50.5057 56.6583C52.2307 56.6583 53.6307 55.2583 53.6307 53.5333V41.7541C53.6307 40.0291 52.2307 38.6291 50.5057 38.6291C48.7807 38.6291 47.3807 40.0291 47.3807 41.7541V53.5333C47.3807 55.2583 48.7807 56.6583 50.5057 56.6583ZM50.5057 70.912C52.2307 70.912 53.6307 69.512 53.6307 67.787V67.7453C53.6307 66.0203 52.2307 64.6411 50.5057 64.6411C48.7807 64.6411 47.3807 66.062 47.3807 67.787C47.3807 69.512 48.7807 70.912 50.5057 70.912Z" fill="white"/>
</svg>
