<svg width="101" height="100" viewBox="0 0 101 100" fill="none" xmlns="http://www.w3.org/2000/svg">
<path fill-rule="evenodd" clip-rule="evenodd" d="M38.1924 22.904H85.0252C86.667 22.904 88 24.2665 88 25.9498C88 27.6373 86.667 28.9997 85.0252 28.9997H15.9707C14.3289 28.9997 13 27.6373 13 25.9498C13 24.2665 14.3289 22.904 15.9707 22.904H29.2801C31.052 22.904 32.5923 21.6082 32.9377 19.8332L33.9293 14.7499C34.9331 10.8917 38.1842 8.33337 41.8824 8.33337H59.1176C62.8158 8.33337 66.0669 10.8917 67.026 14.5583C67.4527 16.1874 66.5099 17.8582 64.9249 18.2957C63.3441 18.7332 61.7104 17.7666 61.2837 16.1374C61.0195 15.1333 60.1295 14.4333 59.1176 14.4333H41.8824C40.8705 14.4333 39.9805 15.1333 39.7163 16.1374L38.7694 21.0248C38.6394 21.6832 38.4362 22.2998 38.1924 22.904ZM34.478 85.4031C30.6579 85.3198 28.4958 83.1948 28.0529 79.0824C26.7768 67.3201 24.5904 39.4663 24.5701 39.1872C24.44 37.508 23.0055 36.3122 21.3677 36.3872C19.7299 36.5247 18.5107 37.9955 18.6449 39.6705C18.6652 39.9538 20.8556 67.9034 22.1398 79.7616C22.9079 86.8573 27.5855 91.353 34.356 91.4989H34.417C36.0304 91.4989 37.3552 90.1781 37.3918 88.5156C37.4243 86.8323 36.1198 85.4365 34.478 85.4031ZM79.6317 36.3884C78.0142 36.3009 76.5593 37.505 76.4293 39.1842C76.409 39.4633 74.2063 67.3921 72.9424 79.0627C72.4913 83.2627 70.3008 85.3418 66.241 85.421L64.6261 85.4499C59.4719 85.5426 57.0725 85.5858 51.3141 85.5668H51.306C49.6642 85.5668 48.3353 86.921 48.3312 88.6001C48.3231 90.2876 49.652 91.6542 51.2938 91.6626C52.3098 91.6667 53.3217 91.6667 54.3377 91.6667C58.5844 91.6667 60.2804 91.6327 63.4653 91.5689H63.4655L63.4662 91.5688C64.3011 91.5521 65.2384 91.5333 66.3507 91.5126C73.3976 91.3834 78.0752 86.9793 78.8554 79.7294C80.1275 67.9754 82.3342 39.955 82.3545 39.6758C82.4886 37.9967 81.2694 36.5259 79.6317 36.3884Z" fill="white"/>
</svg>
