<svg width="101" height="100" viewBox="0 0 101 100" fill="none" xmlns="http://www.w3.org/2000/svg">
<path fill-rule="evenodd" clip-rule="evenodd" d="M16.9427 54.4775C14.4844 52.0184 14.4844 48.0171 16.9427 45.5204L19.9427 42.5153C22.3177 40.1437 23.6094 37.0176 23.6094 33.679V29.386C23.6094 25.9265 26.4427 23.0923 29.9011 23.0923H34.1927C37.5261 23.0923 40.6511 21.8002 43.0261 19.4244L46.0261 16.4234C48.4427 14.006 52.4011 13.9643 54.9011 16.3442C54.9427 16.3817 54.9427 16.3817 54.9843 16.4233L54.9844 16.4234C55.5261 16.9236 56.2761 17.257 57.1094 17.257C58.8177 17.257 60.2344 15.8816 60.2344 14.131C60.2344 13.2974 59.9011 12.5472 59.3594 11.9636C59.1927 11.7969 59.0261 11.6719 58.8594 11.5468C53.9427 7.08705 46.3177 7.29545 41.6094 12.0095L38.6094 15.0063C37.4427 16.1775 35.8594 16.8402 34.1927 16.8402H29.9011C22.9844 16.8402 17.3594 22.4671 17.3594 29.386V33.679C17.3594 35.3463 16.6927 36.9301 15.5261 38.0972L12.4844 41.1398C7.6094 46.0581 7.6094 54.0232 12.5261 58.8998C13.1511 59.5208 13.9427 59.8126 14.7344 59.8126C15.5261 59.8126 16.3594 59.4791 16.9427 58.8998C18.1511 57.6452 18.1511 55.6862 16.9427 54.4775ZM85.4781 38.1096L88.4698 41.1023C90.8406 43.4572 92.1531 46.604 92.1656 49.9593C92.174 53.3146 90.8781 56.4698 88.5156 58.8455L85.474 61.8882C84.3156 63.0552 83.649 64.6683 83.6448 66.323V70.6035C83.6448 77.5225 78.0156 83.1535 71.099 83.1535C69.374 83.1535 67.974 81.753 67.974 80.0275C67.974 78.3019 69.374 76.9014 71.099 76.9014C74.574 76.9014 77.3948 74.0755 77.3948 70.6035V66.3188C77.399 62.9761 78.6948 59.8334 81.049 57.4743L84.049 54.4691C85.2698 53.2437 85.9198 51.6599 85.9156 49.976C85.9115 48.2963 85.249 46.7166 84.0573 45.5287L81.0531 42.5236C78.6948 40.1478 77.399 37.0093 77.3948 33.6748V29.3859C77.3948 25.9098 74.574 23.088 71.099 23.088C69.374 23.088 67.974 21.6876 67.974 19.962C67.974 18.2365 69.374 16.836 71.099 16.836C78.0156 16.836 83.6448 22.4628 83.6448 29.3859V33.6707C83.649 35.342 84.299 36.9217 85.4781 38.1096ZM50.4968 85.423C52.2052 85.4897 53.7718 84.7687 54.9635 83.5641C56.1802 82.347 58.1593 82.3345 59.3843 83.5516C60.6052 84.7728 60.6093 86.7526 59.3927 87.978C56.9468 90.4372 53.7218 91.6667 50.4968 91.6667C47.2968 91.6667 44.0927 90.4538 41.651 88.0239L38.6093 84.9812C37.4302 83.81 35.851 83.1556 34.1718 83.1515H29.8968C22.9802 83.1515 17.351 77.5246 17.351 70.6057C17.351 68.8801 18.751 67.4797 20.476 67.4797C22.201 67.4797 23.601 68.8801 23.601 70.6057C23.601 74.0777 26.4218 76.8994 29.8968 76.8994H34.1802C37.5177 76.9036 40.6593 78.204 43.0218 80.5506L46.026 83.5599C47.2427 84.7728 48.8218 85.423 50.4968 85.423ZM37.581 58.4948C36.3602 59.716 36.3602 61.6958 37.581 62.917C38.1894 63.5256 38.9894 63.8298 39.7894 63.8298C40.5894 63.8298 41.3894 63.5256 42.0019 62.917L63.4144 41.4934C64.6352 40.2722 64.6352 38.2923 63.4144 37.0711C62.1935 35.8499 60.2185 35.8499 58.9977 37.0711L37.581 58.4948ZM39.7523 35.7301C41.7481 35.7301 43.3689 37.3514 43.3689 39.3479C43.3689 41.3444 41.7481 42.9616 39.7523 42.9616C37.7564 42.9616 36.1356 41.3444 36.1356 39.3479C36.1356 37.3514 37.7564 35.7301 39.7523 35.7301ZM61.2065 57.0992C63.2023 57.0992 64.8232 58.7206 64.8232 60.7171C64.8232 62.7136 63.2023 64.3349 61.2065 64.3349C59.2065 64.3349 57.5899 62.7136 57.5899 60.7171C57.5899 58.7206 59.2065 57.0992 61.2065 57.0992Z" fill="white"/>
</svg>
