<svg width="101" height="100" viewBox="0 0 101 100" fill="none" xmlns="http://www.w3.org/2000/svg">
<path fill-rule="evenodd" clip-rule="evenodd" d="M34.4078 8.33331H66.5559C79.9448 8.33331 87.9637 16.4643 88 30.0405V69.9595C88 83.5357 80.0174 91.6666 66.5922 91.6666H54.6909C53.1646 91.496 52.0093 90.1883 52.0093 88.6313C52.0093 87.0743 53.1646 85.7667 54.6909 85.596H66.5559C76.7881 85.596 81.9405 80.3348 81.9405 69.9595V30.0405C81.9405 19.6652 76.7881 14.404 66.5559 14.404H34.4078C24.1756 14.404 18.9869 19.6652 18.9869 30.0405V69.9595C18.9869 80.3348 24.1756 85.596 34.4078 85.596C35.9341 85.7667 37.0894 87.0743 37.0894 88.6313C37.0894 90.1883 35.9341 91.496 34.4078 91.6666C21.0189 91.6666 13 83.5357 13 69.9595V30.0405C13 16.4275 21.0189 8.33331 34.4078 8.33331ZM35.46 35.4122H46.8896C48.4159 35.2416 49.5712 33.9339 49.5712 32.3769C49.5712 30.8199 48.4159 29.5122 46.8896 29.3416H35.46C33.9337 29.5122 32.7785 30.8199 32.7785 32.3769C32.7785 33.9339 33.9337 35.2416 35.46 35.4122ZM65.467 53.0353H35.4598H35.4235C33.8972 52.8646 32.7419 51.557 32.7419 50C32.7419 48.443 33.8972 47.1353 35.4235 46.9646H65.467C66.6152 46.8363 67.7346 47.3851 68.3484 48.3773C68.9621 49.3696 68.9621 50.6304 68.3484 51.6226C67.7346 52.6148 66.6152 53.1637 65.467 53.0353ZM65.4676 70.6588H35.4604H35.4241C33.7809 70.6588 32.4488 69.3081 32.4488 67.6419C32.4488 65.9757 33.7809 64.6249 35.4241 64.6249H65.4676C67.1109 64.6249 68.443 65.9757 68.443 67.6419C68.443 69.3081 67.1109 70.6588 65.4676 70.6588Z" fill="white"/>
</svg>
