<svg width="101" height="100" viewBox="0 0 101 100" fill="none" xmlns="http://www.w3.org/2000/svg">
<path fill-rule="evenodd" clip-rule="evenodd" d="M36.116 49.0469C37.3743 47.8031 39.4034 47.8072 40.6534 49.0552L47.2909 55.6892V13.6093C47.2909 11.8471 48.7283 10.4167 50.4992 10.4167C52.27 10.4167 53.7116 11.8471 53.7116 13.6093V63.4219C53.7116 64.7155 52.9283 65.8806 51.7241 66.374C50.5242 66.8674 49.1408 66.5896 48.2242 65.6774L36.1076 53.5622C35.4868 52.9402 35.1743 52.1234 35.1743 51.3066C35.1743 50.4898 35.4868 49.6689 36.116 49.0469ZM57.334 56.6295C56.6965 56.0075 56.3799 55.1866 56.3799 54.3615C56.3799 53.553 56.6882 52.7403 57.309 52.1142L60.3382 49.0626C61.584 47.8105 63.6131 47.798 64.8756 49.0378C66.1381 50.2733 66.1464 52.2925 64.9006 53.553L61.8673 56.6087C60.6257 57.8609 58.5924 57.8733 57.334 56.6295ZM30.5706 86.246C30.5706 84.4051 29.1331 82.9108 27.3623 82.9108C20.6832 82.9108 15.2499 77.2626 15.2499 70.3192V49.2078C15.2499 42.2948 20.6666 36.6639 27.3207 36.6639H31.2415C33.0123 36.6639 34.4498 35.1696 34.4498 33.3287C34.4498 31.4879 33.0123 29.9935 31.2415 29.9935H27.3207C17.1249 29.9935 8.83334 38.6131 8.83334 49.2078V70.3192C8.83334 80.9399 17.1458 89.5812 27.3623 89.5812C29.1331 89.5812 30.5706 88.0868 30.5706 86.246ZM92.1666 49.2534V70.3648C92.1666 80.9595 83.8751 89.5834 73.6793 89.5834H41.9546C40.1838 89.5834 38.7505 88.0847 38.7505 86.2482C38.7505 84.403 40.1838 82.9087 41.9546 82.9087H73.6793C80.3334 82.9087 85.75 77.2821 85.75 70.3648V49.2534C85.75 42.3101 80.3168 36.6619 73.6377 36.6619H69.7585C67.9877 36.6619 66.5544 35.1718 66.5544 33.3267C66.5544 31.4858 67.9877 29.9914 69.7585 29.9914H73.6377C83.8542 29.9914 92.1666 38.6327 92.1666 49.2534Z" fill="white"/>
</svg>
