<svg width="101" height="100" viewBox="0 0 101 100" fill="none" xmlns="http://www.w3.org/2000/svg">
<path fill-rule="evenodd" clip-rule="evenodd" d="M67.6265 25.425C80.7223 25.3333 91.589 35.1541 92.1473 47.9833C92.1682 48.5 92.1723 49.0167 92.1598 49.5291V67.475C92.3015 73.7125 89.9765 79.6917 85.6181 84.2458C81.2598 88.8042 75.389 91.3833 69.089 91.5208C68.5765 91.5333 68.0598 91.525 67.539 91.5042C61.7973 91.6083 56.0265 91.6542 50.2807 91.6542C44.5682 91.6542 38.8807 91.6083 33.2932 91.5083C20.439 92.1458 9.42649 81.9583 8.85566 68.9583C8.83482 68.4417 8.83066 67.9292 8.83899 67.4167V49.4583C8.55566 36.5083 18.914 25.6916 31.9223 25.4083C32.4307 25.4 32.9473 25.4083 33.4682 25.4291L49.964 25.425V24.4666C49.9307 21.6541 47.5848 19.3458 44.7348 19.3458H44.6932H40.5807C38.4265 19.2541 36.3765 18.5416 34.8182 17.0083C33.264 15.4875 32.3973 13.4458 32.3723 11.2708C32.3557 9.66665 33.6432 8.34998 35.2473 8.33331H35.2807C36.8682 8.33331 38.1682 9.61665 38.1848 11.2125C38.189 11.8375 38.439 12.425 38.889 12.8583C39.3307 13.2916 39.9098 13.5291 40.5223 13.5291H40.5473H44.6723H44.7557C50.7515 13.5291 55.6973 18.4 55.7807 24.4333V28.3291C55.7807 29.9375 54.4765 31.2375 52.8723 31.2375H33.3432C33.2892 31.2362 33.2366 31.2348 33.1851 31.2335C32.7518 31.2226 32.4025 31.2138 32.0598 31.225C22.2432 31.4333 14.439 39.5833 14.6515 49.3917V67.475C14.6432 67.9292 14.6473 68.3208 14.664 68.7125C15.0932 78.5042 23.3265 86.125 33.214 85.7C44.539 85.8917 56.0515 85.8916 67.614 85.6958C68.1723 85.7125 68.564 85.7208 68.9515 85.7125C73.7098 85.6083 78.1348 83.6625 81.4182 80.225C84.7015 76.7958 86.4557 72.2916 86.3473 67.5375V49.4583C86.3598 49 86.3557 48.6125 86.3348 48.2291C85.9057 38.4083 77.8973 31.0333 67.7015 31.2375C66.089 31.2875 64.7807 29.9708 64.7598 28.3708C64.739 26.7625 66.0223 25.45 67.6265 25.425ZM41.5247 65.5495C41.5048 67.2811 40.0957 68.6799 38.3515 68.6997H38.3146C36.5765 68.6796 35.1782 67.2751 35.1783 65.5495V61.3737H30.972C29.7634 61.5036 28.5863 60.9367 27.9411 59.914C27.2958 58.8912 27.2958 57.5924 27.9411 56.5697C28.5863 55.5469 29.7634 54.98 30.972 55.11H35.1783V50.9708C35.1783 49.231 36.599 47.8206 38.3515 47.8206C40.104 47.8206 41.5247 49.231 41.5247 50.9708V55.11H45.731C46.9396 54.98 48.1167 55.5469 48.762 56.5697C49.4072 57.5924 49.4072 58.8912 48.762 59.914C48.1167 60.9367 46.9396 61.5036 45.731 61.3737H41.5247V65.5495ZM60.8221 49.3223C61.0996 49.0216 61.4395 48.7841 61.8184 48.6264C62.5747 48.317 63.4235 48.317 64.1798 48.6264C64.5746 48.7947 64.9367 49.0303 65.2499 49.3223C65.8351 49.9069 66.1663 50.6959 66.1723 51.5201C66.1772 51.9334 66.1021 52.3438 65.9509 52.7289C65.8052 53.1226 65.5645 53.4747 65.2499 53.7546C64.0101 54.9267 62.0619 54.9267 60.8221 53.7546C60.2058 53.1799 59.8562 52.3779 59.8562 51.5385C59.8562 50.699 60.2058 49.897 60.8221 49.3223ZM67.8696 63.2783C66.6567 64.4984 66.6654 66.4623 67.8891 67.6718C69.1128 68.8812 71.091 68.8812 72.3147 67.6718C73.5384 66.4623 73.5471 64.4984 72.3342 63.2783C72.0292 62.9934 71.6805 62.7585 71.3011 62.5823C70.1202 62.1099 68.7692 62.3839 67.8696 63.2783Z" fill="white"/>
</svg>
