<svg width="101" height="100" viewBox="0 0 101 100" fill="none" xmlns="http://www.w3.org/2000/svg">
<path fill-rule="evenodd" clip-rule="evenodd" d="M92.1197 41.4062C89.2567 23.9342 74.3193 10.9361 56.5083 10.4184C54.7256 10.3774 53.0058 11.074 51.7601 12.3415C50.5567 13.5815 49.9337 15.2671 50.0434 16.9861L51.8697 44.2365C52.1544 47.6758 55.0435 50.3252 58.5171 50.3324H58.9554L86.3488 48.5182C87.9937 48.425 89.5328 47.6823 90.6236 46.4556C91.7143 45.2289 92.2661 43.6199 92.1562 41.9868V41.4062H92.1197ZM58.5172 43.8013L56.691 17.0226C71.0215 17.6003 83.0211 27.9974 85.5454 42.0233L58.5172 43.8013ZM70.4972 62.4514C71.0104 60.7128 72.8259 59.6983 74.5879 60.1654C75.4523 60.3703 76.1963 60.9141 76.6504 61.6729C77.1046 62.4317 77.2302 63.3408 76.9986 64.1931C74.518 73.1876 68.4676 80.7959 60.2338 85.275C50.1306 90.8383 37.8986 91.024 27.6291 85.7698C17.3595 80.5155 10.408 70.5151 9.09946 59.1131C8.8872 57.7815 8.8016 56.433 8.84379 55.0855C8.82614 38.7468 20.3566 24.6402 36.4563 21.3037C38.2718 20.9429 40.0379 22.1126 40.401 23.9162C40.7641 25.7198 39.5867 27.4743 37.7712 27.835C24.7768 30.5811 15.4962 41.9961 15.5278 55.1943C15.4975 56.2257 15.5586 57.2578 15.7104 58.2786C17.313 71.4559 28.0595 81.6751 41.381 82.6897C54.7025 83.7043 66.8913 75.232 70.4972 62.4514Z" fill="white"/>
</svg>
