<svg width="101" height="100" viewBox="0 0 101 100" fill="none" xmlns="http://www.w3.org/2000/svg">
<path fill-rule="evenodd" clip-rule="evenodd" d="M73.5026 11.6779C80.2284 13.7695 85.8211 18.5739 88.9806 24.9742C92.675 32.7315 93.1778 41.67 90.3777 49.8065C87.8004 57.2969 83.5749 64.0871 78.0247 69.6574C74.3856 73.3977 70.4642 76.8416 66.2967 79.9574L66.0761 80.1446C64.6915 81.0768 62.8296 80.7107 61.8849 79.3206C61.4046 78.6493 61.2117 77.8084 61.3503 76.9898C61.4888 76.1712 61.9469 75.4446 62.6202 74.9759C66.5308 72.0294 70.2177 68.7866 73.6497 65.2752C78.5922 60.4114 82.3666 54.4514 84.6791 47.8589C86.9034 41.2898 86.4533 34.0869 83.4291 27.8582C80.9956 22.9583 76.7077 19.2798 71.5541 17.6706C64.9805 15.5765 57.8189 16.846 52.326 21.079C51.234 21.9031 49.7415 21.9031 48.6495 21.079C43.1591 16.8401 35.9946 15.5701 29.4214 17.6706C24.2332 19.2442 19.9026 22.9116 17.4361 27.8208C14.4802 34.0448 14.0574 41.2064 16.2596 47.7465C18.5819 54.3232 22.3553 60.2689 27.2891 65.1254C34.5792 72.2467 42.618 78.5271 51.2598 83.8526C52.3589 84.6293 52.8423 86.0386 52.4571 87.3436C52.072 88.6487 50.9059 89.5527 49.5686 89.5832C48.9658 89.5868 48.3761 89.404 47.8774 89.0588C38.8753 83.5122 30.5032 76.9678 22.914 69.545C17.333 63.9931 13.092 57.1981 10.5243 49.6942C7.82086 41.5689 8.3758 32.6848 12.0684 24.9742C15.2279 18.5739 20.8206 13.7695 27.5464 11.6779C35.2794 9.24457 43.6694 10.366 50.5245 14.7492C57.3796 10.366 65.7696 9.24457 73.5026 11.6779ZM70.4876 40.368C70.334 36.9067 68.0714 33.9131 64.8258 32.8771C63.6192 32.1096 63.0832 30.6017 63.5278 29.2251C63.9725 27.8484 65.2826 26.9593 66.7009 27.0717C72.1828 28.8347 76.0849 33.7852 76.5906 39.6189C76.6943 40.4346 76.4725 41.2585 75.975 41.9062C75.4774 42.5539 74.7457 42.9713 73.9436 43.0647C72.2598 43.2864 70.7162 42.0819 70.4876 40.368Z" fill="white"/>
</svg>
