<svg width="101" height="100" viewBox="0 0 101 100" fill="none" xmlns="http://www.w3.org/2000/svg">
<path fill-rule="evenodd" clip-rule="evenodd" d="M66.1133 8.33252H34.8924C18.8758 8.33252 8.83412 18.3034 8.83412 34.3867V44.0617C8.82995 45.82 10.2549 47.2492 12.0133 47.2492H12.0216H12.0591C13.7966 47.2492 15.2091 45.8409 15.2091 44.0992V44.0242V34.3867C15.2091 21.7075 22.2091 14.7075 34.8883 14.7075H66.1133C78.8341 14.7075 85.7924 21.7075 85.7924 34.3867V65.6367C85.7924 78.3159 78.7924 85.2784 66.1133 85.2784H34.8924C22.1758 85.2784 15.2133 78.2784 15.2133 65.6367C15.2133 63.8784 13.7841 62.4492 12.0258 62.4492C10.2633 62.4492 8.83828 63.8784 8.83828 65.6367C8.83412 81.6992 18.8008 91.6659 34.8508 91.6659H66.1133C82.2008 91.6659 92.1674 81.6992 92.1674 65.6492V34.3992C92.1674 18.3034 82.2008 8.33252 66.1133 8.33252ZM50.478 68.9404C48.7529 68.9404 47.3529 67.5404 47.3529 65.8154V47.3987C47.3529 45.6737 48.7529 44.2737 50.478 44.2737C52.2029 44.2737 53.603 45.6737 53.603 47.3987V65.8154C53.603 67.5404 52.2029 68.9404 50.478 68.9404ZM50.4791 37.3079H50.5208C52.2458 37.3079 53.6458 35.9079 53.6458 34.1829C53.6458 32.4579 52.2458 31.0579 50.5208 31.0579C48.7958 31.0579 47.375 32.4579 47.375 34.1829C47.375 35.9079 48.7541 37.3079 50.4791 37.3079Z" fill="white"/>
</svg>
