<svg width="101" height="100" viewBox="0 0 101 100" fill="none" xmlns="http://www.w3.org/2000/svg">
<path fill-rule="evenodd" clip-rule="evenodd" d="M50.5424 14.5833H50.4704C41.6151 14.5833 34.4031 21.6416 34.3607 30.35V35.9458H66.6351V30.4208C66.6351 21.6875 59.4145 14.5833 50.5424 14.5833ZM72.9875 30.4208V37.075C80.4875 39.6625 85.9167 46.6167 85.9167 54.8708V72.7417C85.9167 83.1792 77.2859 91.6667 66.6774 91.6667H66.5546H52.3422C50.589 91.6667 49.166 90.2667 49.166 88.5417C49.166 86.8167 50.589 85.4167 52.3422 85.4167H66.5546C73.6608 85.4167 79.4373 79.7333 79.4373 72.7417C79.4373 72.5893 79.4771 72.4513 79.5169 72.3133C79.5337 72.2551 79.5505 72.1968 79.5643 72.1375V54.8708C79.5643 47.8792 73.7836 42.1958 66.6774 42.1958H34.3226C27.2164 42.1958 21.4357 47.8792 21.4357 54.8708V72.1375C21.4493 72.2014 21.4667 72.264 21.4841 72.3267C21.5213 72.4603 21.5585 72.5942 21.5585 72.7417C21.5585 79.7333 27.3392 85.4167 34.4454 85.4167C36.1987 85.4167 37.6216 86.8167 37.6216 88.5417C37.6216 90.2667 36.1987 91.6667 34.4454 91.6667C34.4306 91.6667 34.4168 91.6646 34.4031 91.6625C34.3893 91.6604 34.3755 91.6583 34.3607 91.6583C34.3544 91.6583 34.348 91.6604 34.3417 91.6625C34.3353 91.6646 34.329 91.6667 34.3226 91.6667C23.7141 91.6667 15.0833 83.1792 15.0833 72.7417V54.8708C15.0833 46.6167 20.5083 39.6625 28.0083 37.075V30.4208C28.0634 18.1791 38.1256 8.33331 50.4577 8.33331H50.5551C62.9168 8.33331 72.9875 18.2416 72.9875 30.4208ZM53.6753 59.1784V68.4326C53.6753 70.1576 52.2524 71.5576 50.4991 71.5576C48.7459 71.5576 47.3229 70.1576 47.3229 68.4326V59.1784C47.3229 57.4534 48.7459 56.0534 50.4991 56.0534C52.2524 56.0534 53.6753 57.4534 53.6753 59.1784Z" fill="white"/>
</svg>
