<svg width="80" height="46" viewBox="0 0 80 46" fill="none" xmlns="http://www.w3.org/2000/svg">
<g filter="url(#filter0_bd)">
<path d="M45.64 34.96H39.4V43H27.82V34.96H5.62V27.22L24.46 0.999997H36.76L19.66 25.54H28.18V18.4H39.4V25.54H45.64V34.96ZM63.7131 16.3C69.5931 16.3 73.9331 17.5 76.7331 19.9C79.5731 22.3 80.9931 25.5 80.9931 29.5C80.9931 32.1 80.3131 34.5 78.9531 36.7C77.6331 38.86 75.5931 40.6 72.8331 41.92C70.1131 43.2 66.7331 43.84 62.6931 43.84C59.7331 43.84 56.7931 43.48 53.8731 42.76C50.9931 42.04 48.5131 41.02 46.4331 39.7L50.6931 30.76C52.3731 31.88 54.2131 32.74 56.2131 33.34C58.2531 33.94 60.2931 34.24 62.3331 34.24C64.3731 34.24 65.9931 33.86 67.1931 33.1C68.4331 32.3 69.0531 31.2 69.0531 29.8C69.0531 28.4 68.4531 27.34 67.2531 26.62C66.0531 25.9 63.9331 25.54 60.8931 25.54H49.4931L51.5931 0.999997H78.3531V10.18H61.4331L60.8931 16.3H63.7131Z" fill="url(#paint0_linear)"/>
<path d="M45.64 34.96V35.96H46.64V34.96H45.64ZM39.4 34.96V33.96H38.4V34.96H39.4ZM39.4 43V44H40.4V43H39.4ZM27.82 43H26.82V44H27.82V43ZM27.82 34.96H28.82V33.96H27.82V34.96ZM5.62 34.96H4.62V35.96H5.62V34.96ZM5.62 27.22L4.8079 26.6365L4.62 26.898V27.22H5.62ZM24.46 0.999997V-2.86102e-06H23.9472L23.6479 0.416476L24.46 0.999997ZM36.76 0.999997L37.5805 1.57171L38.6757 -2.86102e-06H36.76V0.999997ZM19.66 25.54L18.8395 24.9683L17.7443 26.54H19.66V25.54ZM28.18 25.54V26.54H29.18V25.54H28.18ZM28.18 18.4V17.4H27.18V18.4H28.18ZM39.4 18.4H40.4V17.4H39.4V18.4ZM39.4 25.54H38.4V26.54H39.4V25.54ZM45.64 25.54H46.64V24.54H45.64V25.54ZM45.64 33.96H39.4V35.96H45.64V33.96ZM38.4 34.96V43H40.4V34.96H38.4ZM39.4 42H27.82V44H39.4V42ZM28.82 43V34.96H26.82V43H28.82ZM27.82 33.96H5.62V35.96H27.82V33.96ZM6.62 34.96V27.22H4.62V34.96H6.62ZM6.4321 27.8035L25.2721 1.58352L23.6479 0.416476L4.8079 26.6365L6.4321 27.8035ZM24.46 2H36.76V-2.86102e-06H24.46V2ZM35.9395 0.428287L18.8395 24.9683L20.4805 26.1117L37.5805 1.57171L35.9395 0.428287ZM19.66 26.54H28.18V24.54H19.66V26.54ZM29.18 25.54V18.4H27.18V25.54H29.18ZM28.18 19.4H39.4V17.4H28.18V19.4ZM38.4 18.4V25.54H40.4V18.4H38.4ZM39.4 26.54H45.64V24.54H39.4V26.54ZM44.64 25.54V34.96H46.64V25.54H44.64ZM76.7331 19.9L76.0823 20.6593L76.0877 20.6638L76.7331 19.9ZM78.9531 36.7L78.1025 36.1742L78.0998 36.1786L78.9531 36.7ZM72.8331 41.92L73.2589 42.8248L73.2646 42.8221L72.8331 41.92ZM53.8731 42.76L53.6306 43.7301L53.6337 43.7309L53.8731 42.76ZM46.4331 39.7L45.5304 39.2698L45.1493 40.0696L45.8973 40.5443L46.4331 39.7ZM50.6931 30.76L51.2478 29.9279L50.2871 29.2875L49.7904 30.3298L50.6931 30.76ZM56.2131 33.34L55.9258 34.2978L55.931 34.2994L56.2131 33.34ZM67.1931 33.1L67.7282 33.9448L67.7353 33.9403L67.1931 33.1ZM67.2531 26.62L66.7386 27.4775H66.7386L67.2531 26.62ZM49.4931 25.54L48.4968 25.4547L48.4039 26.54H49.4931V25.54ZM51.5931 0.999997V-2.86102e-06H50.675L50.5968 0.914734L51.5931 0.999997ZM78.3531 0.999997H79.3531V-2.86102e-06H78.3531V0.999997ZM78.3531 10.18V11.18H79.3531V10.18H78.3531ZM61.4331 10.18V9.18H60.5175L60.437 10.0921L61.4331 10.18ZM60.8931 16.3L59.897 16.2121L59.801 17.3H60.8931V16.3ZM63.7131 17.3C69.4882 17.3 73.5443 18.4838 76.0823 20.6593L77.3839 19.1407C74.3219 16.5162 69.698 15.3 63.7131 15.3V17.3ZM76.0877 20.6638C78.6842 22.858 79.9931 25.769 79.9931 29.5H81.9931C81.9931 25.231 80.4621 21.742 77.3786 19.1362L76.0877 20.6638ZM79.9931 29.5C79.9931 31.9153 79.3643 34.133 78.1025 36.1742L79.8037 37.2258C81.2619 34.867 81.9931 32.2847 81.9931 29.5H79.9931ZM78.0998 36.1786C76.9 38.1419 75.024 39.7637 72.4017 41.0179L73.2646 42.8221C76.1623 41.4363 78.3662 39.5781 79.8064 37.2215L78.0998 36.1786ZM72.4073 41.0152C69.8581 42.2148 66.634 42.84 62.6931 42.84V44.84C66.8323 44.84 70.3682 44.1852 73.2589 42.8248L72.4073 41.0152ZM62.6931 42.84C59.8151 42.84 56.9555 42.4901 54.1125 41.7891L53.6337 43.7309C56.6308 44.4699 59.6511 44.84 62.6931 44.84V42.84ZM54.1157 41.7899C51.3189 41.0907 48.9422 40.1079 46.9689 38.8557L45.8973 40.5443C48.084 41.9321 50.6673 42.9893 53.6306 43.7301L54.1157 41.7899ZM47.3359 40.1302L51.5959 31.1902L49.7904 30.3298L45.5304 39.2698L47.3359 40.1302ZM50.1384 31.592C51.9036 32.7688 53.8342 33.6703 55.9258 34.2978L56.5005 32.3822C54.5921 31.8097 52.8426 30.9912 51.2478 29.9279L50.1384 31.592ZM55.931 34.2994C58.0587 34.9252 60.1936 35.24 62.3331 35.24V33.24C60.3926 33.24 58.4476 32.9548 56.4953 32.3806L55.931 34.2994ZM62.3331 35.24C64.4841 35.24 66.3127 34.8413 67.7282 33.9448L66.6581 32.2552C65.6735 32.8787 64.2621 33.24 62.3331 33.24V35.24ZM67.7353 33.9403C69.2422 32.9681 70.0531 31.5612 70.0531 29.8H68.0531C68.0531 30.8388 67.6241 31.6319 66.651 32.2597L67.7353 33.9403ZM70.0531 29.8C70.0531 28.0489 69.269 26.6633 67.7676 25.7625L66.7386 27.4775C67.6373 28.0167 68.0531 28.7511 68.0531 29.8H70.0531ZM67.7676 25.7625C66.3137 24.8901 63.9475 24.54 60.8931 24.54V26.54C63.9187 26.54 65.7926 26.9099 66.7386 27.4775L67.7676 25.7625ZM60.8931 24.54H49.4931V26.54H60.8931V24.54ZM50.4895 25.6253L52.5895 1.08526L50.5968 0.914734L48.4968 25.4547L50.4895 25.6253ZM51.5931 2H78.3531V-2.86102e-06H51.5931V2ZM77.3531 0.999997V10.18H79.3531V0.999997H77.3531ZM78.3531 9.18H61.4331V11.18H78.3531V9.18ZM60.437 10.0921L59.897 16.2121L61.8893 16.3879L62.4293 10.2679L60.437 10.0921ZM60.8931 17.3H63.7131V15.3H60.8931V17.3Z" fill="white"/>
</g>
<defs>
<filter id="filter0_bd" x="-95.3799" y="-100" width="277.373" height="244.84" filterUnits="userSpaceOnUse" color-interpolation-filters="sRGB">
<feFlood flood-opacity="0" result="BackgroundImageFix"/>
<feGaussianBlur in="BackgroundImage" stdDeviation="50"/>
<feComposite in2="SourceAlpha" operator="in" result="effect1_backgroundBlur"/>
<feColorMatrix in="SourceAlpha" type="matrix" values="0 0 0 0 0 0 0 0 0 0 0 0 0 0 0 0 0 0 127 0" result="hardAlpha"/>
<feOffset dy="4"/>
<feGaussianBlur stdDeviation="2"/>
<feColorMatrix type="matrix" values="0 0 0 0 0 0 0 0 0 0 0 0 0 0 0 0 0 0 0.25 0"/>
<feBlend mode="normal" in2="effect1_backgroundBlur" result="effect2_dropShadow"/>
<feBlend mode="normal" in="SourceGraphic" in2="effect2_dropShadow" result="shape"/>
</filter>
<linearGradient id="paint0_linear" x1="4" y1="-8.34734" x2="75.4941" y2="39.4757" gradientUnits="userSpaceOnUse">
<stop stop-color="#6AB972"/>
<stop offset="1" stop-color="#4F934A"/>
</linearGradient>
</defs>
</svg>
