<svg width="101" height="100" viewBox="0 0 101 100" fill="none" xmlns="http://www.w3.org/2000/svg">
<path fill-rule="evenodd" clip-rule="evenodd" d="M15.0829 58.1204C15.0829 59.8028 13.6829 61.1684 11.9582 61.1684C10.2336 61.1684 8.83354 59.8028 8.83354 58.1204V27.9765C8.83354 18.294 16.909 10.4166 26.839 10.4166H46.6138C56.5641 10.4166 64.6598 18.3138 64.6598 28.02V31.7054C64.6598 33.3838 63.2598 34.7495 61.5351 34.7495C59.8105 34.7495 58.4105 33.3838 58.4105 31.7054V28.02C58.4105 21.6706 53.1188 16.5127 46.6138 16.5127H26.839C20.3543 16.5127 15.0829 21.6587 15.0829 27.9765V58.1204ZM58.4103 68.2986C58.4103 66.6162 59.8103 65.2506 61.5349 65.2506C63.2596 65.2506 64.6596 66.6162 64.6596 68.2986V72.0235C64.6596 81.706 56.5841 89.5834 46.6542 89.5834H26.8753C16.9291 89.5834 8.83334 81.6862 8.83334 71.98C8.83334 70.2976 10.2334 68.9359 11.958 68.9359C13.6827 68.9359 15.0827 70.2976 15.0827 71.98C15.0827 78.3294 20.3744 83.4873 26.8753 83.4873H46.6542C53.1389 83.4873 58.4103 78.3453 58.4103 72.0235V68.2986ZM91.9305 48.8368C91.4476 47.6928 90.3073 46.9487 89.0412 46.9487H40.288C38.5634 46.9487 37.1593 48.3183 37.1593 50.0006C37.1593 51.683 38.5634 53.0487 40.288 53.0487H81.477L74.9801 59.3585C73.7546 60.5461 73.7546 62.4739 74.972 63.6693C75.5807 64.2671 76.3842 64.5679 77.1836 64.5679C77.9831 64.5679 78.7784 64.2671 79.3912 63.6772L91.2487 52.162C92.1415 51.2911 92.4134 49.9769 91.9305 48.8368ZM80.1742 44.4196C79.3788 44.4196 78.5834 44.1227 77.9747 43.5369L74.984 40.6511C73.7584 39.4675 73.7503 37.5358 74.9637 36.3443C76.1811 35.1409 78.1533 35.133 79.3829 36.3205L82.3696 39.2023C83.5992 40.3899 83.6073 42.3176 82.3939 43.5131C81.7812 44.1148 80.9777 44.4196 80.1742 44.4196Z" fill="white"/>
</svg>
