<svg width="101" height="100" viewBox="0 0 101 100" fill="none" xmlns="http://www.w3.org/2000/svg">
<path d="M52.5971 63.8458C54.2061 64.2619 55.8147 64.678 57.3684 64.9569C58.922 65.2358 60.4201 65.3774 61.838 65.4041C63.256 65.4307 64.5933 65.3425 66.0231 65.1586C67.4529 64.9746 69.0042 64.6897 70.2655 64.3908C71.5269 64.0919 72.5566 63.7683 73.5329 63.4004C74.5093 63.0326 75.4314 62.6207 76.2463 62.2234C77.0612 61.8261 77.7683 61.4437 78.6055 60.918C79.4427 60.3924 80.4097 59.7238 81.3418 58.9993C82.2739 58.2747 83.1704 57.4948 83.8527 56.847C84.5349 56.1993 85.0022 55.6845 85.5078 55.0914C86.0133 54.4984 86.5551 53.8295 86.8466 53.4637C87.1381 53.0979 87.176 53.0394 87.165 53.3749C87.1541 53.7104 87.0945 54.44 86.9778 55.252C86.8611 56.064 86.6832 56.979 86.4243 58.0195C86.1654 59.0601 85.8175 60.2671 85.4371 61.3801C85.0566 62.4932 84.6434 63.513 84.2522 64.3763C83.8609 65.2396 83.4912 65.9472 83.0782 66.7169C82.6651 67.4867 82.2085 68.3191 81.6868 69.1513C81.165 69.9834 80.5779 70.8158 79.8605 71.7416C79.1431 72.6675 78.2951 73.6871 77.3277 74.6958C76.3604 75.7045 75.2732 76.7027 74.0534 77.7093C72.8336 78.7158 71.4805 79.7311 70.1969 80.5549C68.9134 81.3787 67.6987 82.0115 66.5227 82.5926C65.3468 83.1737 64.209 83.7034 63.1252 84.13C62.0415 84.5566 61.0114 84.8804 59.7816 85.2114C58.5518 85.5424 57.1364 85.8774 55.7917 86.1218C54.4471 86.3663 53.2017 86.5134 52.0719 86.5898C50.942 86.6661 49.9272 86.6716 48.905 86.6642C47.8827 86.6569 46.8526 86.6366 45.8841 86.575C44.9157 86.5134 44.0086 86.4105 42.9094 86.2339C41.8103 86.0574 40.5188 85.8072 39.2428 85.4909C37.9669 85.1747 36.7062 84.7921 35.5456 84.3949C34.3849 83.9977 33.3241 83.5857 32.1865 83.0561C31.0489 82.5264 29.8344 81.8791 28.4738 81.0478C27.1133 80.2166 25.6067 79.2015 24.2615 78.1642C22.9164 77.127 21.7327 76.0677 20.595 74.8687C19.4574 73.6696 18.3659 72.3308 17.2974 70.8228C16.229 69.3147 15.1836 67.6376 14.3535 66.0634C13.5233 64.4891 12.9084 63.0179 12.3242 61.2083C11.74 59.3986 11.1866 57.2508 10.8637 55.0291C10.5409 52.8075 10.4487 50.5126 10.5255 48.3645C10.6024 46.2164 10.8488 44.2123 11.2176 42.4631C11.5863 40.714 12.0782 39.2135 12.7701 37.4773C13.4619 35.7412 14.3534 33.77 15.3528 32.0044C16.3521 30.2388 17.4589 28.6795 18.6888 27.2082C19.9188 25.7369 21.2713 24.3542 22.4091 23.2801C23.5469 22.206 24.4691 21.441 25.5761 20.6465C26.683 19.852 27.9742 19.0282 29.404 18.2337C30.8338 17.4392 32.4017 16.6743 34.2466 15.9534C36.0915 15.2324 38.2128 14.5557 40.1658 14.1109C42.1189 13.6661 43.9032 13.4532 44.7784 13.3726C45.6536 13.2919 45.6197 13.3437 45.4691 13.4532C45.3185 13.5627 45.0532 13.7285 44.697 13.9731C44.3408 14.2177 43.8954 14.5399 43.4333 14.9093C42.9712 15.2787 42.4931 15.6947 41.8108 16.358C41.1285 17.0214 40.2429 17.9313 39.5662 18.6622C38.8894 19.3931 38.4221 19.9443 37.9002 20.6883C37.3783 21.4323 36.8023 22.3682 36.2479 23.3879C35.6934 24.4075 35.1609 25.51 34.7477 26.5244C34.3346 27.5388 34.0412 28.4645 33.776 29.4167C33.5108 30.369 33.2693 31.367 33.084 32.501C32.8986 33.635 32.7693 34.8936 32.7258 36.0901C32.6823 37.2865 32.7258 38.4099 32.829 39.4503C32.9323 40.4907 33.0953 41.4477 33.2421 42.2279C33.3889 43.0082 33.5193 43.6115 33.7313 44.3607C33.9433 45.1098 34.2367 46.0043 34.5031 46.7065C34.7694 47.4088 35.0085 47.9185 35.3456 48.6104C35.6826 49.3022 36.1173 50.176 36.5981 50.9859C37.0788 51.7958 37.6392 52.5895 38.1828 53.3594" stroke="white" stroke-width="6" stroke-linecap="round" stroke-linejoin="bevel"/>
</svg>
