<svg width="101" height="100" viewBox="0 0 101 100" fill="none" xmlns="http://www.w3.org/2000/svg">
<path fill-rule="evenodd" clip-rule="evenodd" d="M83.1072 47.1221C84.7987 49.6683 85.769 52.6187 85.9167 55.6644L85.8058 56.4343C85.9332 60.6022 84.5421 64.6761 81.8873 67.9096C78.497 71.5678 73.8622 73.853 68.875 74.3255C56.5903 75.674 44.193 75.674 31.9083 74.3255C26.9939 73.8208 22.4398 71.5364 19.1178 67.9096C16.4192 64.7225 14.9864 60.6681 15.0884 56.5076V55.9943C15.2916 52.8575 16.3383 49.8319 18.1197 47.232L18.4154 46.8654C20.268 44.7806 21.5419 42.2537 22.1121 39.533V36.38V31.9805C22.6363 30.6561 23.99 29.8439 25.4162 29.9982C26.8424 30.1525 27.9877 31.235 28.2116 32.6405V36.3067V40.1929C28.226 40.3269 28.226 40.4621 28.2116 40.5962C27.4419 44.3785 25.6826 47.8934 23.1102 50.7883C22.1195 52.3533 21.5588 54.148 21.4836 55.9943V56.8009C21.4016 59.3977 22.268 61.9365 23.9235 63.95C26.2186 66.3012 29.2878 67.7581 32.5737 68.0562C44.4665 69.3394 56.4646 69.3394 68.3575 68.0562C71.7331 67.7489 74.8773 66.2224 77.1925 63.7667C78.7667 61.8007 79.5913 59.3471 79.5214 56.8376V55.9943C79.4456 54.1418 78.8988 52.3384 77.9318 50.7516C75.2524 47.8896 73.3896 44.3718 72.5347 40.5595C72.5203 40.4255 72.5203 40.2903 72.5347 40.1562V36.2334V32.5671C71.4627 21.4951 60.3357 14.6393 50.6504 14.6393C46.5327 14.6299 42.4828 15.6782 38.895 17.6823C37.9015 18.2745 36.6618 18.2836 35.6596 17.706C34.6574 17.1284 34.0517 16.0556 34.0788 14.9063C34.1059 13.757 34.7615 12.7135 35.7898 12.1829C40.2356 9.69201 45.2486 8.36705 50.3547 8.33337C63.1452 8.33337 77.4882 17.3523 79.1148 31.8339V36.16V39.3863C79.6701 42.1122 80.9459 44.6427 82.8115 46.7188C82.922 46.8442 83.021 46.9791 83.1072 47.1221ZM51.5483 85.1283C53.7206 84.8048 55.6729 83.6348 56.9719 81.8779H57.0089C58.1318 80.5314 60.1427 80.3427 61.5003 81.4563C62.858 82.57 63.0483 84.5643 61.9254 85.9108C59.1573 89.5008 54.8747 91.6245 50.3179 91.6667C45.7741 91.6132 41.5075 89.4907 38.7473 85.9108C37.6244 84.5643 37.8147 82.57 39.1724 81.4563C40.5301 80.3427 42.541 80.5314 43.6639 81.8779C44.157 82.5317 44.7421 83.112 45.4013 83.6011C47.1633 84.902 49.376 85.4518 51.5483 85.1283Z" fill="white"/>
</svg>
