<svg width="101" height="100" viewBox="0 0 101 100" fill="none" xmlns="http://www.w3.org/2000/svg">
<path fill-rule="evenodd" clip-rule="evenodd" d="M32.4394 8.33234H68.5603C82.6811 8.33234 92.1686 18.2407 92.1686 32.9823V67.0157C92.1686 81.7573 82.6769 91.6657 68.5561 91.6657H46.1394C44.4144 91.6657 43.0144 90.2657 43.0144 88.5407C43.0144 86.8157 44.4144 85.4157 46.1394 85.4157H68.5561C79.1019 85.4157 85.9186 78.1948 85.9186 67.0157V32.9823C85.9186 21.8032 79.1019 14.5823 68.5603 14.5823H32.4394C21.8978 14.5823 15.0853 21.8032 15.0853 32.9823V67.0157C15.0853 78.1948 21.8978 85.4157 32.4394 85.4157C34.1644 85.4157 35.5644 86.8157 35.5644 88.5407C35.5644 90.2657 34.1644 91.6657 32.4394 91.6657C18.3186 91.6657 8.83527 81.7573 8.83527 67.0157V32.9823C8.83527 18.2407 18.3186 8.33234 32.4394 8.33234ZM27.4478 45.5518C28.1561 43.9768 29.9978 43.2726 31.5811 43.9851C33.1561 44.6893 33.8561 46.5393 33.1478 48.1143C32.8811 48.7101 32.7478 49.3434 32.7478 49.9976C32.7478 52.5309 34.8061 54.5893 37.3353 54.5893C39.8686 54.5893 41.927 52.5309 41.927 49.9976C41.927 47.4684 39.8686 45.4101 37.3353 45.4101C35.6103 45.4101 34.2103 44.0101 34.2103 42.2851C34.2103 40.5601 35.6103 39.1601 37.3353 39.1601C42.2228 39.1601 46.3103 42.4268 47.6603 46.8726H71.377C73.102 46.8726 74.502 48.2726 74.502 49.9976V57.7143C74.502 59.4393 73.102 60.8393 71.377 60.8393C69.652 60.8393 68.252 59.4393 68.252 57.7143V53.1226H62.7145V57.7143C62.7145 59.4393 61.3145 60.8393 59.5895 60.8393C57.8645 60.8393 56.4645 59.4393 56.4645 57.7143V53.1226H47.6603C46.3103 57.5726 42.2228 60.8393 37.3353 60.8393C31.3603 60.8393 26.4978 55.9768 26.4978 49.9976C26.4978 48.4518 26.8145 46.9601 27.4478 45.5518Z" fill="white"/>
</svg>
