<svg width="101" height="100" viewBox="0 0 101 100" fill="none" xmlns="http://www.w3.org/2000/svg">
<path d="M91.1481 85.8606L76.8257 71.8577L76.49 71.3471C75.8658 70.7257 75.0124 70.3757 74.1216 70.3757C73.2307 70.3757 72.3773 70.7257 71.7531 71.3471C59.5812 82.5139 40.8256 83.1209 27.925 72.7655C15.0244 62.4102 11.982 44.3057 20.8154 30.4591C29.6488 16.6124 47.617 11.3202 62.8036 18.0923C77.9901 24.8643 85.6826 41.5992 80.7793 57.1984C80.4261 58.3253 80.7148 59.5508 81.5364 60.4132C82.3581 61.2757 83.5879 61.6441 84.7627 61.3796C85.9375 61.1151 86.8787 60.258 87.2318 59.1311C93.0933 40.6194 84.2406 20.6982 66.4005 12.2544C48.5604 3.81071 27.0868 9.37847 15.8711 25.3559C4.6553 41.3334 7.06326 62.9257 21.5372 76.1646C36.0112 89.4036 58.2074 90.3162 73.7672 78.3121L86.4486 90.7105C87.7583 91.9855 89.8757 91.9855 91.1854 90.7105C92.4938 89.4176 92.4938 87.3359 91.1854 86.0429L91.1481 85.8606Z" fill="white"/>
</svg>
