<svg width="101" height="100" viewBox="0 0 101 100" fill="none" xmlns="http://www.w3.org/2000/svg">
<path fill-rule="evenodd" clip-rule="evenodd" d="M81.7663 8.65537C84.6206 7.82506 87.7123 8.62602 89.8083 10.7605C91.9042 12.8908 92.6792 15.9982 91.825 18.8749L86.6206 36.3828C86.1248 38.0476 84.3914 38.9912 82.733 38.4963C81.0788 37.9973 80.1371 36.2444 80.6329 34.5838L85.8373 17.0717C86.129 16.0905 85.6081 15.4279 85.3706 15.1889C85.1331 14.9456 84.4664 14.4172 83.5039 14.6982L16.4557 34.1938C15.389 34.5041 15.1557 35.3974 15.1056 35.7664C15.0598 36.1354 15.0431 37.058 15.9932 37.6451L30.102 46.3256C31.5729 47.2314 32.0396 49.1688 31.1354 50.6533C30.5479 51.6178 29.5228 52.1546 28.4686 52.1546C27.9144 52.1546 27.3519 52.0078 26.8436 51.6933L12.7347 43.0086C9.9388 41.2892 8.47209 38.1944 8.9096 34.9277C9.34712 31.6567 11.5764 29.061 14.7223 28.1468L81.7663 8.65537ZM75.6175 51.4548C76.1176 49.7857 77.8551 48.838 79.5093 49.3412C81.1636 49.8403 82.1053 51.5931 81.6094 53.258L71.9341 85.8163C70.9966 88.9657 68.4048 91.1798 65.1672 91.595C64.8047 91.6453 64.4463 91.6663 64.088 91.6663C61.2629 91.6663 58.6795 90.2153 57.1752 87.7244L40.0913 59.435C39.3454 58.1937 39.5329 56.6002 40.5538 55.577L64.8088 31.1666C66.0297 29.9379 68.0048 29.9379 69.2257 31.1666C70.4465 32.3953 70.4465 34.3872 69.2257 35.6159L46.7082 58.2818L62.5171 84.4576C63.0921 85.4096 63.9963 85.4012 64.3713 85.3592C64.738 85.3089 65.6255 85.0825 65.9422 84.0173L75.6175 51.4548Z" fill="white"/>
</svg>
