<svg width="101" height="100" viewBox="0 0 101 100" fill="none" xmlns="http://www.w3.org/2000/svg">
<path fill-rule="evenodd" clip-rule="evenodd" d="M37.7577 28.6437C34.3274 30.5448 30.1198 30.5175 26.7158 28.572L26.5659 28.4256C25.0342 27.4958 24.5644 25.5296 25.5165 24.0339C26.4686 22.5381 28.4821 22.0793 30.0138 23.0091C30.6975 23.3987 31.4711 23.6127 32.2625 23.6313C33.4754 23.6808 34.6587 23.2573 35.5515 22.4541C36.4444 21.6508 36.9735 20.5339 37.0222 19.3493C36.9991 13.3977 41.8362 8.51188 47.9282 8.33337H53.0626C59.2722 8.33337 64.306 13.249 64.306 19.3127C64.2959 20.0845 64.5033 20.8442 64.9056 21.5086C65.5025 22.5372 66.4959 23.29 67.6645 23.5994C68.833 23.9087 70.0797 23.7489 71.1269 23.1555C76.4029 20.3508 83.0046 22.0914 86.118 27.1081C86.9785 28.639 86.4494 30.5602 84.9187 31.4632C83.3633 32.3304 81.3834 31.8267 80.4589 30.3287C79.1887 28.2162 76.4126 27.4976 74.2376 28.7184C70.796 30.5587 66.6208 30.5137 63.2216 28.5998C59.8223 26.6859 57.6908 23.1799 57.5975 19.3493C57.6381 18.1497 57.1783 16.9854 56.3234 16.123C55.4685 15.2605 54.2918 14.7739 53.0626 14.7746H47.9282C46.6958 14.7742 45.5155 15.2597 44.6547 16.1209C43.7939 16.9822 43.3256 18.1462 43.3559 19.3493C43.3212 23.2008 41.1879 26.7425 37.7577 28.6437ZM43.3558 80.7971C43.3764 83.2487 45.4175 85.2255 47.9281 85.2254L47.8906 85.2986C49.0555 85.2986 50.1319 85.9055 50.7144 86.8906C51.2968 87.8758 51.2968 89.0895 50.7144 90.0746C50.1319 91.0598 49.0555 91.6667 47.8906 91.6667C41.6811 91.6667 36.6473 86.751 36.6473 80.6873C36.6574 79.9155 36.45 79.1558 36.0477 78.4914C34.7902 76.3656 32.0111 75.63 29.8264 76.8445C24.5504 79.6492 17.9487 77.9086 14.8353 72.892L12.2868 68.5368C9.41462 63.3847 11.1971 56.938 16.3344 53.8977C17.0153 53.5065 17.5828 52.9523 17.9834 52.2874C18.735 51.2643 19.0051 49.9772 18.7262 48.7479C18.4472 47.5186 17.6456 46.4634 16.5218 45.8461C11.3845 42.8058 9.602 36.3591 12.4742 31.207C12.9547 30.5015 13.7035 30.0121 14.5546 29.8473C15.4057 29.6824 16.289 29.8557 17.009 30.3286C18.4311 31.273 18.8435 33.1414 17.9459 34.574C16.7055 36.6965 17.4602 39.399 19.6324 40.6126C21.2644 41.5892 22.6077 42.9641 23.5301 44.6018C26.4022 49.7539 24.6198 56.2006 19.4825 59.241C17.3103 60.4546 16.5556 63.1571 17.796 65.2796L20.382 69.6347C20.9704 70.6726 21.9668 71.4311 23.1411 71.735C24.3153 72.039 25.5657 71.862 26.6033 71.245C28.2762 70.2975 30.1785 69.8046 32.1125 69.8177C38.322 69.8177 43.3558 74.7334 43.3558 80.7971ZM84.6187 53.8613C83.5717 53.2722 82.8088 52.2994 82.4992 51.1588C82.1896 50.0182 82.359 48.8042 82.9697 47.786C83.3703 47.1211 83.9378 46.5669 84.6187 46.1757C86.1568 45.2734 86.6592 43.3271 85.743 41.8206C84.8325 40.3334 82.8891 39.8027 81.3207 40.6128C76.1834 43.6531 74.4009 50.0999 77.2731 55.252C78.1854 57.0519 79.6019 58.5621 81.3581 59.6071C82.4026 60.1891 83.1649 61.1553 83.4747 62.29C83.7846 63.4246 83.6162 64.6332 83.0072 65.6458L80.4587 70.0009C79.845 71.0201 78.8511 71.7677 77.6853 72.087C76.5175 72.3912 75.2732 72.2195 74.2374 71.6112C70.79 69.7682 66.6073 69.8168 63.2058 71.7395C59.8043 73.6621 57.6778 77.1797 57.5973 81.0169C57.7767 82.6535 59.191 83.8947 60.8766 83.8947C62.5621 83.8947 63.9764 82.6535 64.1559 81.0169C64.1249 79.4179 64.9864 77.9289 66.405 77.1297C67.8235 76.3305 69.5748 76.3475 70.9768 77.1741C76.2528 79.9788 82.8545 78.2382 85.9679 73.2215L88.5164 68.8664C91.6633 63.669 89.922 56.9655 84.6187 53.8613ZM50.4766 36.2574C44.7737 36.2575 39.633 39.6141 37.4541 44.7607C35.2752 49.9072 36.4877 55.8289 40.5257 59.7615C44.5636 63.6942 50.6308 64.8625 55.8953 62.721C61.1597 60.5796 64.5834 55.5507 64.5683 49.9816C64.5683 46.3354 63.0824 42.839 60.4387 40.2642C57.7949 37.6894 54.2105 36.2477 50.4766 36.2574ZM50.4768 57.3378C46.3371 57.3378 42.9812 54.0607 42.9812 50.0182C42.9812 45.9757 46.3371 42.6987 50.4768 42.6987C54.6165 42.6987 57.9723 45.9757 57.9723 50.0182C57.9723 54.0607 54.6165 57.3378 50.4768 57.3378Z" fill="white"/>
</svg>
