<svg width="101" height="100" viewBox="0 0 101 100" fill="none" xmlns="http://www.w3.org/2000/svg">
<path fill-rule="evenodd" clip-rule="evenodd" d="M53.0641 8.75211L80.7414 18.1977C83.8371 19.256 85.9167 22.1059 85.9167 25.2975V52.9677C85.9167 61.355 82.7995 69.4756 77.144 75.813C74.5542 78.717 71.2312 81.2128 66.9864 83.4461L52.0264 91.3001C51.5591 91.5417 51.0446 91.6667 50.5257 91.6667C50.0112 91.6667 49.4967 91.5417 49.0293 91.3001L34.0394 83.4419C29.786 81.2045 26.4587 78.7087 23.8732 75.8171C18.2091 69.4714 15.0833 61.3466 15.0833 52.951C15.0833 51.2594 16.4983 49.8844 18.2391 49.8844C19.9799 49.8844 21.3949 51.2594 21.3949 52.951C21.3949 59.8758 23.9675 66.5673 28.6369 71.8006C30.7164 74.1297 33.4649 76.1713 37.0365 78.0462L50.5257 85.1169L63.9849 78.0504C67.548 76.1796 70.2965 74.138 72.3803 71.8006C77.0411 66.5715 79.6094 59.8883 79.6094 52.9677V25.2975C79.6094 24.7059 79.2235 24.1809 78.6533 23.9851L50.976 14.5395C50.6715 14.4353 50.3328 14.4353 50.0241 14.5395L22.3511 23.9851C21.7808 24.1809 21.3949 24.7059 21.3949 25.2975V33.214C21.3949 34.9098 19.9799 36.2848 18.2391 36.2848C16.4983 36.2848 15.0833 34.9098 15.0833 33.214V25.2975C15.0833 22.1059 17.1672 19.256 20.2629 18.1977L47.936 8.75211C49.591 8.19379 51.4133 8.19379 53.0641 8.75211ZM47.5261 59.6564C46.6857 59.6564 45.8882 59.3314 45.2965 58.7564L37.3385 51.0233C36.1079 49.8233 36.1079 47.89 37.3385 46.69C38.5733 45.4901 40.5671 45.4901 41.7977 46.69L47.5261 52.2524L61.6842 38.4986C62.9148 37.3028 64.9128 37.3028 66.1434 38.4986C67.374 39.6944 67.374 41.636 66.1434 42.8318L49.7557 58.7564C49.164 59.3314 48.3622 59.6564 47.5261 59.6564Z" fill="white"/>
</svg>
