<svg width="101" height="100" viewBox="0 0 101 100" fill="none" xmlns="http://www.w3.org/2000/svg">
<path fill-rule="evenodd" clip-rule="evenodd" d="M53.0598 8.75211L80.7414 18.1977C83.8371 19.256 85.9167 22.1059 85.9167 25.2975V52.9677C85.9167 61.355 82.7995 69.4756 77.144 75.813C74.5499 78.717 71.2312 81.2128 66.9863 83.4461L52.0264 91.3001C51.5591 91.5417 51.0403 91.6667 50.5257 91.6667C50.0112 91.6667 49.4967 91.5417 49.0293 91.3001L34.0394 83.4419C29.786 81.2045 26.4587 78.7087 23.8732 75.8171C18.2091 69.4714 15.0833 61.3466 15.0833 52.951C15.0833 51.2594 16.4983 49.8844 18.2391 49.8844C19.9799 49.8844 21.3949 51.2594 21.3949 52.951C21.3949 59.8758 23.9675 66.5673 28.6369 71.8006C30.7164 74.1297 33.4649 76.1713 37.0365 78.0462L50.5257 85.1169L63.9849 78.0504C67.548 76.1796 70.2922 74.138 72.3803 71.8006C77.0411 66.5715 79.6094 59.8883 79.6094 52.9677V25.2975C79.6094 24.7059 79.2235 24.1809 78.6533 23.9851L50.976 14.5395C50.6715 14.4353 50.3328 14.4353 50.0241 14.5395L22.351 23.9851C21.7765 24.1809 21.3949 24.7059 21.3949 25.2975V33.214C21.3949 34.9098 19.9799 36.2848 18.2391 36.2848C16.4983 36.2848 15.0833 34.9098 15.0833 33.214V25.2975C15.0833 22.1059 17.1672 19.256 20.2629 18.1977L47.9359 8.75211C49.591 8.19379 51.4133 8.19379 53.0598 8.75211ZM42.5413 59.9129C41.7352 59.9129 40.9291 59.6129 40.3116 59.013C39.0811 57.8172 39.0811 55.8755 40.3116 54.6797L45.9843 49.1715L40.3116 43.655C39.0811 42.4592 39.0811 40.5259 40.3116 39.3218C41.5465 38.126 43.5403 38.126 44.7709 39.3218L50.4436 44.8383L56.1162 39.3218C57.3468 38.126 59.3406 38.126 60.5755 39.3218C61.806 40.5259 61.806 42.4592 60.5755 43.655L54.9028 49.1715L60.5755 54.6797C61.806 55.8755 61.806 57.8172 60.5755 59.013C59.958 59.6129 59.1519 59.9129 58.3458 59.9129C57.5355 59.9129 56.7294 59.6129 56.1162 59.013L50.4436 53.5048L44.7709 59.013C44.1534 59.6129 43.3474 59.9129 42.5413 59.9129Z" fill="white"/>
</svg>
