<svg width="101" height="100" viewBox="0 0 101 100" fill="none" xmlns="http://www.w3.org/2000/svg">
<path fill-rule="evenodd" clip-rule="evenodd" d="M52.1459 87.5H74.9084C84.425 87.5 92.1667 79.8291 92.1667 70.3952V59.248C92.1667 57.5388 90.7667 56.1516 89.0417 56.1516C85.6209 56.1516 82.8375 53.3937 82.8375 50.0041C82.8375 46.6146 85.6209 43.8567 89.0417 43.8567C89.8709 43.8567 90.6667 43.5305 91.25 42.9484C91.8375 42.3662 92.1667 41.5777 92.1667 40.7602L92.1625 29.6048C92.1625 20.1709 84.4167 12.5 74.9 12.5H26.1C16.5833 12.5 8.84168 20.1709 8.84168 29.6048L8.83334 41.1194C8.83334 41.9369 9.16251 42.7254 9.75001 43.3076C10.3333 43.8897 11.1292 44.2158 11.9583 44.2158C15.4958 44.2158 18.1625 46.7013 18.1625 50.0041C18.1625 53.3937 15.3792 56.1516 11.9583 56.1516C10.2333 56.1516 8.83334 57.5388 8.83334 59.248V70.3952C8.83334 79.8291 16.575 87.5 26.0958 87.5H33.5542C35.2792 87.5 36.6792 86.1128 36.6792 84.4035C36.6792 82.6943 35.2792 81.3071 33.5542 81.3071H26.0958C20.025 81.3071 15.0833 76.4106 15.0833 70.3952V61.9523C20.4458 60.5774 24.4125 55.7429 24.4125 50.0041C24.4125 44.3273 20.5083 39.6909 15.0875 38.3863L15.0917 29.6048C15.0917 23.5894 20.0292 18.6929 26.1 18.6929H74.9C80.9709 18.6929 85.9125 23.5894 85.9125 29.6048L85.9167 38.056C80.5542 39.4308 76.5875 44.2654 76.5875 50.0041C76.5875 55.7429 80.5584 60.5774 85.9167 61.9523V70.3952C85.9167 76.4106 80.9792 81.3071 74.9084 81.3071H52.1459C50.4209 81.3071 49.0209 82.6943 49.0209 84.4035C49.0209 86.1128 50.4209 87.5 52.1459 87.5ZM66.2891 45.5309C66.8672 46.1389 67.1747 46.9411 67.1665 47.7898C67.1542 48.6384 66.8262 49.4321 66.2317 50.0232L61.3688 54.9082L62.5169 61.7986C62.7793 63.3692 62.1642 64.9314 60.9096 65.8645C59.6508 66.8018 58.0271 66.9158 56.6535 66.1769L50.6426 62.9344L44.6316 66.1811C44.0535 66.502 43.4016 66.6667 42.7496 66.6667C41.8968 66.6667 41.0767 66.388 40.3797 65.8645C39.1291 64.9314 38.51 63.3692 38.7724 61.7986L39.9246 54.9082L35.0576 50.0232C33.9464 48.9128 33.5569 47.2789 34.0325 45.7589C34.5164 44.2432 35.7669 43.1581 37.3004 42.9344L44.0166 41.9253L47.0262 35.6513C47.7068 34.2242 49.0927 33.3376 50.6385 33.3333C52.1925 33.3333 53.5784 34.2158 54.2672 35.6428L57.5474 42.0857C58.3387 43.6479 57.7565 45.5732 56.2435 46.3838C55.5178 46.7807 54.6813 46.8525 53.8982 46.6076C53.1068 46.3542 52.4631 45.8012 52.0777 45.0496L50.7 42.3475L48.8344 46.2402C48.3834 47.1776 47.5182 47.832 46.5096 47.9797L42.4749 48.5835L45.3943 51.5221C46.1241 52.2483 46.4563 53.2996 46.284 54.334L45.5952 58.4758L49.2116 56.521C50.1137 56.0355 51.1879 56.0355 52.0818 56.521L55.6982 58.4758L55.0093 54.334C54.8371 53.2996 55.1692 52.2483 55.895 51.5178L61.9223 45.4718C62.5087 44.8892 63.3 44.5092 64.1037 44.5683C64.9319 44.5767 65.7068 44.9145 66.2891 45.5309Z" fill="white"/>
</svg>
