<svg width="101" height="100" viewBox="0 0 101 100" fill="none" xmlns="http://www.w3.org/2000/svg">
<path fill-rule="evenodd" clip-rule="evenodd" d="M92.1674 45.0913C92.1674 46.8288 90.7549 48.2413 89.0174 48.2413H88.9799V48.1663C87.2215 48.1663 85.7965 46.7454 85.7924 44.9871V44.9788V34.3871C85.7924 21.6663 78.834 14.7079 66.1507 14.7079H34.9007C22.209 14.7079 15.209 21.7079 15.209 34.3871V65.6371C15.209 78.2788 22.209 85.2788 34.8882 85.2788H66.1382C78.8174 85.2788 85.7799 78.2788 85.7799 65.6371C85.7799 63.8788 87.2049 62.4496 88.9674 62.4496C90.7299 62.4496 92.1549 63.8788 92.1549 65.6371C92.1674 81.6996 82.2007 91.6663 66.1507 91.6663H34.8882C18.8007 91.6663 8.83405 81.6996 8.83405 65.6496V34.3996C8.83405 18.2996 18.8007 8.33295 34.8882 8.33295H66.1382C82.1257 8.33295 92.1674 18.2996 92.1674 34.3871V45.0913ZM45.5573 55.4725L63.124 37.9017C64.3448 36.6809 66.324 36.6809 67.5448 37.9017C68.7657 39.1226 68.7657 41.1017 67.5448 42.3226L47.7657 62.1017C47.1782 62.6851 46.3823 63.0142 45.5573 63.0142C44.724 63.0142 43.9323 62.6851 43.3448 62.1017L33.4573 52.2101C32.2365 50.9892 32.2365 49.0101 33.4573 47.7892C34.6782 46.5684 36.6573 46.5684 37.8782 47.7892L45.5573 55.4725Z" fill="white"/>
</svg>
