<svg width="101" height="100" viewBox="0 0 101 100" fill="none" xmlns="http://www.w3.org/2000/svg">
<path fill-rule="evenodd" clip-rule="evenodd" d="M8.83252 49.9992C8.83252 27.02 27.5242 8.33252 50.4992 8.33252C73.4742 8.33252 92.1659 27.02 92.1659 49.9992C92.1659 72.9742 73.4742 91.6659 50.4992 91.6659C37.47 91.6659 25.4284 85.7367 17.47 75.4075C16.4492 74.0784 16.6992 72.1742 18.0242 71.1575C19.3492 70.1325 21.245 70.3867 22.27 71.7075C29.0742 80.5409 39.3617 85.6075 50.4992 85.6075C70.1325 85.6075 86.1075 69.6367 86.1075 49.9992C86.1075 30.3659 70.1325 14.3909 50.4992 14.3909C30.8659 14.3909 14.895 30.3659 14.895 49.9992C14.895 51.8242 15.0284 53.6367 15.2992 55.4117C15.5492 57.0617 14.4159 58.6075 12.7617 58.8617C11.0992 59.1367 9.56169 57.9825 9.31169 56.3284C8.99502 54.2534 8.83252 52.1242 8.83252 49.9992ZM46.0582 32.655C46.0582 30.98 47.4165 29.6216 49.0873 29.6216C50.7582 29.6216 52.1165 30.98 52.1165 32.655V51.1799L66.3832 59.6883C67.8207 60.5466 68.2915 62.4049 67.4332 63.8424C66.8707 64.7883 65.8623 65.3174 64.8332 65.3174C64.304 65.3174 63.7665 65.1799 63.2832 64.8924L47.5332 55.5008C46.6207 54.9508 46.0582 53.9633 46.0582 52.8966V32.655Z" fill="white"/>
</svg>
