<svg width="101" height="100" viewBox="0 0 101 100" fill="none" xmlns="http://www.w3.org/2000/svg">
<path fill-rule="evenodd" clip-rule="evenodd" d="M34.3619 35.9458H66.6805C77.2896 35.9458 85.9167 44.4333 85.9167 54.8708V72.7417C85.9167 83.1792 77.2896 91.6667 66.6805 91.6667H66.5577H52.3444C50.5911 91.6667 49.1681 90.2667 49.1681 88.5417C49.1681 86.8167 50.5911 85.4167 52.3444 85.4167H66.5577C73.6601 85.4167 79.4411 79.7333 79.4411 72.7417C79.4411 72.5929 79.479 72.4578 79.5165 72.3244C79.5336 72.2636 79.5506 72.203 79.5639 72.1417V54.8708C79.5639 47.8792 73.7871 42.1958 66.6805 42.1958H34.3195C27.2171 42.1958 21.4361 47.8792 21.4361 54.8708V72.1417C21.4494 72.203 21.4664 72.2636 21.4835 72.3244C21.521 72.4579 21.5589 72.5929 21.5589 72.7417C21.5589 79.7333 27.3399 85.4167 34.4466 85.4167C36.1999 85.4167 37.623 86.8167 37.623 88.5417C37.623 90.2667 36.1999 91.6667 34.4466 91.6667C34.4312 91.6667 34.4158 91.6644 34.401 91.6622C34.3873 91.6602 34.3741 91.6583 34.3619 91.6583C34.356 91.6583 34.3501 91.6601 34.3438 91.662C34.3365 91.6643 34.3286 91.6667 34.3195 91.6667C23.7104 91.6667 15.0833 83.1792 15.0833 72.7417V54.8708C15.0833 46.6208 20.5086 39.6625 28.0091 37.075V30.4208C28.0642 18.1791 38.1269 8.33331 50.4555 8.33331H50.5572C60.1075 8.33331 68.6329 14.3083 71.7627 23.1958C72.3345 24.8291 71.4578 26.6083 69.7976 27.175C68.1459 27.7416 66.3332 26.875 65.7572 25.2416C63.5168 18.8666 57.4012 14.5833 50.5402 14.5833H50.4725C41.6167 14.5833 34.4 21.6416 34.3619 30.35V35.9458ZM53.6766 59.1788V68.433C53.6766 70.158 52.2536 71.558 50.5002 71.558C48.7468 71.558 47.3238 70.158 47.3238 68.433V59.1788C47.3238 57.4538 48.7468 56.0538 50.5002 56.0538C52.2536 56.0538 53.6766 57.4538 53.6766 59.1788Z" fill="white"/>
</svg>
