<svg width="101" height="100" viewBox="0 0 101 100" fill="none" xmlns="http://www.w3.org/2000/svg">
<path fill-rule="evenodd" clip-rule="evenodd" d="M32.937 10.4167H68.0593C81.3519 10.4167 92.1667 21.4783 92.1667 35.0788V64.9212C92.1667 78.5218 81.3519 89.5834 68.0593 89.5834C66.5259 89.5834 65.2815 88.3101 65.2815 86.7412C65.2815 85.1724 66.5259 83.8991 68.0593 83.8991C78.2889 83.8991 86.6111 75.3878 86.6111 64.9212V41.1041H72.9296C68.437 41.1079 64.7741 44.852 64.7704 49.4524C64.7741 54.0529 68.437 57.7969 72.9296 57.8007H78.6148C80.1481 57.8007 81.3926 59.074 81.3926 60.6429C81.3926 62.2117 80.1481 63.485 78.6148 63.485H72.9296C65.3704 63.4812 59.2185 57.1868 59.2148 49.4524C59.2185 41.718 65.3704 35.4237 72.9296 35.4199H86.6111V35.0788C86.6111 24.6122 78.2889 16.101 68.0593 16.101H32.937C24.6926 16.101 17.7741 21.664 15.363 29.2847H51.9778C53.5111 29.2847 54.7556 30.5579 54.7556 32.1268C54.7556 33.6994 53.5111 34.9689 51.9778 34.9689H14.4C14.4 34.9879 14.3972 35.0059 14.3944 35.0239C14.3917 35.0419 14.3889 35.0599 14.3889 35.0788V64.9212C14.3889 75.3878 22.7074 83.8991 32.937 83.8991H50.6074C52.1407 83.8991 53.3852 85.1724 53.3852 86.7412C53.3852 88.3101 52.1407 89.5834 50.6074 89.5834H32.937C19.6444 89.5834 8.83333 78.5218 8.83333 64.9212V35.0788C8.83333 21.4783 19.6444 10.4167 32.937 10.4167ZM70.754 49.1963C70.754 47.6274 71.9985 46.3542 73.5318 46.3542H74.7948C76.3281 46.3542 77.5725 47.6274 77.5725 49.1963C77.5725 50.7652 76.3281 52.0384 74.7948 52.0384H73.5318C71.9985 52.0384 70.754 50.7652 70.754 49.1963Z" fill="white"/>
</svg>
